<svg fill="none" height="40" viewBox="0 0 41 40" width="41" xmlns="http://www.w3.org/2000/svg"><path d="m29.7873 25.4665 3.0349-2.0169 4.2224 2.4693c.7414.4273 1.2755.842 1.6023 1.2442.3267.3895.4901.8482.4901 1.376 0 .5153-.1634.9739-.4901 1.3761-.3268.3895-.8609.798-1.6023 1.2252l-13.8926 8.0679c-.4524.2639-.8671.4587-1.2441.5843-.377.1383-.7477.2074-1.1121.2074-.3645 0-.7352-.0691-1.1122-.2074-.3644-.1256-.7791-.3204-1.2441-.5843l-13.89254-8.0679c-.74144-.4272-1.27553-.8357-1.60227-1.2252-.32673-.4022-.4901-.8608-.4901-1.3761 0-.5278.16337-.9865.4901-1.376.32674-.4022.86083-.8169 1.60227-1.2442l4.48633-2.6013 3.22341 1.885-5.54198 3.148c-.08797.0503-.13195.1131-.13195.1885 0 .0628.04398.1194.13195.1697l13.32708 7.6154c.289.1508.5403.2262.754.2262.2262 0 .4838-.0754.7728-.2262l13.3271-7.6154c.088-.0503.1319-.1069.1319-.1697 0-.0754-.0439-.1382-.1319-.1885zm-.3582-8.4825 3.0726-1.9981 4.5429 2.6578c.7414.4273 1.2755.842 1.6023 1.2441.3267.3896.4901.8483.4901 1.3761s-.1634.9865-.4901 1.3761c-.3268.3895-.8609.8042-1.6023 1.2441l-13.8926 8.0678c-.4524.2514-.8671.4462-1.2441.5844-.377.1257-.7477.1885-1.1121.1885-.3645 0-.7352-.0628-1.1122-.1885-.3644-.1382-.7791-.333-1.2441-.5844l-13.89254-8.0678c-.74144-.4399-1.27553-.8546-1.60227-1.2441-.32673-.3896-.4901-.8483-.4901-1.3761s.16337-.9865.4901-1.3761c.32674-.4021.86083-.8168 1.60227-1.2441l4.91988-2.8463 3.11026 1.9415-5.86238 3.3365c-.08797.0503-.13195.1131-.13195.1885 0 .0628.04398.1194.13195.1697l13.32708 7.6154c.289.1508.5403.2262.754.2262.2262 0 .4838-.0754.7728-.2262l13.3271-7.6154c.088-.0503.1319-.1069.1319-.1697 0-.0754-.0439-.1382-.1319-.1885zm-8.6333 5.9378c-.3645 0-.7352-.0629-1.1122-.1885-.3644-.1257-.7791-.3205-1.2441-.5844l-13.89254-8.0678c-.74144-.4399-1.27553-.8546-1.60227-1.2442-.32673-.3895-.4901-.8482-.4901-1.376 0-.5404.16337-1.0054.4901-1.3949.32674-.38959.86083-.8043 1.60227-1.24413l13.89254-8.067864c.465-.263902.8797-.452404 1.2441-.565505.377-.1256672.7477-.188501 1.1122-.188501.3644 0 .7351.0628338 1.1121.188501.377.113101.7917.301603 1.2441.565505l13.8926 8.067864c.7414.43983 1.2755.85454 1.6023 1.24413.3267.3895.4901.8545.4901 1.3949 0 .5278-.1634.9865-.4901 1.376-.3268.3896-.8609.8043-1.6023 1.2442l-13.8926 8.0678c-.4524.2639-.8671.4587-1.2441.5844-.377.1256-.7477.1885-1.1121.1885zm0-3.4496c.2262 0 .4838-.0817.7728-.2451l13.3271-7.6154c.088-.0377.1319-.088.1319-.1508 0-.0754-.0439-.132-.1319-.1697l-13.3271-7.61542c-.289-.16337-.5466-.24505-.7728-.24505-.2137 0-.465.08168-.754.24505l-13.32708 7.61542c-.08797.0377-.13195.0943-.13195.1697 0 .0628.04398.1131.13195.1508l13.32708 7.6154c.289.1634.5403.2451.754.2451z" fill="#fff"/></svg>