<svg width="180" height="180" viewBox="0 0 180 180" fill="none" xmlns="http://www.w3.org/2000/svg">
<rect width="180" height="180" fill="black" style="fill:black;fill-opacity:1;"/>
<path d="M118.535 106.441L126.387 101.285L140.156 109.371C142.227 110.543 143.711 111.676 144.609 112.77C145.508 113.863 145.957 115.113 145.957 116.52C145.957 117.926 145.508 119.176 144.609 120.27C143.711 121.324 142.227 122.457 140.156 123.668L96.5039 149.039C95.2539 149.742 94.1016 150.27 93.0469 150.621C92.0312 150.973 90.9961 151.148 89.9414 151.148C88.8867 151.148 87.8516 150.973 86.8359 150.621C85.8203 150.27 84.668 149.742 83.3789 149.039L39.7266 123.668C37.6562 122.457 36.1719 121.324 35.2734 120.27C34.375 119.176 33.9258 117.926 33.9258 116.52C33.9258 115.113 34.375 113.863 35.2734 112.77C36.1719 111.676 37.6562 110.543 39.7266 109.371L54.1406 100.992L62.5781 105.738L44.8828 115.816C44.5703 116.012 44.4141 116.246 44.4141 116.52C44.4141 116.793 44.5703 117.027 44.8828 117.223L87.5977 141.656C88.4961 142.164 89.2773 142.418 89.9414 142.418C90.6055 142.418 91.4062 142.164 92.3438 141.656L135.059 117.223C135.371 117.027 135.527 116.793 135.527 116.52C135.527 116.246 135.371 116.012 135.059 115.816L118.535 106.441ZM117.305 79.957L125.098 74.8594L140.156 83.5898C142.227 84.8008 143.711 85.9531 144.609 87.0469C145.508 88.1016 145.957 89.3516 145.957 90.7969C145.957 92.2031 145.508 93.4531 144.609 94.5469C143.711 95.6016 142.227 96.7344 140.156 97.9453L96.5039 123.316C95.2539 123.98 94.1016 124.488 93.0469 124.84C92.0312 125.191 90.9961 125.367 89.9414 125.367C88.8867 125.367 87.8516 125.191 86.8359 124.84C85.8203 124.488 84.668 123.98 83.3789 123.316L39.7266 97.9453C37.6562 96.7344 36.1719 95.6016 35.2734 94.5469C34.375 93.4531 33.9258 92.2031 33.9258 90.7969C33.9258 89.3516 34.375 88.1016 35.2734 87.0469C36.1719 85.9531 37.6562 84.8008 39.7266 83.5898L55.7812 74.332L63.8672 79.2539L44.8828 90.0938C44.5703 90.25 44.4141 90.4844 44.4141 90.7969C44.4141 91.0312 44.5703 91.2461 44.8828 91.4414L87.5977 115.875C88.4961 116.383 89.2773 116.637 89.9414 116.637C90.6055 116.637 91.4062 116.383 92.3438 115.875L135.059 91.4414C135.371 91.2461 135.527 91.0312 135.527 90.7969C135.527 90.4844 135.371 90.25 135.059 90.0938L117.305 79.957ZM89.9414 98.0039C88.8867 98.0039 87.8516 97.8281 86.8359 97.4766C85.8203 97.125 84.668 96.5977 83.3789 95.8945L39.7266 70.5234C37.6562 69.3125 36.1719 68.1797 35.2734 67.125C34.375 66.0703 33.9258 64.8203 33.9258 63.375C33.9258 61.9297 34.375 60.6797 35.2734 59.625C36.1719 58.5703 37.6562 57.418 39.7266 56.168L83.3789 30.8555C84.668 30.1133 85.8203 29.5859 86.8359 29.2734C87.8516 28.9219 88.8867 28.7461 89.9414 28.7461C90.9961 28.7461 92.0312 28.9219 93.0469 29.2734C94.1016 29.5859 95.2539 30.1133 96.5039 30.8555L140.156 56.168C142.227 57.418 143.711 58.5703 144.609 59.625C145.508 60.6797 145.957 61.9297 145.957 63.375C145.957 64.8203 145.508 66.0703 144.609 67.125C143.711 68.1797 142.227 69.3125 140.156 70.5234L96.5039 95.8945C95.2539 96.5977 94.1016 97.125 93.0469 97.4766C92.0312 97.8281 90.9961 98.0039 89.9414 98.0039ZM89.9414 89.2148C90.6055 89.2148 91.4062 88.9805 92.3438 88.5117L135.059 64.0195C135.371 63.8633 135.527 63.6484 135.527 63.375C135.527 63.1016 135.371 62.8867 135.059 62.7305L92.3438 38.2383C91.4062 37.7305 90.6055 37.4766 89.9414 37.4766C89.2773 37.4766 88.4961 37.7305 87.5977 38.2383L44.8828 62.7305C44.5703 62.8867 44.4141 63.1016 44.4141 63.375C44.4141 63.6484 44.5703 63.8633 44.8828 64.0195L87.5977 88.5117C88.4961 88.9805 89.2773 89.2148 89.9414 89.2148Z" fill="white" style="fill:white;fill-opacity:1;"/>
</svg>
