<svg width="129" height="128" viewBox="0 0 129 128" fill="none" xmlns="http://www.w3.org/2000/svg">
<path d="M89.0225 0.0634766C90.5429 0.0634765 92.0636 0.0619689 93.584 0.0712891C94.8647 0.0792118 96.1454 0.0942681 97.4258 0.128906C100.214 0.204251 103.028 0.368083 105.786 0.863281C108.587 1.36612 111.193 2.18772 113.737 3.48242C116.236 4.75417 118.523 6.41553 120.506 8.39746C122.489 10.3794 124.151 12.6657 125.424 15.1641C126.718 17.7058 127.54 20.3091 128.043 23.1064C128.539 25.8641 128.703 28.6771 128.778 31.4658C128.813 32.7453 128.828 34.0255 128.836 35.3057C128.845 36.8252 128.845 38.3448 128.845 39.8643C128.845 39.8643 128.844 57.0926 128.844 57.3203V70.6797C128.844 70.9988 128.845 88.0441 128.845 88.1436C128.845 89.6652 128.845 91.1873 128.836 92.709C128.828 93.9906 128.814 95.2722 128.779 96.5537C128.704 99.3449 128.539 102.161 128.044 104.921C127.541 107.724 126.719 110.333 125.424 112.879C124.151 115.38 122.489 117.67 120.506 119.654C118.523 121.639 116.236 123.303 113.736 124.576C111.193 125.872 108.588 126.694 105.789 127.197C103.03 127.694 100.216 127.858 97.4258 127.934C96.1454 127.968 94.8647 127.983 93.584 127.991C92.0636 128.001 90.5429 127.999 89.0225 127.999L71.5576 128H40.8232C39.2998 128 37.7763 128.001 36.2529 127.991C34.9696 127.983 33.6862 127.968 32.4033 127.934C29.6093 127.858 26.7905 127.694 24.0273 127.198C21.2215 126.695 18.6098 125.873 16.0605 124.576C13.5566 123.303 11.2652 121.639 9.27832 119.654C7.29138 117.67 5.62561 115.38 4.35059 112.878C3.05376 110.333 2.23063 107.726 1.72656 104.925C1.22963 102.163 1.06475 99.3461 0.989258 96.5537C0.954621 95.2724 0.939407 93.9908 0.931641 92.709C0.922476 91.1873 0.923828 89.6652 0.923828 88.1436L0.844727 70.6797V40.2324C0.844742 38.7129 0.922317 36.8253 0.931641 35.3057C0.939408 34.0257 0.954773 32.7455 0.989258 31.4658C1.06491 28.6785 1.22919 25.8668 1.72559 23.1104C2.2298 20.3114 3.0536 17.7061 4.35156 15.1631C5.62643 12.6652 7.29154 10.3793 9.27832 8.39746C11.2654 6.41518 13.557 4.75336 16.0615 3.48145C18.6093 2.18767 21.2201 1.36692 24.0244 0.864258C26.7887 0.368502 29.6083 0.204247 32.4033 0.128906C33.6863 0.0942656 34.9695 0.0792114 36.2529 0.0712891C37.7763 0.0619691 39.2999 0.0634766 40.8232 0.0634766L58.165 0H71.3682L89.0225 0.0634766Z" fill="black" style="fill:black;fill-opacity:1;"/>
<path d="M41.46 49.2309L51.3061 39.3847V88.6155L41.46 98.4617V49.2309Z" fill="white" style="fill:white;fill-opacity:1;"/>
<path d="M61.1523 29.5386H90.6907L80.8446 39.3847L51.3061 39.3847L61.1523 29.5386Z" fill="white" style="fill:white;fill-opacity:1;"/>
<path d="M61.1619 59.077H80.8542L71.008 68.9231H51.3157L61.1619 59.077Z" fill="white" style="fill:white;fill-opacity:1;"/>
</svg>
