<svg width="64" height="64" viewBox="0 0 192 192" fill="none" xmlns="http://www.w3.org/2000/svg" style="background-color: transparent;">
  <path d="M126.438 112.938L134.812 107.438L149.5 116.062C151.708 117.312 153.292 118.521 154.25 119.688C155.208 120.854 155.688 122.188 155.688 123.688C155.688 125.188 155.208 126.521 154.25 127.688C153.292 128.812 151.708 130.021 149.5 131.312L102.938 158.375C101.604 159.125 100.375 159.688 99.25 160.062C98.1667 160.438 97.0625 160.625 95.9375 160.625C94.8125 160.625 93.7083 160.438 92.625 160.062C91.5417 159.688 90.3125 159.125 88.9375 158.375L42.375 131.312C40.1667 130.021 38.5833 128.812 37.625 127.688C36.6667 126.521 36.1875 125.188 36.1875 123.688C36.1875 122.188 36.6667 120.854 37.625 119.688C38.5833 118.521 40.1667 117.312 42.375 116.062L57.75 107.125L66.75 112.188L47.875 122.938C47.5417 123.146 47.375 123.396 47.375 123.688C47.375 123.979 47.5417 124.229 47.875 124.438L93.4375 150.5C94.3958 151.042 95.2292 151.312 95.9375 151.312C96.6458 151.312 97.5 151.042 98.5 150.5L144.062 124.438C144.396 124.229 144.562 123.979 144.562 123.688C144.562 123.396 144.396 123.146 144.062 122.938L126.438 112.938ZM125.125 84.6875L133.438 79.25L149.5 88.5625C151.708 89.8542 153.292 91.0833 154.25 92.25C155.208 93.375 155.688 94.7083 155.688 96.25C155.688 97.75 155.208 99.0833 154.25 100.25C153.292 101.375 151.708 102.583 149.5 103.875L102.938 130.938C101.604 131.646 100.375 132.188 99.25 132.562C98.1667 132.938 97.0625 133.125 95.9375 133.125C94.8125 133.125 93.7083 132.938 92.625 132.562C91.5417 132.188 90.3125 131.646 88.9375 130.938L42.375 103.875C40.1667 102.583 38.5833 101.375 37.625 100.25C36.6667 99.0833 36.1875 97.75 36.1875 96.25C36.1875 94.7083 36.6667 93.375 37.625 92.25C38.5833 91.0833 40.1667 89.8542 42.375 88.5625L59.5 78.6875L68.125 83.9375L47.875 95.5C47.5417 95.6667 47.375 95.9167 47.375 96.25C47.375 96.5 47.5417 96.7292 47.875 96.9375L93.4375 123C94.3958 123.542 95.2292 123.812 95.9375 123.812C96.6458 123.812 97.5 123.542 98.5 123L144.062 96.9375C144.396 96.7292 144.562 96.5 144.562 96.25C144.562 95.9167 144.396 95.6667 144.062 95.5L125.125 84.6875ZM95.9375 103.938C94.8125 103.938 93.7083 103.75 92.625 103.375C91.5417 103 90.3125 102.438 88.9375 101.688L42.375 74.625C40.1667 73.3333 38.5833 72.125 37.625 71C36.6667 69.875 36.1875 68.5417 36.1875 67C36.1875 65.4583 36.6667 64.125 37.625 63C38.5833 61.875 40.1667 60.6458 42.375 59.3125L88.9375 32.3125C90.3125 31.5208 91.5417 30.9583 92.625 30.625C93.7083 30.25 94.8125 30.0625 95.9375 30.0625C97.0625 30.0625 98.1667 30.25 99.25 30.625C100.375 30.9583 101.604 31.5208 102.938 32.3125L149.5 59.3125C151.708 60.6458 153.292 61.875 154.25 63C155.208 64.125 155.688 65.4583 155.688 67C155.688 68.5417 155.208 69.875 154.25 71C153.292 72.125 151.708 73.3333 149.5 74.625L102.938 101.688C101.604 102.438 100.375 103 99.25 103.375C98.1667 103.75 97.0625 103.938 95.9375 103.938ZM95.9375 94.5625C96.6458 94.5625 97.5 94.3125 98.5 93.8125L144.062 67.6875C144.396 67.5208 144.562 67.2917 144.562 67C144.562 66.7083 144.396 66.4792 144.062 66.3125L98.5 40.1875C97.5 39.6458 96.6458 39.375 95.9375 39.375C95.2292 39.375 94.3958 39.6458 93.4375 40.1875L47.875 66.3125C47.5417 66.4792 47.375 66.7083 47.375 67C47.375 67.2917 47.5417 67.5208 47.875 67.6875L93.4375 93.8125C94.3958 94.3125 95.2292 94.5625 95.9375 94.5625Z" fill="currentColor" />
</svg>