<svg width="192" height="192" viewBox="0 0 192 192" fill="none" xmlns="http://www.w3.org/2000/svg">
<path d="M131.787 117.23L143.866 109.212L160.672 119.028C163.623 120.726 165.749 122.375 167.049 123.973C168.35 125.522 169 127.345 169 129.443C169 131.491 168.35 133.314 167.049 134.913C165.749 136.461 163.623 138.085 160.672 139.783L105.378 171.853C103.578 172.902 101.927 173.676 100.427 174.176C98.926 174.725 97.4505 175 96 175C94.5495 175 93.074 174.725 91.5735 174.176C90.123 173.676 88.4724 172.902 86.6218 171.853L31.3279 139.783C28.3768 138.085 26.2511 136.461 24.9507 134.913C23.6502 133.314 23 131.491 23 129.443C23 127.345 23.6502 125.522 24.9507 123.973C26.2511 122.375 28.3768 120.726 31.3279 119.028L49.184 108.688L62.0134 116.18L39.9558 128.694C39.6057 128.893 39.4306 129.143 39.4306 129.443C39.4306 129.693 39.6057 129.918 39.9558 130.117L92.999 160.389C94.1494 160.988 95.1497 161.288 96 161.288C96.9003 161.288 97.9257 160.988 99.0761 160.389L152.119 130.117C152.469 129.918 152.644 129.693 152.644 129.443C152.644 129.143 152.469 128.893 152.119 128.694L131.787 117.23ZM130.362 83.5113L142.591 75.5688L160.672 86.1338C163.623 87.8322 165.749 89.4807 167.049 91.0792C168.35 92.6277 169 94.451 169 96.549C169 98.647 168.35 100.47 167.049 102.019C165.749 103.567 163.623 105.216 160.672 106.964L105.378 139.034C103.578 140.033 101.927 140.807 100.427 141.357C98.926 141.856 97.4505 142.106 96 142.106C94.5495 142.106 93.074 141.856 91.5735 141.357C90.123 140.807 88.4724 140.033 86.6218 139.034L31.3279 106.964C28.3768 105.216 26.2511 103.567 24.9507 102.019C23.6502 100.47 23 98.647 23 96.549C23 94.451 23.6502 92.6277 24.9507 91.0792C26.2511 89.4807 28.3768 87.8322 31.3279 86.1338L50.9096 74.8195L63.2888 82.5372L39.9558 95.7997C39.6057 95.9995 39.4306 96.2493 39.4306 96.549C39.4306 96.7988 39.6057 97.0236 39.9558 97.2234L92.999 127.495C94.1494 128.094 95.1497 128.394 96 128.394C96.9003 128.394 97.9257 128.094 99.0761 127.495L152.119 97.2234C152.469 97.0236 152.644 96.7988 152.644 96.549C152.644 96.2493 152.469 95.9995 152.119 95.7997L130.362 83.5113ZM96 107.114C94.5495 107.114 93.074 106.864 91.5735 106.365C90.123 105.865 88.4724 105.091 86.6218 104.042L31.3279 71.9722C28.3768 70.2238 26.2511 68.5754 24.9507 67.0269C23.6502 65.4783 23 63.655 23 61.557C23 59.409 23.6502 57.5608 24.9507 56.0123C26.2511 54.4637 28.3768 52.8153 31.3279 51.0669L86.6218 18.9972C88.4724 17.9482 90.123 17.1989 91.5735 16.7493C93.074 16.2498 94.5495 16 96 16C97.4505 16 98.926 16.2498 100.427 16.7493C101.927 17.1989 103.578 17.9482 105.378 18.9972L160.672 51.0669C163.623 52.8153 165.749 54.4637 167.049 56.0123C168.35 57.5608 169 59.409 169 61.557C169 63.655 168.35 65.4783 167.049 67.0269C165.749 68.5754 163.623 70.2238 160.672 71.9722L105.378 104.042C103.578 105.091 101.927 105.865 100.427 106.365C98.926 106.864 97.4505 107.114 96 107.114ZM96 93.402C96.9003 93.402 97.9257 93.0773 99.0761 92.4279L152.119 62.1565C152.469 62.0066 152.644 61.8068 152.644 61.557C152.644 61.2573 152.469 61.0325 152.119 60.8827L99.0761 30.6112C97.9257 29.9618 96.9003 29.6371 96 29.6371C95.1497 29.6371 94.1494 29.9618 92.999 30.6112L39.9558 60.8827C39.6057 61.0325 39.4306 61.2573 39.4306 61.557C39.4306 61.8068 39.6057 62.0066 39.9558 62.1565L92.999 92.4279C94.1494 93.0773 95.1497 93.402 96 93.402Z" fill="white" style="fill:white;fill-opacity:1;"/>
</svg>
