<svg width="40" height="40" viewBox="0 0 40 40" fill="none" xmlns="http://www.w3.org/2000/svg">
<g clip-path="url(#clip0_8695_38117)">
<path d="M20.5 38.4668C10.4805 38.4668 2.3418 30.3281 2.3418 20.3086C2.3418 10.2891 10.4805 2.15039 20.5 2.15039C30.5195 2.15039 38.6582 10.2891 38.6582 20.3086C38.6582 30.3281 30.5195 38.4668 20.5 38.4668ZM16.3516 29.3262C16.8965 29.8359 17.9688 29.8008 18.5312 29.2559L25.9844 22.2773C27.0918 21.2402 27.0918 19.4297 25.9844 18.3926L18.5312 11.4141C17.916 10.8164 16.9668 10.7988 16.3867 11.3438C15.7363 11.9414 15.7363 12.9609 16.3516 13.541L23.5762 20.3262L16.3516 27.1289C15.7539 27.709 15.7188 28.6758 16.3516 29.3262Z" fill="#323236" style="fill:#323236;fill:color(display-p3 0.1961 0.1961 0.2118);fill-opacity:1;"/>
</g>
<defs>
<clipPath id="clip0_8695_38117">
<rect width="40" height="40" fill="white" style="fill:white;fill-opacity:1;"/>
</clipPath>
</defs>
</svg>
