<svg width="17" height="17" viewBox="0 0 17 17" fill="none" xmlns="http://www.w3.org/2000/svg">
<g clip-path="url(#clip0_8751_38131)">
<path d="M2.83887 9.00684C2.83887 9.41357 2.97998 9.75391 3.32861 10.0859L9.604 16.2368C9.85303 16.4858 10.1602 16.6104 10.5254 16.6104C11.2559 16.6104 11.8535 16.021 11.8535 15.2905C11.8535 14.917 11.7041 14.585 11.4302 14.311L5.95996 8.99854L11.4302 3.69434C11.7041 3.42871 11.8535 3.08838 11.8535 2.72314C11.8535 2.00098 11.2559 1.40332 10.5254 1.40332C10.1602 1.40332 9.85303 1.52783 9.604 1.77686L3.32861 7.92773C2.98828 8.25146 2.83887 8.5918 2.83887 9.00684Z" fill="white" style="fill:white;fill-opacity:1;"/>
</g>
<defs>
<clipPath id="clip0_8751_38131">
<rect width="17" height="17" fill="white" style="fill:white;fill-opacity:1;"/>
</clipPath>
</defs>
</svg>
