<svg width="40" height="40" viewBox="0 0 40 40" fill="none" xmlns="http://www.w3.org/2000/svg">
<g clip-path="url(#clip0_8695_38118)">
<path d="M20.5 38.4668C10.4805 38.4668 2.3418 30.3281 2.3418 20.3086C2.3418 10.2891 10.4805 2.15039 20.5 2.15039C30.5195 2.15039 38.6582 10.2891 38.6582 20.3086C38.6582 30.3281 30.5195 38.4668 20.5 38.4668ZM24.0508 29.0801C24.6836 28.4648 24.6484 27.498 24.0684 26.9355L17.0195 20.3086L24.0684 13.7168C24.666 13.1543 24.6484 12.1523 24.0332 11.5723C23.4707 11.0273 22.5391 11.0449 21.9414 11.625L14.6816 18.4453C13.5918 19.4473 13.6094 21.2051 14.6816 22.207L21.9414 29.0273C22.4863 29.5547 23.541 29.5898 24.0508 29.0801Z" fill="#323236" style="fill:#323236;fill:color(display-p3 0.1961 0.1961 0.2118);fill-opacity:1;"/>
</g>
<defs>
<clipPath id="clip0_8695_38118">
<rect width="40" height="40" fill="white" style="fill:white;fill-opacity:1;"/>
</clipPath>
</defs>
</svg>
