<svg width="17" height="17" viewBox="0 0 17 17" fill="none" xmlns="http://www.w3.org/2000/svg">
<g clip-path="url(#clip0_8751_38132)">
<path d="M14.1611 9.00684C14.1611 9.41357 14.02 9.75391 13.6714 10.0859L7.396 16.2368C7.14697 16.4858 6.83984 16.6104 6.47461 16.6104C5.74414 16.6104 5.14648 16.021 5.14648 15.2905C5.14648 14.917 5.2959 14.585 5.56982 14.311L11.04 8.99854L5.56982 3.69434C5.2959 3.42871 5.14648 3.08838 5.14648 2.72314C5.14648 2.00098 5.74414 1.40332 6.47461 1.40332C6.83984 1.40332 7.14697 1.52783 7.396 1.77686L13.6714 7.92773C14.0117 8.25146 14.1611 8.5918 14.1611 9.00684Z" fill="white" style="fill:white;fill-opacity:1;"/>
</g>
<defs>
<clipPath id="clip0_8751_38132">
<rect width="17" height="17" fill="white" style="fill:white;fill-opacity:1;"/>
</clipPath>
</defs>
</svg>
