<svg width="15" height="13" viewBox="0 0 15 13" fill="none" xmlns="http://www.w3.org/2000/svg">
<path d="M4.42969 7.05469L2.54688 6.9375L5.17188 9.33594L6.92188 11.1172C7.04688 11.2344 7.11719 11.4219 7.11719 11.6094C7.11719 12 6.8125 12.2812 6.42969 12.2812C6.24219 12.2812 6.07812 12.2109 5.92188 12.0625L0.734375 6.88281C0.578125 6.73438 0.492188 6.55469 0.492188 6.35938C0.492188 6.16406 0.578125 5.98438 0.734375 5.83594L5.90625 0.671875C6.07812 0.5 6.24219 0.4375 6.42969 0.4375C6.8125 0.4375 7.11719 0.71875 7.11719 1.10938C7.11719 1.29688 7.04688 1.47656 6.92188 1.60156L5.17188 3.38281L2.54688 5.78125L4.42969 5.66406H14.3125C14.7188 5.66406 15 5.95312 15 6.35938C15 6.76562 14.7188 7.05469 14.3125 7.05469H4.42969Z" fill="#ECECED" style="fill:#ECECED;fill:color(display-p3 0.9255 0.9255 0.9294);fill-opacity:1;"/>
</svg>
