<svg width="12" height="15" viewBox="0 0 12 15" fill="none" xmlns="http://www.w3.org/2000/svg">
<path d="M1.33105 7.13965C1.49512 7.13965 1.65918 7.20117 1.76172 7.31055L3.32031 8.83496L5.37109 11.084L5.31641 9.62109V0.618164C5.31641 0.262695 5.56934 0.00976562 5.9248 0.00976562C6.28027 0.00976562 6.5332 0.262695 6.5332 0.618164V9.62109L6.48535 11.084L8.5293 8.83496L10.0879 7.31055C10.1904 7.20117 10.3545 7.13965 10.5186 7.13965C10.8604 7.13965 11.1064 7.39941 11.1064 7.74121C11.1064 7.89844 11.0518 8.04199 10.9219 8.18555L6.38281 12.7246C6.2666 12.8477 6.13672 12.916 5.99316 12.9297H10.5186C10.8672 12.9297 11.1064 13.1895 11.1064 13.5449C11.1064 13.9004 10.8672 14.1533 10.5186 14.1533H1.34473C0.989258 14.1533 0.743164 13.9004 0.743164 13.5449C0.743164 13.1895 0.989258 12.9297 1.34473 12.9297H5.86328C5.71973 12.916 5.58301 12.8477 5.4668 12.7246L0.93457 8.18555C0.804688 8.04199 0.743164 7.89844 0.743164 7.74121C0.743164 7.39941 0.989258 7.13965 1.33105 7.13965Z" fill="#14120B" style="fill:#14120B;fill:color(display-p3 0.0784 0.0706 0.0431);fill-opacity:1;"/>
</svg>
