<svg width="12" height="12" viewBox="0 0 12 12" fill="none" xmlns="http://www.w3.org/2000/svg">
<path d="M10.9258 6.52148C11.2305 6.52148 11.4414 6.30469 11.4414 6C11.4414 5.69531 11.2305 5.47852 10.9258 5.47852H3.51367L2.10156 5.56641L4.07031 3.76758L5.38281 2.43164C5.47656 2.33789 5.52344 2.20312 5.52344 2.0625C5.52344 1.76953 5.30078 1.55859 5.01367 1.55859C4.87305 1.55859 4.75 1.60547 4.62109 1.73438L0.736328 5.60742C0.619141 5.71875 0.560547 5.85352 0.560547 6C0.560547 6.14648 0.619141 6.28125 0.736328 6.39258L4.63281 10.2773C4.75 10.3887 4.87305 10.4414 5.01367 10.4414C5.30078 10.4414 5.52344 10.2305 5.52344 9.9375C5.52344 9.79688 5.47656 9.65625 5.38281 9.56836L4.07031 8.23242L2.10156 6.43359L3.51367 6.52148H10.9258Z" fill="#ECECED" style="fill:#ECECED;fill:color(display-p3 0.9255 0.9255 0.9294);fill-opacity:1;"/>
</svg>
