<svg width="15" height="13" viewBox="0 0 15 13" fill="none" xmlns="http://www.w3.org/2000/svg">
<path d="M1.17969 7.05469C0.773438 7.05469 0.492188 6.76562 0.492188 6.35938C0.492188 5.95312 0.773438 5.66406 1.17969 5.66406H11.0625L12.9453 5.78125L10.3203 3.38281L8.57031 1.60156C8.44531 1.47656 8.38281 1.29688 8.38281 1.10938C8.38281 0.71875 8.67969 0.4375 9.0625 0.4375C9.25 0.4375 9.41406 0.5 9.58594 0.671875L14.7656 5.83594C14.9219 5.98438 15 6.16406 15 6.35938C15 6.55469 14.9219 6.73438 14.7656 6.88281L9.57031 12.0625C9.41406 12.2109 9.25 12.2812 9.0625 12.2812C8.67969 12.2812 8.38281 12 8.38281 11.6094C8.38281 11.4219 8.44531 11.2344 8.57031 11.1172L10.3203 9.33594L12.9453 6.9375L11.0625 7.05469H1.17969Z" fill="#ECECED" style="fill:#ECECED;fill:color(display-p3 0.9255 0.9255 0.9294);fill-opacity:1;"/>
</svg>
