<svg width="12" height="12" viewBox="0 0 12 12" fill="none" xmlns="http://www.w3.org/2000/svg">
<path d="M1.07422 6.52148C0.769531 6.52148 0.558594 6.30469 0.558594 6C0.558594 5.69531 0.769531 5.47852 1.07422 5.47852H8.48633L9.89844 5.56641L7.92969 3.76758L6.61719 2.43164C6.52344 2.33789 6.47656 2.20312 6.47656 2.0625C6.47656 1.76953 6.69922 1.55859 6.98633 1.55859C7.12695 1.55859 7.25 1.60547 7.37891 1.73438L11.2637 5.60742C11.3809 5.71875 11.4395 5.85352 11.4395 6C11.4395 6.14648 11.3809 6.28125 11.2637 6.39258L7.36719 10.2773C7.25 10.3887 7.12695 10.4414 6.98633 10.4414C6.69922 10.4414 6.47656 10.2305 6.47656 9.9375C6.47656 9.79688 6.52344 9.65625 6.61719 9.56836L7.92969 8.23242L9.89844 6.43359L8.48633 6.52148H1.07422Z" fill="#ECECED" style="fill:#ECECED;fill:color(display-p3 0.9255 0.9255 0.9294);fill-opacity:1;"/>
</svg>
