<svg width="16" height="15" viewBox="0 0 16 15" fill="none" xmlns="http://www.w3.org/2000/svg">
<path d="M7.92383 14.6533C7.86914 14.6533 7.80078 14.6419 7.71875 14.6191C7.63672 14.5964 7.55241 14.5622 7.46582 14.5166C6.49512 13.9697 5.6748 13.4844 5.00488 13.0605C4.33952 12.6367 3.80404 12.2266 3.39844 11.8301C2.99284 11.4336 2.69889 11.0052 2.5166 10.5449C2.33431 10.0846 2.24316 9.54232 2.24316 8.91797V3.68848C2.24316 3.32845 2.31836 3.07096 2.46875 2.91602C2.6237 2.75651 2.84473 2.61751 3.13184 2.49902C3.29134 2.43066 3.51237 2.3418 3.79492 2.23242C4.07747 2.12305 4.38965 2.00456 4.73145 1.87695C5.07324 1.74935 5.41276 1.62402 5.75 1.50098C6.0918 1.37337 6.40397 1.26172 6.68652 1.16602C6.96908 1.06576 7.19238 0.992839 7.35645 0.947266C7.44759 0.924479 7.54102 0.901693 7.63672 0.878906C7.73242 0.85612 7.82812 0.844727 7.92383 0.844727C8.01953 0.844727 8.11523 0.85612 8.21094 0.878906C8.3112 0.897135 8.4069 0.919922 8.49805 0.947266C8.65755 1.00195 8.87858 1.07943 9.16113 1.17969C9.44368 1.27995 9.75586 1.3916 10.0977 1.51465C10.4395 1.6377 10.779 1.76302 11.1162 1.89062C11.458 2.01367 11.7702 2.12988 12.0527 2.23926C12.3353 2.34408 12.5563 2.43066 12.7158 2.49902C13.0075 2.62207 13.2285 2.76107 13.3789 2.91602C13.5293 3.07096 13.6045 3.32845 13.6045 3.68848V8.91797C13.6045 9.54232 13.5133 10.0869 13.3311 10.5518C13.1533 11.012 12.8617 11.4404 12.4561 11.8369C12.0505 12.2334 11.5127 12.6413 10.8428 13.0605C10.1774 13.4844 9.3571 13.9697 8.38184 14.5166C8.29525 14.5622 8.21094 14.5964 8.12891 14.6191C8.04688 14.6419 7.97852 14.6533 7.92383 14.6533ZM7.92383 13.416C7.97852 13.416 8.03776 13.4023 8.10156 13.375C8.16536 13.3522 8.2474 13.3112 8.34766 13.252C9.13607 12.7734 9.79688 12.361 10.3301 12.0146C10.8678 11.6683 11.2962 11.3402 11.6152 11.0303C11.9388 10.7204 12.1689 10.3809 12.3057 10.0117C12.4469 9.64258 12.5176 9.19368 12.5176 8.66504V3.90039C12.5176 3.78646 12.5016 3.69987 12.4697 3.64062C12.4424 3.58138 12.3831 3.53581 12.292 3.50391C12.0778 3.43099 11.8317 3.34668 11.5537 3.25098C11.2803 3.15072 10.9909 3.0459 10.6855 2.93652C10.3848 2.82715 10.0817 2.71777 9.77637 2.6084C9.47559 2.49447 9.18848 2.38737 8.91504 2.28711C8.6416 2.18229 8.40234 2.08887 8.19727 2.00684C8.14258 1.98405 8.09245 1.9681 8.04688 1.95898C8.0013 1.94987 7.96029 1.94531 7.92383 1.94531C7.88737 1.94531 7.84635 1.94987 7.80078 1.95898C7.75521 1.9681 7.70508 1.98405 7.65039 2.00684C7.44531 2.08887 7.20605 2.18001 6.93262 2.28027C6.65918 2.38053 6.36979 2.48535 6.06445 2.59473C5.75911 2.69954 5.45378 2.80664 5.14844 2.91602C4.8431 3.02539 4.55371 3.13021 4.28027 3.23047C4.00684 3.33073 3.76758 3.42188 3.5625 3.50391C3.4668 3.54036 3.40299 3.58822 3.37109 3.64746C3.34375 3.70215 3.33008 3.78646 3.33008 3.90039V8.66504C3.33008 9.19368 3.40072 9.64258 3.54199 10.0117C3.68327 10.3809 3.91341 10.7227 4.23242 11.0371C4.55143 11.347 4.97754 11.6751 5.51074 12.0215C6.0485 12.3633 6.71159 12.7734 7.5 13.252C7.60026 13.3112 7.68229 13.3522 7.74609 13.375C7.8099 13.4023 7.86914 13.416 7.92383 13.416ZM7.18555 10.6611C7.07161 10.6611 6.9668 10.6361 6.87109 10.5859C6.77995 10.5358 6.69108 10.4561 6.60449 10.3467L4.93652 8.2959C4.83171 8.15462 4.7793 8.01335 4.7793 7.87207C4.7793 7.72168 4.82943 7.59408 4.92969 7.48926C5.03451 7.37988 5.15983 7.3252 5.30566 7.3252C5.40137 7.3252 5.48796 7.3457 5.56543 7.38672C5.64746 7.42318 5.72949 7.49609 5.81152 7.60547L7.1582 9.34863L9.99512 4.7959C10.1227 4.59082 10.2822 4.48828 10.4736 4.48828C10.6149 4.48828 10.7425 4.53385 10.8564 4.625C10.9704 4.71615 11.0273 4.83691 11.0273 4.9873C11.0273 5.06478 11.0091 5.14225 10.9727 5.21973C10.9408 5.29264 10.9043 5.361 10.8633 5.4248L7.73926 10.3467C7.60254 10.5563 7.41797 10.6611 7.18555 10.6611Z" fill="#ECECED" fill-opacity="0.56" style="fill:#ECECED;fill:color(display-p3 0.9255 0.9255 0.9294);fill-opacity:0.56;"/>
</svg>
