<svg width="8" height="15" viewBox="0 0 8 15" fill="none" xmlns="http://www.w3.org/2000/svg">
<path d="M7.63281 7.35938C7.63281 7.55469 7.55469 7.72656 7.40625 7.875L1.21875 13.9297C1.07812 14.0703 0.90625 14.1406 0.703125 14.1406C0.304688 14.1406 -0.0078125 13.8359 -0.0078125 13.4297C-0.0078125 13.2266 0.0703125 13.0547 0.195312 12.9219L5.88281 7.35938L0.195312 1.79688C0.0703125 1.66406 -0.0078125 1.48438 -0.0078125 1.28906C-0.0078125 0.882812 0.304688 0.578125 0.703125 0.578125C0.90625 0.578125 1.07812 0.648438 1.21875 0.78125L7.40625 6.84375C7.55469 6.98438 7.63281 7.16406 7.63281 7.35938Z" fill="#ECECED" style="fill:#ECECED;fill:color(display-p3 0.9255 0.9255 0.9294);fill-opacity:1;"/>
</svg>
