<svg width="10" height="12" viewBox="0 0 10 12" fill="none" xmlns="http://www.w3.org/2000/svg">
<path d="M5.00098 8.3877C4.87728 8.3877 4.7666 8.34049 4.66895 8.24609L0.889648 4.37891C0.847331 4.33659 0.814779 4.28939 0.791992 4.2373C0.769206 4.18197 0.757812 4.12337 0.757812 4.06152C0.757812 3.97689 0.777344 3.90039 0.816406 3.83203C0.855469 3.76367 0.907552 3.70996 0.972656 3.6709C1.04102 3.63184 1.11751 3.6123 1.20215 3.6123C1.32585 3.6123 1.43164 3.65462 1.51953 3.73926L5.25977 7.5625H4.7373L8.47754 3.73926C8.56868 3.65462 8.67448 3.6123 8.79492 3.6123C8.87956 3.6123 8.95443 3.63184 9.01953 3.6709C9.08789 3.70996 9.1416 3.76367 9.18066 3.83203C9.21973 3.90039 9.23926 3.97689 9.23926 4.06152C9.23926 4.18197 9.19531 4.28613 9.10742 4.37402L5.32812 8.24609C5.28581 8.29167 5.23535 8.32747 5.17676 8.35352C5.12142 8.3763 5.06283 8.3877 5.00098 8.3877Z" fill="#EDECEC" style="fill:#EDECEC;fill:color(display-p3 0.9294 0.9255 0.9255);fill-opacity:1;"/>
</svg>
