<svg width="14" height="9" viewBox="0 0 14 9" fill="none" xmlns="http://www.w3.org/2000/svg">
<path d="M7.21875 8.52344C7.02083 8.52344 6.84375 8.44792 6.6875 8.29688L0.640625 2.10938C0.572917 2.04167 0.520833 1.96615 0.484375 1.88281C0.447917 1.79427 0.429688 1.70052 0.429688 1.60156C0.429688 1.46615 0.460938 1.34375 0.523438 1.23438C0.585938 1.125 0.669271 1.03906 0.773438 0.976562C0.882812 0.914062 1.00521 0.882812 1.14062 0.882812C1.33854 0.882812 1.50781 0.950521 1.64844 1.08594L7.63281 7.20312H6.79688L12.7812 1.08594C12.9271 0.950521 13.0964 0.882812 13.2891 0.882812C13.4245 0.882812 13.5443 0.914062 13.6484 0.976562C13.7578 1.03906 13.8438 1.125 13.9062 1.23438C13.9688 1.34375 14 1.46615 14 1.60156C14 1.79427 13.9297 1.96094 13.7891 2.10156L7.74219 8.29688C7.67448 8.36979 7.59375 8.42708 7.5 8.46875C7.41146 8.50521 7.31771 8.52344 7.21875 8.52344Z" fill="#ECECED" style="fill:#ECECED;fill:color(display-p3 0.9255 0.9255 0.9294);fill-opacity:1;"/>
</svg>
