<svg width="8" height="15" viewBox="0 0 8 15" fill="none" xmlns="http://www.w3.org/2000/svg">
<path d="M0 7.35938C0 7.16406 0.0703125 6.98438 0.21875 6.84375L6.41406 0.78125C6.54688 0.648438 6.71875 0.578125 6.92188 0.578125C7.32812 0.578125 7.64062 0.882812 7.64062 1.28906C7.64062 1.48438 7.55469 1.66406 7.42969 1.79688L1.74219 7.35938L7.42969 12.9219C7.55469 13.0547 7.64062 13.2266 7.64062 13.4297C7.64062 13.8359 7.32812 14.1406 6.92188 14.1406C6.71875 14.1406 6.54688 14.0703 6.41406 13.9297L0.21875 7.875C0.0703125 7.72656 0 7.55469 0 7.35938Z" fill="#ECECED" style="fill:#ECECED;fill:color(display-p3 0.9255 0.9255 0.9294);fill-opacity:1;"/>
</svg>
