<svg width="24" height="24" viewBox="0 0 24 24" fill="none" xmlns="http://www.w3.org/2000/svg">
<path d="M3.2793 20.377C2.26367 20.377 1.4987 20.123 0.984375 19.6152C0.470052 19.1074 0.212891 18.3522 0.212891 17.3496V6.56836C0.212891 5.55924 0.457031 4.80404 0.945312 4.30273C1.43359 3.79492 2.11393 3.54102 2.98633 3.54102H20.7109C21.7266 3.54102 22.4915 3.79492 23.0059 4.30273C23.5202 4.80404 23.7773 5.55924 23.7773 6.56836V17.3496C23.7773 18.3522 23.5332 19.1074 23.0449 19.6152C22.5566 20.123 21.8763 20.377 21.0039 20.377H3.2793ZM3.2207 18.8828H20.7598C21.248 18.8828 21.6224 18.7526 21.8828 18.4922C22.1497 18.2318 22.2832 17.8509 22.2832 17.3496V6.56836C22.2832 6.06706 22.1497 5.6862 21.8828 5.42578C21.6224 5.16536 21.248 5.03516 20.7598 5.03516H3.2207C2.73893 5.03516 2.36458 5.16536 2.09766 5.42578C1.83724 5.6862 1.70703 6.0638 1.70703 6.55859V17.3398C1.70703 17.8477 1.83724 18.2318 2.09766 18.4922C2.36458 18.7526 2.73893 18.8828 3.2207 18.8828ZM11.9902 14.5273C11.6777 14.5273 11.3717 14.4688 11.0723 14.3516C10.7728 14.2279 10.4831 14.0391 10.2031 13.7852L1.01367 5.51367L2.0293 4.48828L11.0527 12.623C11.3522 12.89 11.6647 13.0234 11.9902 13.0234C12.3223 13.0234 12.6348 12.89 12.9277 12.623L21.9512 4.48828L22.9668 5.51367L13.7773 13.7852C13.4974 14.0391 13.2077 14.2279 12.9082 14.3516C12.6087 14.4688 12.3027 14.5273 11.9902 14.5273ZM2.17578 19.127L1.16016 18.1016L8.09375 11.168L9.10938 12.1836L2.17578 19.127ZM21.8242 19.1367L14.8711 12.1836L15.8965 11.168L22.8398 18.1113L21.8242 19.1367Z" fill="#ECECED" style="fill:#ECECED;fill:color(display-p3 0.9255 0.9255 0.9294);fill-opacity:1;"/>
</svg>
