<svg width="14" height="12" viewBox="0 0 14 12" fill="none" xmlns="http://www.w3.org/2000/svg">
<g clip-path="url(#clip0_4507_10)">
<path d="M7 11.2998C6.6276 11.2998 6.27669 11.1709 5.94727 10.9131C5.62142 10.6553 5.33317 10.2936 5.08252 9.82812C4.83545 9.36263 4.6403 8.81657 4.49707 8.18994C4.35742 7.55973 4.2876 6.87402 4.2876 6.13281C4.2876 5.3916 4.35742 4.70589 4.49707 4.07568C4.6403 3.44189 4.83545 2.89225 5.08252 2.42676C5.32959 1.95768 5.61605 1.59424 5.94189 1.33643C6.27132 1.07861 6.62402 0.949707 7 0.949707C7.37598 0.949707 7.72689 1.07861 8.05273 1.33643C8.38216 1.59424 8.67041 1.95768 8.91748 2.42676C9.16813 2.89225 9.36328 3.44189 9.50293 4.07568C9.64258 4.70589 9.7124 5.3916 9.7124 6.13281C9.7124 6.87402 9.64079 7.55973 9.49756 8.18994C9.35791 8.81657 9.16276 9.36263 8.91211 9.82812C8.66504 10.2936 8.37679 10.6553 8.04736 10.9131C7.72152 11.1709 7.3724 11.2998 7 11.2998ZM7 10.6445C7.26139 10.6445 7.51204 10.5228 7.75195 10.2793C7.99186 10.0394 8.20492 9.70996 8.39111 9.29102C8.57731 8.86849 8.72412 8.38688 8.83154 7.84619C8.93896 7.3055 8.99268 6.73438 8.99268 6.13281C8.99268 5.52409 8.93896 4.94759 8.83154 4.40332C8.72412 3.85547 8.57731 3.37207 8.39111 2.95312C8.20492 2.53418 7.99186 2.20475 7.75195 1.96484C7.51204 1.72135 7.26139 1.59961 7 1.59961C6.73861 1.59961 6.48796 1.72135 6.24805 1.96484C6.00814 2.20475 5.79508 2.53418 5.60889 2.95312C5.42269 3.37207 5.27588 3.85547 5.16846 4.40332C5.06104 4.94759 5.00732 5.52409 5.00732 6.13281C5.00732 6.73438 5.06104 7.3055 5.16846 7.84619C5.27588 8.38688 5.42269 8.86849 5.60889 9.29102C5.79508 9.70996 6.00814 10.0394 6.24805 10.2793C6.48796 10.5228 6.73861 10.6445 7 10.6445ZM7 11.4448C6.90332 11.4448 6.82096 11.409 6.75293 11.3374C6.6849 11.2694 6.65088 11.187 6.65088 11.0903V1.20215C6.65088 1.10547 6.6849 1.02311 6.75293 0.955078C6.82096 0.883464 6.90332 0.847656 7 0.847656C7.09668 0.847656 7.17904 0.883464 7.24707 0.955078C7.31868 1.02311 7.35449 1.10547 7.35449 1.20215V11.0903C7.35449 11.187 7.31868 11.2694 7.24707 11.3374C7.17904 11.409 7.09668 11.4448 7 11.4448ZM3.65918 9.7207C3.5804 9.78158 3.49447 9.81559 3.40137 9.82275C3.31185 9.82633 3.23128 9.79411 3.15967 9.72607C3.09163 9.65804 3.05583 9.57747 3.05225 9.48438C3.05225 9.3877 3.08984 9.30534 3.16504 9.2373C3.40495 9.01888 3.72005 8.82731 4.11035 8.6626C4.50065 8.49788 4.94108 8.37077 5.43164 8.28125C5.92578 8.18815 6.44857 8.1416 7 8.1416C7.55143 8.1416 8.07422 8.18815 8.56836 8.28125C9.0625 8.37077 9.50293 8.49788 9.88965 8.6626C10.28 8.82731 10.595 9.01888 10.835 9.2373C10.9102 9.30534 10.946 9.3877 10.9424 9.48438C10.9424 9.57747 10.9084 9.65804 10.8403 9.72607C10.7687 9.79411 10.6864 9.82633 10.5933 9.82275C10.5037 9.81559 10.4196 9.78158 10.3408 9.7207C10.1009 9.53092 9.81445 9.37158 9.48145 9.24268C9.14844 9.11019 8.77246 9.01172 8.35352 8.94727C7.93815 8.87923 7.48698 8.84521 7 8.84521C6.51302 8.84521 6.06006 8.87923 5.64111 8.94727C5.22575 9.01172 4.85156 9.11019 4.51855 9.24268C4.18555 9.37158 3.89909 9.53092 3.65918 9.7207ZM2.16602 6.47119C2.06934 6.47119 1.98519 6.43717 1.91357 6.36914C1.84554 6.30111 1.81152 6.21875 1.81152 6.12207C1.81152 6.02539 1.84554 5.94303 1.91357 5.875C1.98519 5.80339 2.06934 5.76758 2.16602 5.76758H11.9414C12.0381 5.76758 12.1204 5.80339 12.1885 5.875C12.2601 5.94303 12.2959 6.02539 12.2959 6.12207C12.2959 6.21875 12.2601 6.30111 12.1885 6.36914C12.1204 6.43717 12.0381 6.47119 11.9414 6.47119H2.16602ZM7 4.12939C6.44857 4.12939 5.92578 4.08285 5.43164 3.98975C4.94108 3.89665 4.50065 3.76774 4.11035 3.60303C3.72005 3.43831 3.40495 3.24854 3.16504 3.03369C3.08984 2.96566 3.05225 2.88509 3.05225 2.79199C3.05583 2.69531 3.09163 2.61296 3.15967 2.54492C3.23128 2.47689 3.31185 2.44466 3.40137 2.44824C3.49447 2.45182 3.5804 2.48584 3.65918 2.55029C3.89909 2.74007 4.18555 2.9012 4.51855 3.03369C4.85156 3.1626 5.22575 3.26107 5.64111 3.3291C6.06006 3.39355 6.51302 3.42578 7 3.42578C7.48698 3.42578 7.93815 3.39355 8.35352 3.3291C8.77246 3.26107 9.14844 3.1626 9.48145 3.03369C9.81445 2.9012 10.1009 2.74007 10.3408 2.55029C10.4196 2.48584 10.5037 2.45182 10.5933 2.44824C10.6864 2.44466 10.7687 2.47689 10.8403 2.54492C10.9084 2.61296 10.9424 2.69531 10.9424 2.79199C10.946 2.88509 10.9102 2.96566 10.835 3.03369C10.595 3.24854 10.28 3.43831 9.88965 3.60303C9.50293 3.76774 9.0625 3.89665 8.56836 3.98975C8.07422 4.08285 7.55143 4.12939 7 4.12939ZM7 11.6006C6.24447 11.6006 5.53548 11.4574 4.87305 11.1709C4.21061 10.888 3.62874 10.4959 3.12744 9.99463C2.62614 9.49333 2.23226 8.91146 1.9458 8.24902C1.66292 7.58659 1.52148 6.8776 1.52148 6.12207C1.52148 5.36654 1.66292 4.65755 1.9458 3.99512C2.23226 3.33268 2.62614 2.75081 3.12744 2.24951C3.62874 1.74463 4.21061 1.35075 4.87305 1.06787C5.53548 0.784993 6.24447 0.643555 7 0.643555C7.75553 0.643555 8.46452 0.784993 9.12695 1.06787C9.78939 1.35075 10.3713 1.74463 10.8726 2.24951C11.3739 2.75081 11.766 3.33268 12.0488 3.99512C12.3353 4.65755 12.4785 5.36654 12.4785 6.12207C12.4785 6.8776 12.3353 7.58659 12.0488 8.24902C11.766 8.91146 11.3739 9.49333 10.8726 9.99463C10.3713 10.4959 9.78939 10.888 9.12695 11.1709C8.46452 11.4574 7.75553 11.6006 7 11.6006ZM7 10.8701C7.65527 10.8701 8.26937 10.7466 8.84229 10.4995C9.4152 10.2524 9.92008 9.91227 10.3569 9.479C10.7938 9.04215 11.134 8.53727 11.3774 7.96436C11.6245 7.39144 11.748 6.77734 11.748 6.12207C11.748 5.4668 11.6245 4.8527 11.3774 4.27979C11.134 3.70329 10.7938 3.1984 10.3569 2.76514C9.92008 2.32829 9.4152 1.98812 8.84229 1.74463C8.26937 1.49756 7.65527 1.37402 7 1.37402C6.34473 1.37402 5.73063 1.49756 5.15771 1.74463C4.5848 1.98812 4.07992 2.32829 3.64307 2.76514C3.20622 3.1984 2.86426 3.70329 2.61719 4.27979C2.3737 4.8527 2.25195 5.4668 2.25195 6.12207C2.25195 6.77734 2.3737 7.39144 2.61719 7.96436C2.86426 8.53727 3.20622 9.04215 3.64307 9.479C4.07992 9.91227 4.5848 10.2524 5.15771 10.4995C5.73063 10.7466 6.34473 10.8701 7 10.8701Z" fill="#ECECED" style="fill:#ECECED;fill:color(display-p3 0.9255 0.9255 0.9294);fill-opacity:1;"/>
</g>
<defs>
<clipPath id="clip0_4507_10">
<rect width="11" height="12" fill="white" style="fill:white;fill-opacity:1;" transform="translate(1.5)"/>
</clipPath>
</defs>
</svg>
