<svg width="24" height="24" viewBox="0 0 24 24" fill="none" xmlns="http://www.w3.org/2000/svg">
<path d="M13.4941 22.6523C13.0384 22.6523 12.7096 22.4896 12.5078 22.1641C12.306 21.8385 12.1335 21.4316 11.9902 20.9434L10.4375 15.7871C10.3464 15.4616 10.3138 15.2012 10.3398 15.0059C10.3659 14.804 10.4733 14.6022 10.6621 14.4004L20.6328 3.64844C20.6914 3.58984 20.7207 3.52474 20.7207 3.45312C20.7207 3.38151 20.6947 3.32292 20.6426 3.27734C20.5905 3.23177 20.5286 3.20898 20.457 3.20898C20.3919 3.20247 20.3301 3.22852 20.2715 3.28711L9.55859 13.2969C9.34375 13.4922 9.13542 13.6029 8.93359 13.6289C8.73177 13.6484 8.47461 13.6094 8.16211 13.5117L2.88867 11.9102C2.41992 11.7669 2.03255 11.5977 1.72656 11.4023C1.42057 11.2005 1.26758 10.875 1.26758 10.4258C1.26758 10.0742 1.40755 9.77148 1.6875 9.51758C1.96745 9.26367 2.3125 9.05859 2.72266 8.90234L19.5195 2.4668C19.7474 2.38216 19.959 2.31706 20.1543 2.27148C20.3561 2.2194 20.5384 2.19336 20.7012 2.19336C21.0202 2.19336 21.2708 2.28451 21.4531 2.4668C21.6354 2.64909 21.7266 2.89974 21.7266 3.21875C21.7266 3.38802 21.7005 3.57031 21.6484 3.76562C21.6029 3.96094 21.5378 4.17253 21.4531 4.40039L15.0566 21.1094C14.8743 21.5781 14.6562 21.9525 14.4023 22.2324C14.1484 22.5124 13.8457 22.6523 13.4941 22.6523Z" fill="#ECECED" style="fill:#ECECED;fill:color(display-p3 0.9255 0.9255 0.9294);fill-opacity:1;"/>
</svg>
