<svg width="36" height="36" viewBox="0 0 36 36" fill="none" xmlns="http://www.w3.org/2000/svg">
<path d="M7.54102 30.4902V6.12695C7.54102 5.48242 7.70508 5.01953 8.0332 4.73828C8.37305 4.45703 8.74805 4.31641 9.1582 4.31641C9.5332 4.31641 9.88477 4.41602 10.2129 4.61523L30.6914 16.8672C31.0781 17.0781 31.3652 17.2949 31.5527 17.5176C31.7402 17.7285 31.834 17.9922 31.834 18.3086C31.834 18.6133 31.7402 18.877 31.5527 19.0996C31.3652 19.3105 31.0781 19.5273 30.6914 19.75L10.2129 31.9844C9.88477 32.1836 9.5332 32.2832 9.1582 32.2832C8.74805 32.2832 8.37305 32.1426 8.0332 31.8613C7.70508 31.5801 7.54102 31.123 7.54102 30.4902Z" fill="#ECECED" style="fill:#ECECED;fill:color(display-p3 0.9255 0.9255 0.9294);fill-opacity:1;"/>
</svg>
