<svg width="18" height="12" viewBox="0 0 18 12" fill="none" xmlns="http://www.w3.org/2000/svg">
<path d="M7.80469 8.02344C7.80469 8.73177 7.63802 9.36979 7.30469 9.9375C6.97656 10.5 6.52604 10.9479 5.95312 11.2812C5.38542 11.6146 4.74479 11.7812 4.03125 11.7812C3.30208 11.7812 2.63021 11.599 2.01562 11.2344C1.40625 10.8698 0.916667 10.3438 0.546875 9.65625C0.177083 8.96354 -0.0078125 8.13021 -0.0078125 7.15625C-0.0078125 6.29167 0.143229 5.4974 0.445312 4.77344C0.752604 4.04948 1.16927 3.41406 1.69531 2.86719C2.07031 2.47135 2.49479 2.125 2.96875 1.82812C3.44271 1.52604 3.95052 1.28646 4.49219 1.10938C4.65885 1.05729 4.79688 1.01823 4.90625 0.992188C5.02083 0.966146 5.13802 0.953125 5.25781 0.953125C5.4401 0.953125 5.58854 1.00521 5.70312 1.10938C5.81771 1.21354 5.875 1.34635 5.875 1.50781C5.875 1.59635 5.85677 1.67448 5.82031 1.74219C5.78906 1.8099 5.74219 1.86719 5.67969 1.91406C5.6276 1.96094 5.55729 2.0026 5.46875 2.03906C5.38021 2.07552 5.27344 2.11458 5.14844 2.15625C4.72135 2.28125 4.31771 2.45052 3.9375 2.66406C3.55729 2.8776 3.21354 3.125 2.90625 3.40625C2.59896 3.68229 2.33333 3.98698 2.10938 4.32031C1.89062 4.65365 1.72396 5.00521 1.60938 5.375H1.82031C2.14844 5.01562 2.52344 4.74479 2.94531 4.5625C3.3724 4.38021 3.81771 4.28906 4.28125 4.28906C4.94271 4.28906 5.53906 4.45573 6.07031 4.78906C6.60156 5.1224 7.02344 5.57292 7.33594 6.14062C7.64844 6.70312 7.80469 7.33073 7.80469 8.02344ZM17.1875 8.02344C17.1875 8.73177 17.0208 9.36979 16.6875 9.9375C16.3594 10.5 15.9115 10.9479 15.3438 11.2812C14.776 11.6146 14.1328 11.7812 13.4141 11.7812C12.6849 11.7812 12.013 11.599 11.3984 11.2344C10.7891 10.8698 10.2995 10.3438 9.92969 9.65625C9.5599 8.96354 9.375 8.13021 9.375 7.15625C9.375 6.29167 9.52604 5.4974 9.82812 4.77344C10.1354 4.04948 10.5495 3.41406 11.0703 2.86719C11.4453 2.47135 11.8698 2.125 12.3438 1.82812C12.8229 1.52604 13.3307 1.28646 13.8672 1.10938C14.0391 1.05729 14.1797 1.01823 14.2891 0.992188C14.3984 0.966146 14.5156 0.953125 14.6406 0.953125C14.8281 0.953125 14.9766 1.00521 15.0859 1.10938C15.1953 1.21354 15.25 1.34635 15.25 1.50781C15.25 1.59635 15.2344 1.67448 15.2031 1.74219C15.1719 1.8099 15.125 1.86719 15.0625 1.91406C15.0104 1.96094 14.9375 2.0026 14.8438 2.03906C14.7552 2.07552 14.6484 2.11458 14.5234 2.15625C14.0964 2.28125 13.6927 2.45052 13.3125 2.66406C12.9375 2.8776 12.5938 3.125 12.2812 3.40625C11.974 3.68229 11.7083 3.98698 11.4844 4.32031C11.2656 4.65365 11.1016 5.00521 10.9922 5.375H11.2031C11.526 5.01562 11.901 4.74479 12.3281 4.5625C12.7552 4.38021 13.2005 4.28906 13.6641 4.28906C14.3255 4.28906 14.9219 4.45573 15.4531 4.78906C15.9844 5.1224 16.4062 5.57292 16.7188 6.14062C17.0312 6.70312 17.1875 7.33073 17.1875 8.02344Z" fill="#ECECED" style="fill:#ECECED;fill:color(display-p3 0.9255 0.9255 0.9294);fill-opacity:1;"/>
</svg>
