<svg width="24" height="24" viewBox="0 0 24 24" fill="none" xmlns="http://www.w3.org/2000/svg">
<path d="M15.0503 4.17714C15.3103 5.27933 16.3001 6.10042 17.4819 6.10042C18.8617 6.10042 19.9803 4.98182 19.9803 3.60203C19.9803 2.22223 18.8617 1.10364 17.4819 1.10364C16.2755 1.10364 15.2693 1.95869 15.0351 3.09602C13.0146 3.31272 11.4368 5.02633 11.4368 7.10305C11.4368 7.10774 11.4368 7.11125 11.4368 7.11594C9.23946 7.20847 7.23302 7.83395 5.64005 8.82135C5.04854 8.36337 4.30594 8.09046 3.50008 8.09046C1.56626 8.09046 -0.000946045 9.65767 -0.000946045 11.5915C-0.000946045 12.9947 0.823651 14.2035 2.01487 14.7622C2.13083 18.8266 6.55952 22.0957 12.0073 22.0957C17.455 22.0957 21.8895 18.8231 21.9996 14.7552C23.1815 14.193 23.9991 12.9877 23.9991 11.5927C23.9991 9.65884 22.4319 8.09163 20.498 8.09163C19.6957 8.09163 18.9566 8.3622 18.3663 8.81667C16.7592 7.82223 14.7305 7.19676 12.5109 7.11359C12.5109 7.11008 12.5109 7.10774 12.5109 7.10422C12.5109 5.61667 13.6166 4.38212 15.0503 4.17948V4.17714ZM5.49949 13.8134C5.55806 12.5438 6.4014 11.5692 7.38178 11.5692C8.36216 11.5692 9.11179 12.5988 9.05323 13.8685C8.99466 15.1382 8.2626 15.5997 7.28105 15.5997C6.29949 15.5997 5.44093 15.0831 5.49949 13.8134ZM16.6339 11.5692C17.6155 11.5692 18.4588 12.5438 18.5162 13.8134C18.5747 15.0831 17.715 15.5997 16.7346 15.5997C15.7543 15.5997 15.021 15.1394 14.9625 13.8685C14.9039 12.5988 15.6523 11.5692 16.6339 11.5692ZM15.4673 16.7511C15.6512 16.7698 15.7683 16.9607 15.6969 17.1318C15.0936 18.5736 13.6693 19.5868 12.0073 19.5868C10.3452 19.5868 8.92204 18.5736 8.31765 17.1318C8.2462 16.9607 8.36333 16.7698 8.54722 16.7511C9.62482 16.6421 10.7903 16.5824 12.0073 16.5824C13.2242 16.5824 14.3885 16.6421 15.4673 16.7511Z" fill="#ECECED" style="fill:#ECECED;fill:color(display-p3 0.9255 0.9255 0.9294);fill-opacity:1;"/>
</svg>
