<svg width="13" height="13" viewBox="0 0 13 13" fill="none" xmlns="http://www.w3.org/2000/svg">
<g clip-path="url(#clip0_2121_165)">
<path d="M6.5 11.2998C6.1276 11.2998 5.77669 11.1709 5.44727 10.9131C5.12142 10.6553 4.83317 10.2936 4.58252 9.82812C4.33545 9.36263 4.1403 8.81657 3.99707 8.18994C3.85742 7.55973 3.7876 6.87402 3.7876 6.13281C3.7876 5.3916 3.85742 4.70589 3.99707 4.07568C4.1403 3.44189 4.33545 2.89225 4.58252 2.42676C4.82959 1.95768 5.11605 1.59424 5.44189 1.33643C5.77132 1.07861 6.12402 0.949707 6.5 0.949707C6.87598 0.949707 7.22689 1.07861 7.55273 1.33643C7.88216 1.59424 8.17041 1.95768 8.41748 2.42676C8.66813 2.89225 8.86328 3.44189 9.00293 4.07568C9.14258 4.70589 9.2124 5.3916 9.2124 6.13281C9.2124 6.87402 9.14079 7.55973 8.99756 8.18994C8.85791 8.81657 8.66276 9.36263 8.41211 9.82812C8.16504 10.2936 7.87679 10.6553 7.54736 10.9131C7.22152 11.1709 6.8724 11.2998 6.5 11.2998ZM6.5 1.59961C6.23861 1.59961 5.98796 1.72135 5.74805 1.96484C5.50814 2.20475 5.29508 2.53418 5.10889 2.95312C4.92269 3.37207 4.77588 3.85547 4.66846 4.40332C4.56104 4.94759 4.50732 5.52409 4.50732 6.13281C4.50732 6.73438 4.56104 7.3055 4.66846 7.84619C4.77588 8.38688 4.92269 8.86849 5.10889 9.29102C5.29508 9.70996 5.50814 10.0394 5.74805 10.2793C5.98796 10.5228 6.23861 10.6445 6.5 10.6445C6.76139 10.6445 7.01204 10.5228 7.25195 10.2793C7.49186 10.0394 7.70492 9.70996 7.89111 9.29102C8.07731 8.86849 8.22412 8.38688 8.33154 7.84619C8.43896 7.3055 8.49268 6.73438 8.49268 6.13281C8.49268 5.52409 8.43896 4.94759 8.33154 4.40332C8.22412 3.85547 8.07731 3.37207 7.89111 2.95312C7.70492 2.53418 7.49186 2.20475 7.25195 1.96484C7.01204 1.72135 6.76139 1.59961 6.5 1.59961ZM6.15088 1.0249H6.85449V11.1978H6.15088V1.0249ZM6.5 8.1416C7.05143 8.1416 7.57422 8.18815 8.06836 8.28125C8.5625 8.37077 9.00651 8.50146 9.40039 8.67334C9.79785 8.84163 10.1219 9.04036 10.3726 9.26953L9.83008 9.71533C9.59375 9.52913 9.30908 9.37158 8.97607 9.24268C8.64665 9.11019 8.27246 9.01172 7.85352 8.94727C7.43815 8.87923 6.98698 8.84521 6.5 8.84521C6.01302 8.84521 5.56006 8.87923 5.14111 8.94727C4.72575 9.01172 4.35156 9.11019 4.01855 9.24268C3.68913 9.37158 3.40625 9.52913 3.16992 9.71533L2.62744 9.26953C2.87809 9.04036 3.20036 8.84163 3.59424 8.67334C3.9917 8.50146 4.4375 8.37077 4.93164 8.28125C5.42578 8.18815 5.94857 8.1416 6.5 8.1416ZM11.4575 5.76758V6.47119H1.54248V5.76758H11.4575ZM6.5 4.12939C5.94857 4.12939 5.42578 4.08464 4.93164 3.99512C4.4375 3.90202 3.9917 3.77132 3.59424 3.60303C3.20036 3.43115 2.87809 3.23063 2.62744 3.00146L3.16992 2.55566C3.40625 2.74186 3.68913 2.9012 4.01855 3.03369C4.35156 3.1626 4.72575 3.26107 5.14111 3.3291C5.56006 3.39355 6.01302 3.42578 6.5 3.42578C6.98698 3.42578 7.43815 3.39355 7.85352 3.3291C8.27246 3.26107 8.64665 3.1626 8.97607 3.03369C9.30908 2.9012 9.59375 2.74186 9.83008 2.55566L10.3726 3.00146C10.1219 3.23063 9.79785 3.43115 9.40039 3.60303C9.00651 3.77132 8.5625 3.90202 8.06836 3.99512C7.57422 4.08464 7.05143 4.12939 6.5 4.12939ZM6.5 11.6006C5.74447 11.6006 5.03548 11.4574 4.37305 11.1709C3.71061 10.888 3.12874 10.4959 2.62744 9.99463C2.12614 9.49333 1.73226 8.91146 1.4458 8.24902C1.16292 7.58659 1.02148 6.8776 1.02148 6.12207C1.02148 5.36654 1.16292 4.65755 1.4458 3.99512C1.73226 3.33268 2.12614 2.75081 2.62744 2.24951C3.12874 1.74463 3.71061 1.35075 4.37305 1.06787C5.03548 0.784993 5.74447 0.643555 6.5 0.643555C7.25553 0.643555 7.96452 0.784993 8.62695 1.06787C9.28939 1.35075 9.87126 1.74463 10.3726 2.24951C10.8739 2.75081 11.266 3.33268 11.5488 3.99512C11.8353 4.65755 11.9785 5.36654 11.9785 6.12207C11.9785 6.8776 11.8353 7.58659 11.5488 8.24902C11.266 8.91146 10.8739 9.49333 10.3726 9.99463C9.87126 10.4959 9.28939 10.888 8.62695 11.1709C7.96452 11.4574 7.25553 11.6006 6.5 11.6006ZM6.5 10.8701C7.15527 10.8701 7.76937 10.7466 8.34229 10.4995C8.9152 10.2524 9.42008 9.91227 9.85693 9.479C10.2938 9.04215 10.634 8.53727 10.8774 7.96436C11.1245 7.39144 11.248 6.77734 11.248 6.12207C11.248 5.4668 11.1245 4.8527 10.8774 4.27979C10.634 3.70329 10.2938 3.1984 9.85693 2.76514C9.42008 2.32829 8.9152 1.98812 8.34229 1.74463C7.76937 1.49756 7.15527 1.37402 6.5 1.37402C5.84473 1.37402 5.23063 1.49756 4.65771 1.74463C4.0848 1.98812 3.57992 2.32829 3.14307 2.76514C2.70622 3.1984 2.36426 3.70329 2.11719 4.27979C1.8737 4.8527 1.75195 5.4668 1.75195 6.12207C1.75195 6.77734 1.8737 7.39144 2.11719 7.96436C2.36426 8.53727 2.70622 9.04215 3.14307 9.479C3.57992 9.91227 4.0848 10.2524 4.65771 10.4995C5.23063 10.7466 5.84473 10.8701 6.5 10.8701Z" fill="#B3B3B3" style="fill:#B3B3B3;fill-opacity:1;"/>
</g>
<defs>
<clipPath id="clip0_2121_165">
<rect width="13" height="13" fill="#B3B3B3" style="fill:#B3B3B3;fill-opacity:1;"/>
</clipPath>
</defs>
</svg>
