<svg width="15" height="14" viewBox="0 0 15 14" fill="none" xmlns="http://www.w3.org/2000/svg">
<g clip-path="url(#clip0_2072_68)">
<path d="M7.5 12.418C7.09375 12.418 6.71094 12.2773 6.35156 11.9961C5.99609 11.7148 5.68164 11.3203 5.4082 10.8125C5.13867 10.3047 4.92578 9.70898 4.76953 9.02539C4.61719 8.33789 4.54102 7.58984 4.54102 6.78125C4.54102 5.97266 4.61719 5.22461 4.76953 4.53711C4.92578 3.8457 5.13867 3.24609 5.4082 2.73828C5.67773 2.22656 5.99023 1.83008 6.3457 1.54883C6.70508 1.26758 7.08984 1.12695 7.5 1.12695C7.91016 1.12695 8.29297 1.26758 8.64844 1.54883C9.00781 1.83008 9.32227 2.22656 9.5918 2.73828C9.86523 3.24609 10.0781 3.8457 10.2305 4.53711C10.3828 5.22461 10.459 5.97266 10.459 6.78125C10.459 7.58984 10.3809 8.33789 10.2246 9.02539C10.0723 9.70898 9.85938 10.3047 9.58594 10.8125C9.31641 11.3203 9.00195 11.7148 8.64258 11.9961C8.28711 12.2773 7.90625 12.418 7.5 12.418ZM7.5 1.83594C7.21484 1.83594 6.94141 1.96875 6.67969 2.23438C6.41797 2.49609 6.18555 2.85547 5.98242 3.3125C5.7793 3.76953 5.61914 4.29688 5.50195 4.89453C5.38477 5.48828 5.32617 6.11719 5.32617 6.78125C5.32617 7.4375 5.38477 8.06055 5.50195 8.65039C5.61914 9.24023 5.7793 9.76562 5.98242 10.2266C6.18555 10.6836 6.41797 11.043 6.67969 11.3047C6.94141 11.5703 7.21484 11.7031 7.5 11.7031C7.78516 11.7031 8.05859 11.5703 8.32031 11.3047C8.58203 11.043 8.81445 10.6836 9.01758 10.2266C9.2207 9.76562 9.38086 9.24023 9.49805 8.65039C9.61523 8.06055 9.67383 7.4375 9.67383 6.78125C9.67383 6.11719 9.61523 5.48828 9.49805 4.89453C9.38086 4.29688 9.2207 3.76953 9.01758 3.3125C8.81445 2.85547 8.58203 2.49609 8.32031 2.23438C8.05859 1.96875 7.78516 1.83594 7.5 1.83594ZM7.11914 1.20898H7.88672V12.3066H7.11914V1.20898ZM7.5 8.97266C8.10156 8.97266 8.67188 9.02344 9.21094 9.125C9.75 9.22266 10.2344 9.36523 10.6641 9.55273C11.0977 9.73633 11.4512 9.95312 11.7246 10.2031L11.1328 10.6895C10.875 10.4863 10.5645 10.3145 10.2012 10.1738C9.8418 10.0293 9.43359 9.92188 8.97656 9.85156C8.52344 9.77734 8.03125 9.74023 7.5 9.74023C6.96875 9.74023 6.47461 9.77734 6.01758 9.85156C5.56445 9.92188 5.15625 10.0293 4.79297 10.1738C4.43359 10.3145 4.125 10.4863 3.86719 10.6895L3.27539 10.2031C3.54883 9.95312 3.90039 9.73633 4.33008 9.55273C4.76367 9.36523 5.25 9.22266 5.78906 9.125C6.32812 9.02344 6.89844 8.97266 7.5 8.97266ZM12.9082 6.38281V7.15039H2.0918V6.38281H12.9082ZM7.5 4.5957C6.89844 4.5957 6.32812 4.54688 5.78906 4.44922C5.25 4.34766 4.76367 4.20508 4.33008 4.02148C3.90039 3.83398 3.54883 3.61523 3.27539 3.36523L3.86719 2.87891C4.125 3.08203 4.43359 3.25586 4.79297 3.40039C5.15625 3.54102 5.56445 3.64844 6.01758 3.72266C6.47461 3.79297 6.96875 3.82812 7.5 3.82812C8.03125 3.82812 8.52344 3.79297 8.97656 3.72266C9.43359 3.64844 9.8418 3.54102 10.2012 3.40039C10.5645 3.25586 10.875 3.08203 11.1328 2.87891L11.7246 3.36523C11.4512 3.61523 11.0977 3.83398 10.6641 4.02148C10.2344 4.20508 9.75 4.34766 9.21094 4.44922C8.67188 4.54688 8.10156 4.5957 7.5 4.5957ZM7.5 12.7461C6.67578 12.7461 5.90234 12.5898 5.17969 12.2773C4.45703 11.9688 3.82227 11.541 3.27539 10.9941C2.72852 10.4473 2.29883 9.8125 1.98633 9.08984C1.67773 8.36719 1.52344 7.59375 1.52344 6.76953C1.52344 5.94531 1.67773 5.17188 1.98633 4.44922C2.29883 3.72656 2.72852 3.0918 3.27539 2.54492C3.82227 1.99414 4.45703 1.56445 5.17969 1.25586C5.90234 0.947266 6.67578 0.792969 7.5 0.792969C8.32422 0.792969 9.09766 0.947266 9.82031 1.25586C10.543 1.56445 11.1777 1.99414 11.7246 2.54492C12.2715 3.0918 12.6992 3.72656 13.0078 4.44922C13.3203 5.17188 13.4766 5.94531 13.4766 6.76953C13.4766 7.59375 13.3203 8.36719 13.0078 9.08984C12.6992 9.8125 12.2715 10.4473 11.7246 10.9941C11.1777 11.541 10.543 11.9688 9.82031 12.2773C9.09766 12.5898 8.32422 12.7461 7.5 12.7461ZM7.5 11.9492C8.21484 11.9492 8.88477 11.8145 9.50977 11.5449C10.1348 11.2754 10.6855 10.9043 11.1621 10.4316C11.6387 9.95508 12.0098 9.4043 12.2754 8.7793C12.5449 8.1543 12.6797 7.48438 12.6797 6.76953C12.6797 6.05469 12.5449 5.38477 12.2754 4.75977C12.0098 4.13086 11.6387 3.58008 11.1621 3.10742C10.6855 2.63086 10.1348 2.25977 9.50977 1.99414C8.88477 1.72461 8.21484 1.58984 7.5 1.58984C6.78516 1.58984 6.11523 1.72461 5.49023 1.99414C4.86523 2.25977 4.31445 2.63086 3.83789 3.10742C3.36133 3.58008 2.98828 4.13086 2.71875 4.75977C2.45312 5.38477 2.32031 6.05469 2.32031 6.76953C2.32031 7.48438 2.45312 8.1543 2.71875 8.7793C2.98828 9.4043 3.36133 9.95508 3.83789 10.4316C4.31445 10.9043 4.86523 11.2754 5.49023 11.5449C6.11523 11.8145 6.78516 11.9492 7.5 11.9492Z" fill="#b3b3b3" style="fill:#b3b3b3;fill-opacity:1;"/>
</g>
<defs>
<clipPath id="clip0_2072_68">
<rect width="15" height="14" fill="#b3b3b3" style="fill:#b3b3b3;fill-opacity:1;"/>
</clipPath>
</defs>
</svg>
