<svg width="15" height="18" viewBox="0 0 15 18" fill="none" xmlns="http://www.w3.org/2000/svg">
                            <path
                                d="M10.312 4.2002C10.4357 4.2002 10.6274 4.21257 10.8872 4.2373C11.1532 4.26204 11.45 4.32699 11.7778 4.43213C12.1118 4.53727 12.452 4.70736 12.7983 4.94238C13.1447 5.17741 13.4632 5.50521 13.7539 5.92578C13.7292 5.94434 13.6209 6.02474 13.4292 6.16699C13.2375 6.30306 13.021 6.50407 12.7798 6.77002C12.5386 7.03597 12.3283 7.37305 12.1489 7.78125C11.9696 8.18945 11.8799 8.67188 11.8799 9.22852C11.8799 9.87174 11.9943 10.4191 12.2231 10.8706C12.452 11.3159 12.7148 11.6746 13.0117 11.9468C13.3148 12.2189 13.5838 12.4199 13.8188 12.5498C14.0601 12.6735 14.1868 12.7384 14.1992 12.7446C14.1992 12.7632 14.1559 12.8931 14.0693 13.1343C13.9889 13.3755 13.8621 13.6816 13.689 14.0527C13.5158 14.4176 13.29 14.8042 13.0117 15.2124C12.7643 15.5649 12.5076 15.9051 12.2417 16.2329C11.9757 16.5607 11.6851 16.8298 11.3696 17.04C11.0604 17.2503 10.7078 17.3555 10.312 17.3555C9.91618 17.3555 9.59147 17.2967 9.33789 17.1792C9.08431 17.0617 8.82145 16.9442 8.54932 16.8267C8.28337 16.7153 7.92464 16.6597 7.47314 16.6597C7.02783 16.6597 6.65674 16.7153 6.35986 16.8267C6.06917 16.9442 5.79085 17.0617 5.5249 17.1792C5.25895 17.2967 4.94661 17.3555 4.58789 17.3555C4.04362 17.3555 3.56429 17.1421 3.1499 16.7153C2.7417 16.2886 2.32113 15.7721 1.88818 15.166C1.5542 14.6898 1.24805 14.1393 0.969727 13.5146C0.697591 12.8838 0.48112 12.2189 0.320312 11.52C0.159505 10.8149 0.0791016 10.1099 0.0791016 9.40479C0.0791016 8.28532 0.289388 7.33903 0.709961 6.56592C1.13672 5.78662 1.68408 5.19906 2.35205 4.80322C3.02002 4.4012 3.71273 4.2002 4.43018 4.2002C4.81364 4.2002 5.17236 4.26823 5.50635 4.4043C5.84652 4.53418 6.16195 4.66715 6.45264 4.80322C6.74333 4.93311 7.01237 4.99805 7.25977 4.99805C7.48242 4.99805 7.74837 4.93311 8.05762 4.80322C8.36686 4.66715 8.71012 4.53418 9.0874 4.4043C9.47087 4.26823 9.87907 4.2002 10.312 4.2002ZM9.69971 2.78076C9.40902 3.1333 9.04102 3.42708 8.5957 3.66211C8.15658 3.89095 7.7391 4.00537 7.34326 4.00537C7.26286 4.00537 7.18555 3.99919 7.11133 3.98682C7.10514 3.96208 7.09587 3.92188 7.0835 3.86621C7.07731 3.80436 7.07422 3.73942 7.07422 3.67139C7.07422 3.22607 7.17008 2.79313 7.36182 2.37256C7.55973 1.95199 7.78239 1.60254 8.02979 1.32422C8.34521 0.953125 8.74105 0.64388 9.21729 0.396484C9.69352 0.149089 10.1481 0.0161133 10.5811 -0.00244141C10.6058 0.102702 10.6182 0.220215 10.6182 0.350098C10.6182 0.79541 10.5316 1.23145 10.3584 1.6582C10.1852 2.07878 9.96566 2.45296 9.69971 2.78076Z"
                                fill="black"
                            />
                        </svg>