<svg width="13" height="20" viewBox="0 0 13 20" fill="none" xmlns="http://www.w3.org/2000/svg">
            <path d="M2.99316 19.8862C2.21387 19.8862 1.5861 19.6574 1.10986 19.1997C0.633626 18.7482 0.395508 18.1514 0.395508 17.4092V2.89941C0.395508 2.15723 0.633626 1.56038 1.10986 1.10889C1.5861 0.651204 2.21387 0.422363 2.99316 0.422363H10.0625C10.8171 0.422363 11.4263 0.651204 11.8901 1.10889C12.354 1.56038 12.5859 2.15723 12.5859 2.89941V17.4092C12.5859 18.1514 12.354 18.7482 11.8901 19.1997C11.4263 19.6574 10.8171 19.8862 10.0625 19.8862H2.99316ZM3.32715 17.9658H9.66357C10.0037 17.9658 10.2666 17.8761 10.4521 17.6968C10.6439 17.5174 10.7397 17.2638 10.7397 16.936V3.37256C10.7397 3.04476 10.6439 2.79118 10.4521 2.61182C10.2666 2.43245 10.0037 2.34277 9.66357 2.34277H3.32715C2.98698 2.34277 2.72412 2.43245 2.53857 2.61182C2.35303 2.79118 2.26025 3.04476 2.26025 3.37256V16.936C2.26025 17.2638 2.35303 17.5174 2.53857 17.6968C2.72412 17.8761 2.98698 17.9658 3.32715 17.9658ZM4.59814 17.2607C4.46826 17.2607 4.36003 17.2174 4.27344 17.1309C4.18685 17.0505 4.14355 16.9422 4.14355 16.8062C4.14355 16.6639 4.18685 16.5526 4.27344 16.4722C4.36003 16.3856 4.46826 16.3423 4.59814 16.3423H8.41113C8.54102 16.3423 8.64925 16.3856 8.73584 16.4722C8.82243 16.5526 8.86572 16.6639 8.86572 16.8062C8.86572 16.9422 8.82243 17.0505 8.73584 17.1309C8.64925 17.2174 8.54102 17.2607 8.41113 17.2607H4.59814ZM5.37744 4.40234C5.17952 4.40234 5.01253 4.3374 4.87646 4.20752C4.7404 4.07145 4.67236 3.90446 4.67236 3.70654C4.67236 3.50863 4.7404 3.34163 4.87646 3.20557C5.01253 3.0695 5.17952 3.00146 5.37744 3.00146H7.62256C7.82048 3.00146 7.98438 3.0695 8.11426 3.20557C8.25033 3.34163 8.31836 3.50863 8.31836 3.70654C8.31836 3.90446 8.25033 4.07145 8.11426 4.20752C7.98438 4.3374 7.82048 4.40234 7.62256 4.40234H5.37744Z" fill="black"/>
          </svg>