<svg width="57" height="24" viewBox="0 0 57 24" fill="none" xmlns="http://www.w3.org/2000/svg">
<path d="M37.1985 7.19094C37.3235 7.19157 37.3235 7.19157 37.4511 7.19221C37.5411 7.19246 37.6311 7.19272 37.7238 7.19299C37.8185 7.19366 37.9132 7.19433 38.0108 7.19502C38.1058 7.19538 38.2009 7.19574 38.2988 7.19611C38.5345 7.19706 38.7701 7.19838 39.0058 7.20002C39.3259 7.79516 39.5527 8.42239 39.7858 9.05502C39.8495 9.22654 39.9133 9.39801 39.977 9.56948C40.0195 9.68353 40.0618 9.79759 40.1041 9.91167C40.2886 10.4088 40.4765 10.9047 40.6658 11.4C40.6926 11.4702 40.7194 11.5403 40.747 11.6126C40.8065 11.7684 40.8662 11.9242 40.9258 12.08C41.2185 11.3908 41.4917 10.6957 41.7558 9.99502C41.7943 9.89322 41.8329 9.79142 41.8714 9.68963C42.1203 9.03133 42.3659 8.37183 42.6044 7.70969C42.7573 7.28851 42.7573 7.28851 42.8458 7.20002C43.5322 7.20002 44.2186 7.20002 44.9258 7.20002C44.9258 10.368 44.9258 13.536 44.9258 16.8C44.4506 16.8 43.9754 16.8 43.4858 16.8C43.4594 14.1864 43.433 11.5728 43.4058 8.88002C43.0362 9.83042 42.6666 10.7808 42.2858 11.76C42.063 12.3269 41.84 12.8937 41.6158 13.46C41.5631 13.5933 41.5104 13.7267 41.4577 13.86C41.3338 14.1734 41.2098 14.4867 41.0858 14.8C41.0066 14.8 40.9274 14.8 40.8458 14.8C40.2124 13.297 39.6089 11.7837 39.0194 10.263C38.979 10.1589 38.979 10.1589 38.9378 10.0527C38.887 9.92151 38.8362 9.79025 38.7855 9.65896C38.6654 9.34529 38.6654 9.34529 38.5258 9.04002C38.525 9.13606 38.5242 9.2321 38.5233 9.33104C38.5155 10.234 38.5073 11.137 38.4987 12.0399C38.4942 12.5042 38.49 12.9685 38.486 13.4327C38.4822 13.8804 38.478 14.328 38.4736 14.7757C38.4719 14.9469 38.4704 15.1181 38.4691 15.2893C38.4672 15.5282 38.4648 15.767 38.4622 16.0059C38.4615 16.1132 38.4615 16.1132 38.4608 16.2227C38.4549 16.7109 38.4549 16.7109 38.3658 16.8C38.1383 16.808 37.9133 16.8111 37.6858 16.81C37.622 16.8103 37.5581 16.8106 37.4924 16.811C37.0159 16.8101 37.0159 16.8101 36.9258 16.72C36.918 16.5977 36.9157 16.4751 36.9157 16.3526C36.9154 16.2731 36.9152 16.1937 36.915 16.1119C36.9151 16.024 36.9153 15.9362 36.9155 15.8456C36.9153 15.7537 36.9152 15.6617 36.915 15.567C36.9147 15.2613 36.9149 14.9557 36.9152 14.65C36.9151 14.4387 36.9151 14.2273 36.915 14.016C36.9148 13.5724 36.915 13.1288 36.9154 12.6852C36.9158 12.1716 36.9157 11.6581 36.9152 11.1445C36.9148 10.6514 36.9149 10.1582 36.9151 9.66509C36.9152 9.45482 36.9151 9.24455 36.9149 9.03428C36.9147 8.74098 36.915 8.44769 36.9155 8.15439C36.9153 8.06654 36.9151 7.97868 36.915 7.88816C36.9152 7.80874 36.9154 7.72931 36.9157 7.64748C36.9157 7.57804 36.9157 7.50861 36.9157 7.43707C36.9308 7.20209 36.9625 7.20206 37.1985 7.19094Z" fill="#ECECED" style="fill:#ECECED;fill:color(display-p3 0.9255 0.9255 0.9294);fill-opacity:1;"/>
<path d="M26.7985 7.19094C26.9235 7.19157 26.9235 7.19157 27.0511 7.19221C27.1411 7.19246 27.2311 7.19272 27.3238 7.19299C27.4185 7.19366 27.5132 7.19433 27.6108 7.19502C27.7058 7.19538 27.8009 7.19574 27.8988 7.19611C28.1345 7.19706 28.3701 7.19838 28.6058 7.20002C28.9259 7.79516 29.1527 8.42239 29.3858 9.05502C29.4495 9.22654 29.5133 9.39801 29.577 9.56948C29.6195 9.68353 29.6618 9.79759 29.7041 9.91167C29.8886 10.4088 30.0765 10.9047 30.2658 11.4C30.2926 11.4702 30.3194 11.5403 30.347 11.6126C30.4065 11.7684 30.4662 11.9242 30.5258 12.08C30.8185 11.3908 31.0917 10.6957 31.3558 9.99502C31.3943 9.89322 31.4329 9.79142 31.4714 9.68963C31.7203 9.03133 31.9659 8.37183 32.2044 7.70969C32.3573 7.28851 32.3573 7.28851 32.4458 7.20002C33.1322 7.20002 33.8186 7.20002 34.5258 7.20002C34.5258 10.368 34.5258 13.536 34.5258 16.8C34.0506 16.8 33.5754 16.8 33.0858 16.8C33.0594 14.1864 33.033 11.5728 33.0058 8.88002C32.6362 9.83042 32.2666 10.7808 31.8858 11.76C31.663 12.3269 31.44 12.8937 31.2158 13.46C31.1631 13.5933 31.1104 13.7267 31.0577 13.86C30.9338 14.1734 30.8098 14.4867 30.6858 14.8C30.6066 14.8 30.5274 14.8 30.4458 14.8C29.8124 13.297 29.2089 11.7837 28.6194 10.263C28.579 10.1589 28.579 10.1589 28.5378 10.0527C28.487 9.92151 28.4362 9.79025 28.3855 9.65896C28.2654 9.34529 28.2654 9.34529 28.1258 9.04002C28.125 9.13606 28.1242 9.2321 28.1233 9.33104C28.1155 10.234 28.1073 11.137 28.0987 12.0399C28.0942 12.5042 28.09 12.9685 28.086 13.4327C28.0822 13.8804 28.078 14.328 28.0736 14.7757C28.0719 14.9469 28.0704 15.1181 28.0691 15.2893C28.0672 15.5282 28.0648 15.767 28.0622 16.0059C28.0615 16.1132 28.0615 16.1132 28.0608 16.2227C28.0549 16.7109 28.0549 16.7109 27.9658 16.8C27.7383 16.808 27.5133 16.8111 27.2858 16.81C27.222 16.8103 27.1581 16.8106 27.0924 16.811C26.6159 16.8101 26.6159 16.8101 26.5258 16.72C26.518 16.5977 26.5157 16.4751 26.5157 16.3526C26.5154 16.2731 26.5152 16.1937 26.515 16.1119C26.5151 16.024 26.5153 15.9362 26.5155 15.8456C26.5153 15.7537 26.5152 15.6617 26.515 15.567C26.5147 15.2613 26.5149 14.9557 26.5152 14.65C26.5151 14.4387 26.5151 14.2273 26.515 14.016C26.5148 13.5724 26.515 13.1288 26.5154 12.6852C26.5158 12.1716 26.5157 11.6581 26.5152 11.1445C26.5148 10.6514 26.5149 10.1582 26.5151 9.66509C26.5152 9.45482 26.5151 9.24455 26.5149 9.03428C26.5147 8.74098 26.515 8.44769 26.5155 8.15439C26.5153 8.06654 26.5151 7.97868 26.515 7.88816C26.5152 7.80874 26.5154 7.72931 26.5157 7.64748C26.5157 7.57804 26.5157 7.50861 26.5157 7.43707C26.5308 7.20209 26.5625 7.20206 26.7985 7.19094Z" fill="#ECECED" style="fill:#ECECED;fill:color(display-p3 0.9255 0.9255 0.9294);fill-opacity:1;"/>
<path fill-rule="evenodd" clip-rule="evenodd" d="M24.1258 24H0.925781V0H24.1258V24ZM8.26141 7.16094L7.95578 7.17C7.07744 7.17958 6.33984 7.22656 5.64016 7.82062C5.01766 8.48624 4.92578 9.07567 4.92578 10H6.76578L6.80078 9.45C6.81753 9.18681 6.80732 8.95692 6.92578 8.72C7.23749 8.46418 7.50311 8.45259 7.88953 8.455L8.09578 8.46C8.52897 8.4626 8.91729 8.40888 9.25859 8.715C9.43611 9.01049 9.44537 9.2055 9.44562 9.54437L9.44078 9.76C9.44371 10.1278 9.4451 10.4517 9.31859 10.8C8.74294 11.1442 8.74293 11.1442 8.04469 11.1625L7.85078 11.17C7.72089 11.1761 7.59099 11.1821 7.46109 11.1881L7.16578 11.2V12.4C7.36094 12.408 7.55611 12.416 7.75125 12.4245L7.99078 12.435L8.2275 12.4445L8.45484 12.4547C8.77915 12.4684 8.9998 12.4891 9.25859 12.7025C9.44834 13.1714 9.44834 13.1714 9.44562 13.6866L9.44078 13.96C9.44408 14.4856 9.4953 14.9229 9.16578 15.36C8.87136 15.4789 8.61905 15.5191 8.30266 15.5412L7.99578 15.54C7.63301 15.5415 7.32266 15.5499 7.00578 15.36C6.88061 15.1408 6.84592 14.9611 6.81266 14.7109L6.76578 14H4.92578C4.90901 14.8301 4.93321 15.3629 5.48578 16C6.15995 16.6435 6.94676 16.8384 7.85984 16.832L8.15578 16.825C9.12436 16.8175 9.83326 16.7815 10.5908 16.125C11.1251 15.499 11.3324 14.9169 11.3576 14.101L11.3608 13.91C11.3787 13.3033 11.261 12.8416 10.8458 12.3834L10.6858 12.255C10.522 12.1204 10.355 11.9918 10.1858 11.8641L10.0458 11.76C10.3299 11.6096 10.574 11.4666 10.8208 11.26C11.146 10.8733 11.3114 10.6017 11.3483 10.0853C11.3627 9.26866 11.3041 8.56328 10.7136 7.94062C10.0025 7.36036 9.16252 7.1526 8.26141 7.16094ZM13.7258 12L15.6308 12.035C15.912 12.0399 16.1931 12.0447 16.4743 12.0502C16.5518 12.0517 16.6271 12.0532 16.7023 12.0547C16.7865 12.056 16.8682 12.0574 16.9498 12.0587C17.0301 12.0603 17.1081 12.062 17.186 12.0636C17.4245 12.068 17.5765 12.0836 17.8058 12.16C18.0663 12.3697 18.1918 12.4865 18.255 12.8194L18.2533 13.11L18.2527 13.4287C18.2491 13.5947 18.2458 13.7604 18.2459 13.9264C18.2476 14.4544 18.3033 14.9249 17.9658 15.36C17.617 15.5024 17.2893 15.5405 16.9172 15.5419L16.7508 15.54C16.471 15.5431 16.2075 15.5443 15.9367 15.4637C15.6869 15.2658 15.6532 15.0155 15.6127 14.7109L15.5658 14H13.7258C13.709 14.8301 13.7332 15.3629 14.2858 16C14.9599 16.6435 15.7468 16.8384 16.6598 16.832L16.9558 16.825C17.9244 16.8175 18.6333 16.7815 19.3908 16.125C19.9473 15.4731 20.1553 14.8235 20.1547 13.9714L20.1508 13.745C20.1537 12.8907 20.0191 12.2106 19.4858 11.52C18.7927 10.8972 18.0353 10.7729 17.1333 10.7784C16.3496 10.7905 16.3495 10.7906 15.5658 10.8V8.4H20.1258V7.2H13.7258V12Z" fill="#ECECED" style="fill:#ECECED;fill:color(display-p3 0.9255 0.9255 0.9294);fill-opacity:1;"/>
<path d="M51.2043 7.16432C51.4055 7.165 51.6065 7.16269 51.8077 7.16016C52.5558 7.15698 53.1896 7.2145 53.8858 7.52C53.9766 7.5596 54.0673 7.5992 54.1608 7.64C54.6751 7.94108 54.9113 8.27051 55.1658 8.8C55.1958 8.85817 55.2258 8.91633 55.2568 8.97625C55.3567 9.30014 55.3427 9.60847 55.3358 9.945C55.3325 10.1744 55.3292 10.4037 55.3258 10.64C54.8506 10.64 54.3754 10.64 53.8858 10.64C53.8658 9.99 53.8658 9.99 53.862 9.78809C53.8432 9.37406 53.7554 9.13012 53.4858 8.8C52.8708 8.29351 51.9036 8.37302 51.1558 8.375C51.0579 8.37372 50.9601 8.37243 50.8593 8.3711C50.009 8.36037 50.009 8.36037 49.282 8.75618C48.9711 9.11631 48.9155 9.32341 48.9117 9.78993C48.9111 9.84224 48.9106 9.89455 48.9101 9.94845C48.9085 10.1219 48.9075 10.2953 48.9068 10.4688C48.9064 10.528 48.9061 10.5873 48.9058 10.6484C48.9041 10.9622 48.903 11.2761 48.9022 11.5899C48.9013 11.9136 48.8986 12.2373 48.8954 12.561C48.8933 12.8103 48.8926 13.0595 48.8923 13.3088C48.8919 13.4281 48.891 13.5474 48.8895 13.6667C48.8876 13.834 48.8877 14.0013 48.8882 14.1687C48.8877 14.2638 48.8873 14.3589 48.8868 14.4568C48.95 14.8831 49.1503 15.1264 49.4858 15.385C49.9882 15.6676 50.519 15.6204 51.0812 15.6236C51.1933 15.6245 51.3054 15.6262 51.4174 15.6285C52.1231 15.6435 52.769 15.6194 53.4058 15.28C53.7972 14.8886 53.8244 14.5631 53.8508 14.03C53.8624 13.8089 53.8739 13.5878 53.8858 13.36C54.361 13.36 54.8362 13.36 55.3258 13.36C55.3588 14.3235 55.3504 15.1679 54.7221 15.9609C54.0673 16.6315 53.0955 16.8245 52.193 16.8397C51.9957 16.8407 51.7986 16.8398 51.6013 16.8373C51.4008 16.835 51.2005 16.8357 51 16.8367C49.8964 16.8354 48.8618 16.731 47.9986 15.9675C47.3669 15.2763 47.3579 14.4809 47.3633 13.5953C47.3631 13.4709 47.3628 13.3465 47.3624 13.2221C47.3619 12.9624 47.3626 12.7026 47.3641 12.4429C47.3659 12.1119 47.3649 11.7811 47.363 11.4501C47.3618 11.1935 47.3622 10.9369 47.363 10.6803C47.3632 10.5583 47.363 10.4364 47.3622 10.3145C47.3579 9.42593 47.4305 8.63581 48.0661 7.96219C48.947 7.19164 50.0936 7.15858 51.2043 7.16432Z" fill="#ECECED" style="fill:#ECECED;fill:color(display-p3 0.9255 0.9255 0.9294);fill-opacity:1;"/>
</svg>
