<svg width="57" height="24" viewBox="0 0 57 24" fill="none" xmlns="http://www.w3.org/2000/svg">
<path fill-rule="evenodd" clip-rule="evenodd" d="M0.976184 0.0840862C0.902895 0.197408 0.912475 23.8863 0.985842 23.9596C1.02112 23.9949 23.6651 24.0174 24.0246 23.9825C24.0569 23.9794 24.0744 18.5883 24.0636 12.0021L24.0438 0.0273865L12.542 0.00620172C3.30353 -0.0107771 1.02767 0.00456615 0.976184 0.0840862ZM6.77172 7.31239C6.0879 7.48303 5.52098 7.91677 5.22595 8.49514C5.04323 8.85317 4.83552 9.76357 4.89884 9.92853C4.93334 10.0186 5.11715 10.0361 5.84311 10.0185L6.74454 9.9966L6.74937 9.43373C6.75334 8.96658 6.78247 8.84258 6.92072 8.70442C7.11356 8.51157 7.567 8.40814 8.24117 8.40339C8.89999 8.39864 9.19876 8.51726 9.3321 8.83635C9.47128 9.16962 9.47681 10.5432 9.33996 10.8144C9.20141 11.0891 8.81814 11.1943 7.93796 11.1994L7.17532 11.2038L7.19806 11.8074L7.22081 12.411L8.0766 12.4292C9.00857 12.4489 9.26714 12.5476 9.37252 12.9243C9.45741 13.2279 9.44776 15.0169 9.36029 15.1802C9.2032 15.4739 8.82406 15.5984 8.07753 15.6014C6.98521 15.6059 6.71456 15.3722 6.71456 14.4244V14.0076H5.81888H4.92321V14.4221C4.92321 15.0531 5.12338 15.5348 5.57791 15.998C6.11313 16.5433 6.63846 16.737 7.72705 16.7905C9.32353 16.869 10.2561 16.5655 10.7864 15.7946C10.9484 15.5593 11.132 15.1747 11.1944 14.9402C11.3318 14.4243 11.3432 13.5533 11.2181 13.1359C11.112 12.7815 10.6459 12.2222 10.256 11.9812C10.1074 11.8893 9.9857 11.7905 9.9857 11.7617C9.9857 11.7328 10.1521 11.6312 10.3557 11.5361C11.1868 11.1472 11.5122 10.1079 11.1776 8.91136C11.0727 8.53595 10.9642 8.35736 10.6495 8.04201C10.0392 7.43038 9.59278 7.28832 8.19436 7.26114C7.57323 7.24907 6.9331 7.27212 6.77172 7.31239ZM13.8204 9.62665L13.841 12.0216L15.8731 12.0423L17.9052 12.0631L18.0928 12.2626C18.2729 12.4542 18.2813 12.5121 18.3015 13.7217C18.3302 15.4331 18.2694 15.5285 17.0972 15.6137C15.978 15.695 15.5938 15.3991 15.5935 14.4555L15.5934 14.0076H14.6874H13.7816L13.8182 14.5775C13.8915 15.72 14.5818 16.4633 15.8114 16.724C16.6875 16.9097 18.2869 16.7894 18.8733 16.4938C19.28 16.2887 19.8139 15.657 19.9926 15.1693C20.1144 14.837 20.1474 14.5493 20.1484 13.8129C20.1498 12.767 20.0346 12.3014 19.6396 11.7561C19.1131 11.0293 18.4598 10.8174 16.7402 10.8156L15.5893 10.8144L15.6108 9.62665L15.6323 8.43891L17.8625 8.41827L20.0928 8.39763L20.1467 7.89473C20.1763 7.61816 20.1782 7.35585 20.151 7.31177C20.1184 7.25904 19.0251 7.2317 16.9507 7.2317H13.7998L13.8204 9.62665ZM26.5217 11.9999L26.5362 16.7725L27.2566 16.795L27.977 16.8173L27.9795 12.8618C27.9822 8.49241 27.9677 8.58946 28.4361 9.79402C28.5626 10.1197 29.0524 11.3843 29.5247 12.6043C29.9968 13.8245 30.4148 14.8332 30.4535 14.8462C30.5744 14.8864 30.667 14.7029 31.1122 13.5403C31.35 12.9192 31.78 11.8152 32.0676 11.087C32.3552 10.3588 32.6313 9.6578 32.6812 9.52929C32.7312 9.40078 32.8308 9.19049 32.9027 9.06199C33.0263 8.84087 33.0334 9.04251 33.0364 12.8199L33.0395 16.8115H33.7405H34.4414V12.1448C34.4414 9.57812 34.4631 7.42166 34.4896 7.35265C34.5326 7.24042 34.4248 7.22944 33.4662 7.24891L32.3945 7.27064L32.2374 7.69901C31.8862 8.65628 30.5319 12.1794 30.5045 12.2069C30.4624 12.2492 30.4092 12.1141 29.4662 9.56823L28.6153 7.27064L27.5612 7.24899L26.5071 7.22734L26.5217 11.9999ZM36.9273 7.2641C36.9094 7.28193 36.9041 9.43739 36.9154 12.054L36.9361 16.8115H37.6235H38.3108L38.362 15.1175C38.3902 14.1858 38.4132 12.4088 38.4134 11.1688C38.4135 9.87712 38.4426 8.94562 38.4816 8.98799C38.5191 9.02865 38.6624 9.35989 38.8001 9.724C39.2936 11.0288 40.6913 14.5944 40.7617 14.7281C40.8012 14.803 40.8684 14.8644 40.9111 14.8644C40.9537 14.8644 41.0096 14.803 41.0352 14.7281C41.0842 14.5845 41.6598 13.1114 42.6558 10.5807C42.9846 9.74542 43.2861 9.02873 43.3259 8.98799C43.3703 8.94243 43.3981 10.432 43.3981 12.8627V16.8115H44.0991C44.4846 16.8115 44.8031 16.8027 44.8068 16.792C44.8105 16.7813 44.8322 14.6259 44.8552 12.0021L44.8969 7.2317H43.8335C43.0505 7.2317 42.7624 7.2574 42.7406 7.32906C42.7244 7.38264 42.4574 8.10985 42.1472 8.94516C41.837 9.78047 41.4431 10.8418 41.2717 11.3037C41.1004 11.7657 40.9254 12.132 40.8829 12.1178C40.8028 12.0911 40.3681 10.9869 39.5833 8.8168C39.3332 8.12511 39.0891 7.48552 39.0409 7.39541C38.9588 7.24214 38.8897 7.2317 37.9564 7.2317C37.4083 7.2317 36.9451 7.24626 36.9273 7.2641ZM49.4868 7.31504C49.0145 7.40803 48.3877 7.7089 48.0513 8.00424C47.8944 8.14209 47.6682 8.45394 47.5486 8.69733L47.3313 9.13987L47.3072 11.7677C47.2803 14.6848 47.3217 15.0456 47.756 15.6769C48.03 16.0751 48.5704 16.4365 49.1616 16.6169C49.7215 16.7878 51.9342 16.866 52.723 16.7428C53.9235 16.5553 54.6637 16.08 55.0134 15.272C55.2191 14.7965 55.3212 13.3878 55.1505 13.3789C54.9169 13.3667 53.8741 13.397 53.8545 13.4167C53.8431 13.428 53.8201 13.7453 53.8034 14.1214C53.768 14.9206 53.6607 15.1223 53.1296 15.3885C52.3511 15.7788 50.1989 15.8288 49.49 15.473C48.7913 15.1224 48.8138 15.2307 48.7913 12.1133C48.7717 9.39572 48.773 9.37103 48.9471 9.06658C49.2319 8.56859 49.6791 8.38751 50.7396 8.3407C51.7518 8.29607 52.8205 8.41695 53.1573 8.61415C53.5994 8.87311 53.714 9.11977 53.7568 9.90446L53.7957 10.6197H54.4967H55.1976L55.1937 9.87977C55.1905 9.28107 55.1553 9.06191 55.0092 8.7316C54.7048 8.04364 54.0581 7.57127 53.1166 7.34938C52.5732 7.22118 50.0833 7.19766 49.4868 7.31504Z" fill="#ECECED" style="fill:#ECECED;fill:color(display-p3 0.9255 0.9255 0.9294);fill-opacity:1;"/>
</svg>
