<svg width="56" height="24" viewBox="0 0 56 24" fill="none" xmlns="http://www.w3.org/2000/svg">
<path d="M5.39746 16.9844C5.49527 16.995 5.59887 17 5.70801 17H9.18848C9.24532 17 9.30068 16.9989 9.35449 16.9961L9.18848 17H5.70801L5.54199 16.9961C5.49251 16.9936 5.44431 16.9894 5.39746 16.9844Z" fill="#EDECEC" style="fill:#EDECEC;fill:color(display-p3 0.9294 0.9255 0.9255);fill-opacity:1;"/>
<path d="M10.2441 16.6768L10.1484 16.7598C10.1177 16.7827 10.0845 16.802 10.0508 16.8213C10.1216 16.7807 10.1867 16.7342 10.2441 16.6768Z" fill="#EDECEC" style="fill:#EDECEC;fill:color(display-p3 0.9294 0.9255 0.9255);fill-opacity:1;"/>
<path d="M10.1611 11.2148L10.2441 11.2881C10.2159 11.2599 10.1858 11.234 10.1543 11.21C10.1565 11.2117 10.1589 11.2131 10.1611 11.2148Z" fill="#EDECEC" style="fill:#EDECEC;fill:color(display-p3 0.9294 0.9255 0.9255);fill-opacity:1;"/>
<path d="M4.72656 7.74902C4.73262 7.7696 4.74116 7.78934 4.75195 7.80859C4.74144 7.78988 4.73233 7.77107 4.72656 7.75098V7.74902Z" fill="#EDECEC" style="fill:#EDECEC;fill:color(display-p3 0.9294 0.9255 0.9255);fill-opacity:1;"/>
<path d="M10.3877 7.38867L10.3828 7.50781C10.3813 7.52299 10.3772 7.53774 10.375 7.55273C10.3828 7.49875 10.3877 7.44501 10.3877 7.38867Z" fill="#EDECEC" style="fill:#EDECEC;fill:color(display-p3 0.9294 0.9255 0.9255);fill-opacity:1;"/>
<path d="M13.7998 16.9844C13.8978 16.995 14.002 17 14.1113 17L13.9443 16.9961C13.8949 16.9936 13.8467 16.9895 13.7998 16.9844Z" fill="#EDECEC" style="fill:#EDECEC;fill:color(display-p3 0.9294 0.9255 0.9255);fill-opacity:1;"/>
<path d="M18.7666 16.6768C18.7365 16.7068 18.7047 16.7345 18.6709 16.7598C18.6402 16.7827 18.6069 16.802 18.5732 16.8213C18.6442 16.7807 18.7091 16.7343 18.7666 16.6768Z" fill="#EDECEC" style="fill:#EDECEC;fill:color(display-p3 0.9294 0.9255 0.9255);fill-opacity:1;"/>
<path d="M12.8506 16.3652C12.9002 16.484 12.9669 16.588 13.0547 16.6758C12.9945 16.6156 12.944 16.5485 12.9023 16.4736C12.8831 16.4391 12.8662 16.4028 12.8506 16.3652Z" fill="#EDECEC" style="fill:#EDECEC;fill:color(display-p3 0.9294 0.9255 0.9255);fill-opacity:1;"/>
<path d="M18.4707 7.91211C18.4612 7.91759 18.4503 7.91972 18.4404 7.92383C18.4547 7.91785 18.4686 7.91064 18.4824 7.90234L18.4707 7.91211Z" fill="#EDECEC" style="fill:#EDECEC;fill:color(display-p3 0.9294 0.9255 0.9255);fill-opacity:1;"/>
<path fill-rule="evenodd" clip-rule="evenodd" d="M24 24H0V0H24V24ZM5.04785 6.41016C4.94036 6.41018 4.80544 6.42335 4.69043 6.53809C4.57549 6.6532 4.5625 6.78892 4.5625 6.89648V7.61621C4.56254 7.72379 4.57542 7.8596 4.69043 7.97461C4.80543 8.0893 4.94037 8.10252 5.04785 8.10254H8.15723L5.9082 10.6123L5.90723 10.6143C5.81715 10.7173 5.75067 10.814 5.70898 10.9258C5.66743 11.0374 5.65433 11.1534 5.6543 11.2881V12.0205C5.65434 12.1281 5.66721 12.2639 5.78223 12.3789C5.89714 12.4935 6.03222 12.5068 6.13965 12.5068H8.97852V15.459H5.91797V14.5049C5.91797 14.3973 5.905 14.2616 5.79004 14.1465C5.67487 14.0314 5.53927 14.0186 5.43164 14.0186H4.66406C4.55642 14.0186 4.42083 14.0313 4.30566 14.1465C4.19089 14.2616 4.17773 14.3974 4.17773 14.5049V15.6201C4.17779 16.088 4.26327 16.4994 4.5459 16.7822C4.82881 17.0649 5.23992 17.1504 5.70801 17.1504H9.18848C9.65646 17.1503 10.0677 17.0649 10.3506 16.7822C10.6331 16.4994 10.7177 16.088 10.7178 15.6201V12.3447C10.7178 11.8767 10.6331 11.4655 10.3506 11.1826C10.0677 10.8997 9.6566 10.8145 9.18848 10.8145H7.89648L10.0791 8.42578L10.0801 8.4248C10.3961 8.07087 10.5379 7.76012 10.5381 7.38867C10.5381 7.11208 10.4528 6.86033 10.2559 6.67969C10.0603 6.50072 9.77534 6.41016 9.41602 6.41016H5.04785ZM14.5186 6.41016C14.0504 6.4102 13.6393 6.49546 13.3564 6.77832C13.0738 7.06123 12.9893 7.47242 12.9893 7.94043V10.9766C12.9893 11.4445 13.0738 11.8558 13.3564 12.1387C13.6393 12.4213 14.0506 12.5068 14.5186 12.5068H17.501V15.459H14.3213V14.457C14.3213 14.3495 14.3081 14.2137 14.1934 14.0986C14.0782 13.9835 13.9426 13.9707 13.835 13.9707H13.0674C12.9597 13.9707 12.8242 13.9834 12.709 14.0986C12.594 14.2138 12.5811 14.3495 12.5811 14.457V15.6201C12.5811 16.0882 12.6664 16.4994 12.9492 16.7822C13.2322 17.065 13.6432 17.1504 14.1113 17.1504H17.7109C18.1791 17.1504 18.5901 17.065 18.873 16.7822C19.1557 16.4994 19.2412 16.0881 19.2412 15.6201V12.3447C19.2412 11.8766 19.1557 11.4655 18.873 11.1826C18.5901 10.8997 18.1792 10.8145 17.7109 10.8145H14.7285V8.10254H18.2754C18.3829 8.1025 18.5179 8.08932 18.6328 7.97461C18.7478 7.8596 18.7607 7.72379 18.7607 7.61621V6.89648C18.7607 6.78892 18.7478 6.6532 18.6328 6.53809C18.5178 6.42333 18.3829 6.41019 18.2754 6.41016H14.5186Z" fill="#EDECEC" style="fill:#EDECEC;fill:color(display-p3 0.9294 0.9255 0.9255);fill-opacity:1;"/>
<path d="M34.048 6.44C34.768 6.44 35.2 6.692 35.2 7.376V16.664C35.2 16.76 35.188 16.844 35.116 16.916C35.044 16.988 34.96 17 34.864 17H34.096C34 17 33.916 16.988 33.844 16.916C33.772 16.844 33.76 16.76 33.76 16.664V8.096L31.948 10.232C31.636 10.604 31.42 10.724 31 10.724C30.58 10.724 30.364 10.604 30.052 10.232L28.24 8.096V16.664C28.24 16.76 28.228 16.844 28.156 16.916C28.084 16.988 28 17 27.904 17H27.136C27.04 17 26.956 16.988 26.884 16.916C26.812 16.844 26.8 16.76 26.8 16.664V7.376C26.8 6.704 27.244 6.44 27.94 6.44C28.396 6.44 28.72 6.596 29.044 6.98L31 9.284L32.848 7.1C33.28 6.596 33.628 6.44 34.048 6.44Z" fill="#EDECEC" style="fill:#EDECEC;fill:color(display-p3 0.9294 0.9255 0.9255);fill-opacity:1;"/>
<path d="M45.088 6.44C45.808 6.44 46.24 6.692 46.24 7.376V16.664C46.24 16.76 46.228 16.844 46.156 16.916C46.084 16.988 46 17 45.904 17H45.136C45.04 17 44.956 16.988 44.884 16.916C44.812 16.844 44.8 16.76 44.8 16.664V8.096L42.988 10.232C42.676 10.604 42.46 10.724 42.04 10.724C41.62 10.724 41.404 10.604 41.092 10.232L39.28 8.096V16.664C39.28 16.76 39.268 16.844 39.196 16.916C39.124 16.988 39.04 17 38.944 17H38.176C38.08 17 37.996 16.988 37.924 16.916C37.852 16.844 37.84 16.76 37.84 16.664V7.376C37.84 6.704 38.284 6.44 38.98 6.44C39.436 6.44 39.76 6.596 40.084 6.98L42.04 9.284L43.888 7.1C44.32 6.596 44.668 6.44 45.088 6.44Z" fill="#EDECEC" style="fill:#EDECEC;fill:color(display-p3 0.9294 0.9255 0.9255);fill-opacity:1;"/>
<path d="M54.004 9.356C53.932 9.284 53.92 9.2 53.92 9.104V7.952H50.32V15.608H53.92V14.456C53.92 14.36 53.932 14.276 54.004 14.204C54.076 14.132 54.16 14.12 54.256 14.12H55.024C55.12 14.12 55.204 14.132 55.276 14.204C55.348 14.276 55.36 14.36 55.36 14.456V15.62C55.36 16.076 55.276 16.436 55.036 16.676C54.796 16.916 54.436 17 53.98 17H50.26C49.804 17 49.444 16.916 49.204 16.676C48.964 16.436 48.88 16.076 48.88 15.62V7.94C48.88 7.484 48.964 7.124 49.204 6.884C49.444 6.644 49.804 6.56 50.26 6.56H53.98C54.436 6.56 54.796 6.644 55.036 6.884C55.276 7.124 55.36 7.484 55.36 7.94V9.104C55.36 9.2 55.348 9.284 55.276 9.356C55.204 9.428 55.12 9.44 55.024 9.44H54.256C54.16 9.44 54.076 9.428 54.004 9.356Z" fill="#EDECEC" style="fill:#EDECEC;fill:color(display-p3 0.9294 0.9255 0.9255);fill-opacity:1;"/>
</svg>
