<svg width="65" height="24" viewBox="0 0 65 24" fill="none" xmlns="http://www.w3.org/2000/svg">
<path d="M19.6625 6.00009C19.6625 6.24433 19.5451 6.36115 18.8198 6.36115C18.0945 6.36115 17.9131 6.18062 17.9131 5.88327V5.81955C17.9131 5.57531 17.9771 5.45849 18.0945 5.27796L18.7558 5.45849C19.5345 5.63902 19.6625 5.75584 19.6625 5.88327V5.94699V6.00009ZM19.5451 2.87796C19.5451 3.23903 19.3638 3.47265 18.7665 3.47265C18.1051 3.47265 17.9878 3.11159 17.9878 2.87796V2.81425C17.9878 2.45318 18.1051 2.15584 18.7665 2.15584C19.3638 2.15584 19.5451 2.45318 19.5451 2.75053V2.87796ZM20.7505 2.03902V1.44434H18.7558C17.4865 1.44434 16.9531 2.03903 16.9531 2.76115V2.82487C16.9531 3.18593 17.0705 3.41956 17.3158 3.72752C17.0705 3.84433 17.0171 4.08858 17.0171 4.32221C17.0171 4.55584 17.1345 4.8638 17.3158 4.98062C17.0918 5.20363 16.9638 5.50097 16.9531 5.81955V5.88327C16.9531 6.65849 17.5505 7.08327 18.7558 7.08327C20.0785 7.08327 20.6225 6.72221 20.6225 5.94699C20.6225 5.10805 20.0251 4.92752 18.9371 4.74699L18.0945 4.50274C17.9131 4.50274 17.7958 4.38593 17.7958 4.25849L17.9771 4.07796C18.0945 4.07796 18.3398 4.19478 18.7558 4.19478C19.8971 4.19478 20.5585 3.77 20.5585 2.81425C20.5585 2.5169 20.4411 2.33637 20.3131 2.21956L20.5585 2.10274L20.6758 2.03902M54.3718 19.2638H53.4651L52.9851 22.5027H52.9211L52.2598 19.2638H51.0545L50.3931 22.5027L49.7958 19.2638H48.7718C49.0171 20.8461 49.3585 22.4072 49.7958 23.947H50.7558L51.4811 20.708L52.2065 23.947H53.3478C53.7745 22.3753 54.0731 20.8249 54.3718 19.2638ZM56.5478 22.2585C56.5478 23.0337 56.3665 23.3417 55.9505 23.3417C55.5345 23.3417 55.3531 23.0443 55.3531 22.078C55.3531 21.3027 55.5345 20.9948 55.9505 20.9948C56.3665 20.9948 56.5478 21.3027 56.5478 22.2585ZM57.6251 22.078C57.6251 20.878 57.1451 20.2833 55.9931 20.2833C54.7878 20.2833 54.1905 21.0054 54.1905 22.2585C54.1905 23.4585 54.7878 24.0001 55.8758 24.0001C57.0811 24.0001 57.6785 23.4054 57.6785 22.078M60.0358 20.4001C59.4918 20.2833 59.2571 20.3364 58.8305 20.9948V20.4001H57.9238V23.9364H58.9478V22.078C58.9478 21.3558 59.4278 21.1753 59.9078 21.3558C59.9185 21.3558 60.0358 20.4001 60.0358 20.4001Z" fill="#ECECED" style="fill:#ECECED;fill:color(display-p3 0.9255 0.9255 0.9294);fill-opacity:1;"/>
<path d="M29.8515 5.63894V0H28.8275V5.63894H29.8515ZM27.4409 4.86372L26.9609 4.92743C26.3635 4.92743 26.1822 4.81062 26.1822 4.38584C26.1822 3.96106 26.2995 3.79115 26.9609 3.79115H27.5049V4.81062L27.4409 4.86372ZM28.4649 5.57522V2.76106C28.4649 1.80531 27.8675 1.38053 26.8329 1.38053C26.3635 1.36991 25.9049 1.41239 25.4462 1.49735V2.27256H25.6275L26.8329 2.15575C27.2595 2.15575 27.4302 2.27256 27.4302 2.75044V3.1115H26.9502C25.6275 3.1115 25.1475 3.53628 25.1475 4.37522C25.1475 5.27787 25.7449 5.69203 26.9502 5.69203L28.4649 5.57522ZM25.0835 5.57522V4.91681H24.4862C24.2409 4.91681 24.2409 4.8531 24.2409 4.49203V2.09203H25.0835V1.49735H24.2409V0.477876L23.2169 0.658406V1.43363H22.4382V2.02832H22.6195L23.2809 2.14513V4.48141C23.2809 5.43717 23.6435 5.68141 24.4862 5.68141L25.0302 5.6177H25.1475M22.1395 5.63894V1.44425H21.1155V5.58584H22.0755L22.1395 5.63894ZM22.1395 0.955752V0H21.1155V0.955752H22.1395ZM16.7102 5.4584V1.43363H15.7502V5.62832H16.7102V5.38407V5.4584ZM16.7102 0.838937V0H15.7502V0.955752H16.7742V0.838937H16.7102ZM14.4169 3.41947C14.4169 4.50265 13.8195 4.8 13.0942 4.8H12.4969V0.902654H13.0942C13.8195 0.902654 14.4169 1.2 14.4169 2.28318V3.41947ZM15.4515 3.41947V2.28318C15.4515 0.838938 14.6089 0 13.0409 0C12.4969 0 11.9529 0.0424785 11.4089 0.116815V5.52212L11.5902 5.58584L13.0942 5.70265C14.5982 5.70265 15.4515 4.86371 15.4515 3.41947ZM55.1635 8.58053V5.93628H54.6835C53.8409 5.93628 52.6355 6.11681 51.5475 6.95575V6.05309H48.7742V18.4142H51.6649V9.53628C52.1449 8.94159 55.1635 8.58053 55.1635 8.58053ZM45.1582 11.1611H40.5182V11.0973C40.5182 9.35575 41.4782 8.4 42.8649 8.4C44.1875 8.4 45.1582 9.35575 45.1582 11.0973V11.1611ZM48.1129 12.7752V11.3947C48.1129 8.15575 46.2462 5.81947 42.8649 5.81947C39.4835 5.81947 37.4995 8.03893 37.4995 11.4584V13.0832C37.4995 17.4053 40.6355 18.6053 42.8649 18.6053C44.4435 18.6372 46.0222 18.4779 47.5689 18.1274V15.8442H47.1422C46.2355 15.9611 44.7315 16.0885 43.0995 16.0885C40.9875 16.0885 40.4435 14.5911 40.4435 13.3274V13.2106H47.6755C47.9209 13.2106 48.1022 13.0301 48.1022 12.7327M36.8382 10.4389C36.8382 7.8584 36.2409 5.81947 33.2222 5.81947C31.6542 5.81947 30.6942 6.24424 29.6062 6.83893C29.0622 6.24424 28.2195 5.81947 27.0142 5.81947C25.6915 5.81947 24.7849 6.29734 23.8782 6.90265V6H21.0409V18.3611H23.9315V9.12212C24.5715 8.71858 25.2862 8.47433 26.0435 8.4C27.2489 8.4 27.5475 8.82477 27.5475 10.5026V18.4248H30.4382V10.5026L30.3742 8.94159C31.0035 8.59115 31.7075 8.38938 32.4222 8.3469C33.6275 8.3469 33.9902 8.82477 33.9902 10.5026V18.4248H36.8809V10.5026L36.8382 10.4389ZM17.3715 16.3221H15.8675C14.0649 16.3221 13.5742 16.0248 13.5742 14.8248V14.6442C13.5742 13.4442 13.8195 12.9026 15.8675 12.9026H17.3715V16.3221ZM20.2729 10.0248C20.2729 7.2 18.5875 5.83009 15.4515 5.83009C13.9475 5.83009 12.6782 6.01062 11.8355 6.19115L11.3555 6.30796V8.46371H11.8995C12.6249 8.3469 14.0649 8.28318 15.5155 8.28318C16.7209 8.28318 17.3822 8.58053 17.3822 10.0779V10.9805H15.8782C12.0169 10.9805 10.6942 12.2442 10.6942 14.7611V14.8248C10.6942 17.469 12.2622 18.5416 15.8782 18.5416C17.9262 18.5416 20.2729 18.3611 20.2729 18.3611V10.0779V10.0248ZM11.2275 18C10.1395 17.0442 10.0862 15.7805 10.0222 15.7805C9.01952 15.8655 8.01685 15.8973 7.01419 15.8973C5.21152 15.8973 3.82485 14.8779 3.82485 11.8195V9.17522C3.82485 6.11681 5.14752 5.09734 7.01419 5.09734C8.28352 5.03363 10.9289 5.39469 10.9289 5.39469V2.99469L10.4489 2.87788C10.0862 2.76106 8.64619 2.51681 6.95019 2.51681C4.35819 2.58053 0.742188 3.78053 0.742188 9.23893V11.8832C0.742188 17.2779 4.35819 18.6053 6.95019 18.6053C8.12352 18.5947 9.29685 18.4779 10.4489 18.2442L11.2275 18.0637M57.9902 14.6973C57.9902 13.4973 58.2889 12.9557 60.2835 12.9557H61.7875V16.3752H60.2835C58.4809 16.3752 57.9902 16.0779 57.9902 14.8779M64.6782 10.0779C64.6782 7.25309 62.9929 5.88318 59.8569 5.88318C58.3529 5.88318 57.0835 6 56.2409 6.18053L55.8142 6.29734V8.51681C55.8142 8.51681 57.5635 8.27256 59.8569 8.27256C61.1795 8.27256 61.7875 8.63362 61.7875 10.0673V11.023H60.2835C56.4222 11.023 55.0995 12.2867 55.0995 14.8035V14.8673C55.0995 17.5115 56.6675 18.5841 60.2835 18.5841C62.3315 18.5841 64.6782 18.4035 64.6782 18.4035V10.0779ZM60.2835 19.0832H61.3075V23.9469H60.2835V19.0832ZM63.7182 22.6195C63.7182 22.9168 63.4729 23.2142 63.1209 23.2142C62.8222 23.2142 62.6409 22.9168 62.6409 22.131C62.6409 21.292 62.9395 20.9947 63.3662 20.9947L63.7289 21.0584C63.7182 21.0584 63.7182 22.6195 63.7182 22.6195ZM64.7422 23.9363V19.0726H63.7182V20.3894H63.4195C62.0969 20.3894 61.5529 20.9841 61.5529 22.3646C61.5529 23.5009 61.9155 23.9894 62.7582 23.9894C63.2382 23.9894 63.6009 23.7451 63.8462 23.5115L63.9102 23.9363C63.8995 23.9363 64.7422 23.9363 64.7422 23.9363Z" fill="#ECECED" style="fill:#ECECED;fill:color(display-p3 0.9255 0.9255 0.9294);fill-opacity:1;"/>
</svg>
