<svg width="136" height="24" viewBox="0 0 136 24" fill="none" xmlns="http://www.w3.org/2000/svg">
<g clip-path="url(#clip0_3909_2509)">
<path d="M8.51213 11.4175V11.5301C8.51213 11.6259 8.50087 11.7498 8.47834 11.8963C8.39948 12.3975 8.19671 12.8481 7.87003 13.248C7.28988 13.9127 6.56329 14.2506 5.70152 14.2506H5.23403C5.15517 14.2506 5.08758 14.2337 5.03689 14.1999C4.87355 14.1211 4.78906 13.9859 4.78906 13.8057V9.1476C4.78906 9.06875 4.80596 9.00679 4.82286 8.9561C4.91298 8.78712 5.04816 8.70264 5.23403 8.70264H5.70152C6.32673 8.70264 6.88435 8.88288 7.37437 9.23772C7.58277 9.3898 7.77428 9.57567 7.94888 9.8066C8.32626 10.3192 8.51213 10.8599 8.51213 11.4175Z" fill="#ECECED" style="fill:#ECECED;fill:color(display-p3 0.9255 0.9255 0.9294);fill-opacity:1;"/>
<path d="M25.0586 17.2354V3.83008H28.6071C30.2179 3.83008 31.4177 3.94273 32.2175 4.17366C33.0173 4.39896 33.6876 4.91715 34.2283 5.72259C34.769 6.52804 35.0393 7.47429 35.0393 8.56699C35.0393 9.44003 34.8591 10.2229 34.5043 10.9214C34.1494 11.6142 33.7101 12.1267 33.1806 12.459C32.6568 12.7914 32.0654 13.011 31.4064 13.1237C30.7474 13.2363 29.7561 13.2926 28.4268 13.2926H27.3679V17.2354H27.8748V19.1504H25.0586V17.2354ZM27.3735 11.4396H28.6972C30.201 11.4396 31.2431 11.2255 31.8232 10.7975C32.4033 10.3694 32.6906 9.609 32.6906 8.52193C32.6906 7.82914 32.5385 7.26026 32.2287 6.80403C31.919 6.3478 31.5359 6.06054 31.0853 5.93663C30.6291 5.81271 29.8687 5.75075 28.8042 5.75075H27.3735V11.4452V11.4396Z" fill="#ECECED" style="fill:#ECECED;fill:color(display-p3 0.9255 0.9255 0.9294);fill-opacity:1;"/>
<path d="M37.6317 3.83008V9.71039C38.8878 8.69654 40.0819 8.18962 41.214 8.18962C41.918 8.18962 42.4982 8.33606 42.9544 8.62895C43.4107 8.92184 43.7204 9.31048 43.8838 9.78924C44.0471 10.268 44.1316 10.9721 44.1316 11.8958V17.2804H44.616V19.1448H42.0363V12.6224C42.0363 11.8169 42.0082 11.2762 41.9575 11.0059C41.9068 10.7355 41.766 10.5102 41.535 10.3356C41.3041 10.161 41.0281 10.0709 40.7127 10.0709C39.9073 10.0709 38.8765 10.5327 37.6261 11.4452V17.2804H38.0992V19.1448H35.0352V17.2804H35.5364V3.83008H37.6317Z" fill="#ECECED" style="fill:#ECECED;fill:color(display-p3 0.9255 0.9255 0.9294);fill-opacity:1;"/>
<path d="M117.6 3.83008V9.71039C118.857 8.69654 120.051 8.18962 121.183 8.18962C121.887 8.18962 122.467 8.33606 122.923 8.62895C123.379 8.92184 123.689 9.31048 123.853 9.78924C124.016 10.268 124.1 10.9721 124.1 11.8958V17.2804H124.568V19.1448H122.005V12.6224C122.005 11.8169 121.977 11.2762 121.926 11.0059C121.876 10.7355 121.735 10.5102 121.504 10.3356C121.273 10.161 120.997 10.0709 120.681 10.0709C119.876 10.0709 118.845 10.5327 117.6 11.4452V17.2804H118.085V19.1448H115.004V17.2804H115.511V3.83008H117.606H117.6Z" fill="#ECECED" style="fill:#ECECED;fill:color(display-p3 0.9255 0.9255 0.9294);fill-opacity:1;"/>
<path d="M44.615 13.8224C44.615 12.1777 45.1557 10.8259 46.2428 9.77267C47.3299 8.71939 48.6535 8.18994 50.2193 8.18994C51.7852 8.18994 53.075 8.70813 54.1733 9.75014C55.2773 10.7865 55.8236 12.1439 55.8236 13.8224C55.8236 15.5009 55.2717 16.8527 54.179 17.9003C53.0806 18.9423 51.7626 19.4662 50.2193 19.4662C48.676 19.4662 47.3017 18.9367 46.2259 17.8778C45.1501 16.8189 44.6094 15.4671 44.6094 13.8224H44.615ZM46.8286 13.8224C46.8286 14.8757 47.1553 15.7375 47.8143 16.4077C48.4733 17.078 49.2731 17.4159 50.2193 17.4159C51.1656 17.4159 51.9879 17.078 52.6357 16.3965C53.2834 15.7149 53.6101 14.8588 53.6101 13.8224C53.6101 12.786 53.2778 11.9186 52.6188 11.2427C51.9598 10.5668 51.1543 10.2289 50.2193 10.2289C49.2843 10.2289 48.4226 10.5725 47.7861 11.2653C47.1496 11.9581 46.8286 12.8086 46.8286 13.8224Z" fill="#ECECED" style="fill:#ECECED;fill:color(display-p3 0.9255 0.9255 0.9294);fill-opacity:1;"/>
<path d="M57.2137 19.1504V10.3525H55.8281V8.48814H57.2137V3.83008H59.309V8.48814H61.2804V10.3525H59.309V19.1504H57.2137Z" fill="#ECECED" style="fill:#ECECED;fill:color(display-p3 0.9255 0.9255 0.9294);fill-opacity:1;"/>
<path d="M61.2773 13.8224C61.2773 12.1777 61.8181 10.8259 62.9051 9.77267C63.9922 8.71939 65.3158 8.18994 66.8817 8.18994C68.4475 8.18994 69.7317 8.70813 70.8357 9.75014C71.9396 10.7865 72.486 12.1439 72.486 13.8224C72.486 15.5009 71.9396 16.8527 70.8413 17.9003C69.743 18.9423 68.425 19.4662 66.8817 19.4662C65.3384 19.4662 63.964 18.9367 62.8882 17.8778C61.8124 16.8189 61.2773 15.4671 61.2773 13.8224ZM63.4909 13.8224C63.4909 14.8757 63.8176 15.7375 64.4766 16.4077C65.1356 17.078 65.9354 17.4159 66.8817 17.4159C67.8279 17.4159 68.6503 17.078 69.298 16.3965C69.9457 15.7149 70.2724 14.8588 70.2724 13.8224C70.2724 12.786 69.9401 11.9186 69.2811 11.2427C68.6221 10.5668 67.8223 10.2289 66.8817 10.2289C65.941 10.2289 65.0849 10.5725 64.4484 11.2653C63.812 11.9581 63.4909 12.8086 63.4909 13.8224Z" fill="#ECECED" style="fill:#ECECED;fill:color(display-p3 0.9255 0.9255 0.9294);fill-opacity:1;"/>
<path d="M86.0717 8.31373V10.1781H84.1567V18.1199C84.1567 19.1901 84.1003 19.9842 83.9933 20.5024C83.8807 21.0206 83.616 21.5501 83.1935 22.0908C82.7711 22.6315 82.1403 23.0821 81.2954 23.4482C80.4505 23.8143 79.5099 24.0002 78.4622 24.0002C76.8908 24.0002 75.4883 23.5271 74.2548 22.5808L75.6178 21.06C76.5416 21.781 77.5498 22.1415 78.6368 22.1415C79.2395 22.1415 79.7971 22.0232 80.3097 21.7923C80.8222 21.5613 81.2053 21.2797 81.4587 20.9474C81.7122 20.6151 81.8755 20.3053 81.9487 20.0068C82.022 19.7082 82.0614 19.2069 82.0614 18.5029V17.5341C81.7291 17.9509 81.2109 18.3508 80.5068 18.7226C79.8028 19.0943 79.0311 19.2858 78.1919 19.2858C76.6655 19.2858 75.4207 18.7564 74.4575 17.6974C73.4944 16.6385 73.0156 15.3374 73.0156 13.7998C73.0156 12.11 73.5451 10.747 74.6096 9.71059C75.6685 8.67421 76.8964 8.15039 78.2933 8.15039C79.6901 8.15039 80.9574 8.71364 82.0614 9.8345V8.31373H86.0717ZM75.2461 13.7547C75.2461 14.8361 75.5615 15.7148 76.1867 16.3963C76.8176 17.0779 77.6174 17.4215 78.5918 17.4215C79.5662 17.4215 80.366 17.0779 81.0588 16.3907C81.7516 15.7035 82.0952 14.8192 82.0952 13.7434C82.0952 12.6676 81.7516 11.7721 81.0588 11.1074C80.366 10.4428 79.5662 10.1105 78.6594 10.1105C77.7525 10.1105 76.9527 10.4372 76.2712 11.0962C75.5897 11.7552 75.2461 12.6395 75.2461 13.7547Z" fill="#ECECED" style="fill:#ECECED;fill:color(display-p3 0.9255 0.9255 0.9294);fill-opacity:1;"/>
<path d="M87.6126 17.1117V10.1725H85.7539V8.30813H89.2855V10.7076C89.522 10.0824 89.8487 9.56418 90.2655 9.15301C90.6823 8.74184 91.1273 8.47148 91.5948 8.3363C92.0623 8.20675 92.6988 8.13916 93.5042 8.13916H94.0562V10.2513H93.6394C92.5748 10.2513 91.7807 10.3584 91.2568 10.5724C90.733 10.7864 90.3444 11.1751 90.0909 11.7327C89.8375 12.2959 89.7135 13.3041 89.7135 14.7573V17.1061H90.2261V18.9704H86.9311V17.1061H87.6183L87.6126 17.1117Z" fill="#ECECED" style="fill:#ECECED;fill:color(display-p3 0.9255 0.9255 0.9294);fill-opacity:1;"/>
<path d="M103.399 17.0945V18.9533H101.05V17.6522C100.036 18.6378 98.9043 19.1279 97.6595 19.1279C96.6907 19.1279 95.8458 18.8124 95.1305 18.1816C94.4152 17.5508 94.0547 16.7397 94.0547 15.7596C94.0547 14.7796 94.4321 13.946 95.1925 13.2926C95.9528 12.6392 96.8709 12.3126 97.9411 12.3126C98.9381 12.3126 99.9068 12.6111 100.836 13.2138V12.1549C100.836 11.6141 100.786 11.1917 100.684 10.8988C100.583 10.6059 100.341 10.3412 99.9632 10.1046C99.5858 9.86806 99.0901 9.74978 98.4818 9.74978C97.4285 9.74978 96.6738 10.1666 96.2007 11.0058L94.4433 10.2567C95.3333 8.59512 96.6175 7.98682 98.7972 7.98682C99.5971 7.98682 100.29 8.09383 100.876 8.3135C101.461 8.52753 101.895 8.80916 102.182 9.15274C102.47 9.49632 102.661 9.86243 102.763 10.2623C102.864 10.6566 102.909 11.2931 102.909 12.1549V17.0889H103.399V17.0945ZM100.836 14.988C99.935 14.2839 99.0169 13.9291 98.0932 13.9291C97.513 13.9291 97.0286 14.0981 96.64 14.436C96.2514 14.774 96.0542 15.2133 96.0542 15.7484C96.0542 16.2497 96.2232 16.6665 96.5668 17.0044C96.9104 17.3424 97.3722 17.5113 97.958 17.5113C98.9718 17.5113 99.9294 17.0833 100.831 16.2328V14.988H100.836Z" fill="#ECECED" style="fill:#ECECED;fill:color(display-p3 0.9255 0.9255 0.9294);fill-opacity:1;"/>
<path d="M103.934 21.9275V10.1725H103.557V8.30813H106.029V9.98098C107.071 8.7531 108.333 8.13916 109.82 8.13916C111.307 8.13916 112.557 8.65172 113.537 9.68246C114.517 10.7132 115.007 12.0481 115.007 13.6928C115.007 15.4163 114.472 16.7794 113.413 17.782C112.349 18.7789 111.138 19.2802 109.78 19.2802C108.423 19.2802 107.122 18.7395 106.035 17.6524V21.9275H106.536V23.758H103.41V21.9275H103.945H103.934ZM105.995 13.7998C105.995 14.3856 106.119 14.9488 106.362 15.4839C106.604 16.019 106.987 16.4696 107.516 16.8357C108.046 17.1962 108.665 17.3821 109.381 17.3821C110.378 17.3821 111.206 17.0497 111.853 16.3795C112.501 15.7092 112.828 14.7911 112.828 13.6252C112.828 12.4593 112.49 11.5975 111.808 10.961C111.127 10.3246 110.355 10.0035 109.488 10.0035C108.564 10.0035 107.747 10.3527 107.049 11.0455C106.345 11.7383 105.995 12.662 105.995 13.8054V13.7998Z" fill="#ECECED" style="fill:#ECECED;fill:color(display-p3 0.9255 0.9255 0.9294);fill-opacity:1;"/>
<path d="M128.586 18.7904L125.083 10.1783H124.57V8.31396H127.775V10.1783H127.308L129.611 16.0812L131.87 10.1783H131.369V8.31396H134.523V10.1783H134.039L128.761 23.7582H124.57V21.9277H127.308L128.586 18.7904Z" fill="#ECECED" style="fill:#ECECED;fill:color(display-p3 0.9255 0.9255 0.9294);fill-opacity:1;"/>
<path d="M11.7266 0C12.0701 0 12.4138 0.0170011 12.7461 0.0507812C18.6039 0.563337 23.2002 5.48045 23.2002 11.4678C23.2002 11.8562 23.1837 12.239 23.1387 12.6162C22.5642 18.4177 17.6745 22.9463 11.7266 22.9463C5.39023 22.9461 0.254024 17.7985 0.253906 11.4678C0.253906 5.13697 5.39016 0.000161414 11.7266 0ZM11.7051 4.76367C11.6312 4.77336 11.561 4.80208 11.4941 4.85547C11.3815 4.92869 11.3193 5.06992 11.3193 5.27832V17.6641C11.3194 17.7763 11.3369 17.8552 11.3594 17.917C11.4551 18.0969 11.5958 18.1875 11.7646 18.1875V18.1865L11.7666 18.1875C11.8622 18.1874 11.9527 18.1537 12.0371 18.0918C12.1497 18.0185 12.2061 17.8714 12.2061 17.6631V5.27734C12.206 5.17039 12.1944 5.09123 12.1719 5.0293C12.0762 4.84932 11.941 4.7589 11.7666 4.75879C11.7459 4.75879 11.7252 4.76093 11.7051 4.76367ZM4.41406 7.8125C4.3397 7.81251 4.27763 7.82076 4.22754 7.83301C4.21032 7.83726 4.194 7.84 4.17969 7.8457H4.17773V7.84668C3.99188 7.92554 3.89648 8.08324 3.89648 8.33105V14.6221C3.89651 14.7231 3.90754 14.8022 3.93555 14.8584C4.01445 15.0439 4.17217 15.1347 4.41406 15.1348H5.50879C5.88886 15.1348 6.18422 15.1114 6.39258 15.0713C6.43029 15.064 6.46613 15.0594 6.49805 15.0508C6.52597 15.0452 6.55339 15.0375 6.58105 15.0312C6.80515 14.9806 7.02131 14.909 7.23242 14.8135C7.43516 14.7234 7.67766 14.5826 7.96484 14.3799C8.12814 14.256 8.30759 14.0863 8.49902 13.8779C9.09607 13.1682 9.39453 12.3628 9.39453 11.4785C9.39449 10.9773 9.29964 10.4984 9.10254 10.0479C9.06306 9.92391 8.94435 9.70418 8.75293 9.39453C8.26859 8.71878 7.63771 8.2515 6.86621 7.99805C6.79776 7.97252 6.724 7.94995 6.64551 7.92969C6.60031 7.91799 6.55341 7.90741 6.50488 7.89746C6.22868 7.84096 5.89868 7.81252 5.51465 7.8125H4.41406ZM19.1104 7.8125C18.9752 7.8125 18.8506 7.87421 18.7549 7.99805L16.958 10.6797C16.8718 10.8368 16.7804 10.9234 16.6934 10.9395C16.6844 10.941 16.6758 10.9433 16.667 10.9434C16.5994 10.9434 16.5426 10.9156 16.4863 10.8594C15.3544 9.16428 14.7514 8.26886 14.6836 8.17285C14.5597 7.93065 14.3966 7.8125 14.2051 7.8125H14.2041C14.1254 7.81252 14.0417 7.84261 13.9531 7.90137C13.9471 7.90537 13.9406 7.90882 13.9346 7.91309H13.9336V7.91406C13.8211 8.02096 13.7706 8.13357 13.7705 8.24609C13.7706 8.32484 13.7988 8.41026 13.8438 8.50586L16.085 11.8457C16.1691 11.958 16.2147 12.0537 16.2148 12.1436V14.5996C16.2149 14.7177 16.2316 14.8143 16.2598 14.8818C16.3667 15.0504 16.4968 15.1348 16.6543 15.1348V15.1338L16.6553 15.1348C16.7895 15.118 16.8575 15.1008 16.8584 15.084C17.0216 15.0108 17.1054 14.8471 17.1055 14.5996V12.1436C17.1055 12.0592 17.1453 11.9635 17.2295 11.8623C18.7277 9.63184 19.4775 8.50488 19.4775 8.50488C19.5282 8.40923 19.5508 8.32465 19.5508 8.24023C19.5508 8.19521 19.5335 8.122 19.4941 8.02637C19.3872 7.88565 19.2577 7.8126 19.1113 7.8125H19.1104Z" fill="#ECECED" style="fill:#ECECED;fill:color(display-p3 0.9255 0.9255 0.9294);fill-opacity:1;"/>
</g>
<defs>
<clipPath id="clip0_3909_2509">
<rect width="135" height="24" fill="white" style="fill:white;fill-opacity:1;" transform="translate(0.253906)"/>
</clipPath>
</defs>
</svg>
