<svg width="55" height="24" viewBox="0 0 55 24" fill="none" xmlns="http://www.w3.org/2000/svg">
<path d="M34.5925 18.1784C34.7541 18.334 34.9157 18.4897 35.0906 18.6772C35.1396 18.7339 35.1753 18.759 35.2111 18.7841C35.2206 18.7982 35.2311 18.8116 35.248 18.8551C35.3128 18.9293 35.3722 18.9729 35.4471 19.0225C35.5064 19.0793 35.55 19.13 35.5929 19.2014C35.8929 19.6573 35.8792 19.7241 35.4679 20.0674C35.2785 20.2254 35.1042 20.4018 34.9232 20.5699C34.879 20.6027 34.8347 20.6355 34.7569 20.6768C34.4741 20.8701 34.2246 21.0548 33.9752 21.2395C33.9752 21.2395 33.9751 21.2435 33.9565 21.2432C33.4476 21.4883 32.9715 21.7691 32.4643 21.9725C30.8062 22.6371 29.0977 22.9484 27.3038 22.6727C25.5135 22.3976 23.8797 21.7644 22.4351 20.6623C22.1273 20.4275 21.8187 20.1938 21.5074 19.9455C21.4884 19.9226 21.4722 19.9138 21.4561 19.8856C21.0128 19.3641 20.5694 18.8621 20.1271 18.3542C20.1282 18.3483 20.1191 18.3406 20.1198 18.3203C19.9903 18.1059 19.8601 17.9118 19.7291 17.6971C19.1323 16.5522 18.6818 15.3802 18.501 14.1108C18.2772 12.5395 18.3462 10.9887 18.8316 9.47445C19.4591 7.51616 20.6014 5.89762 22.2053 4.61971C24.4934 2.79657 27.0884 2.0205 30.007 2.44184C31.6282 2.67591 33.1082 3.27579 34.4423 4.22609C34.9095 4.55899 35.36 4.91549 35.8183 5.25994C35.8183 5.25994 35.8176 5.26062 35.8228 5.28442C35.833 5.42134 35.838 5.53436 35.8339 5.65639C35.8249 5.66531 35.8196 5.69028 35.8012 5.69616C35.4124 6.05275 35.0325 6.39427 34.6734 6.75625C33.7969 7.63995 32.9266 8.53003 32.0618 9.42529C31.8979 9.59492 31.7725 9.56798 31.6114 9.43567C31.4419 9.2964 31.2568 9.17593 31.0751 9.03304C31.0558 9.01012 31.04 9.00151 31.0156 8.97633C30.8595 8.87046 30.7118 8.78095 30.551 8.68105C30.5164 8.66548 30.4949 8.66019 30.4664 8.63698C29.2399 8.02515 28.009 8.00517 26.7787 8.57135C26.5533 8.67507 26.3636 8.85685 26.144 9.01394C26.0825 9.05596 26.0343 9.08671 25.9661 9.11629C25.9042 9.13353 25.8567 9.14469 25.821 9.17143C24.6937 10.0157 24.213 11.1947 24.2415 12.5487C24.2798 14.3716 25.1755 15.7136 26.8128 16.5176C27.7688 16.9872 28.7681 17.1389 29.812 16.746C30.4567 16.5035 31.0452 16.1843 31.5619 15.7313C31.7402 15.5751 31.9094 15.4912 32.1154 15.7068C32.7256 16.345 33.3417 16.9776 33.9624 17.6056C34.1616 17.8072 34.3818 17.988 34.5925 18.1784Z" fill="#ECECED" style="fill:#ECECED;fill:color(display-p3 0.9255 0.9255 0.9294);fill-opacity:1;"/>
<path d="M54.9769 3.35219C54.9808 3.48598 54.9846 3.61976 54.9649 3.7845C54.9535 3.94061 54.9657 4.06568 54.9779 4.19085C54.9842 4.2741 54.9963 4.35734 54.9963 4.44059C54.9982 9.41991 54.9992 14.3993 55 19.3788C55 19.4253 54.9964 19.4717 54.9696 19.5506C54.9278 19.6139 54.8962 19.6446 54.896 19.6755C54.8922 20.167 54.8899 20.6584 54.8957 21.1499C54.8963 21.2004 54.9507 21.2504 54.9802 21.3006C54.9833 21.3433 54.9866 21.3861 54.9675 21.4554C54.9472 21.5716 54.9494 21.6614 54.9514 21.7512C54.9502 21.8833 54.9492 22.0153 54.9229 22.1719C54.613 22.0698 54.3619 22.1292 54.0673 22.2352C53.7369 22.3543 53.3546 22.3399 52.9937 22.3616C52.5039 22.3911 52.0128 22.4165 51.5225 22.4136C50.6134 22.408 49.7043 22.3815 48.7954 22.3609C48.6949 22.3586 48.5942 22.3413 48.4945 22.3255C48.3443 22.3018 48.195 22.2732 48.0141 22.2413C48.0141 22.1657 48.0141 22.0652 48.0141 21.9648C48.0141 20.4768 48.016 18.9888 48.0098 17.5008C48.0094 17.4073 47.9461 17.3141 47.9121 17.2208C47.8309 16.9237 47.9894 16.7542 48.2391 16.6646C49.034 16.379 49.6807 15.8877 50.1503 15.1993C50.9818 13.9805 51.3194 12.6703 50.7982 11.2151C50.546 10.5108 50.2096 9.85702 49.6567 9.36056C49.2827 9.02463 48.8346 8.75853 48.3887 8.51907C47.9846 8.30213 47.9504 8.31604 47.9501 7.85828C47.9491 6.19067 47.9485 4.52296 47.9489 2.85525C47.949 2.51531 47.9741 2.50404 48.3199 2.50767C50.2187 2.52735 52.1177 2.54292 54.0165 2.55566C54.1826 2.55673 54.3485 2.51668 54.515 2.51246C54.9127 2.50238 54.9678 2.56055 54.9651 3.00402C54.9539 3.13859 54.9654 3.24534 54.9769 3.35219Z" fill="#ECECED" style="fill:#ECECED;fill:color(display-p3 0.9255 0.9255 0.9294);fill-opacity:1;"/>
<path d="M42.48 1.27962C42.7853 1.26449 43.0634 1.25463 43.3405 1.23268C43.5815 1.21358 43.6817 1.33287 43.6508 1.60069C43.6264 1.81195 43.608 2.02486 43.6045 2.23729C43.601 2.45707 43.6974 2.58615 43.9448 2.56852C44.3148 2.54208 44.686 2.53209 45.0562 2.50868C45.26 2.49575 45.3369 2.57841 45.3364 2.78487C45.3324 4.53632 45.3326 6.28786 45.3403 8.0393C45.3411 8.23665 45.2497 8.3342 45.0851 8.38238C44.249 8.62713 43.6077 9.17305 43.0726 9.81298C42.6704 10.2939 42.362 10.8662 42.3116 11.5281C42.2771 11.9794 42.2006 12.4314 42.2109 12.8816C42.2332 13.8601 42.6366 14.7083 43.2588 15.4394C43.7285 15.9913 44.2733 16.4639 44.9906 16.6989C45.2307 16.7774 45.347 16.966 45.3418 17.2624C45.3212 18.4639 45.338 19.666 45.3309 20.8679C45.3288 21.2169 45.3824 21.5773 45.1877 21.9048C45.1677 21.9385 45.2216 22.0179 45.2446 22.0747C45.2764 22.153 45.3115 22.2301 45.3293 22.3483C45.0232 22.1634 44.7937 22.367 44.5343 22.4255C44.0296 22.5392 43.5121 22.5491 42.995 22.4612C42.8155 22.4307 42.6276 22.4437 42.4436 22.4473C42.2308 22.4514 42.0182 22.4756 41.8055 22.4761C41.2323 22.4774 40.659 22.4752 40.0859 22.4656C39.6733 22.4588 39.2602 22.4486 38.8488 22.4192C38.5977 22.4013 38.347 21.9856 38.3392 21.6054C38.3189 20.6109 38.2874 19.6162 38.2862 18.6215C38.2803 13.4881 38.2826 8.35467 38.2819 3.22129C38.2819 3.14676 38.2857 3.07193 38.2804 2.99769C38.2502 2.56627 38.2494 2.56598 38.6756 2.56617C38.983 2.56617 39.2906 2.57254 39.5979 2.56647C39.9291 2.5599 40.012 2.44228 39.9768 2.12112C39.9516 1.89079 39.9657 1.65608 39.9635 1.42332C39.9618 1.2358 40.0874 1.22343 40.2303 1.22704C40.9709 1.24578 41.7115 1.26233 42.48 1.27962Z" fill="#ECECED" style="fill:#ECECED;fill:color(display-p3 0.9255 0.9255 0.9294);fill-opacity:1;"/>
<path d="M0.126662 19.5861C-0.0606127 19.3935 -0.0284652 19.2499 0.146051 19.0761C0.732491 18.4919 1.29959 17.8884 1.88085 17.299C2.52688 16.6439 3.18093 15.9968 3.83008 15.3448C3.97343 15.2007 4.11092 15.051 4.27808 14.8754C4.35594 14.9785 4.44413 15.0789 4.51439 15.1906C5.04197 16.0293 5.78963 16.5921 6.763 16.7261C7.90393 16.8832 8.93372 16.6136 9.67592 15.6149C10.2911 14.7871 10.5752 13.8577 10.5986 12.8403C10.6234 11.7618 10.6377 10.6831 10.6517 9.60437C10.6531 9.49536 10.6419 9.37744 10.6009 9.27842C10.4823 8.99225 10.5845 8.7711 10.7791 8.57101C11.5644 7.7637 12.3543 6.96069 13.1363 6.15025C13.9955 5.25988 14.8509 4.36599 15.7009 3.46691C15.8787 3.27897 16.0218 3.0587 16.1886 2.85969C16.2496 2.78692 16.333 2.73296 16.4622 2.62248C16.474 2.78976 16.4863 2.88525 16.4865 2.98074C16.4892 4.07071 16.4844 5.16057 16.493 6.25044C16.5009 7.27381 16.5362 8.29707 16.5342 9.32024C16.5319 10.5298 16.5329 11.7407 16.4753 12.9483C16.4277 13.9472 16.3045 14.9372 16.0153 15.9098C15.7 16.97 15.2769 17.9673 14.6696 18.8892C14.1461 19.6841 13.4543 20.3227 12.7087 20.8909C11.7715 21.6049 10.7116 22.0779 9.55536 22.3491C8.41962 22.6155 7.26782 22.6792 6.12251 22.5801C4.40764 22.4318 2.78743 21.9372 1.41646 20.8419C0.955185 20.4734 0.564069 20.017 0.126662 19.5861Z" fill="#ECECED" style="fill:#ECECED;fill:color(display-p3 0.9255 0.9255 0.9294);fill-opacity:1;"/>
</svg>
