<svg width="61" height="24" viewBox="0 0 61 24" fill="none" xmlns="http://www.w3.org/2000/svg">
<path d="M60.383 21.6371H58.1064V16.0742C58.1064 15.2171 57.9446 14.5691 57.6208 14.1309C57.3033 13.6927 56.8237 13.4738 56.1824 13.4738C55.5218 13.4738 54.979 13.7215 54.5535 14.2169C54.1279 14.7056 53.9153 15.3248 53.9153 16.0742V21.6371H51.6289V11.8831H53.9153V13.3689H53.9532C54.3089 12.8037 54.7534 12.3781 55.287 12.0925C55.8267 11.8003 56.4301 11.6543 57.0967 11.6543C58.1762 11.6543 58.9923 11.9971 59.5448 12.683C60.1037 13.3626 60.383 14.3533 60.383 15.6553V21.6371Z" fill="#ECECED" style="fill:#ECECED;fill:color(display-p3 0.9255 0.9255 0.9294);fill-opacity:1;"/>
<path d="M42.5859 20.5607L43.7195 19.0939C44.0878 19.4433 44.4815 19.7068 44.9007 19.8846C45.32 20.0622 45.7613 20.1513 46.2248 20.1513C46.7518 20.1513 47.1552 20.0496 47.4345 19.8464C47.7204 19.6433 47.8632 19.3447 47.8632 18.9511C47.8632 18.6336 47.7394 18.3732 47.4917 18.1698C47.244 17.9603 46.8472 17.7951 46.3009 17.6747C45.0628 17.4014 44.1896 17.0204 43.6816 16.5314C43.1799 16.0363 42.929 15.4234 42.929 14.693C42.929 13.7787 43.275 13.0451 43.9672 12.4925C44.6657 11.9336 45.5582 11.6543 46.644 11.6543C47.2471 11.6543 47.8124 11.7431 48.3396 11.921C48.8729 12.0989 49.3588 12.375 49.797 12.7497L48.7301 14.1691C48.3554 13.8895 47.9997 13.6864 47.6632 13.5594C47.3268 13.4261 46.9615 13.3594 46.5679 13.3594C46.0725 13.3594 45.6978 13.458 45.4438 13.6548C45.1961 13.8453 45.0723 14.1088 45.0723 14.4453C45.0723 14.7691 45.2024 15.0199 45.4628 15.1978C45.7231 15.3694 46.2027 15.5346 46.9012 15.6932C47.9425 15.9219 48.7207 16.2871 49.235 16.7888C49.7556 17.2902 50.016 17.9382 50.016 18.7318C50.016 19.678 49.6669 20.4369 48.9683 21.0087C48.2761 21.5802 47.352 21.8658 46.1964 21.8658C45.4912 21.8658 44.8309 21.7578 44.2149 21.542C43.5988 21.3196 43.056 20.9926 42.5859 20.5607Z" fill="#ECECED" style="fill:#ECECED;fill:color(display-p3 0.9255 0.9255 0.9294);fill-opacity:1;"/>
<path d="M41.2243 21.6374H38.9382V16.0458C38.9382 15.1567 38.7891 14.5056 38.4905 14.093C38.1983 13.6801 37.7253 13.4738 37.071 13.4738C36.4869 13.4738 36.001 13.731 35.6136 14.2453C35.2263 14.7596 35.0327 15.3883 35.0327 16.1314V21.6374H32.7466V15.9314C32.7466 15.1122 32.5908 14.4993 32.2796 14.093C31.9684 13.6801 31.4987 13.4738 30.87 13.4738C30.2665 13.4738 29.7775 13.7183 29.4031 14.2074C29.0284 14.6961 28.8411 15.3441 28.8411 16.1503V21.6374H26.5547V11.8831H28.8411V13.331H28.879C29.2091 12.8037 29.641 12.3942 30.1746 12.102C30.7079 11.8035 31.2987 11.6543 31.9463 11.6543C32.6259 11.6543 33.2069 11.8196 33.6896 12.1497C34.1721 12.4735 34.5215 12.9212 34.7373 13.4927C35.112 12.877 35.5723 12.4164 36.1185 12.1115C36.6711 11.8069 37.3061 11.6543 38.0236 11.6543C39.0652 11.6543 39.8591 11.9845 40.405 12.6451C40.9513 13.2991 41.2243 14.2835 41.2243 15.5981V21.6374Z" fill="#ECECED" style="fill:#ECECED;fill:color(display-p3 0.9255 0.9255 0.9294);fill-opacity:1;"/>
<path d="M11.4594 18.7398C11.4594 18.7398 9.20237 23.5447 5.73065 23.3685C2.2598 23.1931 1.39662 17.0805 9.04039 14.2456C9.04039 14.2456 12.1958 15.4692 11.4594 18.7398Z" fill="#ECECED" style="fill:#ECECED;fill:color(display-p3 0.9255 0.9255 0.9294);fill-opacity:1;"/>
<path d="M11.4594 18.7398C11.4594 18.7398 9.20237 23.5447 5.73065 23.3685C2.2598 23.1931 1.39662 17.0805 9.04039 14.2456C9.04039 14.2456 12.1958 15.4692 11.4594 18.7398Z" fill="#ECECED" style="fill:#ECECED;fill:color(display-p3 0.9255 0.9255 0.9294);fill-opacity:1;"/>
<path d="M11.4594 18.7398C11.4594 18.7398 9.20237 23.5447 5.73065 23.3685C2.2598 23.1931 1.39662 17.0805 9.04039 14.2456C9.04039 14.2456 12.1958 15.4692 11.4594 18.7398Z" fill="#ECECED" style="fill:#ECECED;fill:color(display-p3 0.9255 0.9255 0.9294);fill-opacity:1;"/>
<path d="M13.2917 18.8103C13.2917 18.8103 12.2915 23.4099 15.1067 23.3692C17.2295 23.3382 18.5055 20.3208 16.6463 15.8121C16.6463 15.8121 15.0657 15.0602 13.2917 18.8103Z" fill="#ECECED" style="fill:#ECECED;fill:color(display-p3 0.9255 0.9255 0.9294);fill-opacity:1;"/>
<path d="M13.2917 18.8103C13.2917 18.8103 12.2915 23.4099 15.1067 23.3692C17.2295 23.3382 18.5055 20.3208 16.6463 15.8121C16.6463 15.8121 15.0657 15.0602 13.2917 18.8103Z" fill="#ECECED" style="fill:#ECECED;fill:color(display-p3 0.9255 0.9255 0.9294);fill-opacity:1;"/>
<path d="M13.2917 18.8103C13.2917 18.8103 12.2915 23.4099 15.1067 23.3692C17.2295 23.3382 18.5055 20.3208 16.6463 15.8121C16.6463 15.8121 15.0657 15.0602 13.2917 18.8103Z" fill="#ECECED" style="fill:#ECECED;fill:color(display-p3 0.9255 0.9255 0.9294);fill-opacity:1;"/>
<path d="M13.291 18.8092C13.291 18.8092 14.2394 7.43973 19.2093 6.42187C22.2855 5.79193 23.662 7.66783 23.662 10.0658C23.662 13.3379 20.2077 15.1318 17.9807 15.7927C15.4791 16.5351 14.1282 17.7076 13.291 18.8092Z" fill="#ECECED" style="fill:#ECECED;fill:color(display-p3 0.9255 0.9255 0.9294);fill-opacity:1;"/>
<path d="M13.291 18.8092C13.291 18.8092 14.2394 7.43973 19.2093 6.42187C22.2855 5.79193 23.662 7.66783 23.662 10.0658C23.662 13.3379 20.2077 15.1318 17.9807 15.7927C15.4791 16.5351 14.1282 17.7076 13.291 18.8092Z" fill="#ECECED" style="fill:#ECECED;fill:color(display-p3 0.9255 0.9255 0.9294);fill-opacity:1;"/>
<path d="M13.291 18.8092C13.291 18.8092 14.2394 7.43973 19.2093 6.42187C22.2855 5.79193 23.662 7.66783 23.662 10.0658C23.662 13.3379 20.2077 15.1318 17.9807 15.7927C15.4791 16.5351 14.1282 17.7076 13.291 18.8092Z" fill="#ECECED" style="fill:#ECECED;fill:color(display-p3 0.9255 0.9255 0.9294);fill-opacity:1;"/>
<path d="M11.4569 18.7401C11.4569 18.7401 12.0073 16.8198 6.81023 14.1569C1.61213 11.4929 1.00479 8.25869 0.922106 6.39401C0.839396 4.52933 1.40021 2.92819 2.34351 2.02438C3.67965 0.743813 4.89344 0.515711 6.6672 0.667769C9.02505 0.869967 11.4948 3.28421 12.7276 7.06021C14.5196 12.5488 11.4569 18.7401 11.4569 18.7401Z" fill="#ECECED" style="fill:#ECECED;fill:color(display-p3 0.9255 0.9255 0.9294);fill-opacity:1;"/>
<path d="M11.4569 18.7401C11.4569 18.7401 12.0073 16.8198 6.81023 14.1569C1.61213 11.4929 1.00479 8.25869 0.922106 6.39401C0.839396 4.52933 1.40021 2.92819 2.34351 2.02438C3.67965 0.743813 4.89344 0.515711 6.6672 0.667769C9.02505 0.869967 11.4948 3.28421 12.7276 7.06021C14.5196 12.5488 11.4569 18.7401 11.4569 18.7401Z" fill="#ECECED" style="fill:#ECECED;fill:color(display-p3 0.9255 0.9255 0.9294);fill-opacity:1;"/>
<path d="M11.4569 18.7401C11.4569 18.7401 12.0073 16.8198 6.81023 14.1569C1.61213 11.4929 1.00479 8.25869 0.922106 6.39401C0.839396 4.52933 1.40021 2.92819 2.34351 2.02438C3.67965 0.743813 4.89344 0.515711 6.6672 0.667769C9.02505 0.869967 11.4948 3.28421 12.7276 7.06021C14.5196 12.5488 11.4569 18.7401 11.4569 18.7401Z" fill="#ECECED" style="fill:#ECECED;fill:color(display-p3 0.9255 0.9255 0.9294);fill-opacity:1;"/>
<path d="M11.4569 18.7401C11.4569 18.7401 12.0073 16.8198 6.81023 14.1569C1.61213 11.4929 1.00479 8.25869 0.922106 6.39401C0.839396 4.52933 1.40021 2.92819 2.34351 2.02438C3.67965 0.743813 4.89344 0.515711 6.6672 0.667769C9.02505 0.869967 11.4948 3.28421 12.7276 7.06021C14.5196 12.5488 11.4569 18.7401 11.4569 18.7401Z" fill="#ECECED" style="fill:#ECECED;fill:color(display-p3 0.9255 0.9255 0.9294);fill-opacity:1;"/>
<path d="M11.4569 18.7401C11.4569 18.7401 12.0073 16.8198 6.81023 14.1569C1.61213 11.4929 1.00479 8.25869 0.922106 6.39401C0.839396 4.52933 1.40021 2.92819 2.34351 2.02438C3.67965 0.743813 4.89344 0.515711 6.6672 0.667769C9.02505 0.869967 11.4948 3.28421 12.7276 7.06021C14.5196 12.5488 11.4569 18.7401 11.4569 18.7401Z" fill="#ECECED" style="fill:#ECECED;fill:color(display-p3 0.9255 0.9255 0.9294);fill-opacity:1;"/>
<path d="M11.4569 18.7401C11.4569 18.7401 12.0073 16.8198 6.81023 14.1569C1.61213 11.4929 1.00479 8.25869 0.922106 6.39401C0.839396 4.52933 1.40021 2.92819 2.34351 2.02438C3.67965 0.743813 4.89344 0.515711 6.6672 0.667769C9.02505 0.869967 11.4948 3.28421 12.7276 7.06021C14.5196 12.5488 11.4569 18.7401 11.4569 18.7401Z" fill="#ECECED" style="fill:#ECECED;fill:color(display-p3 0.9255 0.9255 0.9294);fill-opacity:1;"/>
<path d="M11.4569 18.7401C11.4569 18.7401 12.0073 16.8198 6.81023 14.1569C1.61213 11.4929 1.00479 8.25869 0.922106 6.39401C0.839396 4.52933 1.40021 2.92819 2.34351 2.02438C3.67965 0.743813 4.89344 0.515711 6.6672 0.667769C9.02505 0.869967 11.4948 3.28421 12.7276 7.06021C14.5196 12.5488 11.4569 18.7401 11.4569 18.7401Z" fill="#ECECED" style="fill:#ECECED;fill:color(display-p3 0.9255 0.9255 0.9294);fill-opacity:1;"/>
<path d="M11.4569 18.7401C11.4569 18.7401 12.0073 16.8198 6.81023 14.1569C1.61213 11.4929 1.00479 8.25869 0.922106 6.39401C0.839396 4.52933 1.40021 2.92819 2.34351 2.02438C3.67965 0.743813 4.89344 0.515711 6.6672 0.667769C9.02505 0.869967 11.4948 3.28421 12.7276 7.06021C14.5196 12.5488 11.4569 18.7401 11.4569 18.7401Z" fill="#ECECED" style="fill:#ECECED;fill:color(display-p3 0.9255 0.9255 0.9294);fill-opacity:1;"/>
<path d="M11.4569 18.7401C11.4569 18.7401 12.0073 16.8198 6.81023 14.1569C1.61213 11.4929 1.00479 8.25869 0.922106 6.39401C0.839396 4.52933 1.40021 2.92819 2.34351 2.02438C3.67965 0.743813 4.89344 0.515711 6.6672 0.667769C9.02505 0.869967 11.4948 3.28421 12.7276 7.06021C14.5196 12.5488 11.4569 18.7401 11.4569 18.7401Z" fill="#ECECED" style="fill:#ECECED;fill:color(display-p3 0.9255 0.9255 0.9294);fill-opacity:1;"/>
<path d="M11.4569 18.7401C11.4569 18.7401 12.0073 16.8198 6.81023 14.1569C1.61213 11.4929 1.00479 8.25869 0.922106 6.39401C0.839396 4.52933 1.40021 2.92819 2.34351 2.02438C3.67965 0.743813 4.89344 0.515711 6.6672 0.667769C9.02505 0.869967 11.4948 3.28421 12.7276 7.06021C14.5196 12.5488 11.4569 18.7401 11.4569 18.7401Z" fill="#ECECED" style="fill:#ECECED;fill:color(display-p3 0.9255 0.9255 0.9294);fill-opacity:1;"/>
<path d="M11.4569 18.7401C11.4569 18.7401 12.0073 16.8198 6.81023 14.1569C1.61213 11.4929 1.00479 8.25869 0.922106 6.39401C0.839396 4.52933 1.40021 2.92819 2.34351 2.02438C3.67965 0.743813 4.89344 0.515711 6.6672 0.667769C9.02505 0.869967 11.4948 3.28421 12.7276 7.06021C14.5196 12.5488 11.4569 18.7401 11.4569 18.7401Z" fill="#ECECED" style="fill:#ECECED;fill:color(display-p3 0.9255 0.9255 0.9294);fill-opacity:1;"/>
</svg>
