<svg width="80" height="24" viewBox="0 0 80 24" fill="none" xmlns="http://www.w3.org/2000/svg">
<path d="M79.5523 21.3996H77.5232V2.33154H79.5523V21.3996Z" fill="#ECECED" style="fill:#ECECED;fill:color(display-p3 0.9255 0.9255 0.9294);fill-opacity:1;"/>
<path d="M76.4843 18.7343C75.8229 19.6273 74.9712 20.3621 73.9908 20.8855C73.0373 21.4009 71.9701 21.6699 70.8863 21.668C69.8444 21.6683 68.8191 21.4077 67.9037 20.9101C67.046 20.3644 66.3532 19.5953 65.8998 18.6855C65.4402 17.759 65.2056 16.7372 65.2153 15.7031C65.1996 14.3012 65.6416 12.9325 66.4742 11.8046C67.3133 10.6556 68.1771 10.0118 69.0655 9.87324C69.6675 9.76527 70.2758 9.69585 70.8867 9.66542C71.9038 9.6593 72.9068 9.90273 73.8079 10.3744C74.7052 10.8395 75.4105 11.6054 75.8003 12.5379C76.2454 13.6184 76.4618 14.7794 76.436 15.9477H67.2437C67.2223 16.9989 67.5964 18.0197 68.2919 18.8081C68.6136 19.1919 69.0172 19.4987 69.473 19.706C69.9288 19.9133 70.4253 20.0158 70.926 20.0061C71.2213 20.0098 71.516 19.9772 71.8034 19.9091C72.4153 19.8274 72.9954 19.5872 73.486 19.2123C74.0147 18.7852 74.4823 18.2876 74.8757 17.7333L76.4843 18.7343ZM74.4553 14.4814C74.2981 13.6073 73.8397 12.8158 73.1597 12.2446C72.4858 11.6699 71.6251 11.3612 70.7395 11.3766C70.332 11.375 69.9283 11.4553 69.5524 11.6128C69.1765 11.7702 68.8362 12.0017 68.5516 12.2934C67.9346 12.886 67.5052 13.6468 67.3169 14.4814H74.4553Z" fill="#ECECED" style="fill:#ECECED;fill:color(display-p3 0.9255 0.9255 0.9294);fill-opacity:1;"/>
<path d="M65.6669 10.0321L61.163 15.6303L65.612 21.3996L63.0287 21.412L60.0436 17.0612L57.0233 21.4122L54.5137 21.3996L58.9389 15.7769L54.5137 10.0321L57.086 10.0466L60.0756 14.4099L63.149 10.0368L65.6669 10.0321Z" fill="#ECECED" style="fill:#ECECED;fill:color(display-p3 0.9255 0.9255 0.9294);fill-opacity:1;"/>
<path d="M54.0567 21.3996H52.0278V10.0321H54.0567V21.3996Z" fill="#ECECED" style="fill:#ECECED;fill:color(display-p3 0.9255 0.9255 0.9294);fill-opacity:1;"/>
<path d="M51.3531 7.79644V8.43057C51.3781 9.63168 50.942 10.7967 50.1343 11.6861C49.3217 12.5882 48.2574 13.1044 46.9413 13.2345H43.1635V21.3995H40.9391V3.30937L46.8061 3.38274C48.0079 3.49199 49.1431 3.98342 50.0452 4.78497C50.47 5.16086 50.8073 5.6253 51.0333 6.1456C51.2592 6.6659 51.3684 7.2294 51.3531 7.79644ZM47.2951 5.53287C46.9054 5.39939 46.5044 5.30149 46.0971 5.24036H43.1635V11.4256H46.8067C47.4849 11.2309 48.0732 10.8045 48.4691 10.2205C48.8708 9.64599 49.0843 8.96104 49.0803 8.26008C49.0874 7.68604 48.9351 7.12128 48.6402 6.6287C48.3258 6.12436 47.8526 5.73887 47.2951 5.53287Z" fill="#ECECED" style="fill:#ECECED;fill:color(display-p3 0.9255 0.9255 0.9294);fill-opacity:1;"/>
<path d="M38.8118 21.3336H36.9509V19.051C36.5366 19.8701 35.8775 20.5399 35.0652 20.9673C34.2529 21.4183 33.3393 21.6553 32.4102 21.6562C31.9594 21.6574 31.5099 21.6073 31.0704 21.5069C30.64 21.4073 30.0941 21.1504 29.4328 20.7362C28.7716 20.322 28.1802 19.6258 27.6588 18.6476C27.1797 17.754 26.9133 16.7618 26.8805 15.7484C26.8477 14.735 27.0493 13.7276 27.4695 12.8049C27.8458 12.1245 28.3063 11.4942 28.8401 10.9288C29.4736 10.2244 30.3911 9.76432 31.5927 9.54874C31.7371 9.54805 31.8814 9.53974 32.025 9.52386C32.1811 9.50759 32.3003 9.49935 32.3827 9.49913C33.2651 9.48944 34.1357 9.70278 34.9136 10.1194C35.7001 10.5524 36.3664 11.1746 36.852 11.9298V9.79599H38.8123L38.8118 21.3336ZM36.4804 17.673C36.7287 17.0368 36.8548 16.3594 36.852 15.6764C36.8669 14.8018 36.6447 13.9394 36.2089 13.1809C35.7671 12.4381 35.0871 11.8665 34.2793 11.5591C33.9233 11.4677 33.558 11.4175 33.1906 11.4094C32.7618 11.3928 32.5146 11.3844 32.449 11.3842C31.9408 11.458 31.4528 11.6344 31.0148 11.9026C30.5768 12.1708 30.198 12.5252 29.9012 12.9443C29.273 13.7733 28.9342 14.7854 28.9366 15.8254C28.9292 16.4389 29.0514 17.047 29.2952 17.61C29.5977 18.2294 30.0427 18.7683 30.5936 19.1826C31.2551 19.7018 32.0785 19.9713 32.9189 19.9435C33.6699 19.9563 34.4079 19.7478 35.0412 19.3441C35.6745 18.9403 36.175 18.3592 36.4804 17.673Z" fill="#ECECED" style="fill:#ECECED;fill:color(display-p3 0.9255 0.9255 0.9294);fill-opacity:1;"/>
<path d="M27.7528 11.5329H25.6934V21.3336H23.6837V11.5329H21.8724V9.94481H23.6837V5.30502H25.6934V9.94481H27.7528V11.5329Z" fill="#ECECED" style="fill:#ECECED;fill:color(display-p3 0.9255 0.9255 0.9294);fill-opacity:1;"/>
<path d="M22.6846 18.6911C22.0132 19.5975 21.1488 20.3433 20.1539 20.8747C19.186 21.3977 18.1028 21.6706 17.0026 21.6687C15.9452 21.6689 14.9046 21.4045 13.9756 20.8994C13.1048 20.3458 12.4013 19.5651 11.9411 18.6415C11.4745 17.7012 11.2364 16.664 11.2462 15.6144C11.2302 14.1913 11.6789 12.8019 12.5241 11.6569C13.3758 10.4907 14.2525 9.83738 15.1542 9.69678C15.7652 9.58746 16.3826 9.51729 17.0026 9.4867C18.035 9.48043 19.0531 9.72746 19.9677 10.2062C20.8785 10.6783 21.5942 11.4555 21.9899 12.402C22.4416 13.4988 22.6612 14.6773 22.635 15.8632H13.3063C13.2848 16.9301 13.6644 17.9661 14.3701 18.7664C14.6966 19.1558 15.1062 19.4671 15.5687 19.6775C16.0313 19.8879 16.5351 19.992 17.0432 19.9822C17.343 19.9856 17.6421 19.9523 17.9338 19.883C18.5549 19.7998 19.1435 19.5561 19.6416 19.1758C20.1781 18.7422 20.6527 18.2372 21.0519 17.6746L22.6846 18.6911ZM20.6253 14.3737C20.4657 13.4865 20.0004 12.6832 19.3102 12.1034C18.6261 11.5202 17.7526 11.207 16.8538 11.2226C16.4401 11.2209 16.0304 11.3024 15.6489 11.4623C15.2674 11.6221 14.9219 11.8571 14.633 12.1532C14.0069 12.7546 13.5712 13.5268 13.3801 14.3737H20.6253Z" fill="#ECECED" style="fill:#ECECED;fill:color(display-p3 0.9255 0.9255 0.9294);fill-opacity:1;"/>
<path d="M11.6442 7.52688V8.17039C11.6696 9.3895 11.2269 10.572 10.4071 11.4747C9.58208 12.3903 8.50161 12.914 7.16569 13.0458H3.33214V21.3331H1.07422V2.97275L7.02913 3.04708C8.24904 3.15782 9.40134 3.65663 10.3169 4.47032C10.7481 4.85187 11.0904 5.32327 11.3197 5.85136C11.549 6.37944 11.6598 6.95137 11.6442 7.52688ZM7.52541 5.22937C7.12983 5.094 6.72274 4.9949 6.30919 4.93332H3.33214V11.2103H7.02913C7.71766 11.0128 8.31504 10.5799 8.71708 9.98713C9.12481 9.4041 9.34158 8.70892 9.33747 7.99747C9.34445 7.41471 9.18954 6.84145 8.88999 6.34153C8.571 5.82978 8.09099 5.43856 7.52541 5.22937Z" fill="#ECECED" style="fill:#ECECED;fill:color(display-p3 0.9255 0.9255 0.9294);fill-opacity:1;"/>
</svg>
