<svg width="81" height="24" viewBox="0 0 81 24" fill="none" xmlns="http://www.w3.org/2000/svg">
<path d="M29.4367 1V18.4844H33.7422V11.8688C33.7422 10.9386 34.2825 10.0129 35.3193 10.0129C36.3379 10.0129 36.7876 10.9248 36.7876 11.8688V18.4844H41.0614V10.8186C41.0614 8.02921 39.5264 6.07724 36.9066 6.07724C34.7647 6.07724 33.7422 7.50037 33.7422 7.50037V1H29.4367ZM75.1861 1L70.6182 11.9738H75.7652L80.3139 1H75.1861ZM20.6183 6.0757C17.0722 6.0757 14.8306 9.25596 14.8306 12.423C14.8306 15.9868 17.2883 18.8123 20.551 18.8123C22.9849 18.8123 23.9026 17.3295 23.9026 17.3295V18.4846H28.019V6.35567H23.9026V7.45838C23.9026 7.45838 22.8787 6.0757 20.6183 6.0757ZM48.4022 6.07711C44.3413 6.07711 41.9232 9.16512 41.9232 12.4735C41.9232 16.2385 44.8509 18.8123 48.4175 18.8123C51.8745 18.8123 54.8993 16.3552 54.8993 12.5366C54.8993 8.35829 51.7322 6.07711 48.4022 6.07711ZM62.0721 6.07711C58.0113 6.07711 55.5932 9.16512 55.5932 12.4735C55.5932 16.2385 58.5209 18.8123 62.0875 18.8123C65.5444 18.8123 68.5693 16.3552 68.5693 12.5366C68.5693 8.35829 65.4022 6.07711 62.0721 6.07711ZM0.984375 6.35567L6.18139 18.5895L4.2874 23H8.91175L15.8312 6.35567H11.236L8.45204 13.3866L5.70402 6.35567H0.984375ZM21.4938 9.97353C23.13 9.97353 23.9744 11.2681 23.9744 12.4363C23.9744 13.6942 23.0698 14.9287 21.4938 14.9287C20.1877 14.9287 19.0075 13.8614 19.0075 12.4899C19.0075 11.099 19.9568 9.97353 21.4938 9.97353ZM48.4409 10.0092C49.8754 10.0092 50.8679 11.2039 50.8679 12.478C50.8679 13.5647 49.9431 14.905 48.4409 14.905C47.0646 14.905 46.0316 13.8008 46.0316 12.4661C46.0316 11.1802 46.8904 10.0092 48.4409 10.0092ZM62.1109 10.0092C63.5453 10.0092 64.5379 11.2039 64.5379 12.478C64.5379 13.5647 63.613 14.905 62.1109 14.905C60.7345 14.905 59.7016 13.8008 59.7016 12.4661C59.7016 11.1802 60.5603 10.0092 62.1109 10.0092ZM71.9666 13.024C70.3877 13.024 69.1077 14.304 69.1077 15.883C69.1077 17.4619 70.3877 18.7419 71.9666 18.7419C73.5456 18.7419 74.8256 17.4619 74.8256 15.883C74.8256 14.304 73.5456 13.024 71.9666 13.024Z" fill="#ECECED" style="fill:#ECECED;fill:color(display-p3 0.9255 0.9255 0.9294);fill-opacity:1;"/>
</svg>
