<svg width="100" height="24" viewBox="0 0 100 24" fill="none" xmlns="http://www.w3.org/2000/svg">
<path fill-rule="evenodd" clip-rule="evenodd" d="M16.3623 1C16.4344 1.00001 26.1986 1.0026 28.6396 1.65723C29.9926 2.0194 31.0558 3.08259 31.418 4.43555C32.0725 6.88544 32.0752 12 32.0752 12C32.0752 12.0123 32.0743 17.1175 31.418 19.5645C31.0558 20.9174 29.9926 21.9807 28.6396 22.3428C26.1986 22.9974 16.4344 23 16.3623 23C16.3623 23 6.53389 22.9999 4.08398 22.3428C2.73101 21.9807 1.66786 20.9174 1.30566 19.5645C0.649357 17.1175 0.648438 12.0123 0.648438 12C0.648438 12 0.648563 6.88544 1.30566 4.43555C1.66785 3.08257 2.73102 2.01941 4.08398 1.65723C6.53389 1.00013 16.3623 1 16.3623 1ZM13.2168 16.7139L21.3809 12L13.2168 7.28711V16.7139Z" fill="#ECECED" style="fill:#ECECED;fill:color(display-p3 0.9255 0.9255 0.9294);fill-opacity:1;"/>
<path d="M38.7091 15.304L35.1804 2.56037H38.259L39.4956 8.33716C39.8112 9.76002 40.0414 10.9733 40.1914 11.9771H40.282C40.3855 11.2579 40.6184 10.0524 40.9779 8.35786L42.2584 2.56037H45.337L41.7643 15.304V21.4171H38.7066V15.304H38.7091Z" fill="#ECECED" style="fill:#ECECED;fill:color(display-p3 0.9255 0.9255 0.9294);fill-opacity:1;"/>
<path d="M46.2628 21.0131C45.6419 20.594 45.1995 19.942 44.9356 19.0573C44.6744 18.1725 44.5425 16.9981 44.5425 15.5286V13.5288C44.5425 12.0464 44.6925 10.8539 44.9926 9.95618C45.2927 9.05849 45.7609 8.40139 46.3973 7.99005C47.0337 7.57872 47.8693 7.37176 48.9042 7.37176C49.9234 7.37176 50.7383 7.58131 51.354 8.0004C51.9671 8.41949 52.4172 9.0766 52.7018 9.96653C52.9864 10.859 53.1287 12.0464 53.1287 13.5288V15.5286C53.1287 16.9981 52.989 18.1777 52.7123 19.0676C52.4354 19.9602 51.9853 20.6121 51.3643 21.0234C50.7435 21.4348 49.9001 21.6417 48.8369 21.6417C47.7399 21.6442 46.8837 21.4322 46.2628 21.0131ZM49.7449 18.8555C49.9156 18.4054 50.0036 17.6733 50.0036 16.654V12.3621C50.0036 11.3739 49.9183 10.6495 49.7449 10.1942C49.5716 9.73629 49.2689 9.50863 48.8342 9.50863C48.4152 9.50863 48.1177 9.73629 47.947 10.1942C47.7736 10.6521 47.6882 11.3739 47.6882 12.3621V16.654C47.6882 17.6733 47.771 18.4079 47.9366 18.8555C48.1022 19.3057 48.3996 19.5307 48.8342 19.5307C49.2689 19.5307 49.5716 19.3057 49.7449 18.8555Z" fill="#ECECED" style="fill:#ECECED;fill:color(display-p3 0.9255 0.9255 0.9294);fill-opacity:1;"/>
<path d="M63.1435 21.4197H60.7169L60.4479 19.733H60.3807C59.7209 21.0058 58.7327 21.6421 57.4133 21.6421C56.5001 21.6421 55.8249 21.342 55.3903 20.7445C54.9557 20.1443 54.7383 19.2078 54.7383 17.935V7.64125H57.8402V17.7538C57.8402 18.3696 57.9074 18.8068 58.042 19.0681C58.1765 19.3294 58.4016 19.4613 58.7171 19.4613C58.9862 19.4613 59.2449 19.3785 59.4933 19.213C59.7417 19.0473 59.9227 18.8378 60.0443 18.5843V7.63866H63.1435V21.4197Z" fill="#ECECED" style="fill:#ECECED;fill:color(display-p3 0.9255 0.9255 0.9294);fill-opacity:1;"/>
<path d="M71.5696 5.05641H68.491V21.4192H65.4565V5.05641H62.3779V2.56253H71.5696V5.05641Z" fill="#ECECED" style="fill:#ECECED;fill:color(display-p3 0.9255 0.9255 0.9294);fill-opacity:1;"/>
<path d="M79.0505 21.4197H76.6239L76.3548 19.733H76.2876C75.6279 21.0058 74.6397 21.6421 73.3203 21.6421C72.407 21.6421 71.7319 21.342 71.2973 20.7445C70.8626 20.1443 70.6453 19.2078 70.6453 17.935V7.64125H73.7472V17.7538C73.7472 18.3696 73.8144 18.8068 73.9489 19.0681C74.0834 19.3294 74.3085 19.4613 74.6242 19.4613C74.8931 19.4613 75.1519 19.3785 75.4002 19.213C75.6486 19.0473 75.8297 18.8378 75.9512 18.5843V7.63866H79.0505V21.4197Z" fill="#ECECED" style="fill:#ECECED;fill:color(display-p3 0.9255 0.9255 0.9294);fill-opacity:1;"/>
<path d="M89.3165 9.84259C89.1276 8.97336 88.8249 8.34471 88.4059 7.95407C87.9868 7.56344 87.4098 7.36941 86.6751 7.36941C86.106 7.36941 85.5731 7.5298 85.0789 7.85318C84.5848 8.17656 84.2019 8.59824 83.9328 9.1234H83.9096V1.86425H80.9216V21.4169H83.4827L83.7983 20.1131H83.8656C84.1062 20.5787 84.4658 20.9434 84.9444 21.2151C85.423 21.4842 85.956 21.6187 86.5406 21.6187C87.5884 21.6187 88.3619 21.1349 88.856 20.1699C89.3501 19.2024 89.5984 17.6942 89.5984 15.6401V13.4593C89.5984 11.92 89.5027 10.7118 89.3165 9.84259ZM86.4733 15.4641C86.4733 16.4679 86.4319 17.2544 86.3491 17.8235C86.2664 18.3927 86.1292 18.7989 85.9326 19.0368C85.7386 19.2774 85.4747 19.3964 85.1461 19.3964C84.8901 19.3964 84.6547 19.3369 84.4373 19.2153C84.2201 19.0963 84.0442 18.9153 83.9096 18.6772V10.8567C84.013 10.4816 84.1942 10.1763 84.4503 9.93573C84.7038 9.69514 84.9832 9.57613 85.2807 9.57613C85.5964 9.57613 85.8395 9.70031 86.0103 9.94608C86.1836 10.1944 86.3026 10.6084 86.3699 11.193C86.4371 11.7777 86.4708 12.6081 86.4708 13.6869V15.4641H86.4733Z" fill="#ECECED" style="fill:#ECECED;fill:color(display-p3 0.9255 0.9255 0.9294);fill-opacity:1;"/>
<path d="M93.9983 16.2583C93.9983 17.143 94.0241 17.8054 94.076 18.2478C94.1277 18.6901 94.2363 19.011 94.4019 19.2153C94.5674 19.4171 94.821 19.5179 95.1651 19.5179C95.6282 19.5179 95.9489 19.3369 96.1196 18.9773C96.293 18.6177 96.3862 18.0175 96.4017 17.1793L99.0766 17.3371C99.0922 17.4561 99.0999 17.6217 99.0999 17.8312C99.0999 19.104 98.7506 20.0561 98.0547 20.6847C97.3589 21.3134 96.3732 21.6289 95.1004 21.6289C93.5715 21.6289 92.5004 21.1503 91.8873 20.1906C91.2716 19.2308 90.9664 17.7485 90.9664 15.7409V13.335C90.9664 11.268 91.2846 9.75717 91.9209 8.80515C92.5574 7.85313 93.6465 7.37711 95.1909 7.37711C96.2542 7.37711 97.0717 7.57114 97.6408 7.96178C98.21 8.35242 98.6109 8.95778 98.8438 9.78304C99.0766 10.6083 99.193 11.7466 99.193 13.2004V15.5598H93.9983V16.2583ZM94.3915 9.76493C94.2337 9.95895 94.1303 10.2772 94.076 10.7195C94.0241 11.1619 93.9983 11.8319 93.9983 12.7323V13.7205H96.2671V12.7323C96.2671 11.8475 96.2361 11.1774 96.1766 10.7195C96.1171 10.2616 96.0084 9.94084 95.8506 9.752C95.6928 9.56573 95.4496 9.47001 95.121 9.47001C94.7899 9.4726 94.5467 9.5709 94.3915 9.76493Z" fill="#ECECED" style="fill:#ECECED;fill:color(display-p3 0.9255 0.9255 0.9294);fill-opacity:1;"/>
</svg>
