<svg width="40" height="40" viewBox="0 0 40 40" fill="none" xmlns="http://www.w3.org/2000/svg">
<path d="M20 35.7021C11.5625 35.7021 4.72168 28.8613 4.72168 20.4238C4.72168 11.9863 11.5625 5.14551 20 5.14551C28.4375 5.14551 35.2783 11.9863 35.2783 20.4238C35.2783 28.8613 28.4375 35.7021 20 35.7021ZM20 8.5C18.3008 8.5 16.6748 8.85156 15.21 9.49609V14.96C16.5869 14.0225 18.0664 13.1143 19.5166 12.2646L24.5117 9.37891C23.1201 8.80762 21.5967 8.5 20 8.5ZM26.7383 15.8682L31.8066 18.7979C31.3672 15.5166 29.5801 12.6602 27.0312 10.7852L22.3145 13.5098L22.5781 13.627C23.9844 14.3301 25.376 15.0918 26.7383 15.8682ZM12.7344 20.292L12.749 10.9609C10.2295 12.8945 8.50098 15.8096 8.14941 19.1494L12.9102 21.9033C12.8076 21.3906 12.7344 20.8486 12.7344 20.292ZM20 25.2285C22.6514 25.2285 24.8047 23.0752 24.8047 20.4238C24.8047 17.7725 22.6514 15.6191 20 15.6191C17.3486 15.6191 15.1953 17.7725 15.1953 20.4238C15.1953 23.0752 17.3486 25.2285 20 25.2285ZM27.2656 20.541V29.8867C29.7852 27.9385 31.5137 25.0234 31.8506 21.6836L27.0898 18.9297C27.1924 19.4424 27.2656 19.9844 27.2656 20.541ZM13.2471 24.9502L8.17871 22.0205C8.61816 25.3164 10.4053 28.1875 12.9688 30.0479L17.6855 27.3232L16.9971 26.957C15.7373 26.3418 14.4775 25.6533 13.2471 24.9502ZM20 32.3477C21.7139 32.3477 23.3398 31.9814 24.8193 31.3369V25.8584C23.4131 26.8105 21.9629 27.7188 20.4688 28.583L15.4736 31.4541C16.8799 32.0254 18.4033 32.3477 20 32.3477Z" fill="black" style="fill:black;fill-opacity:1;"/>
</svg>
