<svg width="40" height="40" viewBox="0 0 40 40" fill="none" xmlns="http://www.w3.org/2000/svg">
<path d="M6.77246 34.252C3.53516 34.252 1.80664 32.5527 1.80664 29.3447V13.9492C1.80664 10.7412 3.53516 9.02734 6.77246 9.02734H10.4199C11.5625 9.02734 11.958 8.83691 12.6904 8.08984L13.8477 6.88867C14.624 6.08301 15.415 5.70215 16.8945 5.70215H23.0322C24.5117 5.70215 25.3027 6.08301 26.0791 6.88867L27.2363 8.08984C27.9688 8.83691 28.3643 9.02734 29.4922 9.02734H33.2275C36.4648 9.02734 38.1787 10.7412 38.1787 13.9492V29.3447C38.1787 32.5527 36.4648 34.252 33.2275 34.252H6.77246ZM32.2461 17.4062C33.3154 17.4062 34.1943 16.542 34.1943 15.4727C34.1943 14.4033 33.3154 13.5244 32.2461 13.5244C31.1768 13.5244 30.2979 14.4033 30.2979 15.4727C30.2979 16.542 31.1768 17.4209 32.2461 17.4062ZM20 29.4912C24.3506 29.4912 27.8369 26.0049 27.8369 21.625C27.8369 17.2598 24.3506 13.7588 20 13.7588C15.6494 13.7588 12.1484 17.2598 12.1484 21.625C12.1484 26.0049 15.6494 29.4912 20 29.4912ZM20 26.5762C17.2754 26.5762 15.0635 24.3789 15.0635 21.625C15.0635 18.8857 17.2607 16.6738 20 16.6738C22.7393 16.6738 24.9365 18.8857 24.9365 21.625C24.9365 24.3789 22.7393 26.5762 20 26.5762Z" fill="black" style="fill:black;fill-opacity:1;"/>
</svg>
