<svg width="16" height="21" viewBox="0 0 16 21" fill="none" xmlns="http://www.w3.org/2000/svg">
<g clip-path="url(#clip0_8498_46098)">
<path d="M7.75684 17.0376C4.10693 17.0376 1.13623 14.0669 1.13623 10.417C1.13623 6.76074 4.10693 3.79639 7.75684 3.79639C11.4131 3.79639 14.3774 6.76074 14.3774 10.417C14.3774 14.0669 11.4131 17.0376 7.75684 17.0376ZM7.05225 13.5718C7.30615 13.5718 7.52832 13.4448 7.68066 13.2163L10.645 8.63965C10.7402 8.49365 10.8164 8.32227 10.8164 8.16992C10.8164 7.81445 10.499 7.56689 10.1562 7.56689C9.93408 7.56689 9.74365 7.69385 9.59131 7.92871L7.0332 12.0166L5.85889 10.5439C5.69385 10.3408 5.52881 10.2583 5.31934 10.2583C4.96387 10.2583 4.68457 10.5439 4.68457 10.8994C4.68457 11.0708 4.7417 11.2231 4.86865 11.3818L6.39844 13.2227C6.58887 13.4575 6.79199 13.5718 7.05225 13.5718Z" fill="#D2D2D7" style="fill:#D2D2D7;fill:color(display-p3 0.8235 0.8235 0.8431);fill-opacity:1;"/>
</g>
<defs>
<clipPath id="clip0_8498_46098">
<rect width="16" height="21" fill="white" style="fill:white;fill-opacity:1;"/>
</clipPath>
</defs>
</svg>
