<svg width="13" height="16" viewBox="0 0 13 16" fill="none" xmlns="http://www.w3.org/2000/svg">
<g clip-path="url(#clip0_8631_9022)">
<path d="M6.5 13.6919C6.41406 13.6919 6.27979 13.6597 6.14014 13.5845C3.08936 11.8657 2.03662 11.146 2.03662 9.18555V5.07666C2.03662 4.5127 2.28369 4.33008 2.73486 4.14209C3.36865 3.88428 5.42041 3.10547 6.0542 2.92285C6.19385 2.88525 6.34961 2.84229 6.5 2.84229C6.65039 2.84229 6.80615 2.87451 6.95117 2.92285C7.58496 3.14307 9.63135 3.87891 10.2651 4.14209C10.7217 4.33545 10.9634 4.5127 10.9634 5.07666V9.18555C10.9634 11.146 9.91602 11.8711 6.85986 13.5845C6.72559 13.6597 6.58594 13.6919 6.5 13.6919ZM6.5 12.7197C6.58594 12.7197 6.67725 12.6875 6.83301 12.5908C9.31445 11.0815 10.1094 10.6465 10.1094 8.98682V5.24316C10.1094 5.06055 10.0771 4.98535 9.93213 4.93164C9.09961 4.64697 7.52588 4.07764 6.71484 3.75537C6.62891 3.72314 6.55908 3.70703 6.5 3.70703C6.44092 3.70703 6.37109 3.71777 6.28516 3.75537C5.47412 4.07764 3.88965 4.60938 3.07324 4.93164C2.92285 4.99072 2.89062 5.06055 2.89062 5.24316V8.98682C2.89062 10.6465 3.68555 11.0869 6.16699 12.5908C6.32812 12.6875 6.41406 12.7197 6.5 12.7197ZM5.91992 10.5552C5.7373 10.5552 5.59766 10.4854 5.45801 10.3081L4.15283 8.69678C4.07764 8.59473 4.0293 8.47656 4.0293 8.36377C4.0293 8.12207 4.20654 7.93408 4.44287 7.93408C4.58789 7.93408 4.71143 7.98242 4.83496 8.1543L5.89844 9.52393L8.12744 5.94678C8.22412 5.78564 8.3584 5.70508 8.49805 5.70508C8.72363 5.70508 8.93848 5.86084 8.93848 6.09717C8.93848 6.2207 8.86865 6.33887 8.80957 6.44092L6.34961 10.3081C6.24756 10.4692 6.09717 10.5552 5.91992 10.5552Z" fill="white" style="fill:white;fill-opacity:1;"/>
</g>
<defs>
<clipPath id="clip0_8631_9022">
<rect width="13" height="16" fill="white" style="fill:white;fill-opacity:1;"/>
</clipPath>
</defs>
</svg>
