<svg width="28" height="28" viewBox="0 0 28 28" fill="none" xmlns="http://www.w3.org/2000/svg">
<g clip-path="url(#clip0_8494_46091)">
<path d="M14 21.1016C13.5195 21.1016 13.1211 20.9141 12.7344 20.5391L3.92188 11.5156C3.62891 11.2109 3.46484 10.8477 3.46484 10.4141C3.46484 9.53516 4.16797 8.82031 5.03516 8.82031C5.48047 8.82031 5.87891 9.00781 6.19531 9.32422L14.0117 17.3398L21.8047 9.32422C22.1211 9.00781 22.5312 8.82031 22.9531 8.82031C23.832 8.82031 24.5352 9.53516 24.5352 10.4141C24.5352 10.8477 24.3828 11.2109 24.0781 11.5156L15.2656 20.5273C14.8906 20.9141 14.4805 21.1016 14 21.1016Z" fill="#86868C" style="fill:#86868C;fill:color(display-p3 0.5255 0.5255 0.5490);fill-opacity:1;"/>
</g>
<defs>
<clipPath id="clip0_8494_46091">
<rect width="28" height="28" fill="white" style="fill:white;fill-opacity:1;"/>
</clipPath>
</defs>
</svg>
