<svg width="13" height="16" viewBox="0 0 13 16" fill="none" xmlns="http://www.w3.org/2000/svg">
<g clip-path="url(#clip0_8631_9024)">
<path d="M6.5 13.6006C3.47607 13.6006 1.02148 11.146 1.02148 8.12207C1.02148 5.09814 3.47607 2.64355 6.5 2.64355C9.52393 2.64355 11.9785 5.09814 11.9785 8.12207C11.9785 11.146 9.52393 13.6006 6.5 13.6006ZM6.5 12.6875C9.02441 12.6875 11.0654 10.6465 11.0654 8.12207C11.0654 5.59766 9.02441 3.55664 6.5 3.55664C3.97559 3.55664 1.93457 5.59766 1.93457 8.12207C1.93457 10.6465 3.97559 12.6875 6.5 12.6875ZM6.5 10.6411C5.10352 10.6411 4.21729 9.64209 4.21729 8.07373C4.21729 6.50537 5.10889 5.50098 6.5 5.50098C7.45068 5.50098 8.20264 5.95752 8.46582 6.67725C8.50342 6.77393 8.51416 6.83838 8.51416 6.92432C8.51416 7.1499 8.36914 7.28955 8.14355 7.28955C7.98242 7.28955 7.875 7.21436 7.78906 7.03174C7.56885 6.5 7.11768 6.20996 6.51074 6.20996C5.65674 6.20996 5.08203 6.96191 5.08203 8.07373C5.08203 9.18555 5.65674 9.93213 6.51074 9.93213C7.11768 9.93213 7.56885 9.64209 7.78906 9.11572C7.875 8.93311 7.98242 8.85254 8.14355 8.85254C8.36914 8.85254 8.51416 8.99219 8.51416 9.21777C8.51416 9.29834 8.50342 9.36816 8.46582 9.46484C8.20801 10.1899 7.45068 10.6411 6.5 10.6411Z" fill="white" style="fill:white;fill-opacity:1;"/>
</g>
<defs>
<clipPath id="clip0_8631_9024">
<rect width="13" height="16" fill="white" style="fill:white;fill-opacity:1;"/>
</clipPath>
</defs>
</svg>
