<svg width="20" height="21" viewBox="0 0 20 21" fill="none" xmlns="http://www.w3.org/2000/svg">
<path d="M10 11.7871C9.61035 11.7871 9.2959 11.4658 9.2959 11.0967V4.35645L9.36426 3.34473L9.01562 3.80273L8.09961 4.78027C7.97656 4.91016 7.80566 4.98535 7.62793 4.98535C7.2998 4.98535 7.01953 4.73926 7.01953 4.39062C7.01953 4.20605 7.08789 4.07617 7.21094 3.95312L9.45996 1.79297C9.6377 1.61523 9.81543 1.55371 10 1.55371C10.1846 1.55371 10.3555 1.61523 10.54 1.79297L12.7822 3.95312C12.9121 4.07617 12.9805 4.20605 12.9805 4.39062C12.9805 4.73926 12.6934 4.98535 12.3584 4.98535C12.1875 4.98535 12.0166 4.91016 11.9004 4.78027L10.9844 3.80273L10.6357 3.34473L10.6973 4.35645V11.0967C10.6973 11.4658 10.3896 11.7871 10 11.7871ZM6.72559 17.4062C4.81152 17.4062 3.73828 16.3398 3.73828 14.4189V9.14844C3.73828 7.22754 4.81152 6.16113 6.72559 6.16113H8.00391V7.67871H6.78711C5.80957 7.67871 5.2627 8.23242 5.2627 9.20996V14.3574C5.2627 15.335 5.80957 15.8887 6.78711 15.8887H13.2129C14.1904 15.8887 14.7373 15.335 14.7373 14.3574V9.20996C14.7373 8.23242 14.1904 7.67871 13.2129 7.67871H11.9893V6.16113H13.2744C15.1885 6.16113 16.2617 7.22754 16.2617 9.14844V14.4189C16.2617 16.3398 15.1885 17.4062 13.2744 17.4062H6.72559Z" fill="#D2D2D7" style="fill:#D2D2D7;fill:color(display-p3 0.8235 0.8235 0.8431);fill-opacity:1;"/>
</svg>
