<svg width="21" height="21" viewBox="0 0 21 21" fill="none" xmlns="http://www.w3.org/2000/svg">
<path d="M10.5 11.7871C10.1104 11.7871 9.7959 11.4658 9.7959 11.0967V4.35645L9.86426 3.34473L9.51562 3.80273L8.59961 4.78027C8.47656 4.91016 8.30566 4.98535 8.12793 4.98535C7.7998 4.98535 7.51953 4.73926 7.51953 4.39062C7.51953 4.20605 7.58789 4.07617 7.71094 3.95312L9.95996 1.79297C10.1377 1.61523 10.3154 1.55371 10.5 1.55371C10.6846 1.55371 10.8555 1.61523 11.04 1.79297L13.2822 3.95312C13.4121 4.07617 13.4805 4.20605 13.4805 4.39062C13.4805 4.73926 13.1934 4.98535 12.8584 4.98535C12.6875 4.98535 12.5166 4.91016 12.4004 4.78027L11.4844 3.80273L11.1357 3.34473L11.1973 4.35645V11.0967C11.1973 11.4658 10.8896 11.7871 10.5 11.7871ZM7.22559 17.4062C5.31152 17.4062 4.23828 16.3398 4.23828 14.4189V9.14844C4.23828 7.22754 5.31152 6.16113 7.22559 6.16113H8.50391V7.67871H7.28711C6.30957 7.67871 5.7627 8.23242 5.7627 9.20996V14.3574C5.7627 15.335 6.30957 15.8887 7.28711 15.8887H13.7129C14.6904 15.8887 15.2373 15.335 15.2373 14.3574V9.20996C15.2373 8.23242 14.6904 7.67871 13.7129 7.67871H12.4893V6.16113H13.7744C15.6885 6.16113 16.7617 7.22754 16.7617 9.14844V14.4189C16.7617 16.3398 15.6885 17.4062 13.7744 17.4062H7.22559Z" fill="#D2D2D7" style="fill:#D2D2D7;fill:color(display-p3 0.8235 0.8235 0.8431);fill-opacity:1;"/>
</svg>
