<svg width="22" height="21" viewBox="0 0 22 21" fill="none" xmlns="http://www.w3.org/2000/svg">
<path d="M11 12.5576C10.5825 12.5576 10.2456 12.2134 10.2456 11.8179V4.59619L10.3188 3.51221L9.94531 4.00293L8.96387 5.05029C8.83203 5.18945 8.64893 5.27002 8.4585 5.27002C8.10693 5.27002 7.80664 5.00635 7.80664 4.63281C7.80664 4.43506 7.87988 4.2959 8.01172 4.16406L10.4214 1.84961C10.6118 1.65918 10.8022 1.59326 11 1.59326C11.1978 1.59326 11.3809 1.65918 11.5786 1.84961L13.981 4.16406C14.1201 4.2959 14.1934 4.43506 14.1934 4.63281C14.1934 5.00635 13.8857 5.27002 13.5269 5.27002C13.3438 5.27002 13.1606 5.18945 13.0361 5.05029L12.0547 4.00293L11.6812 3.51221L11.7471 4.59619V11.8179C11.7471 12.2134 11.4175 12.5576 11 12.5576ZM7.4917 18.5781C5.44092 18.5781 4.29102 17.4355 4.29102 15.3774V9.73047C4.29102 7.67236 5.44092 6.52979 7.4917 6.52979H8.86133V8.15576H7.55762C6.51025 8.15576 5.92432 8.74902 5.92432 9.79639V15.3115C5.92432 16.3589 6.51025 16.9521 7.55762 16.9521H14.4424C15.4897 16.9521 16.0757 16.3589 16.0757 15.3115V9.79639C16.0757 8.74902 15.4897 8.15576 14.4424 8.15576H13.1313V6.52979H14.5083C16.5591 6.52979 17.709 7.67236 17.709 9.73047V15.3774C17.709 17.4355 16.5591 18.5781 14.5083 18.5781H7.4917Z" fill="#D2D2D7" style="fill:#D2D2D7;fill:color(display-p3 0.8235 0.8235 0.8431);fill-opacity:1;"/>
</svg>
