<svg width="19" height="21" viewBox="0 0 19 21" fill="none" xmlns="http://www.w3.org/2000/svg">
<g clip-path="url(#clip0_9421_9026)">
<path d="M9.5 12.0166C9.13818 12.0166 8.84619 11.7183 8.84619 11.3755V5.1167L8.90967 4.17725L8.58594 4.60254L7.73535 5.51025C7.62109 5.63086 7.4624 5.70068 7.29736 5.70068C6.99268 5.70068 6.73242 5.47217 6.73242 5.14844C6.73242 4.97705 6.7959 4.85645 6.91016 4.74219L8.99854 2.73633C9.16357 2.57129 9.32861 2.51416 9.5 2.51416C9.67139 2.51416 9.83008 2.57129 10.0015 2.73633L12.0835 4.74219C12.2041 4.85645 12.2676 4.97705 12.2676 5.14844C12.2676 5.47217 12.001 5.70068 11.6899 5.70068C11.5312 5.70068 11.3726 5.63086 11.2646 5.51025L10.4141 4.60254L10.0903 4.17725L10.1475 5.1167V11.3755C10.1475 11.7183 9.86182 12.0166 9.5 12.0166ZM6.45947 17.2344C4.68213 17.2344 3.68555 16.2441 3.68555 14.4604V9.56641C3.68555 7.78271 4.68213 6.79248 6.45947 6.79248H7.64648V8.20166H6.5166C5.60889 8.20166 5.10107 8.71582 5.10107 9.62354V14.4033C5.10107 15.311 5.60889 15.8252 6.5166 15.8252H12.4834C13.3911 15.8252 13.8989 15.311 13.8989 14.4033V9.62354C13.8989 8.71582 13.3911 8.20166 12.4834 8.20166H11.3472V6.79248H12.5405C14.3179 6.79248 15.3145 7.78271 15.3145 9.56641V14.4604C15.3145 16.2441 14.3179 17.2344 12.5405 17.2344H6.45947Z" fill="#D2D2D7" style="fill:#D2D2D7;fill:color(display-p3 0.8235 0.8235 0.8431);fill-opacity:1;"/>
</g>
<defs>
<clipPath id="clip0_9421_9026">
<rect width="19" height="21" fill="white" style="fill:white;fill-opacity:1;"/>
</clipPath>
</defs>
</svg>
