<svg width="20" height="21" viewBox="0 0 20 21" fill="none" xmlns="http://www.w3.org/2000/svg">
<g clip-path="url(#clip0_9421_9028)">
<path d="M3.47168 16.5244C2.50098 16.5244 1.87207 15.8955 1.87207 14.9453V5.2041C1.87207 4.25391 2.50098 3.625 3.47168 3.625H16.5215C17.4854 3.625 18.1211 4.25391 18.1211 5.2041V14.9453C18.1211 15.8955 17.4854 16.5244 16.5215 16.5244H3.47168ZM3.46484 6.30469H4.2373C4.41504 6.30469 4.54492 6.16797 4.54492 5.99707V5.32031C4.54492 5.12891 4.41504 4.99902 4.2373 4.99902H3.47852C3.28027 4.99902 3.14355 5.13574 3.14355 5.33398V5.99707C3.14355 6.16797 3.27344 6.30469 3.46484 6.30469ZM6.02832 9.3877H13.9375C14.1562 9.3877 14.3066 9.24414 14.3066 9.02539V5.36133C14.3066 5.14258 14.1562 4.99902 13.9375 4.99902H6.02832C5.80957 4.99902 5.65918 5.14258 5.65918 5.36133V9.02539C5.65918 9.24414 5.80957 9.3877 6.02832 9.3877ZM15.7285 6.30469H16.501C16.6924 6.30469 16.8223 6.16797 16.8223 5.99707V5.33398C16.8223 5.13574 16.6855 4.99902 16.4805 4.99902H15.7285C15.5508 4.99902 15.4141 5.12891 15.4141 5.32031V5.99707C15.4141 6.16797 15.5508 6.30469 15.7285 6.30469ZM3.46484 8.52637H4.2373C4.41504 8.52637 4.54492 8.38281 4.54492 8.21875V7.54883C4.54492 7.35742 4.41504 7.22754 4.2373 7.22754H3.46484C3.27344 7.22754 3.14355 7.35742 3.14355 7.54883V8.21875C3.14355 8.38281 3.27344 8.52637 3.46484 8.52637ZM15.7285 8.52637H16.501C16.6924 8.52637 16.8223 8.38281 16.8223 8.21875V7.54883C16.8223 7.35742 16.6924 7.22754 16.501 7.22754H15.7285C15.5508 7.22754 15.4141 7.35742 15.4141 7.54883V8.21875C15.4141 8.38281 15.5508 8.52637 15.7285 8.52637ZM3.46484 10.7207H4.2373C4.41504 10.7207 4.54492 10.584 4.54492 10.4131V9.74316C4.54492 9.55859 4.41504 9.42871 4.2373 9.42871H3.46484C3.27344 9.42871 3.14355 9.55859 3.14355 9.74316V10.4131C3.14355 10.584 3.27344 10.7207 3.46484 10.7207ZM15.7285 10.7207H16.501C16.6924 10.7207 16.8223 10.584 16.8223 10.4131V9.74316C16.8223 9.55859 16.6924 9.42871 16.501 9.42871H15.7285C15.5508 9.42871 15.4141 9.55859 15.4141 9.74316V10.4131C15.4141 10.584 15.5508 10.7207 15.7285 10.7207ZM6.02832 15.1436H13.9375C14.1562 15.1436 14.3066 15 14.3066 14.7812V11.1377C14.3066 10.9189 14.1562 10.7686 13.9375 10.7686H6.02832C5.80957 10.7686 5.65918 10.9189 5.65918 11.1377V14.7812C5.65918 15 5.80957 15.1436 6.02832 15.1436ZM3.46484 12.9287H4.2373C4.41504 12.9287 4.54492 12.7852 4.54492 12.6143V11.9512C4.54492 11.7598 4.41504 11.6299 4.2373 11.6299H3.46484C3.27344 11.6299 3.14355 11.7598 3.14355 11.9512V12.6143C3.14355 12.7852 3.27344 12.9287 3.46484 12.9287ZM15.7285 12.9287H16.501C16.6924 12.9287 16.8223 12.7852 16.8223 12.6143V11.9512C16.8223 11.7598 16.6924 11.6299 16.501 11.6299H15.7285C15.5508 11.6299 15.4141 11.7598 15.4141 11.9512V12.6143C15.4141 12.7852 15.5508 12.9287 15.7285 12.9287ZM3.47852 15.1436H4.2373C4.41504 15.1436 4.54492 15.0137 4.54492 14.8291V14.1592C4.54492 13.9678 4.41504 13.8379 4.2373 13.8379H3.46484C3.27344 13.8379 3.14355 13.9678 3.14355 14.1592V14.8154C3.14355 15.0068 3.28027 15.1436 3.47852 15.1436ZM15.7285 15.1436H16.4805C16.6855 15.1436 16.8223 15.0068 16.8223 14.8154V14.1592C16.8223 13.9678 16.6924 13.8379 16.501 13.8379H15.7285C15.5508 13.8379 15.4141 13.9678 15.4141 14.1592V14.8291C15.4141 15.0137 15.5508 15.1436 15.7285 15.1436Z" fill="#D2D2D7" style="fill:#D2D2D7;fill:color(display-p3 0.8235 0.8235 0.8431);fill-opacity:1;"/>
</g>
<defs>
<clipPath id="clip0_9421_9028">
<rect width="20" height="21" fill="white" style="fill:white;fill-opacity:1;"/>
</clipPath>
</defs>
</svg>
