<svg width="21" height="21" viewBox="0 0 21 21" fill="none" xmlns="http://www.w3.org/2000/svg">
<path d="M3.97168 16.5244C3.00098 16.5244 2.37207 15.8955 2.37207 14.9453V5.2041C2.37207 4.25391 3.00098 3.625 3.97168 3.625H17.0215C17.9854 3.625 18.6211 4.25391 18.6211 5.2041V14.9453C18.6211 15.8955 17.9854 16.5244 17.0215 16.5244H3.97168ZM3.96484 6.30469H4.7373C4.91504 6.30469 5.04492 6.16797 5.04492 5.99707V5.32031C5.04492 5.12891 4.91504 4.99902 4.7373 4.99902H3.97852C3.78027 4.99902 3.64355 5.13574 3.64355 5.33398V5.99707C3.64355 6.16797 3.77344 6.30469 3.96484 6.30469ZM6.52832 9.3877H14.4375C14.6562 9.3877 14.8066 9.24414 14.8066 9.02539V5.36133C14.8066 5.14258 14.6562 4.99902 14.4375 4.99902H6.52832C6.30957 4.99902 6.15918 5.14258 6.15918 5.36133V9.02539C6.15918 9.24414 6.30957 9.3877 6.52832 9.3877ZM16.2285 6.30469H17.001C17.1924 6.30469 17.3223 6.16797 17.3223 5.99707V5.33398C17.3223 5.13574 17.1855 4.99902 16.9805 4.99902H16.2285C16.0508 4.99902 15.9141 5.12891 15.9141 5.32031V5.99707C15.9141 6.16797 16.0508 6.30469 16.2285 6.30469ZM3.96484 8.52637H4.7373C4.91504 8.52637 5.04492 8.38281 5.04492 8.21875V7.54883C5.04492 7.35742 4.91504 7.22754 4.7373 7.22754H3.96484C3.77344 7.22754 3.64355 7.35742 3.64355 7.54883V8.21875C3.64355 8.38281 3.77344 8.52637 3.96484 8.52637ZM16.2285 8.52637H17.001C17.1924 8.52637 17.3223 8.38281 17.3223 8.21875V7.54883C17.3223 7.35742 17.1924 7.22754 17.001 7.22754H16.2285C16.0508 7.22754 15.9141 7.35742 15.9141 7.54883V8.21875C15.9141 8.38281 16.0508 8.52637 16.2285 8.52637ZM3.96484 10.7207H4.7373C4.91504 10.7207 5.04492 10.584 5.04492 10.4131V9.74316C5.04492 9.55859 4.91504 9.42871 4.7373 9.42871H3.96484C3.77344 9.42871 3.64355 9.55859 3.64355 9.74316V10.4131C3.64355 10.584 3.77344 10.7207 3.96484 10.7207ZM16.2285 10.7207H17.001C17.1924 10.7207 17.3223 10.584 17.3223 10.4131V9.74316C17.3223 9.55859 17.1924 9.42871 17.001 9.42871H16.2285C16.0508 9.42871 15.9141 9.55859 15.9141 9.74316V10.4131C15.9141 10.584 16.0508 10.7207 16.2285 10.7207ZM6.52832 15.1436H14.4375C14.6562 15.1436 14.8066 15 14.8066 14.7812V11.1377C14.8066 10.9189 14.6562 10.7686 14.4375 10.7686H6.52832C6.30957 10.7686 6.15918 10.9189 6.15918 11.1377V14.7812C6.15918 15 6.30957 15.1436 6.52832 15.1436ZM3.96484 12.9287H4.7373C4.91504 12.9287 5.04492 12.7852 5.04492 12.6143V11.9512C5.04492 11.7598 4.91504 11.6299 4.7373 11.6299H3.96484C3.77344 11.6299 3.64355 11.7598 3.64355 11.9512V12.6143C3.64355 12.7852 3.77344 12.9287 3.96484 12.9287ZM16.2285 12.9287H17.001C17.1924 12.9287 17.3223 12.7852 17.3223 12.6143V11.9512C17.3223 11.7598 17.1924 11.6299 17.001 11.6299H16.2285C16.0508 11.6299 15.9141 11.7598 15.9141 11.9512V12.6143C15.9141 12.7852 16.0508 12.9287 16.2285 12.9287ZM3.97852 15.1436H4.7373C4.91504 15.1436 5.04492 15.0137 5.04492 14.8291V14.1592C5.04492 13.9678 4.91504 13.8379 4.7373 13.8379H3.96484C3.77344 13.8379 3.64355 13.9678 3.64355 14.1592V14.8154C3.64355 15.0068 3.78027 15.1436 3.97852 15.1436ZM16.2285 15.1436H16.9805C17.1855 15.1436 17.3223 15.0068 17.3223 14.8154V14.1592C17.3223 13.9678 17.1924 13.8379 17.001 13.8379H16.2285C16.0508 13.8379 15.9141 13.9678 15.9141 14.1592V14.8291C15.9141 15.0137 16.0508 15.1436 16.2285 15.1436Z" fill="#D2D2D7" style="fill:#D2D2D7;fill:color(display-p3 0.8235 0.8235 0.8431);fill-opacity:1;"/>
</svg>
