<svg width="19" height="21" viewBox="0 0 19 21" fill="none" xmlns="http://www.w3.org/2000/svg">
<g clip-path="url(#clip0_9421_9028)">
<path d="M3.43799 16.4155C2.53662 16.4155 1.95264 15.8315 1.95264 14.9492V5.90381C1.95264 5.02148 2.53662 4.4375 3.43799 4.4375H15.5557C16.4507 4.4375 17.041 5.02148 17.041 5.90381V14.9492C17.041 15.8315 16.4507 16.4155 15.5557 16.4155H3.43799ZM3.43164 6.92578H4.14893C4.31396 6.92578 4.43457 6.79883 4.43457 6.64014V6.01172C4.43457 5.83398 4.31396 5.71338 4.14893 5.71338H3.44434C3.26025 5.71338 3.1333 5.84033 3.1333 6.02441V6.64014C3.1333 6.79883 3.25391 6.92578 3.43164 6.92578ZM5.81201 9.78857H13.1562C13.3594 9.78857 13.499 9.65527 13.499 9.45215V6.0498C13.499 5.84668 13.3594 5.71338 13.1562 5.71338H5.81201C5.60889 5.71338 5.46924 5.84668 5.46924 6.0498V9.45215C5.46924 9.65527 5.60889 9.78857 5.81201 9.78857ZM14.8193 6.92578H15.5366C15.7144 6.92578 15.835 6.79883 15.835 6.64014V6.02441C15.835 5.84033 15.708 5.71338 15.5176 5.71338H14.8193C14.6543 5.71338 14.5273 5.83398 14.5273 6.01172V6.64014C14.5273 6.79883 14.6543 6.92578 14.8193 6.92578ZM3.43164 8.98877H4.14893C4.31396 8.98877 4.43457 8.85547 4.43457 8.70312V8.08105C4.43457 7.90332 4.31396 7.78271 4.14893 7.78271H3.43164C3.25391 7.78271 3.1333 7.90332 3.1333 8.08105V8.70312C3.1333 8.85547 3.25391 8.98877 3.43164 8.98877ZM14.8193 8.98877H15.5366C15.7144 8.98877 15.835 8.85547 15.835 8.70312V8.08105C15.835 7.90332 15.7144 7.78271 15.5366 7.78271H14.8193C14.6543 7.78271 14.5273 7.90332 14.5273 8.08105V8.70312C14.5273 8.85547 14.6543 8.98877 14.8193 8.98877ZM3.43164 11.0264H4.14893C4.31396 11.0264 4.43457 10.8994 4.43457 10.7407V10.1187C4.43457 9.94727 4.31396 9.82666 4.14893 9.82666H3.43164C3.25391 9.82666 3.1333 9.94727 3.1333 10.1187V10.7407C3.1333 10.8994 3.25391 11.0264 3.43164 11.0264ZM14.8193 11.0264H15.5366C15.7144 11.0264 15.835 10.8994 15.835 10.7407V10.1187C15.835 9.94727 15.7144 9.82666 15.5366 9.82666H14.8193C14.6543 9.82666 14.5273 9.94727 14.5273 10.1187V10.7407C14.5273 10.8994 14.6543 11.0264 14.8193 11.0264ZM5.81201 15.1333H13.1562C13.3594 15.1333 13.499 15 13.499 14.7969V11.4136C13.499 11.2104 13.3594 11.0708 13.1562 11.0708H5.81201C5.60889 11.0708 5.46924 11.2104 5.46924 11.4136V14.7969C5.46924 15 5.60889 15.1333 5.81201 15.1333ZM3.43164 13.0767H4.14893C4.31396 13.0767 4.43457 12.9434 4.43457 12.7847V12.1689C4.43457 11.9912 4.31396 11.8706 4.14893 11.8706H3.43164C3.25391 11.8706 3.1333 11.9912 3.1333 12.1689V12.7847C3.1333 12.9434 3.25391 13.0767 3.43164 13.0767ZM14.8193 13.0767H15.5366C15.7144 13.0767 15.835 12.9434 15.835 12.7847V12.1689C15.835 11.9912 15.7144 11.8706 15.5366 11.8706H14.8193C14.6543 11.8706 14.5273 11.9912 14.5273 12.1689V12.7847C14.5273 12.9434 14.6543 13.0767 14.8193 13.0767ZM3.44434 15.1333H4.14893C4.31396 15.1333 4.43457 15.0127 4.43457 14.8413V14.2192C4.43457 14.0415 4.31396 13.9209 4.14893 13.9209H3.43164C3.25391 13.9209 3.1333 14.0415 3.1333 14.2192V14.8286C3.1333 15.0063 3.26025 15.1333 3.44434 15.1333ZM14.8193 15.1333H15.5176C15.708 15.1333 15.835 15.0063 15.835 14.8286V14.2192C15.835 14.0415 15.7144 13.9209 15.5366 13.9209H14.8193C14.6543 13.9209 14.5273 14.0415 14.5273 14.2192V14.8413C14.5273 15.0127 14.6543 15.1333 14.8193 15.1333Z" fill="#D2D2D7" style="fill:#D2D2D7;fill:color(display-p3 0.8235 0.8235 0.8431);fill-opacity:1;"/>
</g>
<defs>
<clipPath id="clip0_9421_9028">
<rect width="19" height="21" fill="white" style="fill:white;fill-opacity:1;"/>
</clipPath>
</defs>
</svg>
