<svg width="22" height="21" viewBox="0 0 22 21" fill="none" xmlns="http://www.w3.org/2000/svg">
<g clip-path="url(#clip0_9421_9028)">
<path d="M4.00537 17.6333C2.96533 17.6333 2.2915 16.9595 2.2915 15.9414V5.50439C2.2915 4.48633 2.96533 3.8125 4.00537 3.8125H17.9873C19.02 3.8125 19.7012 4.48633 19.7012 5.50439V15.9414C19.7012 16.9595 19.02 17.6333 17.9873 17.6333H4.00537ZM3.99805 6.68359H4.82568C5.01611 6.68359 5.15527 6.53711 5.15527 6.354V5.62891C5.15527 5.42383 5.01611 5.28467 4.82568 5.28467H4.0127C3.80029 5.28467 3.65381 5.43115 3.65381 5.64355V6.354C3.65381 6.53711 3.79297 6.68359 3.99805 6.68359ZM6.74463 9.98682H15.2188C15.4531 9.98682 15.6143 9.83301 15.6143 9.59863V5.67285C15.6143 5.43848 15.4531 5.28467 15.2188 5.28467H6.74463C6.51025 5.28467 6.34912 5.43848 6.34912 5.67285V9.59863C6.34912 9.83301 6.51025 9.98682 6.74463 9.98682ZM17.1377 6.68359H17.9653C18.1704 6.68359 18.3096 6.53711 18.3096 6.354V5.64355C18.3096 5.43115 18.1631 5.28467 17.9434 5.28467H17.1377C16.9473 5.28467 16.8008 5.42383 16.8008 5.62891V6.354C16.8008 6.53711 16.9473 6.68359 17.1377 6.68359ZM3.99805 9.06396H4.82568C5.01611 9.06396 5.15527 8.91016 5.15527 8.73438V8.0166C5.15527 7.81152 5.01611 7.67236 4.82568 7.67236H3.99805C3.79297 7.67236 3.65381 7.81152 3.65381 8.0166V8.73438C3.65381 8.91016 3.79297 9.06396 3.99805 9.06396ZM17.1377 9.06396H17.9653C18.1704 9.06396 18.3096 8.91016 18.3096 8.73438V8.0166C18.3096 7.81152 18.1704 7.67236 17.9653 7.67236H17.1377C16.9473 7.67236 16.8008 7.81152 16.8008 8.0166V8.73438C16.8008 8.91016 16.9473 9.06396 17.1377 9.06396ZM3.99805 11.415H4.82568C5.01611 11.415 5.15527 11.2686 5.15527 11.0854V10.3677C5.15527 10.1699 5.01611 10.0308 4.82568 10.0308H3.99805C3.79297 10.0308 3.65381 10.1699 3.65381 10.3677V11.0854C3.65381 11.2686 3.79297 11.415 3.99805 11.415ZM17.1377 11.415H17.9653C18.1704 11.415 18.3096 11.2686 18.3096 11.0854V10.3677C18.3096 10.1699 18.1704 10.0308 17.9653 10.0308H17.1377C16.9473 10.0308 16.8008 10.1699 16.8008 10.3677V11.0854C16.8008 11.2686 16.9473 11.415 17.1377 11.415ZM6.74463 16.1538H15.2188C15.4531 16.1538 15.6143 16 15.6143 15.7656V11.8618C15.6143 11.6274 15.4531 11.4663 15.2188 11.4663H6.74463C6.51025 11.4663 6.34912 11.6274 6.34912 11.8618V15.7656C6.34912 16 6.51025 16.1538 6.74463 16.1538ZM3.99805 13.7808H4.82568C5.01611 13.7808 5.15527 13.627 5.15527 13.4438V12.7334C5.15527 12.5283 5.01611 12.3892 4.82568 12.3892H3.99805C3.79297 12.3892 3.65381 12.5283 3.65381 12.7334V13.4438C3.65381 13.627 3.79297 13.7808 3.99805 13.7808ZM17.1377 13.7808H17.9653C18.1704 13.7808 18.3096 13.627 18.3096 13.4438V12.7334C18.3096 12.5283 18.1704 12.3892 17.9653 12.3892H17.1377C16.9473 12.3892 16.8008 12.5283 16.8008 12.7334V13.4438C16.8008 13.627 16.9473 13.7808 17.1377 13.7808ZM4.0127 16.1538H4.82568C5.01611 16.1538 5.15527 16.0146 5.15527 15.8169V15.0991C5.15527 14.894 5.01611 14.7549 4.82568 14.7549H3.99805C3.79297 14.7549 3.65381 14.894 3.65381 15.0991V15.8022C3.65381 16.0073 3.80029 16.1538 4.0127 16.1538ZM17.1377 16.1538H17.9434C18.1631 16.1538 18.3096 16.0073 18.3096 15.8022V15.0991C18.3096 14.894 18.1704 14.7549 17.9653 14.7549H17.1377C16.9473 14.7549 16.8008 14.894 16.8008 15.0991V15.8169C16.8008 16.0146 16.9473 16.1538 17.1377 16.1538Z" fill="#D2D2D7" style="fill:#D2D2D7;fill:color(display-p3 0.8235 0.8235 0.8431);fill-opacity:1;"/>
</g>
<defs>
<clipPath id="clip0_9421_9028">
<rect width="22" height="21" fill="white" style="fill:white;fill-opacity:1;"/>
</clipPath>
</defs>
</svg>
