<svg width="20" height="21" viewBox="0 0 20 21" fill="none" xmlns="http://www.w3.org/2000/svg">
<g clip-path="url(#clip0_9421_9027)">
<path d="M4.42871 16.4355C2.91797 16.4355 2.11133 15.6357 2.11133 14.1387V5.80566C2.11133 4.32227 2.91797 3.5293 4.25098 3.5293H6.17188C6.91699 3.5293 7.2793 3.66602 7.77832 4.0625L8.14746 4.36328C8.55078 4.68457 8.8584 4.80078 9.36426 4.80078H15.5713C17.0752 4.80078 17.8818 5.60059 17.8818 7.09766V14.1387C17.8818 15.6357 17.082 16.4355 15.7148 16.4355H4.42871ZM4.55859 14.9111H15.4414C16.0293 14.9111 16.3643 14.6104 16.3643 13.9814V7.25488C16.3643 6.62598 16.0293 6.3252 15.4414 6.3252H8.9541C8.20898 6.3252 7.83984 6.18848 7.34766 5.79199L6.97168 5.49121C6.56836 5.16309 6.26758 5.05371 5.76855 5.05371H4.55176C3.96387 5.05371 3.63574 5.36816 3.63574 5.95605V13.9814C3.63574 14.6104 3.95703 14.9111 4.55859 14.9111ZM4.46289 8.50586V7.95898C4.46289 7.53516 4.6748 7.34375 5.09863 7.34375H14.8945C15.3184 7.34375 15.5303 7.53516 15.5303 7.95898V8.50586H4.46289Z" fill="#D2D2D7" style="fill:#D2D2D7;fill:color(display-p3 0.8235 0.8235 0.8431);fill-opacity:1;"/>
</g>
<defs>
<clipPath id="clip0_9421_9027">
<rect width="20" height="21" fill="white" style="fill:white;fill-opacity:1;"/>
</clipPath>
</defs>
</svg>
