<svg width="19" height="21" viewBox="0 0 19 21" fill="none" xmlns="http://www.w3.org/2000/svg">
<g clip-path="url(#clip0_9421_9027)">
<path d="M4.32666 16.333C2.92383 16.333 2.1748 15.5903 2.1748 14.2002V6.4624C2.1748 5.08496 2.92383 4.34863 4.16162 4.34863H5.94531C6.63721 4.34863 6.97363 4.47559 7.43701 4.84375L7.77979 5.12305C8.1543 5.42139 8.43994 5.5293 8.90967 5.5293H14.6733C16.0698 5.5293 16.8188 6.27197 16.8188 7.66211V14.2002C16.8188 15.5903 16.0762 16.333 14.8066 16.333H4.32666ZM4.44727 14.9175H14.5527C15.0986 14.9175 15.4097 14.6382 15.4097 14.0542V7.80811C15.4097 7.22412 15.0986 6.94482 14.5527 6.94482H8.52881C7.83691 6.94482 7.49414 6.81787 7.03711 6.44971L6.68799 6.17041C6.31348 5.86572 6.03418 5.76416 5.5708 5.76416H4.44092C3.89502 5.76416 3.59033 6.05615 3.59033 6.60205V14.0542C3.59033 14.6382 3.88867 14.9175 4.44727 14.9175ZM4.3584 8.96973V8.46191C4.3584 8.06836 4.55518 7.89062 4.94873 7.89062H14.0449C14.4385 7.89062 14.6353 8.06836 14.6353 8.46191V8.96973H4.3584Z" fill="#D2D2D7" style="fill:#D2D2D7;fill:color(display-p3 0.8235 0.8235 0.8431);fill-opacity:1;"/>
</g>
<defs>
<clipPath id="clip0_9421_9027">
<rect width="19" height="21" fill="white" style="fill:white;fill-opacity:1;"/>
</clipPath>
</defs>
</svg>
