<svg width="21" height="21" viewBox="0 0 21 21" fill="none" xmlns="http://www.w3.org/2000/svg">
<path d="M4.92871 16.4355C3.41797 16.4355 2.61133 15.6357 2.61133 14.1387V5.80566C2.61133 4.32227 3.41797 3.5293 4.75098 3.5293H6.67188C7.41699 3.5293 7.7793 3.66602 8.27832 4.0625L8.64746 4.36328C9.05078 4.68457 9.3584 4.80078 9.86426 4.80078H16.0713C17.5752 4.80078 18.3818 5.60059 18.3818 7.09766V14.1387C18.3818 15.6357 17.582 16.4355 16.2148 16.4355H4.92871ZM5.05859 14.9111H15.9414C16.5293 14.9111 16.8643 14.6104 16.8643 13.9814V7.25488C16.8643 6.62598 16.5293 6.3252 15.9414 6.3252H9.4541C8.70898 6.3252 8.33984 6.18848 7.84766 5.79199L7.47168 5.49121C7.06836 5.16309 6.76758 5.05371 6.26855 5.05371H5.05176C4.46387 5.05371 4.13574 5.36816 4.13574 5.95605V13.9814C4.13574 14.6104 4.45703 14.9111 5.05859 14.9111ZM4.96289 8.50586V7.95898C4.96289 7.53516 5.1748 7.34375 5.59863 7.34375H15.3945C15.8184 7.34375 16.0303 7.53516 16.0303 7.95898V8.50586H4.96289Z" fill="#D2D2D7" style="fill:#D2D2D7;fill:color(display-p3 0.8235 0.8235 0.8431);fill-opacity:1;"/>
</svg>
