<svg width="22" height="21" viewBox="0 0 22 21" fill="none" xmlns="http://www.w3.org/2000/svg">
<path d="M5.03076 17.5381C3.41211 17.5381 2.54785 16.6812 2.54785 15.0771V6.14893C2.54785 4.55957 3.41211 3.70996 4.84033 3.70996H6.89844C7.69678 3.70996 8.08496 3.85645 8.61963 4.28125L9.01514 4.60352C9.44727 4.94775 9.77686 5.07227 10.3188 5.07227H16.9692C18.5806 5.07227 19.4448 5.9292 19.4448 7.5332V15.0771C19.4448 16.6812 18.5879 17.5381 17.123 17.5381H5.03076ZM5.16992 15.9048H16.8301C17.46 15.9048 17.8188 15.5825 17.8188 14.9087V7.70166C17.8188 7.02783 17.46 6.70557 16.8301 6.70557H9.87939C9.08105 6.70557 8.68555 6.55908 8.1582 6.13428L7.75537 5.81201C7.32324 5.46045 7.00098 5.34326 6.46631 5.34326H5.1626C4.53271 5.34326 4.18115 5.68018 4.18115 6.31006V14.9087C4.18115 15.5825 4.52539 15.9048 5.16992 15.9048ZM5.06738 9.04199V8.45605C5.06738 8.00195 5.29443 7.79688 5.74854 7.79688H16.2441C16.6982 7.79688 16.9253 8.00195 16.9253 8.45605V9.04199H5.06738Z" fill="#D2D2D7" style="fill:#D2D2D7;fill:color(display-p3 0.8235 0.8235 0.8431);fill-opacity:1;"/>
</svg>
