<svg width="13" height="16" viewBox="0 0 13 16" fill="none" xmlns="http://www.w3.org/2000/svg">
<g clip-path="url(#clip0_8631_9023)">
<path d="M6.5 13.6006C3.47607 13.6006 1.02148 11.146 1.02148 8.12207C1.02148 5.09814 3.47607 2.64355 6.5 2.64355C9.52393 2.64355 11.9785 5.09814 11.9785 8.12207C11.9785 11.146 9.52393 13.6006 6.5 13.6006ZM3.27734 4.63623C3.55664 4.83496 3.88965 4.99609 4.27637 5.11963C4.51807 4.46436 4.83496 3.92725 5.20557 3.55127C4.4751 3.76074 3.81982 4.13672 3.27734 4.63623ZM7.79443 3.55127C8.16504 3.92725 8.48193 4.46436 8.72363 5.11963C9.11035 4.99609 9.44336 4.83496 9.72266 4.63623C9.18018 4.13672 8.5249 3.76074 7.79443 3.55127ZM4.96924 5.29688C5.33447 5.36133 5.72656 5.4043 6.15088 5.42041V3.68018C5.68896 3.88428 5.27002 4.4751 4.96924 5.29688ZM6.85449 3.68018V5.42041C7.27344 5.4043 7.66553 5.36133 8.03076 5.29688C7.72998 4.4751 7.31104 3.88428 6.85449 3.68018ZM1.7627 7.76758H3.79297C3.81982 7.04785 3.9165 6.37646 4.07227 5.7749C3.55664 5.61377 3.12158 5.39893 2.79932 5.14648C2.21387 5.87695 1.83789 6.7793 1.7627 7.76758ZM9.20703 7.76758H11.2373C11.1621 6.7793 10.7861 5.87695 10.2007 5.14648C9.87842 5.39893 9.44336 5.61377 8.92773 5.7749C9.0835 6.37646 9.18018 7.04785 9.20703 7.76758ZM4.5127 7.76758H6.15088V6.12402C5.66211 6.10254 5.2002 6.04883 4.77051 5.95752C4.63086 6.50537 4.53955 7.12305 4.5127 7.76758ZM6.85449 7.76758H8.4873C8.46045 7.12305 8.36914 6.50537 8.23486 5.95752C7.80518 6.04883 7.33789 6.10254 6.85449 6.12402V7.76758ZM1.7627 8.47119C1.83789 9.47021 2.21924 10.3833 2.81543 11.1138C3.1377 10.8667 3.56738 10.6572 4.07764 10.4907C3.9165 9.88916 3.81982 9.20703 3.79297 8.47119H1.7627ZM4.5127 8.47119C4.53418 9.12646 4.63086 9.74951 4.77588 10.3081C5.2002 10.2222 5.66748 10.1631 6.15088 10.147V8.47119H4.5127ZM6.85449 10.147C7.33789 10.1631 7.7998 10.2222 8.22412 10.3081C8.36914 9.74951 8.46582 9.12646 8.4873 8.47119H6.85449V10.147ZM8.92773 10.4907C9.43262 10.6572 9.86768 10.8667 10.1899 11.1138C10.7808 10.3833 11.1621 9.47021 11.2373 8.47119H9.20703C9.18018 9.20703 9.0835 9.88916 8.92773 10.4907ZM6.85449 10.8506V12.5693C7.30566 12.3652 7.71924 11.7798 8.02002 10.9741C7.66016 10.9043 7.26807 10.8667 6.85449 10.8506ZM4.97998 10.9741C5.28076 11.7744 5.69434 12.3652 6.15088 12.5693V10.8506C5.73193 10.8667 5.33984 10.9043 4.97998 10.9741ZM8.71826 11.146C8.48193 11.7905 8.16504 12.3169 7.7998 12.6875C8.51953 12.4834 9.16943 12.1128 9.70654 11.624C9.43262 11.4307 9.09961 11.2695 8.71826 11.146ZM3.29346 11.624C3.83057 12.1128 4.48047 12.4834 5.2002 12.6875C4.83496 12.3169 4.51807 11.7905 4.28174 11.146C3.90039 11.2695 3.56738 11.4307 3.29346 11.624Z" fill="white" style="fill:white;fill-opacity:1;"/>
</g>
<defs>
<clipPath id="clip0_8631_9023">
<rect width="13" height="16" fill="white" style="fill:white;fill-opacity:1;"/>
</clipPath>
</defs>
</svg>
