<svg width="48" height="48" viewBox="0 0 48 48" fill="none" xmlns="http://www.w3.org/2000/svg">
<path d="M23.332 46.7676C22.9883 46.7676 22.4512 46.6387 21.8926 46.3379C9.68945 39.4629 5.47852 36.584 5.47852 28.7422V12.3066C5.47852 10.0508 6.4668 9.32031 8.27148 8.56836C10.8066 7.53711 19.0137 4.42188 21.5488 3.69141C22.1074 3.54102 22.7305 3.36914 23.332 3.36914C23.9336 3.36914 24.5566 3.49805 25.1367 3.69141C27.6719 4.57227 35.8574 7.51562 38.3926 8.56836C40.2188 9.3418 41.1855 10.0508 41.1855 12.3066V28.7422C41.1855 36.584 36.9961 39.4844 24.7715 46.3379C24.2344 46.6387 23.6758 46.7676 23.332 46.7676ZM23.332 42.8789C23.6758 42.8789 24.041 42.75 24.6641 42.3633C34.5898 36.3262 37.7695 34.5859 37.7695 27.9473V12.9727C37.7695 12.2422 37.6406 11.9414 37.0605 11.7266C33.7305 10.5879 27.4355 8.31055 24.1914 7.02148C23.8477 6.89258 23.5684 6.82812 23.332 6.82812C23.0957 6.82812 22.8164 6.87109 22.4727 7.02148C19.2285 8.31055 12.8906 10.4375 9.625 11.7266C9.02344 11.9629 8.89453 12.2422 8.89453 12.9727V27.9473C8.89453 34.5859 12.0742 36.3477 22 42.3633C22.6445 42.75 22.9883 42.8789 23.332 42.8789ZM15.5762 32.502V23.9512C15.5762 22.4473 16.2207 21.6953 17.4883 21.6094V19.0742C17.4883 15.1211 19.8516 12.4785 23.3535 12.4785C26.8555 12.4785 29.2188 15.1211 29.2188 19.0742V21.6094C30.4863 21.6953 31.1094 22.4473 31.1094 23.9512V32.502C31.1094 34.1133 30.4004 34.8652 28.918 34.8652H17.7891C16.3066 34.8652 15.5762 34.1133 15.5762 32.502ZM19.7227 21.5879H26.9844V18.8379C26.9844 16.3027 25.5234 14.6484 23.3535 14.6484C21.1836 14.6484 19.7227 16.3027 19.7227 18.8379V21.5879Z" fill="#CDABF4" style="fill:#CDABF4;fill:color(display-p3 0.8039 0.6706 0.9569);fill-opacity:1;"/>
</svg>
