<svg width="24" height="16" viewBox="0 0 24 16" fill="none" xmlns="http://www.w3.org/2000/svg">
<g clip-path="url(#clip0_8497_46094)">
<path d="M2.67969 13.9023C2.16699 13.9023 1.74316 13.4785 1.74316 12.959C1.74316 12.4463 2.16699 12.0225 2.67969 12.0225H4.08789V3.99707C4.08789 2.85547 4.75781 2.2334 5.86523 2.2334H18.1562C19.168 2.2334 19.749 2.75293 19.7832 3.73047H6.21387C5.80371 3.73047 5.58496 3.94922 5.58496 4.35938V12.0225H14.5811C14.5879 12.2549 14.5879 12.4873 14.5879 12.7197C14.5947 13.1777 14.7246 13.5742 14.9365 13.9023H2.67969ZM16.7891 13.9639C15.9414 13.9639 15.4287 13.4717 15.4287 12.6582V5.85645C15.4287 5.03613 15.9414 4.54395 16.7891 4.54395H20.0703C20.9043 4.54395 21.4033 5.03613 21.4033 5.85645V12.6514C21.4033 13.4717 20.9043 13.9639 20.0703 13.9639H16.7891ZM16.9053 12.8428H19.9336C20.1865 12.8428 20.3232 12.6992 20.3232 12.4395V6.0752C20.3232 5.80859 20.1865 5.66504 19.9336 5.66504H16.9053C16.6455 5.66504 16.5088 5.80176 16.5088 6.06836V12.4395C16.5088 12.7061 16.6455 12.8428 16.9053 12.8428ZM17.876 6.64941C17.6846 6.64941 17.541 6.50586 17.541 6.31445C17.541 6.12988 17.6846 5.98633 17.876 5.98633H18.9355C19.1201 5.98633 19.2773 6.12988 19.2773 6.31445C19.2773 6.50586 19.127 6.64941 18.9355 6.64941H17.876ZM17.4932 12.4736C17.3428 12.4736 17.2471 12.3779 17.2471 12.2275C17.2471 12.084 17.3496 11.9746 17.4932 11.9746H19.3389C19.4824 11.9746 19.5918 12.084 19.5918 12.2275C19.5918 12.3711 19.4824 12.4736 19.3389 12.4736H17.4932Z" fill="#D2D2D7" style="fill:#D2D2D7;fill:color(display-p3 0.8235 0.8235 0.8431);fill-opacity:1;"/>
</g>
<defs>
<clipPath id="clip0_8497_46094">
<rect width="24" height="16" fill="white" style="fill:white;fill-opacity:1;"/>
</clipPath>
</defs>
</svg>
