<svg width="40" height="40" viewBox="0 0 40 40" fill="none" xmlns="http://www.w3.org/2000/svg">
<path d="M15.9131 30.9121V6.02441C16.3232 6.12695 16.792 6.36133 17.3193 6.66895L23.8818 10.5947V35.1748C23.4277 35.0869 23.0908 34.9111 22.666 34.6768L15.9131 30.9121ZM4.42871 32.6699V12.9824C4.42871 11.7812 4.91211 10.9463 5.9668 10.3604L12.3975 6.71289C12.8809 6.44922 13.3057 6.25879 13.6719 6.12695V31.3662L8.03223 34.4277C7.51953 34.7061 7.05078 34.8379 6.59668 34.8379C5.35156 34.8379 4.42871 34.0908 4.42871 32.6699ZM26.123 35.0869V9.90625L31.6748 6.83008C32.2168 6.53711 32.7588 6.37598 33.2568 6.37598C34.6191 6.37598 35.5566 7.0791 35.5566 8.55859V28.085C35.5566 29.2861 35.0732 30.1211 33.96 30.7363L26.6797 34.8379C26.4893 34.9551 26.2988 35.0283 26.123 35.0869Z" fill="black" style="fill:black;fill-opacity:1;"/>
</svg>
