<svg width="40" height="40" viewBox="0 0 40 40" fill="none" xmlns="http://www.w3.org/2000/svg">
<g clip-path="url(#clip0_8654_9037)">
<path d="M20 37.9395C10.2617 37.9395 2.36914 30.0469 2.36914 20.3086C2.36914 10.5703 10.2617 2.67773 20 2.67773C29.7383 2.67773 37.6309 10.5703 37.6309 20.3086C37.6309 30.0469 29.7383 37.9395 20 37.9395ZM20 35.6543C28.4902 35.6543 35.3633 28.7988 35.3633 20.3086C35.3633 11.8184 28.4902 4.94531 20 4.94531C11.5098 4.94531 4.6543 11.8184 4.6543 20.3086C4.6543 28.7988 11.5098 35.6543 20 35.6543ZM19.5078 28.2188C19.1387 28.2188 18.8398 28.0605 18.5234 27.7441L14.4805 23.9297C14.4102 23.8594 14.3223 23.8242 14.2168 23.8242H11.457C10.4023 23.8242 9.73438 23.1562 9.73438 22.0488V18.5684C9.73438 17.4609 10.4023 16.793 11.457 16.793H14.2168C14.3223 16.793 14.4102 16.7754 14.4805 16.7051L18.5234 12.873C18.875 12.5391 19.1211 12.3457 19.5078 12.3457C20.0176 12.3457 20.3691 12.7676 20.3691 13.2773V27.3398C20.3691 27.8496 20.0176 28.2188 19.5078 28.2188ZM26.8555 26.6016C26.4688 26.373 26.416 25.8984 26.6797 25.5469C27.7344 24.2109 28.2969 22.2949 28.2969 20.291C28.2969 18.3398 27.752 16.5293 26.6973 15.0176C26.4512 14.6484 26.5039 14.209 26.8555 13.9453C27.207 13.6992 27.6465 13.7871 27.9102 14.1562C29.1406 15.9668 29.791 18.0938 29.791 20.291C29.791 22.7344 29.0879 24.8438 27.875 26.4258C27.6289 26.7773 27.207 26.8301 26.8555 26.6016ZM23.5684 24.2285C23.1992 23.9473 23.1465 23.543 23.3926 23.1562C23.9375 22.418 24.2715 21.3633 24.2715 20.291C24.2715 19.1484 23.9375 18.0938 23.4102 17.4258C23.1465 17.0391 23.2168 16.5996 23.5684 16.3359C23.8848 16.0898 24.3594 16.1602 24.623 16.5117C25.3613 17.4961 25.7832 18.8672 25.7832 20.291C25.7832 21.6973 25.3789 23.1035 24.623 24.0527C24.3594 24.4043 23.8848 24.4922 23.5684 24.2285Z" fill="white" style="fill:white;fill-opacity:1;"/>
</g>
<defs>
<clipPath id="clip0_8654_9037">
<rect width="40" height="40" fill="white" style="fill:white;fill-opacity:1;"/>
</clipPath>
</defs>
</svg>
