<svg width="40" height="40" viewBox="0 0 40 40" fill="none" xmlns="http://www.w3.org/2000/svg">
<g clip-path="url(#clip0_8654_9036)">
<path d="M20 37.9395C10.2617 37.9395 2.36914 30.0469 2.36914 20.3086C2.36914 10.5703 10.2617 2.67773 20 2.67773C29.7383 2.67773 37.6309 10.5703 37.6309 20.3086C37.6309 30.0469 29.7383 37.9395 20 37.9395ZM20 35.6543C28.4902 35.6543 35.3633 28.7988 35.3633 20.3086C35.3633 11.8184 28.4902 4.94531 20 4.94531C11.5098 4.94531 4.6543 11.8184 4.6543 20.3086C4.6543 28.7988 11.5098 35.6543 20 35.6543ZM15.1133 27.0586C14.3223 27.0586 13.9355 26.6191 13.9355 25.9688V14.6133C13.9355 13.9805 14.3223 13.541 15.1133 13.541H16.8711C17.6797 13.541 18.0488 13.9805 18.0488 14.6133V25.9688C18.0488 26.6191 17.6797 27.0586 16.8711 27.0586H15.1133ZM23.1289 27.0586C22.3203 27.0586 21.9512 26.6191 21.9512 25.9688V14.6133C21.9512 13.9805 22.3203 13.541 23.1289 13.541H24.8691C25.6602 13.541 26.0469 13.9805 26.0469 14.6133V25.9688C26.0469 26.6191 25.6602 27.0586 24.8691 27.0586H23.1289Z" fill="white" style="fill:white;fill-opacity:1;"/>
</g>
<defs>
<clipPath id="clip0_8654_9036">
<rect width="40" height="40" fill="white" style="fill:white;fill-opacity:1;"/>
</clipPath>
</defs>
</svg>
