<svg width="40" height="40" viewBox="0 0 40 40" fill="none" xmlns="http://www.w3.org/2000/svg">
<path d="M9.64355 32.6113V8.20703C9.64355 5.6875 11.416 3.98828 14.0381 3.98828H26.0498C28.6133 3.98828 30.3271 5.6875 30.3271 8.20703V32.5967C30.3271 35.1309 28.6133 36.8301 26.0498 36.8301H14.0381C11.416 36.8301 9.64355 35.1309 9.64355 32.6113ZM12.9102 31.7324C12.9102 32.8164 13.5547 33.417 14.668 33.417H25.3174C26.416 33.417 27.0752 32.8018 27.0752 31.7324V9.08594C27.0752 8.0166 26.416 7.40137 25.3174 7.40137H14.668C13.5547 7.40137 12.9102 8.00195 12.9102 9.08594V31.7324ZM16.1328 31.498C15.3564 31.498 14.8291 30.9707 14.8291 30.165V28.2314C14.8291 27.4258 15.3564 26.8984 16.1328 26.8984H23.8525C24.6289 26.8984 25.1416 27.4258 25.1416 28.2314V30.165C25.1416 30.9707 24.6289 31.498 23.8525 31.498H16.1328Z" fill="black" style="fill:black;fill-opacity:1;"/>
</svg>
