<svg width="40" height="40" viewBox="0 0 40 40" fill="none" xmlns="http://www.w3.org/2000/svg">
<g clip-path="url(#clip0_8654_9037)">
<path d="M20 37.9395C10.2617 37.9395 2.36914 30.0469 2.36914 20.3086C2.36914 10.5703 10.2617 2.67773 20 2.67773C29.7383 2.67773 37.6309 10.5703 37.6309 20.3086C37.6309 30.0469 29.7383 37.9395 20 37.9395ZM20 35.6543C28.4902 35.6543 35.3633 28.7988 35.3633 20.3086C35.3633 11.8184 28.4902 4.94531 20 4.94531C11.5098 4.94531 4.6543 11.8184 4.6543 20.3086C4.6543 28.7988 11.5098 35.6543 20 35.6543ZM16.6602 27.1816C15.9219 27.6211 15.0781 27.2695 15.0781 26.5137V14.1211C15.0781 13.3652 15.9746 13.0312 16.6602 13.4355L26.6973 19.4648C27.3652 19.8691 27.3828 20.7832 26.6973 21.2051L16.6602 27.1816Z" fill="white" style="fill:white;fill-opacity:1;"/>
</g>
<defs>
<clipPath id="clip0_8654_9037">
<rect width="40" height="40" fill="white" style="fill:white;fill-opacity:1;"/>
</clipPath>
</defs>
</svg>
