<svg width="40" height="40" viewBox="0 0 40 40" fill="none" xmlns="http://www.w3.org/2000/svg">
<g clip-path="url(#clip0_8654_9036)">
<path d="M20 37.9395C10.2617 37.9395 2.36914 30.0469 2.36914 20.3086C2.36914 10.5703 10.2617 2.67773 20 2.67773C29.7383 2.67773 37.6309 10.5703 37.6309 20.3086C37.6309 30.0469 29.7383 37.9395 20 37.9395ZM20 35.6543C28.4902 35.6543 35.3633 28.7988 35.3633 20.3086C35.3633 11.8184 28.4902 4.94531 20 4.94531C11.5098 4.94531 4.6543 11.8184 4.6543 20.3086C4.6543 28.7988 11.5098 35.6543 20 35.6543ZM28.543 29.8008L10.4551 11.7129C10.209 11.4668 10.1914 11.0273 10.4551 10.7637C10.7363 10.4824 11.1582 10.4824 11.4395 10.7637L29.5098 28.834C29.7734 29.1152 29.7734 29.5195 29.5098 29.8008C29.2461 30.082 28.8066 30.0645 28.543 29.8008ZM18.5586 16.248L22.1094 12.873C22.4609 12.5391 22.707 12.3457 23.0938 12.3457C23.6035 12.3457 23.9551 12.7676 23.9551 13.2773V21.6445L18.5586 16.248ZM15.043 23.8242C13.9883 23.8242 13.3203 23.1562 13.3203 22.0488V18.5684C13.3203 17.9531 13.6895 17.4258 14.1289 17.2676H14.4453L23.8672 26.6543L23.7266 27.7793C23.6211 28.0254 23.4277 28.2188 23.0938 28.2188C22.7246 28.2188 22.4258 28.0605 22.1094 27.7441L18.084 23.9297C17.9961 23.8594 17.9082 23.8242 17.8027 23.8242H15.043Z" fill="white" style="fill:white;fill-opacity:1;"/>
</g>
<defs>
<clipPath id="clip0_8654_9036">
<rect width="40" height="40" fill="white" style="fill:white;fill-opacity:1;"/>
</clipPath>
</defs>
</svg>
