<svg width="40" height="40" viewBox="0 0 40 40" fill="none" xmlns="http://www.w3.org/2000/svg">
<path d="M12.793 36.9912C11.8701 36.9912 11.3281 36.3467 11.3281 35.3359V31.1318H10.2295C6.06934 31.1318 3.38867 28.5391 3.38867 24.1445V12.6748C3.38867 8.28027 5.9668 5.6582 10.3906 5.6582H29.5947C34.0332 5.6582 36.6113 8.28027 36.6113 12.6748V24.1445C36.6113 28.5244 34.0332 31.1318 29.5947 31.1318H20.1025L14.6826 36.0098C13.9209 36.6982 13.4375 36.9912 12.793 36.9912ZM12.5 16.8496C12.5 18.6514 13.6279 20.0137 15.3564 20.0137C16.0742 20.0137 16.7334 19.8525 17.1582 19.3545H17.3633C16.9092 20.5117 15.7666 21.3906 14.5508 21.6836C14.0234 21.8154 13.833 22.0645 13.833 22.4307C13.833 22.8701 14.1846 23.1631 14.6387 23.1631C16.3379 23.1631 19.3115 21.1416 19.3115 17.5234C19.3115 15.3262 17.9492 13.6123 15.8105 13.6123C13.9062 13.6123 12.5 14.96 12.5 16.8496ZM20.835 16.8496C20.835 18.6514 21.9629 20.0137 23.6914 20.0137C24.4238 20.0137 25.0684 19.8525 25.4932 19.3545H25.6982C25.2441 20.5117 24.1162 21.3906 22.8711 21.6836C22.373 21.8154 22.168 22.0645 22.168 22.4307C22.168 22.8701 22.5195 23.1631 22.9883 23.1631C24.6729 23.1631 27.6465 21.1416 27.6465 17.5234C27.6465 15.3262 26.2695 13.6123 24.1455 13.6123C22.2412 13.6123 20.835 14.96 20.835 16.8496Z" fill="#CDABF4" style="fill:#CDABF4;fill:color(display-p3 0.8039 0.6706 0.9569);fill-opacity:1;"/>
</svg>
