<svg width="21" height="21" viewBox="0 0 21 21" fill="none" xmlns="http://www.w3.org/2000/svg">
<path d="M11.6484 3.66602C11.9219 3.66602 12.127 3.86426 12.168 4.14453C12.749 8.38281 13.3438 9.01855 17.5 9.4834C17.7939 9.51758 17.999 9.73633 17.999 10.0098C17.999 10.29 17.8008 10.5088 17.5068 10.543C13.3506 11.0352 12.7832 11.6436 12.168 15.8818C12.127 16.1621 11.915 16.3604 11.6484 16.3604C11.3818 16.3604 11.1699 16.1621 11.1289 15.8818C10.5547 11.6436 9.95312 11.001 5.79688 10.543C5.50977 10.5088 5.30469 10.29 5.30469 10.0098C5.30469 9.73633 5.50977 9.52441 5.79688 9.4834C9.93945 8.92285 10.5 8.38281 11.1289 4.14453C11.1699 3.86426 11.3818 3.66602 11.6484 3.66602ZM6.10449 12.4365C6.28223 12.4365 6.41211 12.5527 6.43262 12.7236C6.70605 14.8086 6.76074 14.8154 8.93457 15.2188C9.09863 15.2461 9.22168 15.3691 9.22168 15.54C9.22168 15.7178 9.09863 15.8408 8.93457 15.8613C6.77441 16.1621 6.69922 16.2236 6.43262 18.3496C6.41211 18.5273 6.28223 18.6504 6.10449 18.6504C5.93359 18.6504 5.80371 18.5273 5.7832 18.3428C5.53711 16.2646 5.44141 16.2646 3.28125 15.8613C3.11035 15.834 2.99414 15.7178 2.99414 15.54C2.99414 15.3623 3.11035 15.2461 3.31543 15.2188C5.44824 14.8838 5.53711 14.8291 5.7832 12.7441C5.80371 12.5527 5.93359 12.4365 6.10449 12.4365Z" fill="#D2D2D7" style="fill:#D2D2D7;fill:color(display-p3 0.8235 0.8235 0.8431);fill-opacity:1;"/>
</svg>
