<svg width="20" height="20" viewBox="0 0 20 20" fill="none" xmlns="http://www.w3.org/2000/svg">
<g clip-path="url(#clip0_8652_9032)">
<path d="M9.70312 17.2578C9.33594 17.2578 9.03125 17.1094 8.67969 16.7656L5.34375 13.6094C5.29688 13.5625 5.22656 13.5391 5.14844 13.5391H2.91406C1.85156 13.5391 1.28125 12.9609 1.28125 11.8281V8.92188C1.28125 7.79688 1.85156 7.21094 2.91406 7.21094H5.14844C5.22656 7.21094 5.29688 7.1875 5.34375 7.14062L8.67969 4.01562C9.07812 3.64062 9.32031 3.47656 9.6875 3.47656C10.2188 3.47656 10.5859 3.89062 10.5859 4.39844V16.3828C10.5859 16.8906 10.2188 17.2578 9.70312 17.2578ZM16.2734 15.7266C15.9844 15.5312 15.9453 15.1641 16.1641 14.8438C17 13.625 17.5078 12.0234 17.5078 10.3594C17.5078 8.69531 17.0156 7.07812 16.1641 5.875C15.9375 5.55469 15.9844 5.1875 16.2734 4.99219C16.5625 4.79688 16.9219 4.86719 17.1328 5.16406C18.1406 6.52344 18.7188 8.42969 18.7188 10.3594C18.7188 12.2891 18.1328 14.1797 17.1328 15.5547C16.9219 15.8516 16.5625 15.9219 16.2734 15.7266ZM13.3828 13.6875C13.0625 13.4609 13.0234 13.0859 13.2578 12.7578C13.7031 12.125 13.9688 11.2656 13.9688 10.3594C13.9688 9.45312 13.7109 8.58594 13.2578 7.96094C13.0156 7.64062 13.0625 7.25 13.3828 7.03125C13.6406 6.84375 14.0078 6.90625 14.2188 7.21094C14.8203 8.00781 15.1797 9.16406 15.1797 10.3594C15.1797 11.5547 14.8203 12.7188 14.2188 13.5078C14.0078 13.8125 13.6406 13.8672 13.3828 13.6875Z" fill="#F5F5F7" style="fill:#F5F5F7;fill:color(display-p3 0.9608 0.9608 0.9686);fill-opacity:1;"/>
</g>
<defs>
<clipPath id="clip0_8652_9032">
<rect width="20" height="20" fill="white" style="fill:white;fill-opacity:1;"/>
</clipPath>
</defs>
</svg>
