<svg width="20" height="20" viewBox="0 0 20 20" fill="none" xmlns="http://www.w3.org/2000/svg">
<path d="M13.7422 12.3984L8.32031 6.99219H8.55469C8.60156 6.99219 8.64844 6.96094 8.6875 6.92969L11.8281 4.01562C12.2344 3.64062 12.4766 3.47656 12.8438 3.47656C13.375 3.47656 13.7422 3.89062 13.7422 4.39844V12.3984ZM16.4375 18.0781L3.05469 4.70312C2.82031 4.47656 2.82031 4.07812 3.05469 3.85156C3.28906 3.61719 3.67969 3.61719 3.91406 3.85156L17.2891 17.2266C17.5234 17.4609 17.5234 17.8359 17.2891 18.0781C17.0625 18.3125 16.6719 18.3125 16.4375 18.0781ZM6.03125 13.5391C4.96875 13.5391 4.4375 13.0078 4.4375 11.875V8.88281C4.4375 8.35938 4.55469 7.96875 4.78125 7.71094L13.6875 16.6094C13.5625 17.0547 13.2578 17.2578 12.8516 17.2578C12.4922 17.2578 12.1953 17.1094 11.8281 16.7656L8.45312 13.6094C8.39844 13.5625 8.33594 13.5391 8.25781 13.5391H6.03125Z" fill="#F5F5F7" style="fill:#F5F5F7;fill:color(display-p3 0.9608 0.9608 0.9686);fill-opacity:1;"/>
</svg>
