<svg width="22" height="21" viewBox="0 0 22 21" fill="none" xmlns="http://www.w3.org/2000/svg">
<path d="M11.5786 18.8271C10.4507 19.9551 9.24219 19.9624 8.09961 18.8271L3.41211 14.1396C2.26953 12.9971 2.28418 11.7812 3.40479 10.6606L10.6191 3.46094C11.2051 2.86768 11.5566 2.78711 12.4209 2.78711H15.1968C16.0244 2.78711 16.332 2.98486 16.9473 3.60742L18.6172 5.27734C19.2397 5.89258 19.4375 6.2002 19.4375 7.02783V9.80371C19.4375 10.6753 19.3643 11.0269 18.7783 11.6201L11.5786 18.8271ZM10.5386 17.5527L17.6357 10.4556C17.7749 10.3164 17.8481 10.1846 17.8481 9.94287V7.07178C17.8481 6.85938 17.7676 6.71289 17.6284 6.57373L15.6509 4.59619C15.5117 4.45703 15.3652 4.37646 15.1528 4.37646H12.2891C12.0547 4.37646 11.9229 4.45703 11.7764 4.60352L4.6792 11.6934C4.2251 12.1475 4.20312 12.6235 4.68652 13.0996L9.13232 17.5527C9.6084 18.0215 10.0845 18.0142 10.5386 17.5527ZM14.252 9.05664C13.6367 9.05664 13.168 8.58057 13.168 7.97266C13.168 7.36475 13.6367 6.88867 14.252 6.88867C14.8745 6.88867 15.3359 7.36475 15.3359 7.97266C15.3359 8.58057 14.8745 9.05664 14.252 9.05664Z" fill="#D2D2D7" style="fill:#D2D2D7;fill:color(display-p3 0.8235 0.8235 0.8431);fill-opacity:1;"/>
</svg>
