<svg width="21" height="21" viewBox="0 0 21 21" fill="none" xmlns="http://www.w3.org/2000/svg">
<path d="M11.04 17.6387C9.9873 18.6914 8.85938 18.6982 7.79297 17.6387L3.41797 13.2637C2.35156 12.1973 2.36523 11.0625 3.41113 10.0166L10.1445 3.29688C10.6914 2.74316 11.0195 2.66797 11.8262 2.66797H14.417C15.1895 2.66797 15.4766 2.85254 16.0508 3.43359L17.6094 4.99219C18.1904 5.56641 18.375 5.85352 18.375 6.62598V9.2168C18.375 10.0303 18.3066 10.3584 17.7598 10.9121L11.04 17.6387ZM10.0693 16.4492L16.6934 9.8252C16.8232 9.69531 16.8916 9.57227 16.8916 9.34668V6.66699C16.8916 6.46875 16.8164 6.33203 16.6865 6.20215L14.8408 4.35645C14.7109 4.22656 14.5742 4.15137 14.376 4.15137H11.7031C11.4844 4.15137 11.3613 4.22656 11.2246 4.36328L4.60059 10.9805C4.17676 11.4043 4.15625 11.8486 4.60742 12.293L8.75684 16.4492C9.20117 16.8867 9.64551 16.8799 10.0693 16.4492ZM13.5352 8.51953C12.9609 8.51953 12.5234 8.0752 12.5234 7.50781C12.5234 6.94043 12.9609 6.49609 13.5352 6.49609C14.1162 6.49609 14.5469 6.94043 14.5469 7.50781C14.5469 8.0752 14.1162 8.51953 13.5352 8.51953Z" fill="#D2D2D7" style="fill:#D2D2D7;fill:color(display-p3 0.8235 0.8235 0.8431);fill-opacity:1;"/>
</svg>
