<svg width="19" height="21" viewBox="0 0 19 21" fill="none" xmlns="http://www.w3.org/2000/svg">
<g clip-path="url(#clip0_9421_9025)">
<path d="M10.0015 17.4502C9.02393 18.4277 7.97656 18.4341 6.98633 17.4502L2.92383 13.3877C1.93359 12.3975 1.94629 11.3438 2.91748 10.3726L9.16992 4.13281C9.67773 3.61865 9.98242 3.54883 10.7314 3.54883H13.1372C13.8545 3.54883 14.1211 3.72021 14.6543 4.25977L16.1016 5.70703C16.6411 6.24023 16.8125 6.50684 16.8125 7.22412V9.62988C16.8125 10.3853 16.749 10.6899 16.2412 11.2041L10.0015 17.4502ZM9.1001 16.3457L15.251 10.1948C15.3716 10.0742 15.4351 9.95996 15.4351 9.75049V7.26221C15.4351 7.07812 15.3652 6.95117 15.2446 6.83057L13.5308 5.1167C13.4102 4.99609 13.2832 4.92627 13.0991 4.92627H10.6172C10.4141 4.92627 10.2998 4.99609 10.1729 5.12305L4.02197 11.2676C3.62842 11.6611 3.60938 12.0737 4.02832 12.4863L7.88135 16.3457C8.29395 16.752 8.70654 16.7456 9.1001 16.3457ZM12.3184 8.98242C11.7852 8.98242 11.3789 8.56982 11.3789 8.04297C11.3789 7.51611 11.7852 7.10352 12.3184 7.10352C12.8579 7.10352 13.2578 7.51611 13.2578 8.04297C13.2578 8.56982 12.8579 8.98242 12.3184 8.98242Z" fill="#D2D2D7" style="fill:#D2D2D7;fill:color(display-p3 0.8235 0.8235 0.8431);fill-opacity:1;"/>
</g>
<defs>
<clipPath id="clip0_9421_9025">
<rect width="19" height="21" fill="white" style="fill:white;fill-opacity:1;"/>
</clipPath>
</defs>
</svg>
