<svg width="20" height="21" viewBox="0 0 20 21" fill="none" xmlns="http://www.w3.org/2000/svg">
<path d="M10.54 17.6387C9.4873 18.6914 8.35938 18.6982 7.29297 17.6387L2.91797 13.2637C1.85156 12.1973 1.86523 11.0625 2.91113 10.0166L9.64453 3.29688C10.1914 2.74316 10.5195 2.66797 11.3262 2.66797H13.917C14.6895 2.66797 14.9766 2.85254 15.5508 3.43359L17.1094 4.99219C17.6904 5.56641 17.875 5.85352 17.875 6.62598V9.2168C17.875 10.0303 17.8066 10.3584 17.2598 10.9121L10.54 17.6387ZM9.56934 16.4492L16.1934 9.8252C16.3232 9.69531 16.3916 9.57227 16.3916 9.34668V6.66699C16.3916 6.46875 16.3164 6.33203 16.1865 6.20215L14.3408 4.35645C14.2109 4.22656 14.0742 4.15137 13.876 4.15137H11.2031C10.9844 4.15137 10.8613 4.22656 10.7246 4.36328L4.10059 10.9805C3.67676 11.4043 3.65625 11.8486 4.10742 12.293L8.25684 16.4492C8.70117 16.8867 9.14551 16.8799 9.56934 16.4492ZM13.0352 8.51953C12.4609 8.51953 12.0234 8.0752 12.0234 7.50781C12.0234 6.94043 12.4609 6.49609 13.0352 6.49609C13.6162 6.49609 14.0469 6.94043 14.0469 7.50781C14.0469 8.0752 13.6162 8.51953 13.0352 8.51953Z" fill="#D2D2D7" style="fill:#D2D2D7;fill:color(display-p3 0.8235 0.8235 0.8431);fill-opacity:1;"/>
</svg>
