<svg width="40" height="40" viewBox="0 0 40 40" fill="none" xmlns="http://www.w3.org/2000/svg">
<path d="M20 35.7021C11.5625 35.7021 4.72168 28.8613 4.72168 20.4238C4.72168 16.8057 5.99609 13.4805 8.09082 10.8877C8.82324 9.90625 9.98047 9.81836 10.6982 10.5215C11.416 11.2246 11.3135 12.1328 10.6982 13.0117C9.07227 15.0186 8.07617 17.5674 8.07617 20.4385C8.07617 27.0156 13.4082 32.3477 20 32.3477C26.5918 32.3477 31.9238 27.0156 31.9238 20.4238C31.9238 13.832 26.7676 9.08594 21.2158 8.57324V11.0635C21.2158 11.8838 20.6445 12.5137 19.8242 12.5137C19.0039 12.5137 18.4326 11.8838 18.4326 11.0635V6.68359C18.4326 5.73145 19.0186 5.14551 20.0146 5.14551C28.4375 5.14551 35.2783 11.9863 35.2783 20.4238C35.2783 28.8613 28.4375 35.7021 20 35.7021ZM20 22.9727C19.0771 22.9727 18.2715 22.4746 17.7734 21.6836L13.3936 14.916C12.7783 13.9639 13.6865 13.0557 14.6387 13.6709L21.4062 18.2998C22.124 18.7832 22.5488 19.5742 22.5488 20.4238C22.5488 21.8301 21.4062 22.9727 20 22.9727Z" fill="black" style="fill:black;fill-opacity:1;"/>
</svg>
