<svg width="24" height="17" viewBox="0 0 24 17" fill="none" xmlns="http://www.w3.org/2000/svg">
<g clip-path="url(#clip0_628_1541)">
<path d="M15.4286 16.15C15.2092 16.15 14.9897 16.0667 14.8226 15.901C14.4875 15.5686 14.4875 15.0314 14.8226 14.6991L20.2166 9.35001H1.71432C1.24118 9.35001 0.857178 8.96921 0.857178 8.50001C0.857178 8.03081 1.24118 7.65001 1.71432 7.65001H20.2166L14.8226 2.30096C14.4875 1.96861 14.4875 1.4314 14.8226 1.09905C15.1577 0.766705 15.6995 0.766705 16.0346 1.09905L22.8918 7.89906C22.9749 7.98066 23.0366 8.07586 23.0786 8.17616C23.1197 8.27476 23.1429 8.38355 23.1429 8.49745C23.1429 8.49915 23.1429 8.50086 23.1429 8.50256C23.1429 8.61646 23.1197 8.72525 23.0786 8.82385C23.0366 8.925 22.9749 9.01935 22.8918 9.10095L16.0346 15.901C15.8675 16.0667 15.648 16.15 15.4286 16.15Z" fill="#777777" style="fill:#777777;fill:color(display-p3 0.4667 0.4667 0.4667);fill-opacity:1;"/>
</g>
<defs>
<clipPath id="clip0_628_1541">
<rect width="24" height="17" fill="white" style="fill:white;fill-opacity:1;"/>
</clipPath>
</defs>
</svg>
