<svg width="18" height="20" viewBox="0 0 18 20" fill="none" xmlns="http://www.w3.org/2000/svg">
<path d="M8.9917 18.5811C7.80745 18.5811 6.69792 18.3569 5.66309 17.9087C4.62826 17.466 3.71794 16.8517 2.93213 16.0659C2.14632 15.2856 1.5293 14.3781 1.08105 13.3433C0.638346 12.3029 0.416992 11.1906 0.416992 10.0063C0.416992 8.8221 0.638346 7.71257 1.08105 6.67773C1.5293 5.63737 2.14632 4.72428 2.93213 3.93848C3.71794 3.15267 4.62826 2.53841 5.66309 2.0957C6.69792 1.65299 7.80745 1.43164 8.9917 1.43164C10.1759 1.43164 11.2855 1.65299 12.3203 2.0957C13.3607 2.53841 14.2738 3.15267 15.0596 3.93848C15.8454 4.72428 16.4596 5.63737 16.9023 6.67773C17.3506 7.71257 17.5747 8.8221 17.5747 10.0063C17.5747 11.1906 17.3506 12.3029 16.9023 13.3433C16.4596 14.3781 15.8454 15.2856 15.0596 16.0659C14.2738 16.8517 13.3607 17.466 12.3203 17.9087C11.2855 18.3569 10.1759 18.5811 8.9917 18.5811ZM8.9917 16.8877C9.94352 16.8877 10.8345 16.7078 11.6646 16.3481C12.4946 15.994 13.2251 15.5015 13.856 14.8706C14.4924 14.2397 14.9876 13.5093 15.3418 12.6792C15.696 11.8491 15.873 10.9582 15.873 10.0063C15.873 9.05452 15.696 8.16357 15.3418 7.3335C14.9876 6.49788 14.4924 5.76742 13.856 5.14209C13.2251 4.51123 12.4946 4.01872 11.6646 3.66455C10.8345 3.30485 9.94352 3.125 8.9917 3.125C8.04541 3.125 7.15446 3.30485 6.31885 3.66455C5.48877 4.01872 4.7583 4.51123 4.12744 5.14209C3.49658 5.76742 3.0013 6.49788 2.6416 7.3335C2.28743 8.16357 2.11035 9.05452 2.11035 10.0063C2.11035 10.9582 2.28743 11.8491 2.6416 12.6792C3.0013 13.5093 3.49658 14.2397 4.12744 14.8706C4.7583 15.5015 5.48877 15.994 6.31885 16.3481C7.15446 16.7078 8.04541 16.8877 8.9917 16.8877ZM8.9917 14.1899C8.89762 14.1899 8.80355 14.1706 8.70947 14.1318C8.6154 14.0931 8.51855 14.0267 8.41895 13.9326L5.71289 11.3262C5.64095 11.2542 5.58561 11.1795 5.54688 11.1021C5.51367 11.0246 5.49707 10.936 5.49707 10.8364C5.49707 10.6483 5.56348 10.4933 5.69629 10.3716C5.8291 10.2443 5.98682 10.1807 6.16943 10.1807C6.37972 10.1807 6.55127 10.2581 6.68408 10.4131L7.84619 11.6499L8.30273 12.1895L8.23633 10.9609V6.56152C8.23633 6.36784 8.31104 6.19629 8.46045 6.04688C8.60986 5.89746 8.78695 5.82275 8.9917 5.82275C9.20752 5.82275 9.38737 5.89746 9.53125 6.04688C9.68066 6.19629 9.75537 6.36784 9.75537 6.56152V10.9609L9.69727 12.1895L10.1455 11.6499L11.3076 10.4131C11.4404 10.2581 11.6092 10.1807 11.814 10.1807C11.9966 10.1807 12.1543 10.2443 12.2871 10.3716C12.4255 10.4933 12.4946 10.6483 12.4946 10.8364C12.4946 10.936 12.4753 11.0246 12.4365 11.1021C12.3978 11.1795 12.3452 11.2542 12.2788 11.3262L9.56445 13.9326C9.47038 14.0267 9.3763 14.0931 9.28223 14.1318C9.19368 14.1706 9.09684 14.1899 8.9917 14.1899Z" fill="#888888" style="fill:#888888;fill:color(display-p3 0.5333 0.5333 0.5333);fill-opacity:1;"/>
</svg>
