<svg width="900" height="272" viewBox="0 0 900 272" fill="none" xmlns="http://www.w3.org/2000/svg">
<g clip-path="url(#clip0_1065_189)">
<rect width="900" height="272" fill="black" style="fill:black;fill-opacity:1;"/>
<mask id="mask0_1065_189" style="mask-type:alpha" maskUnits="userSpaceOnUse" x="0" y="-128" width="929" height="400">
<rect y="-128" width="929" height="400" fill="black" style="fill:black;fill-opacity:1;"/>
</mask>
<g mask="url(#mask0_1065_189)">
<path d="M254.226 10.7695C254.226 17.4362 251.934 23.6862 247.351 29.5195C242.767 35.3529 236.413 38.2695 228.288 38.2695C221.205 38.2695 215.371 36.082 210.788 31.707C206.205 27.1237 203.913 21.8112 203.913 15.7695C203.913 11.6029 205.892 4.41536 209.851 -5.79297C209.851 -8.5013 208.496 -10.8971 205.788 -12.9805C203.08 -14.8555 199.538 -15.793 195.163 -15.793C174.746 -15.793 157.663 0.977865 143.913 34.5195C136.205 53.8945 127.559 86.4987 117.976 132.332H187.663L183.288 153.27H113.601L67.6631 356.082C55.3714 410.457 38.8089 454.415 17.9756 487.957C-2.64941 521.499 -29.1077 538.27 -61.3994 538.27C-76.1911 538.27 -88.2744 534.207 -97.6494 526.082C-107.233 517.957 -112.024 508.895 -112.024 498.895C-112.024 492.645 -109.941 486.811 -105.774 481.395C-101.816 475.978 -95.7744 473.27 -87.6494 473.27C-80.5661 473.27 -74.5244 475.561 -69.5244 480.145C-64.7327 484.936 -62.3369 490.77 -62.3369 497.645C-62.3369 501.395 -63.3786 505.145 -65.4619 508.895C-67.7536 512.853 -68.8994 515.561 -68.8994 517.02C-68.8994 518.895 -67.6494 520.457 -65.1494 521.707C-62.8577 522.957 -59.8369 523.582 -56.0869 523.582C-38.3786 523.582 -23.3786 509.624 -11.0869 481.707C-4.62858 467.124 1.30892 447.02 6.72559 421.395L63.2881 153.27H5.47559L9.85059 132.332H68.9131C81.6214 83.7904 95.8923 47.8529 111.726 24.5195C135.267 -11.3138 164.33 -29.2305 198.913 -29.2305C214.746 -29.2305 227.871 -25.168 238.288 -17.043C248.913 -8.91797 254.226 0.352865 254.226 10.7695ZM291.726 120.457C293.601 120.457 294.851 121.082 295.476 122.332C296.309 123.374 296.726 124.624 296.726 126.082C296.517 128.165 296.309 129.728 296.101 130.77L264.851 251.707L271.726 238.27C286.726 208.895 304.226 182.124 324.226 157.957C344.434 133.582 363.601 121.395 381.726 121.395C391.517 121.395 399.017 124.624 404.226 131.082C409.642 137.54 412.351 144.936 412.351 153.27C412.351 162.645 409.642 170.457 404.226 176.707C399.017 182.749 391.726 185.77 382.351 185.77C375.892 185.77 370.996 184.52 367.663 182.02C364.33 179.52 361.726 176.603 359.851 173.27L356.101 166.395C355.267 165.145 354.226 164.207 352.976 163.582C351.934 162.749 350.58 162.332 348.913 162.332C340.788 162.332 329.017 173.686 313.601 196.395C298.392 219.103 284.746 243.686 272.663 270.145C265.371 286.186 257.246 307.436 248.288 333.895C242.663 350.561 235.163 374.207 225.788 404.832H177.663L229.538 216.707C232.455 205.874 234.746 196.186 236.413 187.645C238.288 179.103 239.226 172.124 239.226 166.707C239.226 160.457 237.663 155.665 234.538 152.332C231.413 148.999 225.996 147.332 218.288 147.332C215.788 147.332 212.663 147.54 208.913 147.957C205.163 148.374 200.684 148.895 195.476 149.52V139.207L207.976 136.707C224.226 133.374 241.934 129.832 261.101 126.082C280.476 122.332 290.684 120.457 291.726 120.457ZM643.913 179.207C643.913 164.207 640.476 153.165 633.601 146.082C626.726 138.999 618.392 135.457 608.601 135.457C574.642 135.457 543.08 161.499 513.913 213.582C488.288 259.415 475.476 298.895 475.476 332.02C475.476 348.686 479.017 360.874 486.101 368.582C493.392 376.082 502.351 379.832 512.976 379.832C544.434 379.832 574.746 354.52 603.913 303.895C630.58 257.853 643.913 216.29 643.913 179.207ZM604.851 121.395C621.309 121.395 634.017 125.665 642.976 134.207C647.767 138.79 651.517 144.832 654.226 152.332L655.788 156.707L662.663 132.957C663.496 130.249 664.226 128.478 664.851 127.645C665.476 126.603 666.934 125.978 669.226 125.77L704.538 121.707C706.413 121.707 707.455 122.124 707.663 122.957C708.08 123.582 708.08 124.832 707.663 126.707C706.83 129.415 706.205 131.603 705.788 133.27C705.371 134.728 704.746 136.915 703.913 139.832L675.163 251.707C668.913 276.082 663.601 297.124 659.226 314.832C651.517 346.915 647.663 365.249 647.663 369.832C647.663 372.749 648.392 374.936 649.851 376.395C651.517 377.645 653.496 378.27 655.788 378.27C657.663 378.27 659.642 377.645 661.726 376.395C664.017 375.145 666.726 373.27 669.851 370.77L675.163 366.395C676.83 364.936 678.705 363.27 680.788 361.395C682.871 359.311 685.371 356.811 688.288 353.895L707.663 333.895L715.163 340.457C693.496 368.165 676.101 387.02 662.976 397.02C649.851 406.811 637.351 411.707 625.476 411.707C617.767 411.707 611.726 408.999 607.351 403.582C603.184 398.165 601.101 391.395 601.101 383.27C601.101 375.77 602.455 365.04 605.163 351.082C608.08 336.915 610.892 325.04 613.601 315.457C609.851 321.707 603.496 330.874 594.538 342.957C585.788 354.832 574.955 366.395 562.038 377.645C546.83 391.186 532.246 400.77 518.288 406.395C507.455 410.145 497.038 412.02 487.038 412.02C470.163 412.02 454.851 405.145 441.101 391.395C427.351 377.436 420.476 357.749 420.476 332.332C420.476 288.582 440.059 242.957 479.226 195.457C519.642 146.082 561.517 121.395 604.851 121.395ZM968.913 122.02C977.246 122.02 984.642 124.311 991.101 128.895C1001.1 135.77 1006.1 147.124 1006.1 162.957C1006.1 170.04 1004.33 179.936 1000.79 192.645C997.455 205.145 991.309 225.353 982.351 253.27C1005.48 217.853 1025.37 190.874 1042.04 172.332C1072.25 138.79 1098.91 122.02 1122.04 122.02C1131.83 122.02 1140.79 125.353 1148.91 132.02C1157.04 138.686 1161.1 149.415 1161.1 164.207C1161.1 168.79 1159.12 179.936 1155.16 197.645L1109.23 367.957C1108.39 370.665 1108.7 373.478 1110.16 376.395C1111.62 379.103 1114.33 380.457 1118.29 380.457C1122.04 380.457 1125.27 379.52 1127.98 377.645C1130.89 375.77 1134.54 372.645 1138.91 368.27C1143.08 364.103 1146.41 360.457 1148.91 357.332C1151.62 354.207 1159.12 345.145 1171.41 330.145L1181.1 337.645L1177.98 342.02C1162.98 363.27 1147.87 380.249 1132.66 392.957C1117.45 405.457 1102.45 411.707 1087.66 411.707C1081 411.707 1075.37 410.04 1070.79 406.707C1063.7 401.29 1060.16 392.228 1060.16 379.52C1060.16 376.395 1060.37 373.061 1060.79 369.52C1061.41 365.978 1062.25 362.02 1063.29 357.645L1108.29 182.645C1108.91 180.145 1109.33 178.061 1109.54 176.395C1109.95 174.728 1110.16 173.061 1110.16 171.395C1110.16 166.395 1108.81 162.54 1106.1 159.832C1103.6 157.124 1100.37 155.77 1096.41 155.77C1082.45 155.77 1066.2 166.29 1047.66 187.332C1029.12 208.374 1012.98 229.728 999.226 251.395C986.726 273.478 977.871 292.02 972.663 307.02C967.663 321.811 958.392 354.415 944.851 404.832H896.413L955.788 182.645C956.205 180.77 956.517 178.999 956.726 177.332C957.142 175.457 957.351 173.582 957.351 171.707C957.351 166.707 956.205 162.853 953.913 160.145C951.83 157.228 948.288 155.77 943.288 155.77C930.163 155.77 913.913 166.707 894.538 188.582C875.371 210.457 859.642 230.874 847.351 249.832C835.267 268.374 823.705 293.061 812.663 323.895C805.996 342.645 797.142 369.624 786.101 404.832H737.976L798.913 182.645C799.538 180.353 800.059 178.165 800.476 176.082C800.892 173.999 801.101 171.811 801.101 169.52C801.101 161.395 798.288 156.499 792.663 154.832C787.038 153.165 776.205 152.645 760.163 153.27V142.645C781.205 139.311 815.267 132.436 862.351 122.02L864.851 124.207L828.288 253.27C851.413 219.103 873.288 190.561 893.913 167.645C922.246 137.228 947.246 122.02 968.913 122.02ZM1213.29 322.02C1213.29 275.77 1234.12 230.978 1275.79 187.645C1317.04 144.311 1359.64 122.645 1403.6 122.645C1419.85 122.645 1432.77 126.395 1442.35 133.895C1451.93 141.395 1456.73 152.54 1456.73 167.332C1456.73 197.332 1439.12 223.061 1403.91 244.52C1368.91 265.77 1332.04 278.79 1293.29 283.582L1275.48 285.77C1272.77 294.311 1270.89 301.186 1269.85 306.395C1268.81 311.395 1268.29 317.749 1268.29 325.457C1268.29 343.79 1274.23 358.061 1286.1 368.27C1298.18 378.478 1312.45 383.582 1328.91 383.582C1344.54 383.582 1361.1 378.374 1378.6 367.957C1388.6 361.915 1403.08 351.082 1422.04 335.457L1430.16 342.645C1420.79 354.52 1407.35 366.707 1389.85 379.207C1358.81 401.499 1327.66 412.645 1296.41 412.645C1274.33 412.645 1254.95 404.832 1238.29 389.207C1221.62 373.582 1213.29 351.186 1213.29 322.02ZM1279.85 271.707C1319.64 265.874 1352.04 251.915 1377.04 229.832C1402.04 207.54 1414.54 185.457 1414.54 163.582C1414.54 155.665 1412.66 149.415 1408.91 144.832C1405.16 140.04 1399.64 137.645 1392.35 137.645C1378.81 137.645 1365.48 143.478 1352.35 155.145C1339.43 166.603 1327.77 179.624 1317.35 194.207C1306.31 211.29 1297.56 227.645 1291.1 243.27C1287.56 251.603 1283.81 261.082 1279.85 271.707ZM1500.48 311.707H1510.79C1515.37 336.915 1520.79 355.353 1527.04 367.02C1538.5 388.478 1555.58 399.207 1578.29 399.207C1591 399.207 1601.62 394.728 1610.16 385.77C1618.91 376.811 1623.29 364.936 1623.29 350.145C1623.29 340.978 1622.14 333.478 1619.85 327.645C1617.77 321.811 1615.06 316.499 1611.73 311.707L1585.79 273.27C1570.16 249.936 1560.37 234.311 1556.41 226.395C1550.37 214.52 1547.35 202.645 1547.35 190.77C1547.35 172.645 1553.81 156.707 1566.73 142.957C1579.85 128.999 1598.39 122.02 1622.35 122.02C1632.56 122.02 1644.23 123.999 1657.35 127.957C1670.48 131.707 1679.43 133.582 1684.23 133.582C1689.43 133.582 1693.29 132.54 1695.79 130.457C1698.29 128.374 1700.58 125.561 1702.66 122.02H1711.73L1698.91 210.77H1688.6C1685.89 190.561 1681.83 175.353 1676.41 165.145C1666.41 146.186 1650.58 136.707 1628.91 136.707C1619.75 136.707 1611.52 139.624 1604.23 145.457C1597.14 151.082 1593.6 159.415 1593.6 170.457C1593.6 178.999 1595.16 186.499 1598.29 192.957C1601.62 199.415 1609.02 210.874 1620.48 227.332L1642.66 259.207C1654.12 275.665 1662.25 289.103 1667.04 299.52C1671.83 309.936 1674.23 321.186 1674.23 333.27C1674.23 355.77 1664.64 374.728 1645.48 390.145C1626.31 405.561 1603.5 413.27 1577.04 413.27C1568.5 413.27 1556.31 411.499 1540.48 407.957C1524.64 404.415 1515.48 402.645 1512.98 402.645C1508.81 402.645 1505.68 403.582 1503.6 405.457C1501.73 407.332 1499.95 410.145 1498.29 413.895H1487.98L1500.48 311.707Z" fill="white" style="fill:white;fill-opacity:1;"/>
</g>
</g>
<defs>
<clipPath id="clip0_1065_189">
<rect width="900" height="272" fill="white" style="fill:white;fill-opacity:1;"/>
</clipPath>
</defs>
</svg>
