<svg width="900" height="268" viewBox="0 0 900 268" fill="none" xmlns="http://www.w3.org/2000/svg">
<g clip-path="url(#clip0_1064_176)">
<mask id="mask0_1064_176" style="mask-type:alpha" maskUnits="userSpaceOnUse" x="0" y="-132" width="929" height="400">
<rect y="-132" width="929" height="400" fill="black" style="fill:black;fill-opacity:1;"/>
</mask>
<g mask="url(#mask0_1064_176)">
<path d="M0.534747 358.783C22.4433 356.429 36.023 352.446 41.2738 346.833C46.7057 341.039 49.4217 326.101 49.4217 302.02V61.1161C49.4217 41.3802 46.4341 28.5248 40.4591 22.5497C34.484 16.3936 21.1759 12.5913 0.534747 11.1428V0.822218H296.844L298.745 80.6708H283.264C279.462 55.141 272.31 39.0264 261.808 32.3271C251.307 25.4467 230.575 22.0065 199.613 22.0065H123.567C116.143 22.0065 111.345 23.274 109.172 25.8089C107.181 28.3437 106.185 33.323 106.185 40.7465V164.865H186.577C210.296 164.865 225.415 161.334 231.933 154.273C238.451 147.211 243.702 132.907 247.685 111.361H260.722V240.096H247.685C243.521 218.55 238.179 204.337 231.661 197.456C225.143 190.395 210.115 186.864 186.577 186.864H106.185V308.538C106.185 328.998 109.263 342.125 115.419 347.919C121.756 353.532 135.426 357.153 156.43 358.783V368.832H0.534747V358.783ZM306.35 359.869C323.007 358.421 334.052 355.524 339.484 351.178C344.916 346.652 347.632 337.146 347.632 322.661V200.172C347.632 182.247 345.912 169.482 342.472 161.877C339.212 154.092 333.147 150.199 324.275 150.199C322.464 150.199 320.02 150.47 316.942 151.014C314.045 151.376 310.967 151.919 307.708 152.643V143.681C318.028 140.059 328.62 136.348 339.484 132.545C350.348 128.743 357.862 126.027 362.026 124.397C371.079 120.957 380.404 117.064 390 112.719C391.268 112.719 391.992 113.172 392.173 114.077C392.535 114.982 392.716 116.883 392.716 119.78V164.322C404.304 148.207 415.44 135.623 426.122 126.57C436.986 117.517 448.212 112.991 459.8 112.991C469.034 112.991 476.548 115.797 482.342 121.41C488.136 126.842 491.033 133.722 491.033 142.051C491.033 149.475 488.77 155.721 484.244 160.791C479.898 165.861 474.376 168.396 467.676 168.396C460.796 168.396 453.825 165.227 446.764 158.89C439.883 152.553 434.451 149.384 430.468 149.384C424.131 149.384 416.345 154.544 407.111 164.865C397.877 175.004 393.26 185.506 393.26 196.37V318.859C393.26 334.43 396.881 345.294 404.123 351.45C411.366 357.425 423.407 360.232 440.245 359.869V368.832H306.35V359.869ZM648.558 218.369C627.736 225.249 610.535 232.854 596.955 241.183C570.882 257.297 557.846 275.585 557.846 296.045C557.846 312.522 563.277 324.653 574.141 332.438C581.203 337.508 589.079 340.043 597.77 340.043C609.72 340.043 621.127 336.693 631.991 329.994C643.036 323.295 648.558 314.785 648.558 304.464V218.369ZM509.502 314.785C509.502 288.531 522.629 266.622 548.883 249.059C565.541 238.195 598.766 223.439 648.558 204.789V181.704C648.558 163.235 646.747 150.38 643.126 143.137C636.97 131.006 624.205 124.941 604.831 124.941C595.597 124.941 586.816 127.294 578.487 132.002C570.158 136.891 565.993 143.59 565.993 152.1C565.993 154.273 566.446 157.985 567.351 163.235C568.257 168.305 568.709 171.564 568.709 173.013C568.709 183.152 565.36 190.214 558.66 194.197C554.858 196.551 550.331 197.728 545.081 197.728C536.933 197.728 530.686 195.102 526.341 189.852C521.995 184.42 519.822 178.445 519.822 171.926C519.822 159.252 527.608 146.034 543.179 132.274C558.932 118.332 581.927 111.361 612.164 111.361C647.291 111.361 671.1 122.768 683.594 145.582C690.293 158.075 693.643 176.272 693.643 200.172V309.081C693.643 319.583 694.367 326.825 695.815 330.809C698.169 337.87 703.058 341.401 710.481 341.401C714.646 341.401 718.086 340.767 720.802 339.5C723.518 338.232 728.226 335.154 734.925 330.266V344.389C729.131 351.45 722.884 357.244 716.185 361.771C706.045 368.651 695.725 372.091 685.223 372.091C672.911 372.091 663.948 368.108 658.335 360.141C652.903 352.174 649.916 342.668 649.373 331.624C635.612 343.574 623.843 352.446 614.066 358.24C597.589 368.017 581.927 372.906 567.08 372.906C551.508 372.906 538.019 367.474 526.612 356.61C515.205 345.565 509.502 331.624 509.502 314.785ZM745.245 361.771C759.368 360.503 768.784 358.149 773.491 354.709C780.734 349.458 784.355 338.957 784.355 323.204V182.79C784.355 169.392 782.544 160.61 778.923 156.446C775.483 152.281 769.689 150.199 761.541 150.199C757.739 150.199 754.842 150.38 752.85 150.742C751.039 151.104 748.867 151.738 746.332 152.643V143.137L765.887 136.619C772.948 134.265 784.536 130.01 800.651 123.854C816.765 117.698 825.275 114.62 826.18 114.62C827.086 114.62 827.629 115.073 827.81 115.978C827.991 116.883 828.082 118.603 828.082 121.138V157.804C846.007 141.508 861.488 130.282 874.524 124.126C887.561 117.789 900.959 114.62 914.72 114.62C933.369 114.62 948.217 120.957 959.261 133.632C965.055 140.512 969.854 149.837 973.656 161.606C987.055 148.026 998.733 137.977 1008.69 131.459C1025.89 120.233 1043.46 114.62 1061.38 114.62C1090.53 114.62 1110 126.48 1119.77 150.199C1125.39 163.598 1128.19 184.782 1128.19 213.752V326.463C1128.19 339.319 1131 348.1 1136.61 352.808C1142.41 357.335 1152.73 360.322 1167.57 361.771V368.832H1045.09V361.227C1060.84 359.779 1071.16 356.61 1076.05 351.722C1081.12 346.833 1083.65 336.874 1083.65 321.846V204.789C1083.65 187.226 1081.75 174.28 1077.95 165.951C1071.25 151.104 1058.12 143.681 1038.57 143.681C1026.8 143.681 1015.12 147.573 1003.53 155.359C996.832 159.886 988.594 167.128 978.816 177.087V316.143C978.816 330.809 981.351 341.944 986.421 349.549C991.672 357.153 1002.63 361.227 1019.28 361.771V368.832H894.622V361.771C911.823 359.598 922.777 355.433 927.485 349.277C932.193 343.121 934.546 328.002 934.546 303.921V227.875C934.546 199.991 932.736 180.798 929.114 170.297C923.139 152.553 910.465 143.681 891.091 143.681C880.047 143.681 869.183 146.759 858.5 152.915C847.817 158.89 838.402 166.766 830.254 176.544V325.105C830.254 338.866 832.608 348.372 837.316 353.623C842.204 358.874 852.706 361.59 868.821 361.771V368.832H745.245V361.771ZM1296.58 114.077C1322.11 114.077 1344.47 122.949 1363.66 140.693C1382.86 158.256 1392.45 183.243 1392.45 215.653H1219.99C1221.8 257.66 1231.31 288.259 1248.51 307.452C1265.71 326.644 1286.08 336.241 1309.62 336.241C1328.63 336.241 1344.65 331.262 1357.69 321.303C1370.73 311.345 1382.77 297.222 1393.81 278.934L1403.32 282.194C1395.89 305.189 1381.95 326.463 1361.49 346.018C1341.21 365.573 1316.32 375.35 1286.8 375.35C1252.76 375.35 1226.42 362.495 1207.77 336.784C1189.3 311.073 1180.07 281.469 1180.07 247.973C1180.07 211.579 1190.84 180.165 1212.39 153.73C1233.93 127.294 1262 114.077 1296.58 114.077ZM1280.83 133.903C1260.19 133.903 1244.44 143.047 1233.57 161.334C1227.78 171.112 1223.61 183.424 1221.08 198.271H1335.69C1333.7 180.165 1330.26 166.676 1325.37 157.804C1316.5 141.87 1301.65 133.903 1280.83 133.903ZM1445.14 283.28H1454.11C1458.27 303.921 1463.88 319.764 1470.94 330.809C1483.62 351.088 1502.18 361.227 1526.62 361.227C1540.2 361.227 1550.88 357.516 1558.67 350.092C1566.64 342.487 1570.62 332.71 1570.62 320.76C1570.62 313.155 1568.36 305.822 1563.83 298.761C1559.3 291.699 1551.34 284.819 1539.93 278.12L1509.51 260.738C1487.24 248.788 1470.85 236.747 1460.35 224.616C1449.85 212.484 1444.6 198.18 1444.6 181.704C1444.6 161.425 1451.84 144.767 1466.33 131.731C1480.81 118.694 1499.01 112.176 1520.92 112.176C1530.51 112.176 1541.02 113.986 1552.42 117.608C1564.01 121.229 1570.53 123.039 1571.98 123.039C1575.24 123.039 1577.59 122.587 1579.04 121.682C1580.49 120.776 1581.75 119.328 1582.84 117.336H1589.36L1591.26 193.111H1582.84C1579.22 175.548 1574.33 161.877 1568.18 152.1C1556.95 133.994 1540.74 124.941 1519.56 124.941C1506.89 124.941 1496.93 128.834 1489.68 136.619C1482.44 144.405 1478.82 153.549 1478.82 164.05C1478.82 180.708 1491.31 195.555 1516.3 208.592L1552.15 227.875C1590.72 248.878 1610 273.321 1610 301.205C1610 322.571 1601.94 340.043 1585.83 353.623C1569.9 367.202 1548.98 373.992 1523.09 373.992C1512.23 373.992 1499.91 372.182 1486.15 368.56C1472.39 364.939 1464.25 363.129 1461.71 363.129C1459.54 363.129 1457.64 363.943 1456.01 365.573C1454.38 367.021 1453.11 368.832 1452.2 371.005H1445.14V283.28Z" fill="white" style="fill:white;fill-opacity:1;"/>
</g>
</g>
<defs>
<clipPath id="clip0_1064_176">
<rect width="900" height="268" fill="white" style="fill:white;fill-opacity:1;"/>
</clipPath>
</defs>
</svg>
