<svg width="930" height="380" viewBox="0 0 930 380" fill="none" xmlns="http://www.w3.org/2000/svg">
<g clip-path="url(#clip0_1063_173)">
<mask id="mask0_1063_173" style="mask-type:alpha" maskUnits="userSpaceOnUse" x="0" y="-20" width="929" height="400">
<rect y="-20" width="929" height="400" fill="black" style="fill:black;fill-opacity:1;"/>
</mask>
<g mask="url(#mask0_1063_173)">
<path d="M39.1074 492.74C74.5566 488.932 96.5293 482.486 105.025 473.404C113.814 464.029 118.209 439.859 118.209 400.895V11.0996C118.209 -20.834 113.375 -41.6348 103.707 -51.3027C94.0391 -61.2637 72.5059 -67.416 39.1074 -69.7598V-86.459H518.551L521.627 42.7402H496.578C490.426 1.43164 478.854 -24.6426 461.861 -35.4824C444.869 -46.6152 411.324 -52.1816 361.227 -52.1816H238.18C226.168 -52.1816 218.404 -50.1309 214.889 -46.0293C211.666 -41.9277 210.055 -33.8711 210.055 -21.8594V178.971H340.133C378.512 178.971 402.975 173.258 413.521 161.832C424.068 150.406 432.564 127.262 439.01 92.3984H460.104V300.699H439.01C432.271 265.836 423.629 242.838 413.082 231.705C402.535 220.279 378.219 214.566 340.133 214.566H210.055V411.441C210.055 444.547 215.035 465.787 224.996 475.162C235.25 484.244 257.369 490.104 291.354 492.74V509H39.1074V492.74ZM533.932 494.498C560.885 492.154 578.756 487.467 587.545 480.436C596.334 473.111 600.729 457.73 600.729 434.293V236.1C600.729 207.096 597.945 186.441 592.379 174.137C587.105 161.539 577.291 155.24 562.936 155.24C560.006 155.24 556.051 155.68 551.07 156.559C546.383 157.145 541.402 158.023 536.129 159.195V144.693C552.828 138.834 569.967 132.828 587.545 126.676C605.123 120.523 617.281 116.129 624.02 113.492C638.668 107.926 653.756 101.627 669.283 94.5957C671.334 94.5957 672.506 95.3281 672.799 96.793C673.385 98.2578 673.678 101.334 673.678 106.021V178.092C692.428 152.018 710.445 131.656 727.73 117.008C745.309 102.359 763.473 95.0352 782.223 95.0352C797.164 95.0352 809.322 99.5762 818.697 108.658C828.072 117.447 832.76 128.58 832.76 142.057C832.76 154.068 829.098 164.176 821.773 172.379C814.742 180.582 805.807 184.684 794.967 184.684C783.834 184.684 772.555 179.557 761.129 169.303C749.996 159.049 741.207 153.922 734.762 153.922C724.508 153.922 711.91 162.271 696.969 178.971C682.027 195.377 674.557 212.369 674.557 229.947V428.141C674.557 453.336 680.416 470.914 692.135 480.875C703.854 490.543 723.336 495.084 750.582 494.498V509H533.932V494.498ZM1087.64 265.543C1053.95 276.676 1026.12 288.98 1004.15 302.457C961.959 328.531 940.865 358.121 940.865 391.227C940.865 417.887 949.654 437.516 967.232 450.113C978.658 458.316 991.402 462.418 1005.46 462.418C1024.8 462.418 1043.26 456.998 1060.84 446.158C1078.71 435.318 1087.64 421.549 1087.64 404.85V265.543ZM862.643 421.549C862.643 379.068 883.883 343.619 926.363 315.201C953.316 297.623 1007.08 273.746 1087.64 243.57V206.217C1087.64 176.334 1084.71 155.533 1078.85 143.814C1068.89 124.186 1048.24 114.371 1016.89 114.371C1001.95 114.371 987.74 118.18 974.264 125.797C960.787 133.707 954.049 144.547 954.049 158.316C954.049 161.832 954.781 167.838 956.246 176.334C957.711 184.537 958.443 189.811 958.443 192.154C958.443 208.561 953.023 219.986 942.184 226.432C936.031 230.24 928.707 232.145 920.211 232.145C907.027 232.145 896.92 227.896 889.889 219.4C882.857 210.611 879.342 200.943 879.342 190.396C879.342 169.889 891.939 148.502 917.135 126.236C942.623 103.678 979.83 92.3984 1028.76 92.3984C1085.59 92.3984 1124.12 110.855 1144.33 147.77C1155.17 167.984 1160.59 197.428 1160.59 236.1V412.32C1160.59 429.312 1161.76 441.031 1164.11 447.477C1167.92 458.902 1175.83 464.615 1187.84 464.615C1194.58 464.615 1200.14 463.59 1204.54 461.539C1208.93 459.488 1216.55 454.508 1227.39 446.598V469.449C1218.01 480.875 1207.91 490.25 1197.07 497.574C1180.66 508.707 1163.96 514.273 1146.97 514.273C1127.05 514.273 1112.54 507.828 1103.46 494.938C1094.67 482.047 1089.84 466.666 1088.96 448.795C1066.7 468.131 1047.65 482.486 1031.83 491.861C1005.17 507.682 979.83 515.592 955.807 515.592C930.611 515.592 908.785 506.803 890.328 489.225C871.871 471.354 862.643 448.795 862.643 421.549ZM1244.09 497.574C1266.94 495.523 1282.17 491.715 1289.79 486.148C1301.51 477.652 1307.37 460.66 1307.37 435.172V207.975C1307.37 186.295 1304.44 172.086 1298.58 165.348C1293.01 158.609 1283.64 155.24 1270.46 155.24C1264.3 155.24 1259.62 155.533 1256.39 156.119C1253.46 156.705 1249.95 157.73 1245.85 159.195V143.814L1277.49 133.268C1288.91 129.459 1307.66 122.574 1333.74 112.613C1359.81 102.652 1373.58 97.6719 1375.04 97.6719C1376.51 97.6719 1377.39 98.4043 1377.68 99.8691C1377.97 101.334 1378.12 104.117 1378.12 108.219V167.545C1407.12 141.178 1432.17 123.014 1453.27 113.053C1474.36 102.799 1496.04 97.6719 1518.31 97.6719C1548.48 97.6719 1572.51 107.926 1590.38 128.434C1599.75 139.566 1607.52 154.654 1613.67 173.697C1635.35 151.725 1654.24 135.465 1670.36 124.918C1698.19 106.754 1726.61 97.6719 1755.61 97.6719C1802.78 97.6719 1834.27 116.861 1850.09 155.24C1859.18 176.92 1863.72 211.197 1863.72 258.072V440.445C1863.72 461.246 1868.26 475.455 1877.34 483.072C1886.71 490.396 1903.41 495.23 1927.44 497.574V509H1729.24V496.695C1754.73 494.352 1771.43 489.225 1779.34 481.314C1787.54 473.404 1791.65 457.291 1791.65 432.975V243.57C1791.65 215.152 1788.57 194.205 1782.42 180.729C1771.58 156.705 1750.34 144.693 1718.7 144.693C1699.65 144.693 1680.76 150.992 1662.01 163.59C1651.17 170.914 1637.84 182.633 1622.02 198.746V423.746C1622.02 447.477 1626.12 465.494 1634.32 477.799C1642.82 490.104 1660.54 496.695 1687.5 497.574V509H1485.79V497.574C1513.62 494.059 1531.34 487.32 1538.96 477.359C1546.58 467.398 1550.39 442.936 1550.39 403.971V280.924C1550.39 235.807 1547.46 204.752 1541.6 187.76C1531.93 159.049 1511.42 144.693 1480.07 144.693C1462.2 144.693 1444.62 149.674 1427.34 159.635C1410.05 169.303 1394.82 182.047 1381.64 197.867V438.248C1381.64 460.514 1385.45 475.895 1393.06 484.391C1400.97 492.887 1417.96 497.281 1444.04 497.574V509H1244.09V497.574ZM2136.18 96.793C2177.49 96.793 2213.67 111.148 2244.72 139.859C2275.78 168.277 2291.3 208.707 2291.3 261.148H2012.25C2015.18 329.117 2030.56 378.629 2058.39 409.684C2086.23 440.738 2119.19 456.266 2157.27 456.266C2188.03 456.266 2213.96 448.209 2235.05 432.096C2256.15 415.982 2275.63 393.131 2293.5 363.541L2308.88 368.814C2296.87 406.021 2274.31 440.445 2241.21 472.086C2208.39 503.727 2168.11 519.547 2120.36 519.547C2065.28 519.547 2022.65 498.746 1992.48 457.145C1962.59 415.543 1947.65 367.643 1947.65 313.443C1947.65 254.557 1965.08 203.727 1999.95 160.953C2034.81 118.18 2080.22 96.793 2136.18 96.793ZM2110.69 128.873C2077.29 128.873 2051.8 143.668 2034.22 173.258C2024.85 189.078 2018.11 209 2014.01 233.023H2199.46C2196.24 203.727 2190.67 181.9 2182.76 167.545C2168.4 141.764 2144.38 128.873 2110.69 128.873ZM2376.56 370.572H2391.06C2397.8 403.971 2406.88 429.605 2418.31 447.477C2438.81 480.289 2468.84 496.695 2508.39 496.695C2530.37 496.695 2547.65 490.689 2560.25 478.678C2573.14 466.373 2579.59 450.553 2579.59 431.217C2579.59 418.912 2575.92 407.047 2568.6 395.621C2561.28 384.195 2548.38 373.062 2529.93 362.223L2480.71 334.098C2444.67 314.762 2418.16 295.279 2401.17 275.65C2384.18 256.021 2375.68 232.877 2375.68 206.217C2375.68 173.404 2387.4 146.451 2410.84 125.357C2434.27 104.264 2463.72 93.7168 2499.17 93.7168C2514.69 93.7168 2531.69 96.6465 2550.14 102.506C2568.89 108.365 2579.44 111.295 2581.78 111.295C2587.06 111.295 2590.87 110.562 2593.21 109.098C2595.55 107.633 2597.6 105.289 2599.36 102.066H2609.91L2612.98 224.674H2599.36C2593.5 196.256 2585.59 174.137 2575.63 158.316C2557.47 129.02 2531.25 114.371 2496.97 114.371C2476.46 114.371 2460.35 120.67 2448.63 133.268C2436.91 145.865 2431.05 160.66 2431.05 177.652C2431.05 204.605 2451.27 228.629 2491.7 249.723L2549.7 280.924C2612.11 314.908 2643.31 354.459 2643.31 399.576C2643.31 434.146 2630.27 462.418 2604.2 484.391C2578.41 506.363 2544.58 517.35 2502.68 517.35C2485.1 517.35 2465.18 514.42 2442.92 508.561C2420.65 502.701 2407.47 499.771 2403.37 499.771C2399.85 499.771 2396.77 501.09 2394.14 503.727C2391.5 506.07 2389.45 509 2387.98 512.516H2376.56V370.572Z" fill="white" style="fill:white;fill-opacity:1;"/>
</g>
</g>
<defs>
<clipPath id="clip0_1063_173">
<rect width="930" height="380" fill="white" style="fill:white;fill-opacity:1;"/>
</clipPath>
</defs>
</svg>
