<svg width="899" height="266" viewBox="0 0 899 266" fill="none" xmlns="http://www.w3.org/2000/svg">
<g clip-path="url(#clip0_1064_176)">
<rect width="899" height="266" fill="black" style="fill:black;fill-opacity:1;"/>
<mask id="mask0_1064_176" style="mask-type:alpha" maskUnits="userSpaceOnUse" x="0" y="-134" width="929" height="400">
<rect y="-134" width="929" height="400" fill="black" style="fill:black;fill-opacity:1;"/>
</mask>
<g mask="url(#mask0_1064_176)">
<path d="M-0.465253 358.783C21.4433 356.429 35.023 352.446 40.2738 346.833C45.7057 341.039 48.4217 326.101 48.4217 302.02V61.1161C48.4217 41.3802 45.4341 28.5248 39.4591 22.5497C33.484 16.3936 20.1759 12.5913 -0.465253 11.1428V0.822218H295.844L297.745 80.6708H282.264C278.462 55.141 271.31 39.0264 260.808 32.3271C250.307 25.4467 229.575 22.0065 198.613 22.0065H122.567C115.143 22.0065 110.345 23.274 108.172 25.8089C106.181 28.3437 105.185 33.323 105.185 40.7465V164.865H185.577C209.296 164.865 224.415 161.334 230.933 154.273C237.451 147.211 242.702 132.907 246.685 111.361H259.722V240.096H246.685C242.521 218.55 237.179 204.337 230.661 197.456C224.143 190.395 209.115 186.864 185.577 186.864H105.185V308.538C105.185 328.998 108.263 342.125 114.419 347.919C120.756 353.532 134.426 357.153 155.43 358.783V368.832H-0.465253V358.783ZM305.35 359.869C322.007 358.421 333.052 355.524 338.484 351.178C343.916 346.652 346.632 337.146 346.632 322.661V200.172C346.632 182.247 344.912 169.482 341.472 161.877C338.212 154.092 332.147 150.199 323.275 150.199C321.464 150.199 319.02 150.47 315.942 151.014C313.045 151.376 309.967 151.919 306.708 152.643V143.681C317.028 140.059 327.62 136.348 338.484 132.545C349.348 128.743 356.862 126.027 361.026 124.397C370.079 120.957 379.404 117.064 389 112.719C390.268 112.719 390.992 113.172 391.173 114.077C391.535 114.982 391.716 116.883 391.716 119.78V164.322C403.304 148.207 414.44 135.623 425.122 126.57C435.986 117.517 447.212 112.991 458.8 112.991C468.034 112.991 475.548 115.797 481.342 121.41C487.136 126.842 490.033 133.722 490.033 142.051C490.033 149.475 487.77 155.721 483.244 160.791C478.898 165.861 473.376 168.396 466.676 168.396C459.796 168.396 452.825 165.227 445.764 158.89C438.883 152.553 433.451 149.384 429.468 149.384C423.131 149.384 415.345 154.544 406.111 164.865C396.877 175.004 392.26 185.506 392.26 196.37V318.859C392.26 334.43 395.881 345.294 403.123 351.45C410.366 357.425 422.407 360.232 439.245 359.869V368.832H305.35V359.869ZM647.558 218.369C626.736 225.249 609.535 232.854 595.955 241.183C569.882 257.297 556.846 275.585 556.846 296.045C556.846 312.522 562.277 324.653 573.141 332.438C580.203 337.508 588.079 340.043 596.77 340.043C608.72 340.043 620.127 336.693 630.991 329.994C642.036 323.295 647.558 314.785 647.558 304.464V218.369ZM508.502 314.785C508.502 288.531 521.629 266.622 547.883 249.059C564.541 238.195 597.766 223.439 647.558 204.789V181.704C647.558 163.235 645.747 150.38 642.126 143.137C635.97 131.006 623.205 124.941 603.831 124.941C594.597 124.941 585.816 127.294 577.487 132.002C569.158 136.891 564.993 143.59 564.993 152.1C564.993 154.273 565.446 157.985 566.351 163.235C567.257 168.305 567.709 171.564 567.709 173.013C567.709 183.152 564.36 190.214 557.66 194.197C553.858 196.551 549.331 197.728 544.081 197.728C535.933 197.728 529.686 195.102 525.341 189.852C520.995 184.42 518.822 178.445 518.822 171.926C518.822 159.252 526.608 146.034 542.179 132.274C557.932 118.332 580.927 111.361 611.164 111.361C646.291 111.361 670.1 122.768 682.594 145.582C689.293 158.075 692.643 176.272 692.643 200.172V309.081C692.643 319.583 693.367 326.825 694.815 330.809C697.169 337.87 702.058 341.401 709.481 341.401C713.646 341.401 717.086 340.767 719.802 339.5C722.518 338.232 727.226 335.154 733.925 330.266V344.389C728.131 351.45 721.884 357.244 715.185 361.771C705.045 368.651 694.725 372.091 684.223 372.091C671.911 372.091 662.948 368.108 657.335 360.141C651.903 352.174 648.916 342.668 648.373 331.624C634.612 343.574 622.843 352.446 613.066 358.24C596.589 368.017 580.927 372.906 566.08 372.906C550.508 372.906 537.019 367.474 525.612 356.61C514.205 345.565 508.502 331.624 508.502 314.785ZM744.245 361.771C758.368 360.503 767.784 358.149 772.491 354.709C779.734 349.458 783.355 338.957 783.355 323.204V182.79C783.355 169.392 781.544 160.61 777.923 156.446C774.483 152.281 768.689 150.199 760.541 150.199C756.739 150.199 753.842 150.38 751.85 150.742C750.039 151.104 747.867 151.738 745.332 152.643V143.137L764.887 136.619C771.948 134.265 783.536 130.01 799.651 123.854C815.765 117.698 824.275 114.62 825.18 114.62C826.086 114.62 826.629 115.073 826.81 115.978C826.991 116.883 827.082 118.603 827.082 121.138V157.804C845.007 141.508 860.488 130.282 873.524 124.126C886.561 117.789 899.959 114.62 913.72 114.62C932.369 114.62 947.217 120.957 958.261 133.632C964.055 140.512 968.854 149.837 972.656 161.606C986.055 148.026 997.733 137.977 1007.69 131.459C1024.89 120.233 1042.46 114.62 1060.38 114.62C1089.53 114.62 1109 126.48 1118.77 150.199C1124.39 163.598 1127.19 184.782 1127.19 213.752V326.463C1127.19 339.319 1130 348.1 1135.61 352.808C1141.41 357.335 1151.73 360.322 1166.57 361.771V368.832H1044.09V361.227C1059.84 359.779 1070.16 356.61 1075.05 351.722C1080.12 346.833 1082.65 336.874 1082.65 321.846V204.789C1082.65 187.226 1080.75 174.28 1076.95 165.951C1070.25 151.104 1057.12 143.681 1037.57 143.681C1025.8 143.681 1014.12 147.573 1002.53 155.359C995.832 159.886 987.594 167.128 977.816 177.087V316.143C977.816 330.809 980.351 341.944 985.421 349.549C990.672 357.153 1001.63 361.227 1018.28 361.771V368.832H893.622V361.771C910.823 359.598 921.777 355.433 926.485 349.277C931.193 343.121 933.546 328.002 933.546 303.921V227.875C933.546 199.991 931.736 180.798 928.114 170.297C922.139 152.553 909.465 143.681 890.091 143.681C879.047 143.681 868.183 146.759 857.5 152.915C846.817 158.89 837.402 166.766 829.254 176.544V325.105C829.254 338.866 831.608 348.372 836.316 353.623C841.204 358.874 851.706 361.59 867.821 361.771V368.832H744.245V361.771ZM1295.58 114.077C1321.11 114.077 1343.47 122.949 1362.66 140.693C1381.86 158.256 1391.45 183.243 1391.45 215.653H1218.99C1220.8 257.66 1230.31 288.259 1247.51 307.452C1264.71 326.644 1285.08 336.241 1308.62 336.241C1327.63 336.241 1343.65 331.262 1356.69 321.303C1369.73 311.345 1381.77 297.222 1392.81 278.934L1402.32 282.194C1394.89 305.189 1380.95 326.463 1360.49 346.018C1340.21 365.573 1315.32 375.35 1285.8 375.35C1251.76 375.35 1225.42 362.495 1206.77 336.784C1188.3 311.073 1179.07 281.469 1179.07 247.973C1179.07 211.579 1189.84 180.165 1211.39 153.73C1232.93 127.294 1261 114.077 1295.58 114.077ZM1279.83 133.903C1259.19 133.903 1243.44 143.047 1232.57 161.334C1226.78 171.112 1222.61 183.424 1220.08 198.271H1334.69C1332.7 180.165 1329.26 166.676 1324.37 157.804C1315.5 141.87 1300.65 133.903 1279.83 133.903ZM1444.14 283.28H1453.11C1457.27 303.921 1462.88 319.764 1469.94 330.809C1482.62 351.088 1501.18 361.227 1525.62 361.227C1539.2 361.227 1549.88 357.516 1557.67 350.092C1565.64 342.487 1569.62 332.71 1569.62 320.76C1569.62 313.155 1567.36 305.822 1562.83 298.761C1558.3 291.699 1550.34 284.819 1538.93 278.12L1508.51 260.738C1486.24 248.788 1469.85 236.747 1459.35 224.616C1448.85 212.484 1443.6 198.18 1443.6 181.704C1443.6 161.425 1450.84 144.767 1465.33 131.731C1479.81 118.694 1498.01 112.176 1519.92 112.176C1529.51 112.176 1540.02 113.986 1551.42 117.608C1563.01 121.229 1569.53 123.039 1570.98 123.039C1574.24 123.039 1576.59 122.587 1578.04 121.682C1579.49 120.776 1580.75 119.328 1581.84 117.336H1588.36L1590.26 193.111H1581.84C1578.22 175.548 1573.33 161.877 1567.18 152.1C1555.95 133.994 1539.74 124.941 1518.56 124.941C1505.89 124.941 1495.93 128.834 1488.68 136.619C1481.44 144.405 1477.82 153.549 1477.82 164.05C1477.82 180.708 1490.31 195.555 1515.3 208.592L1551.15 227.875C1589.72 248.878 1609 273.321 1609 301.205C1609 322.571 1600.94 340.043 1584.83 353.623C1568.9 367.202 1547.98 373.992 1522.09 373.992C1511.23 373.992 1498.91 372.182 1485.15 368.56C1471.39 364.939 1463.25 363.129 1460.71 363.129C1458.54 363.129 1456.64 363.943 1455.01 365.573C1453.38 367.021 1452.11 368.832 1451.2 371.005H1444.14V283.28Z" fill="white" style="fill:white;fill-opacity:1;"/>
</g>
</g>
<defs>
<clipPath id="clip0_1064_176">
<rect width="899" height="266" fill="white" style="fill:white;fill-opacity:1;"/>
</clipPath>
</defs>
</svg>
