<svg width="900" height="272" viewBox="0 0 900 272" fill="none" xmlns="http://www.w3.org/2000/svg">
<g clip-path="url(#clip0_1065_198)">
<rect width="900" height="272" fill="black" style="fill:black;fill-opacity:1;"/>
<mask id="mask0_1065_198" style="mask-type:alpha" maskUnits="userSpaceOnUse" x="0" y="-128" width="929" height="400">
<rect y="-128" width="929" height="400" fill="black" style="fill:black;fill-opacity:1;"/>
</mask>
<g mask="url(#mask0_1065_198)">
<path d="M254.226 -29.2305C254.226 -22.5638 251.934 -16.3138 247.351 -10.4805C242.767 -4.64714 236.413 -1.73047 228.288 -1.73047C221.205 -1.73047 215.371 -3.91797 210.788 -8.29297C206.205 -12.8763 203.913 -18.1888 203.913 -24.2305C203.913 -28.3971 205.892 -35.5846 209.851 -45.793C209.851 -48.5013 208.496 -50.8971 205.788 -52.9805C203.08 -54.8555 199.538 -55.793 195.163 -55.793C174.746 -55.793 157.663 -39.0221 143.913 -5.48047C136.205 13.8945 127.559 46.4987 117.976 92.332H187.663L183.288 113.27H113.601L67.6631 316.082C55.3714 370.457 38.8089 414.415 17.9756 447.957C-2.64941 481.499 -29.1077 498.27 -61.3994 498.27C-76.1911 498.27 -88.2744 494.207 -97.6494 486.082C-107.233 477.957 -112.024 468.895 -112.024 458.895C-112.024 452.645 -109.941 446.811 -105.774 441.395C-101.816 435.978 -95.7744 433.27 -87.6494 433.27C-80.5661 433.27 -74.5244 435.561 -69.5244 440.145C-64.7327 444.936 -62.3369 450.77 -62.3369 457.645C-62.3369 461.395 -63.3786 465.145 -65.4619 468.895C-67.7536 472.853 -68.8994 475.561 -68.8994 477.02C-68.8994 478.895 -67.6494 480.457 -65.1494 481.707C-62.8577 482.957 -59.8369 483.582 -56.0869 483.582C-38.3786 483.582 -23.3786 469.624 -11.0869 441.707C-4.62858 427.124 1.30892 407.02 6.72559 381.395L63.2881 113.27H5.47559L9.85059 92.332H68.9131C81.6214 43.7904 95.8923 7.85286 111.726 -15.4805C135.267 -51.3138 164.33 -69.2305 198.913 -69.2305C214.746 -69.2305 227.871 -65.168 238.288 -57.043C248.913 -48.918 254.226 -39.6471 254.226 -29.2305ZM291.726 80.457C293.601 80.457 294.851 81.082 295.476 82.332C296.309 83.3737 296.726 84.6237 296.726 86.082C296.517 88.1654 296.309 89.7279 296.101 90.7695L264.851 211.707L271.726 198.27C286.726 168.895 304.226 142.124 324.226 117.957C344.434 93.582 363.601 81.3945 381.726 81.3945C391.517 81.3945 399.017 84.6237 404.226 91.082C409.642 97.5404 412.351 104.936 412.351 113.27C412.351 122.645 409.642 130.457 404.226 136.707C399.017 142.749 391.726 145.77 382.351 145.77C375.892 145.77 370.996 144.52 367.663 142.02C364.33 139.52 361.726 136.603 359.851 133.27L356.101 126.395C355.267 125.145 354.226 124.207 352.976 123.582C351.934 122.749 350.58 122.332 348.913 122.332C340.788 122.332 329.017 133.686 313.601 156.395C298.392 179.103 284.746 203.686 272.663 230.145C265.371 246.186 257.246 267.436 248.288 293.895C242.663 310.561 235.163 334.207 225.788 364.832H177.663L229.538 176.707C232.455 165.874 234.746 156.186 236.413 147.645C238.288 139.103 239.226 132.124 239.226 126.707C239.226 120.457 237.663 115.665 234.538 112.332C231.413 108.999 225.996 107.332 218.288 107.332C215.788 107.332 212.663 107.54 208.913 107.957C205.163 108.374 200.684 108.895 195.476 109.52V99.207L207.976 96.707C224.226 93.3737 241.934 89.832 261.101 86.082C280.476 82.332 290.684 80.457 291.726 80.457ZM643.913 139.207C643.913 124.207 640.476 113.165 633.601 106.082C626.726 98.9987 618.392 95.457 608.601 95.457C574.642 95.457 543.08 121.499 513.913 173.582C488.288 219.415 475.476 258.895 475.476 292.02C475.476 308.686 479.017 320.874 486.101 328.582C493.392 336.082 502.351 339.832 512.976 339.832C544.434 339.832 574.746 314.52 603.913 263.895C630.58 217.853 643.913 176.29 643.913 139.207ZM604.851 81.3945C621.309 81.3945 634.017 85.6654 642.976 94.207C647.767 98.7904 651.517 104.832 654.226 112.332L655.788 116.707L662.663 92.957C663.496 90.2487 664.226 88.4779 664.851 87.6445C665.476 86.6029 666.934 85.9779 669.226 85.7695L704.538 81.707C706.413 81.707 707.455 82.1237 707.663 82.957C708.08 83.582 708.08 84.832 707.663 86.707C706.83 89.4154 706.205 91.6029 705.788 93.2695C705.371 94.7279 704.746 96.9154 703.913 99.832L675.163 211.707C668.913 236.082 663.601 257.124 659.226 274.832C651.517 306.915 647.663 325.249 647.663 329.832C647.663 332.749 648.392 334.936 649.851 336.395C651.517 337.645 653.496 338.27 655.788 338.27C657.663 338.27 659.642 337.645 661.726 336.395C664.017 335.145 666.726 333.27 669.851 330.77L675.163 326.395C676.83 324.936 678.705 323.27 680.788 321.395C682.871 319.311 685.371 316.811 688.288 313.895L707.663 293.895L715.163 300.457C693.496 328.165 676.101 347.02 662.976 357.02C649.851 366.811 637.351 371.707 625.476 371.707C617.767 371.707 611.726 368.999 607.351 363.582C603.184 358.165 601.101 351.395 601.101 343.27C601.101 335.77 602.455 325.04 605.163 311.082C608.08 296.915 610.892 285.04 613.601 275.457C609.851 281.707 603.496 290.874 594.538 302.957C585.788 314.832 574.955 326.395 562.038 337.645C546.83 351.186 532.246 360.77 518.288 366.395C507.455 370.145 497.038 372.02 487.038 372.02C470.163 372.02 454.851 365.145 441.101 351.395C427.351 337.436 420.476 317.749 420.476 292.332C420.476 248.582 440.059 202.957 479.226 155.457C519.642 106.082 561.517 81.3945 604.851 81.3945ZM968.913 82.0195C977.246 82.0195 984.642 84.3112 991.101 88.8945C1001.1 95.7695 1006.1 107.124 1006.1 122.957C1006.1 130.04 1004.33 139.936 1000.79 152.645C997.455 165.145 991.309 185.353 982.351 213.27C1005.48 177.853 1025.37 150.874 1042.04 132.332C1072.25 98.7904 1098.91 82.0195 1122.04 82.0195C1131.83 82.0195 1140.79 85.3529 1148.91 92.0195C1157.04 98.6862 1161.1 109.415 1161.1 124.207C1161.1 128.79 1159.12 139.936 1155.16 157.645L1109.23 327.957C1108.39 330.665 1108.7 333.478 1110.16 336.395C1111.62 339.103 1114.33 340.457 1118.29 340.457C1122.04 340.457 1125.27 339.52 1127.98 337.645C1130.89 335.77 1134.54 332.645 1138.91 328.27C1143.08 324.103 1146.41 320.457 1148.91 317.332C1151.62 314.207 1159.12 305.145 1171.41 290.145L1181.1 297.645L1177.98 302.02C1162.98 323.27 1147.87 340.249 1132.66 352.957C1117.45 365.457 1102.45 371.707 1087.66 371.707C1081 371.707 1075.37 370.04 1070.79 366.707C1063.7 361.29 1060.16 352.228 1060.16 339.52C1060.16 336.395 1060.37 333.061 1060.79 329.52C1061.41 325.978 1062.25 322.02 1063.29 317.645L1108.29 142.645C1108.91 140.145 1109.33 138.061 1109.54 136.395C1109.95 134.728 1110.16 133.061 1110.16 131.395C1110.16 126.395 1108.81 122.54 1106.1 119.832C1103.6 117.124 1100.37 115.77 1096.41 115.77C1082.45 115.77 1066.2 126.29 1047.66 147.332C1029.12 168.374 1012.98 189.728 999.226 211.395C986.726 233.478 977.871 252.02 972.663 267.02C967.663 281.811 958.392 314.415 944.851 364.832H896.413L955.788 142.645C956.205 140.77 956.517 138.999 956.726 137.332C957.142 135.457 957.351 133.582 957.351 131.707C957.351 126.707 956.205 122.853 953.913 120.145C951.83 117.228 948.288 115.77 943.288 115.77C930.163 115.77 913.913 126.707 894.538 148.582C875.371 170.457 859.642 190.874 847.351 209.832C835.267 228.374 823.705 253.061 812.663 283.895C805.996 302.645 797.142 329.624 786.101 364.832H737.976L798.913 142.645C799.538 140.353 800.059 138.165 800.476 136.082C800.892 133.999 801.101 131.811 801.101 129.52C801.101 121.395 798.288 116.499 792.663 114.832C787.038 113.165 776.205 112.645 760.163 113.27V102.645C781.205 99.3112 815.267 92.4362 862.351 82.0195L864.851 84.207L828.288 213.27C851.413 179.103 873.288 150.561 893.913 127.645C922.246 97.2279 947.246 82.0195 968.913 82.0195ZM1213.29 282.02C1213.29 235.77 1234.12 190.978 1275.79 147.645C1317.04 104.311 1359.64 82.6445 1403.6 82.6445C1419.85 82.6445 1432.77 86.3945 1442.35 93.8945C1451.93 101.395 1456.73 112.54 1456.73 127.332C1456.73 157.332 1439.12 183.061 1403.91 204.52C1368.91 225.77 1332.04 238.79 1293.29 243.582L1275.48 245.77C1272.77 254.311 1270.89 261.186 1269.85 266.395C1268.81 271.395 1268.29 277.749 1268.29 285.457C1268.29 303.79 1274.23 318.061 1286.1 328.27C1298.18 338.478 1312.45 343.582 1328.91 343.582C1344.54 343.582 1361.1 338.374 1378.6 327.957C1388.6 321.915 1403.08 311.082 1422.04 295.457L1430.16 302.645C1420.79 314.52 1407.35 326.707 1389.85 339.207C1358.81 361.499 1327.66 372.645 1296.41 372.645C1274.33 372.645 1254.95 364.832 1238.29 349.207C1221.62 333.582 1213.29 311.186 1213.29 282.02ZM1279.85 231.707C1319.64 225.874 1352.04 211.915 1377.04 189.832C1402.04 167.54 1414.54 145.457 1414.54 123.582C1414.54 115.665 1412.66 109.415 1408.91 104.832C1405.16 100.04 1399.64 97.6445 1392.35 97.6445C1378.81 97.6445 1365.48 103.478 1352.35 115.145C1339.43 126.603 1327.77 139.624 1317.35 154.207C1306.31 171.29 1297.56 187.645 1291.1 203.27C1287.56 211.603 1283.81 221.082 1279.85 231.707ZM1500.48 271.707H1510.79C1515.37 296.915 1520.79 315.353 1527.04 327.02C1538.5 348.478 1555.58 359.207 1578.29 359.207C1591 359.207 1601.62 354.728 1610.16 345.77C1618.91 336.811 1623.29 324.936 1623.29 310.145C1623.29 300.978 1622.14 293.478 1619.85 287.645C1617.77 281.811 1615.06 276.499 1611.73 271.707L1585.79 233.27C1570.16 209.936 1560.37 194.311 1556.41 186.395C1550.37 174.52 1547.35 162.645 1547.35 150.77C1547.35 132.645 1553.81 116.707 1566.73 102.957C1579.85 88.9987 1598.39 82.0195 1622.35 82.0195C1632.56 82.0195 1644.23 83.9987 1657.35 87.957C1670.48 91.707 1679.43 93.582 1684.23 93.582C1689.43 93.582 1693.29 92.5404 1695.79 90.457C1698.29 88.3737 1700.58 85.5612 1702.66 82.0195H1711.73L1698.91 170.77H1688.6C1685.89 150.561 1681.83 135.353 1676.41 125.145C1666.41 106.186 1650.58 96.707 1628.91 96.707C1619.75 96.707 1611.52 99.6237 1604.23 105.457C1597.14 111.082 1593.6 119.415 1593.6 130.457C1593.6 138.999 1595.16 146.499 1598.29 152.957C1601.62 159.415 1609.02 170.874 1620.48 187.332L1642.66 219.207C1654.12 235.665 1662.25 249.103 1667.04 259.52C1671.83 269.936 1674.23 281.186 1674.23 293.27C1674.23 315.77 1664.64 334.728 1645.48 350.145C1626.31 365.561 1603.5 373.27 1577.04 373.27C1568.5 373.27 1556.31 371.499 1540.48 367.957C1524.64 364.415 1515.48 362.645 1512.98 362.645C1508.81 362.645 1505.68 363.582 1503.6 365.457C1501.73 367.332 1499.95 370.145 1498.29 373.895H1487.98L1500.48 271.707Z" fill="white" style="fill:white;fill-opacity:1;"/>
</g>
</g>
<defs>
<clipPath id="clip0_1065_198">
<rect width="900" height="272" fill="white" style="fill:white;fill-opacity:1;"/>
</clipPath>
</defs>
</svg>
