<svg fill="none" height="192" viewBox="0 0 192 192" width="192" xmlns="http://www.w3.org/2000/svg"><path d="m135.388 119.417 13.295-8.825 18.497 10.804c3.248 1.868 5.588 3.683 7.019 5.442 1.431 1.705 2.147 3.712 2.147 6.021 0 2.254-.716 4.26-2.147 6.02-1.431 1.704-3.771 3.491-7.019 5.36l-60.858 35.297c-1.981 1.155-3.799 2.007-5.45 2.557-1.6516.604-3.2756.907-4.872.907-1.5965 0-3.2205-.303-4.872-.907-1.5964-.55-3.4131-1.402-5.45-2.557l-60.858-35.297c-3.2481-1.869-5.5877-3.656-7.0189-5.36-1.4314-1.76-2.147-3.766-2.147-6.02 0-2.309.7156-4.316 2.147-6.021 1.4312-1.759 3.7708-3.574 7.0189-5.442l19.6529-11.381 14.1204 8.246-24.2772 13.773c-.3853.219-.5781.494-.5781.825 0 .275.1928.522.5781.741l58.3809 33.319c1.2661.659 2.3671.989 3.303.989.9909 0 2.1194-.33 3.3856-.989l58.3804-33.319c.385-.219.578-.466.578-.741 0-.331-.193-.606-.578-.825zm-1.568-37.1121 13.459-8.7418 19.901 11.6282c3.248 1.8693 5.588 3.6837 7.019 5.443 1.431 1.7044 2.147 3.7111 2.147 6.0203 0 2.3091-.716 4.3154-2.147 6.0204-1.431 1.704-3.771 3.519-7.019 5.443l-60.858 35.297c-1.981 1.099-3.799 1.951-5.45 2.557-1.6516.549-3.2756.824-4.872.824-1.5965 0-3.2205-.275-4.872-.824-1.5964-.606-3.4131-1.458-5.45-2.557l-60.858-35.297c-3.2481-1.924-5.5877-3.739-7.0189-5.443-1.4314-1.705-2.147-3.7113-2.147-6.0204 0-2.3092.7156-4.3159 2.147-6.0203 1.4312-1.7593 3.7708-3.5737 7.0189-5.443l21.5522-12.4529 13.6249 8.4944-25.681 14.5971c-.3853.2199-.5781.4948-.5781.8247 0 .2749.1928.5223.5781.7422l58.3809 33.3182c1.2661.659 2.3671.989 3.303.989.9909 0 2.1194-.33 3.3856-.989l58.3804-33.3182c.385-.2199.578-.4673.578-.7422 0-.3299-.193-.6048-.578-.8247zm-37.82 25.9781c-1.5965 0-3.2205-.275-4.872-.825-1.5964-.55-3.4131-1.402-5.45-2.556l-60.858-35.2974c-3.2481-1.9243-5.5877-3.7386-7.0189-5.4429-1.4314-1.7044-2.147-3.7112-2.147-6.0203 0-2.3642.7156-4.3984 2.147-6.1027 1.4312-1.7044 3.7708-3.5187 7.0189-5.4431l60.858-35.2968c2.0369-1.1546 3.8536-1.97926 5.45-2.4741 1.6515-.54976 3.2755-.8247 4.872-.8247 1.5964 0 3.2204.27494 4.872.8247 1.651.49484 3.469 1.3195 5.45 2.4741l60.858 35.2968c3.248 1.9244 5.588 3.7387 7.019 5.4431 1.431 1.7043 2.147 3.7385 2.147 6.1027 0 2.3091-.716 4.3159-2.147 6.0203-1.431 1.7043-3.771 3.5186-7.019 5.4429l-60.858 35.2974c-1.981 1.154-3.799 2.006-5.45 2.556-1.6516.55-3.2756.825-4.872.825zm0-15.0921c.9909 0 2.1194-.3574 3.3856-1.0721l58.3804-33.3176c.385-.165.578-.3849.578-.6598 0-.3299-.193-.5773-.578-.7422l-58.3804-33.3177c-1.2662-.7147-2.3947-1.0721-3.3856-1.0721-.9359 0-2.0369.3574-3.303 1.0721l-58.3809 33.3177c-.3853.1649-.5781.4123-.5781.7422 0 .2749.1928.4948.5781.6598l58.3809 33.3176c1.2661.7147 2.3671 1.0721 3.303 1.0721z" fill="#fff"/></svg>