<svg width="29" height="29" viewBox="0 0 29 29" fill="none" xmlns="http://www.w3.org/2000/svg">
<g clip-path="url(#clip0_604_1532)">
<path d="M20.0117 18.3359L21.875 17.1289L24.6641 18.7578C25.1406 19.0391 25.4805 19.3008 25.6836 19.543C25.8867 19.7773 25.9883 20.0586 25.9883 20.3867C25.9883 20.7227 25.8867 21.0117 25.6836 21.2539C25.4805 21.4883 25.1406 21.7461 24.6641 22.0273L15.5 27.3477C15.2188 27.5117 14.957 27.6328 14.7148 27.7109C14.4727 27.7969 14.2344 27.8398 14 27.8398C13.7578 27.8398 13.5195 27.7969 13.2852 27.7109C13.0508 27.6328 12.7891 27.5117 12.5 27.3477L3.33594 22.0273C2.86719 21.7461 2.52734 21.4883 2.31641 21.2539C2.11328 21.0117 2.01172 20.7227 2.01172 20.3867C2.01172 20.0586 2.11328 19.7773 2.31641 19.543C2.52734 19.3008 2.86719 19.0391 3.33594 18.7578L6.26562 17.0469L8.25781 18.1836L4.58984 20.2812C4.53516 20.3125 4.50781 20.3477 4.50781 20.3867C4.50781 20.4336 4.53516 20.4727 4.58984 20.5039L13.4844 25.6016C13.6719 25.7031 13.8438 25.7539 14 25.7539C14.1484 25.7539 14.3203 25.7031 14.5156 25.6016L23.4102 20.5039C23.4727 20.4727 23.5039 20.4336 23.5039 20.3867C23.5039 20.3477 23.4727 20.3125 23.4102 20.2812L20.0117 18.3359ZM19.7656 12.793L21.6172 11.5742L24.6641 13.3438C25.1406 13.625 25.4805 13.8906 25.6836 14.1406C25.8867 14.3828 25.9883 14.6641 25.9883 14.9844C25.9883 15.3125 25.8867 15.6016 25.6836 15.8516C25.4805 16.0938 25.1406 16.3516 24.6641 16.625L15.5 21.957C15.2188 22.1211 14.957 22.2422 14.7148 22.3203C14.4727 22.3984 14.2344 22.4375 14 22.4375C13.7578 22.4375 13.5195 22.3984 13.2852 22.3203C13.0508 22.2422 12.7891 22.1211 12.5 21.957L3.33594 16.625C2.86719 16.3516 2.52734 16.0938 2.31641 15.8516C2.11328 15.6016 2.01172 15.3125 2.01172 14.9844C2.01172 14.6641 2.11328 14.3828 2.31641 14.1406C2.52734 13.8906 2.86719 13.625 3.33594 13.3438L6.61719 11.457L8.51562 12.6172L4.58984 14.8672C4.53516 14.8984 4.50781 14.9375 4.50781 14.9844C4.50781 15.0312 4.53516 15.0703 4.58984 15.1016L13.4844 20.1875C13.6719 20.2969 13.8438 20.3516 14 20.3516C14.1484 20.3516 14.3203 20.2969 14.5156 20.1875L23.4102 15.1016C23.4727 15.0703 23.5039 15.0312 23.5039 14.9844C23.5039 14.9375 23.4727 14.8984 23.4102 14.8672L19.7656 12.793ZM14 16.6602C13.7578 16.6602 13.5195 16.6211 13.2852 16.543C13.0508 16.4648 12.7891 16.3398 12.5 16.168L3.33594 10.8594C2.86719 10.5781 2.52734 10.3164 2.31641 10.0742C2.11328 9.83203 2.01172 9.54297 2.01172 9.20703C2.01172 8.88672 2.11328 8.60547 2.31641 8.36328C2.52734 8.12109 2.86719 7.85938 3.33594 7.57812L12.5 2.25781C12.7891 2.09375 13.0508 1.97266 13.2852 1.89453C13.5195 1.81641 13.7578 1.77734 14 1.77734C14.2344 1.77734 14.4727 1.81641 14.7148 1.89453C14.957 1.97266 15.2188 2.09375 15.5 2.25781L24.6641 7.57812C25.1406 7.85938 25.4805 8.12109 25.6836 8.36328C25.8867 8.60547 25.9883 8.88672 25.9883 9.20703C25.9883 9.54297 25.8867 9.83203 25.6836 10.0742C25.4805 10.3164 25.1406 10.5781 24.6641 10.8594L15.5 16.168C15.2188 16.3398 14.957 16.4648 14.7148 16.543C14.4727 16.6211 14.2344 16.6602 14 16.6602ZM14 14.5859C14.1484 14.5859 14.3203 14.5312 14.5156 14.4219L23.4102 9.32422C23.4727 9.29297 23.5039 9.25391 23.5039 9.20703C23.5039 9.16797 23.4727 9.13281 23.4102 9.10156L14.5156 4.01562C14.3203 3.90625 14.1484 3.85156 14 3.85156C13.8438 3.85156 13.6719 3.90625 13.4844 4.01562L4.58984 9.10156C4.53516 9.13281 4.50781 9.16797 4.50781 9.20703C4.50781 9.25391 4.53516 9.29297 4.58984 9.32422L13.4844 14.4219C13.6719 14.5312 13.8438 14.5859 14 14.5859Z" fill="white" style="fill:white;fill-opacity:1;"/>
</g>
<defs>
<clipPath id="clip0_604_1532">
<rect width="29" height="29" fill="white" style="fill:white;fill-opacity:1;"/>
</clipPath>
</defs>
</svg>
