<svg width="24" height="26" viewBox="0 0 24 26" fill="none" xmlns="http://www.w3.org/2000/svg">
<g clip-path="url(#clip0_604_1532)">
<path d="M17.5781 16.6289L19.4648 15.375L22.0898 16.9102C22.5508 17.1758 22.8828 17.4336 23.0859 17.6836C23.2891 17.9258 23.3906 18.2109 23.3906 18.5391C23.3906 18.8594 23.2891 19.1445 23.0859 19.3945C22.8828 19.6367 22.5508 19.8906 22.0898 20.1562L13.4531 25.1719C13.1719 25.3359 12.9141 25.457 12.6797 25.5352C12.4453 25.6211 12.2148 25.6641 11.9883 25.6641C11.7617 25.6641 11.5312 25.6211 11.2969 25.5352C11.0703 25.457 10.8125 25.3359 10.5234 25.1719L1.88672 20.1562C1.42578 19.8906 1.09375 19.6367 0.890625 19.3945C0.6875 19.1445 0.585938 18.8594 0.585938 18.5391C0.585938 18.2109 0.6875 17.9258 0.890625 17.6836C1.09375 17.4336 1.42578 17.1758 1.88672 16.9102L4.67578 15.293L6.67969 16.4648L3.23438 18.4219C3.17969 18.4531 3.15234 18.4922 3.15234 18.5391C3.15234 18.5781 3.17969 18.6133 3.23438 18.6445L11.5195 23.3789C11.6992 23.4727 11.8555 23.5195 11.9883 23.5195C12.1289 23.5195 12.2891 23.4727 12.4688 23.3789L20.7539 18.6445C20.8086 18.6133 20.8359 18.5781 20.8359 18.5391C20.8359 18.4922 20.8086 18.4531 20.7539 18.4219L17.5781 16.6289ZM17.3555 11.3555L19.2656 10.1133L22.0898 11.7656C22.5508 12.0312 22.8828 12.2891 23.0859 12.5391C23.2891 12.7812 23.3906 13.0664 23.3906 13.3945C23.3906 13.7227 23.2891 14.0078 23.0859 14.25C22.8828 14.4922 22.5508 14.75 22.0898 15.0234L13.4531 20.0391C13.1719 20.1953 12.9141 20.3164 12.6797 20.4023C12.4453 20.4805 12.2148 20.5195 11.9883 20.5195C11.7617 20.5195 11.5312 20.4805 11.2969 20.4023C11.0703 20.3164 10.8125 20.1953 10.5234 20.0391L1.88672 15.0234C1.42578 14.75 1.09375 14.4922 0.890625 14.25C0.6875 14.0078 0.585938 13.7227 0.585938 13.3945C0.585938 13.0664 0.6875 12.7812 0.890625 12.5391C1.09375 12.2891 1.42578 12.0312 1.88672 11.7656L4.94531 9.99609L6.87891 11.2031L3.23438 13.2773C3.17969 13.3086 3.15234 13.3477 3.15234 13.3945C3.15234 13.4336 3.17969 13.4688 3.23438 13.5L11.5195 18.2344C11.6992 18.3281 11.8555 18.375 11.9883 18.375C12.1289 18.375 12.2891 18.3281 12.4688 18.2344L20.7539 13.5C20.8086 13.4688 20.8359 13.4336 20.8359 13.3945C20.8359 13.3477 20.8086 13.3086 20.7539 13.2773L17.3555 11.3555ZM11.9883 15.0469C11.7617 15.0469 11.5312 15.0078 11.2969 14.9297C11.0703 14.8516 10.8125 14.7305 10.5234 14.5664L1.88672 9.55078C1.42578 9.27734 1.09375 9.01953 0.890625 8.77734C0.6875 8.53516 0.585938 8.25 0.585938 7.92188C0.585938 7.58594 0.6875 7.29688 0.890625 7.05469C1.09375 6.8125 1.42578 6.55469 1.88672 6.28125L10.5234 1.26562C10.8125 1.10156 11.0703 0.984375 11.2969 0.914062C11.5312 0.835938 11.7617 0.796875 11.9883 0.796875C12.2148 0.796875 12.4453 0.835938 12.6797 0.914062C12.9141 0.984375 13.1719 1.10156 13.4531 1.26562L22.0898 6.28125C22.5508 6.55469 22.8828 6.8125 23.0859 7.05469C23.2891 7.29688 23.3906 7.58594 23.3906 7.92188C23.3906 8.25 23.2891 8.53516 23.0859 8.77734C22.8828 9.01953 22.5508 9.27734 22.0898 9.55078L13.4531 14.5664C13.1719 14.7305 12.9141 14.8516 12.6797 14.9297C12.4453 15.0078 12.2148 15.0469 11.9883 15.0469ZM11.9883 12.9023C12.1289 12.9023 12.2891 12.8516 12.4688 12.75L20.7539 8.01562C20.8086 7.99219 20.8359 7.96094 20.8359 7.92188C20.8359 7.875 20.8086 7.83984 20.7539 7.81641L12.4688 3.08203C12.2891 2.98047 12.1289 2.92969 11.9883 2.92969C11.8555 2.92969 11.6992 2.98047 11.5195 3.08203L3.23438 7.81641C3.17969 7.83984 3.15234 7.875 3.15234 7.92188C3.15234 7.96094 3.17969 7.99219 3.23438 8.01562L11.5195 12.75C11.6992 12.8516 11.8555 12.9023 11.9883 12.9023Z" fill="white" style="fill:white;fill-opacity:1;"/>
</g>
<defs>
<clipPath id="clip0_604_1532">
<rect width="24" height="26" fill="white" style="fill:white;fill-opacity:1;"/>
</clipPath>
</defs>
</svg>
