<svg width="29" height="29" viewBox="0 0 29 29" fill="none" xmlns="http://www.w3.org/2000/svg">
<path d="M24.875 14.5391C24.875 14.8359 24.7578 15.0977 24.5234 15.3242L16.7305 23.0938C16.5039 23.3125 16.25 23.4219 15.9688 23.4219C15.6797 23.4219 15.4375 23.3242 15.2422 23.1289C15.0469 22.9414 14.9492 22.7031 14.9492 22.4141C14.9492 22.2734 14.9727 22.1406 15.0195 22.0156C15.0664 21.8828 15.1367 21.7695 15.2305 21.6758L17.8555 19.0039L22.5078 14.7734L22.7422 15.3477L18.9688 15.582H4.14453C3.83984 15.582 3.58984 15.4844 3.39453 15.2891C3.20703 15.0938 3.11328 14.8438 3.11328 14.5391C3.11328 14.2344 3.20703 13.9844 3.39453 13.7891C3.58984 13.5938 3.83984 13.4961 4.14453 13.4961H18.9688L22.7422 13.7305L22.5078 14.3164L17.8555 10.0742L15.2305 7.40234C15.1367 7.30859 15.0664 7.19922 15.0195 7.07422C14.9727 6.94141 14.9492 6.80469 14.9492 6.66406C14.9492 6.375 15.0469 6.13672 15.2422 5.94922C15.4375 5.75391 15.6797 5.65625 15.9688 5.65625C16.1094 5.65625 16.2422 5.68359 16.3672 5.73828C16.5 5.79297 16.6289 5.88281 16.7539 6.00781L24.5234 13.7539C24.7578 13.9805 24.875 14.2422 24.875 14.5391Z" fill="white" style="fill:white;fill-opacity:1;"/>
</svg>
