<svg width="27" height="16" viewBox="0 0 27 16" fill="none" xmlns="http://www.w3.org/2000/svg">
            <path d="M10.6982 2.60645V1.60449H16.2925V2.60645H16.0698C15.9214 2.60645 15.8472 2.67757 15.8472 2.81982V2.97754C15.8472 3.16927 15.7884 3.32699 15.6709 3.45068C15.5596 3.57438 15.408 3.63623 15.2163 3.63623H11.7837C11.5858 3.63623 11.4281 3.57438 11.3105 3.45068C11.193 3.32699 11.1343 3.16927 11.1343 2.97754V2.81982C11.1343 2.67757 11.0662 2.60645 10.9302 2.60645H10.6982ZM0.456055 14.4258C0.456055 14.1042 0.570475 13.8289 0.799316 13.6001C1.02816 13.3713 1.30339 13.2568 1.625 13.2568H3.45264V2.93115C3.45264 2.22607 3.64746 1.68799 4.03711 1.31689C4.43294 0.939616 4.97103 0.750977 5.65137 0.750977H21.3301C22.0413 0.750977 22.5856 0.939616 22.9629 1.31689C23.3402 1.68799 23.5288 2.22607 23.5288 2.93115V13.2568H25.3657C25.6873 13.2568 25.9595 13.3713 26.1821 13.6001C26.411 13.8289 26.5254 14.1042 26.5254 14.4258C26.5254 14.7474 26.411 15.0226 26.1821 15.2515C25.9595 15.4803 25.6873 15.5947 25.3657 15.5947H1.625C1.30339 15.5947 1.02816 15.4803 0.799316 15.2515C0.570475 15.0226 0.456055 14.7474 0.456055 14.4258ZM5.30811 13.2568H21.6733V3.41357C21.6733 2.87549 21.4043 2.60645 20.8662 2.60645H6.12451C5.58024 2.60645 5.30811 2.87549 5.30811 3.41357V13.2568Z" fill="#B3B3B3"/>
          </svg>