<svg width="192" height="192" viewBox="0 0 192 192" fill="none" xmlns="http://www.w3.org/2000/svg">
<path d="M133.514 123.598L146.203 115.165L163.856 125.49C166.956 127.276 169.189 129.01 170.555 130.691C171.921 132.32 172.604 134.238 172.604 136.444C172.604 138.599 171.921 140.516 170.555 142.198C169.189 143.826 166.956 145.534 163.856 147.32L105.773 181.052C103.881 182.155 102.147 182.969 100.571 183.495C98.9948 184.073 97.4448 184.362 95.9211 184.362C94.3975 184.362 92.8475 184.073 91.2713 183.495C89.7476 182.969 88.0137 182.155 86.0697 181.052L27.9858 147.32C24.8859 145.534 22.6529 143.826 21.2869 142.198C19.9208 140.516 19.2378 138.599 19.2378 136.444C19.2378 134.238 19.9208 132.32 21.2869 130.691C22.6529 129.01 24.8859 127.276 27.9858 125.49L46.7429 114.614L60.2196 122.495L37.0491 135.656C36.6813 135.866 36.4975 136.129 36.4975 136.444C36.4975 136.707 36.6813 136.944 37.0491 137.154L92.7687 168.993C93.9771 169.624 95.0279 169.939 95.9211 169.939C96.8669 169.939 97.944 169.624 99.1524 168.993L154.872 137.154C155.24 136.944 155.424 136.707 155.424 136.444C155.424 136.129 155.24 135.866 154.872 135.656L133.514 123.598ZM132.017 88.1331L144.863 79.7791L163.856 90.8915C166.956 92.6779 169.189 94.4117 170.555 96.093C171.921 97.7218 172.604 99.6395 172.604 101.846C172.604 104.053 171.921 105.971 170.555 107.599C169.189 109.228 166.956 110.962 163.856 112.801L105.773 146.532C103.881 147.583 102.147 148.397 100.571 148.975C98.9948 149.501 97.4448 149.763 95.9211 149.763C94.3975 149.763 92.8475 149.501 91.2713 148.975C89.7476 148.397 88.0137 147.583 86.0697 146.532L27.9858 112.801C24.8859 110.962 22.6529 109.228 21.2869 107.599C19.9208 105.971 19.2378 104.053 19.2378 101.846C19.2378 99.6395 19.9208 97.7218 21.2869 96.093C22.6529 94.4117 24.8859 92.6779 27.9858 90.8915L48.5556 78.991L61.5594 87.1085L37.0491 101.058C36.6813 101.268 36.4975 101.531 36.4975 101.846C36.4975 102.109 36.6813 102.345 37.0491 102.556L92.7687 134.395C93.9771 135.026 95.0279 135.341 95.9211 135.341C96.8669 135.341 97.944 135.026 99.1524 134.395L154.872 102.556C155.24 102.345 155.424 102.109 155.424 101.846C155.424 101.531 155.24 101.268 154.872 101.058L132.017 88.1331ZM95.9211 112.959C94.3975 112.959 92.8475 112.696 91.2713 112.171C89.7476 111.645 88.0137 110.831 86.0697 109.727L27.9858 75.9962C24.8859 74.1572 22.6529 72.4234 21.2869 70.7946C19.9208 69.1658 19.2378 67.2481 19.2378 65.0414C19.2378 62.7821 19.9208 60.8381 21.2869 59.2094C22.6529 57.5806 24.8859 55.8467 27.9858 54.0078L86.0697 20.2766C88.0137 19.1732 89.7476 18.3851 91.2713 17.9123C92.8475 17.3868 94.3975 17.1241 95.9211 17.1241C97.4448 17.1241 98.9948 17.3868 100.571 17.9123C102.147 18.3851 103.881 19.1732 105.773 20.2766L163.856 54.0078C166.956 55.8467 169.189 57.5806 170.555 59.2094C171.921 60.8381 172.604 62.7821 172.604 65.0414C172.604 67.2481 171.921 69.1658 170.555 70.7946C169.189 72.4234 166.956 74.1572 163.856 75.9962L105.773 109.727C103.881 110.831 102.147 111.645 100.571 112.171C98.9948 112.696 97.4448 112.959 95.9211 112.959ZM95.9211 98.5362C96.8669 98.5362 97.944 98.1947 99.1524 97.5116L154.872 65.6719C155.24 65.5143 155.424 65.3041 155.424 65.0414C155.424 64.7261 155.24 64.4897 154.872 64.3321L99.1524 32.4923C97.944 31.8093 96.8669 31.4678 95.9211 31.4678C95.0279 31.4678 93.9771 31.8093 92.7687 32.4923L37.0491 64.3321C36.6813 64.4897 36.4975 64.7261 36.4975 65.0414C36.4975 65.3041 36.6813 65.5143 37.0491 65.6719L92.7687 97.5116C93.9771 98.1947 95.0279 98.5362 95.9211 98.5362Z" fill="white" style="fill:white;fill-opacity:1;"/>
</svg>
