<?xml version="1.0" encoding="UTF-8"?>
<svg width="64px" height="64px" viewBox="0 0 64 64" version="1.1" xmlns="http://www.w3.org/2000/svg" xmlns:xlink="http://www.w3.org/1999/xlink">
    <title>icon-macos</title>
    <g id="icon-macos" stroke="none" stroke-width="1" fill="none" fill-rule="evenodd">
        <path d="M42.7070312,60.9628906 C42.9609375,60.9628906 43.1809896,60.8740234 43.3671875,60.6962891 C43.5533854,60.5185547 43.6464844,60.3027344 43.6464844,60.0488281 C43.6464844,59.7610677 43.5533854,59.5325521 43.3671875,59.3632812 C43.1809896,59.1940104 42.9609375,59.109375 42.7070312,59.109375 L40.2793906,59.1093906 L39.4483906,52.7623906 L55.6054688,52.7617188 C57.3151042,52.7617188 58.5973307,52.3300781 59.4521484,51.4667969 C60.3069661,50.6035156 60.734375,49.3170573 60.734375,47.6074219 L60.734375,18.1289062 C60.734375,16.4192708 60.3069661,15.1370443 59.4521484,14.2822266 C58.5973307,13.4274089 57.3151042,13 55.6054688,13 L8.40429688,13 C6.69466146,13 5.40820312,13.4274089 4.54492188,14.2822266 C3.68164062,15.1370443 3.25,16.4192708 3.25,18.1289062 L3.25,47.6074219 C3.25,49.3170573 3.68164062,50.6035156 4.54492188,51.4667969 C5.40820312,52.3300781 6.69466146,52.7617188 8.40429688,52.7617188 L24.5603906,52.7623906 L23.7293906,59.1093906 L21.3027344,59.109375 C21.031901,59.109375 20.8033854,59.1940104 20.6171875,59.3632812 C20.4309896,59.5325521 20.3378906,59.7610677 20.3378906,60.0488281 C20.3378906,60.3027344 20.4309896,60.5185547 20.6171875,60.6962891 C20.8033854,60.8740234 21.031901,60.9628906 21.3027344,60.9628906 L42.7070312,60.9628906 Z M57.5097656,42.9863281 L6.47460938,42.9863281 C5.57747396,42.9863281 5.12890625,42.5377604 5.12890625,41.640625 L5.12890625,18.2050781 C5.12890625,17.0709635 5.40820312,16.2288411 5.96679688,15.6787109 C6.52539062,15.1285807 7.36328125,14.8535156 8.48046875,14.8535156 L55.5039062,14.8535156 C56.6380208,14.8535156 57.484375,15.1285807 58.0429688,15.6787109 C58.6015625,16.2288411 58.8808594,17.0709635 58.8808594,18.2050781 L58.8808594,41.640625 C58.8808594,42.5377604 58.4238281,42.9863281 57.5097656,42.9863281 Z M32.0175781,50.171875 C31.4759115,50.171875 31.0273438,49.9983724 30.671875,49.6513672 C30.3164062,49.304362 30.1386719,48.860026 30.1386719,48.3183594 C30.1386719,47.827474 30.3164062,47.4000651 30.671875,47.0361328 C31.0273438,46.6722005 31.4759115,46.4902344 32.0175781,46.4902344 C32.5084635,46.4902344 32.9358724,46.6722005 33.2998047,47.0361328 C33.663737,47.4000651 33.8457031,47.827474 33.8457031,48.3183594 C33.8457031,48.860026 33.663737,49.304362 33.2998047,49.6513672 C32.9358724,49.9983724 32.5084635,50.171875 32.0175781,50.171875 Z" id="􀙗" fill="#000" fill-rule="nonzero"></path>
    </g>
</svg>