<svg width="14" height="11" viewBox="0 0 14 11" fill="white" xmlns="http://www.w3.org/2000/svg"><path d="M6.25118 0C5.32723 1.09874 4.59057 2.185 4.0412 3.25878c-.5244 1.0488-.82406 2.04766-.89897 2.99657l-1.94777.07492c.37457-.42452.6992-.72418.97388-.89898.29966-.1748.68672-.2622 1.16118-.2622.82405 0 1.52325.27469 2.0976.82406.59931.54937.89897 1.24857.89897 2.0976 0 .82406-.27469 1.51078-.82406 2.06015-.54937.5244-1.26106.7866-2.13506.7866-.874 0-1.58568-.2997-2.13506-.899C.707513 9.41424.445312 8.54024.445312 7.41652c0-1.17365.274687-2.42223.824058-3.74572C1.84371 2.32235 2.54292 1.09874 3.36697 0h2.88421Zm7.67872 0c-.9239 1.09874-1.6606 2.185-2.21 3.25878-.5244 1.0488-.824 2.04766-.8989 2.99657l-1.94782.07492c.37457-.42452.6992-.72418.97389-.89898.29963-.1748.68673-.2622 1.16113-.2622.8241 0 1.5233.27469 2.0976.82406.5994.54937.899 1.24857.899 2.0976 0 .82406-.2747 1.51078-.824 2.06015-.5494.5244-1.2611.7866-2.1351.7866-.874 0-1.58569-.2997-2.13506-.899-.5244-.62426-.7866-1.49826-.7866-2.62198 0-1.17365.27468-2.42223.82405-3.74572C9.52244 2.32235 10.2216 1.09874 11.0457 0h2.8842Z" fill="white"></path><defs><linearGradient id="quote-marks-dark" x1="7.22506" y1="0" x2="7.22506" y2="26.8587" gradientUnits="userSpaceOnUse"><stop stop-color="#fff"></stop><stop offset="1" stop-color="#A2A2A2"></stop></linearGradient><linearGradient id="quote-marks-light" x1="7.27975" y1="0" x2="7.27975" y2="26.8587" gradientUnits="userSpaceOnUse"><stop stop-color="#3C3C3C"></stop><stop offset="1" stop-color="#A2A2A2"></stop></linearGradient></defs></svg>