<svg width="70" height="73" viewBox="0 0 70 73" fill="none" xmlns="http://www.w3.org/2000/svg">
<path d="M22.7305 72.7578C19.8945 72.7578 17.6562 71.9727 16.0156 70.4023C14.3984 68.832 13.5898 66.6641 13.5898 63.8984V9.30078C13.5898 6.55859 14.3984 4.40234 16.0156 2.83203C17.6562 1.23828 19.8945 0.441406 22.7305 0.441406H47.2344C50.0703 0.441406 52.2969 1.23828 53.9141 2.83203C55.5547 4.40234 56.375 6.55859 56.375 9.30078V63.8984C56.375 66.6641 55.5547 68.832 53.9141 70.4023C52.2969 71.9727 50.0703 72.7578 47.2344 72.7578H22.7305ZM23.2227 68.4688H46.7422C48.5 68.4688 49.8242 68.0352 50.7148 67.168C51.6055 66.3008 52.0508 65.0117 52.0508 63.3008V9.93359C52.0508 8.19922 51.6055 6.91016 50.7148 6.06641C49.8242 5.19922 48.5 4.76562 46.7422 4.76562H23.2227C21.4648 4.76562 20.1406 5.19922 19.25 6.06641C18.3594 6.91016 17.9141 8.19922 17.9141 9.93359V63.3008C17.9141 65.0117 18.3594 66.3008 19.25 67.168C20.1406 68.0352 21.4648 68.4688 23.2227 68.4688ZM27.7227 66.0078C27.3242 66.0078 26.9844 65.8672 26.7031 65.5859C26.4453 65.3281 26.3164 65 26.3164 64.6016C26.3164 64.2031 26.4453 63.875 26.7031 63.6172C26.9844 63.3594 27.3242 63.2305 27.7227 63.2305H42.3125C42.6875 63.2305 43.0039 63.3594 43.2617 63.6172C43.5195 63.875 43.6484 64.2031 43.6484 64.6016C43.6484 65 43.5195 65.3281 43.2617 65.5859C43.0039 65.8672 42.6875 66.0078 42.3125 66.0078H27.7227ZM30.8867 11.1992C30.2773 11.1992 29.7734 11 29.375 10.6016C28.9766 10.2031 28.7773 9.69922 28.7773 9.08984C28.7773 8.52734 28.9766 8.04688 29.375 7.64844C29.7734 7.25 30.2773 7.05078 30.8867 7.05078H39.1133C39.6758 7.05078 40.1562 7.25 40.5547 7.64844C40.9766 8.04688 41.1875 8.52734 41.1875 9.08984C41.1875 9.69922 40.9766 10.2031 40.5547 10.6016C40.1562 11 39.6758 11.1992 39.1133 11.1992H30.8867Z" fill="white" style="fill:white;fill-opacity:1;"/>
</svg>
