<?xml version="1.0" encoding="UTF-8"?>
<svg width="64px" height="64px" viewBox="0 0 64 64" version="1.1" xmlns="http://www.w3.org/2000/svg" xmlns:xlink="http://www.w3.org/1999/xlink">
    <title>icon-ios-ipados</title>
    <g id="icon-ios-ipados" stroke="none" stroke-width="1" fill="none" fill-rule="evenodd">
        <g id="Group" transform="translate(32.025000, 34.125000) scale(-1, 1) translate(-32.025000, -34.125000) translate(5.050000, 7.000000)" fill="#000" fill-rule="nonzero">
            <g id="ipad">
                <path d="M33.2871094,0 C35.4199219,0 37.0576172,0.567057292 38.2001953,1.70117188 C39.2792969,2.77228009 39.8488227,4.28124598 39.9087728,6.22806954 L39.9140625,6.57617188 L39.9140625,15.046 L38.06,15.046 L38.0605469,6.77929688 C38.0605469,5.27172852 37.6923332,4.10261917 36.9559059,3.27196884 L36.8037109,3.11035156 C35.9658203,2.27246094 34.734375,1.85351562 33.109375,1.85351562 L33.109375,1.85351562 L6.8046875,1.85351562 C5.19661458,1.85351562 3.97363281,2.27246094 3.13574219,3.11035156 C2.29785156,3.94824219 1.87890625,5.17122396 1.87890625,6.77929688 L1.87890625,6.77929688 L1.87890625,47.4550781 C1.87890625,49.063151 2.29785156,50.281901 3.13574219,51.1113281 C3.97363281,51.9407552 5.19661458,52.3554688 6.8046875,52.3554688 L6.8046875,52.3554688 L32.4847995,52.3562692 C32.8954257,52.8667242 33.5098718,53.2062757 34.2045809,53.2513668 L34.3629842,53.2564912 L37.2832903,53.2571948 C36.3104658,53.8621159 35.0924162,54.1861807 33.6291413,54.2293894 L33.2871094,54.234375 L6.65234375,54.234375 C4.51953125,54.234375 2.87760417,53.6673177 1.7265625,52.5332031 C0.639467593,51.4620949 0.0657230581,49.953129 0.0053288966,48.0063055 L0,47.6582031 L0,6.57617188 C0,4.46028646 0.575520833,2.83528646 1.7265625,1.70117188 C2.81365741,0.630063657 4.33860999,0.0647565426 6.30142024,0.00525053048 L6.65234375,0 L33.2871094,0 Z M26.8378906,50.4257812 C27.0579427,50.4257812 27.2441406,50.3538411 27.3964844,50.2099609 C27.5488281,50.0660807 27.625,49.8841146 27.625,49.6640625 C27.625,49.4440104 27.5488281,49.2620443 27.3964844,49.1181641 C27.2441406,48.9742839 27.0579427,48.9023438 26.8378906,48.9023438 L13.0761719,48.9023438 C12.8561198,48.9023438 12.6741536,48.9742839 12.5302734,49.1181641 C12.3863932,49.2620443 12.3144531,49.4440104 12.3144531,49.6640625 C12.3144531,49.8841146 12.3863932,50.0660807 12.5302734,50.2099609 C12.6741536,50.3538411 12.8561198,50.4257812 13.0761719,50.4257812 L26.8378906,50.4257812 Z" id="􀟠-copy"></path>
            </g>
            <g id="iphone" transform="translate(30.950000, 14.250000)">
                <path d="M18.0496014,40.3569531 C21.2683791,40.3569531 23,38.6049601 23,35.4065545 L23,4.93002657 C23,1.7316209 21.2683791,0 18.0496014,0 L4.97077059,0 C1.7316209,0 0,1.7316209 0,4.93002657 L0,35.4065545 C0,38.6049601 1.7316209,40.3569531 4.97077059,40.3569531 L18.0496014,40.3569531 Z M17.9069973,38.8290523 L5.09300266,38.8290523 C2.64836138,38.8290523 1.50752879,37.7493357 1.50752879,35.3046944 L1.50752879,5.05225864 C1.50752879,2.60761736 2.64836138,1.50752879 5.09300266,1.50752879 L17.9069973,1.50752879 C20.3720106,1.50752879 21.4924712,2.60761736 21.4924712,5.05225864 L21.4924712,35.3046944 C21.4924712,37.7493357 20.3720106,38.8290523 17.9069973,38.8290523 Z M13.7714792,4.48184234 C14.3011515,4.48184234 14.6882197,4.09477414 14.6882197,3.56510186 C14.6882197,3.01505757 14.3011515,2.64836138 13.7714792,2.64836138 L9.24889283,2.64836138 C8.69884854,2.64836138 8.31178034,3.01505757 8.31178034,3.56510186 C8.31178034,4.09477414 8.69884854,4.48184234 9.24889283,4.48184234 L13.7714792,4.48184234 Z M15.6049601,37.4844996 C15.9309123,37.4844996 16.2161205,37.2196634 16.2161205,36.8733392 C16.2161205,36.5270151 15.9309123,36.2621789 15.6049601,36.2621789 L7.41541187,36.2621789 C7.06908769,36.2621789 6.80425155,36.5270151 6.80425155,36.8733392 C6.80425155,37.2196634 7.06908769,37.4844996 7.41541187,37.4844996 L15.6049601,37.4844996 Z" id="􀟜"></path>
            </g>
        </g>
    </g>
</svg>