<svg width="110" height="74" viewBox="0 0 110 74" fill="none" xmlns="http://www.w3.org/2000/svg">
<path d="M45.0859 13.3438V11.0938H64.8789V13.3438H64C63.4844 13.3438 63.2266 13.5898 63.2266 14.082V14.4688C63.2266 15.125 63.0273 15.6641 62.6289 16.0859C62.2539 16.4844 61.7383 16.6836 61.082 16.6836H48.9531C48.2734 16.6836 47.7344 16.4844 47.3359 16.0859C46.9375 15.6641 46.7383 15.125 46.7383 14.4688V14.082C46.7383 13.5898 46.4922 13.3438 46 13.3438H45.0859ZM5.74609 60.9453C5.74609 60.0078 6.0625 59.2109 6.69531 58.5547C7.35156 57.8984 8.16016 57.5703 9.12109 57.5703H16.7852V16.1914C16.7852 13.8008 17.418 12.0078 18.6836 10.8125C19.9492 9.59375 21.7305 8.98438 24.0273 8.98438H85.9375C88.3047 8.98438 90.0977 9.59375 91.3164 10.8125C92.5352 12.0078 93.1445 13.8008 93.1445 16.1914V57.5703H100.844C101.781 57.5703 102.578 57.8984 103.234 58.5547C103.891 59.2109 104.219 60.0078 104.219 60.9453C104.219 61.9062 103.891 62.7148 103.234 63.3711C102.578 64.0273 101.781 64.3555 100.844 64.3555H9.12109C8.16016 64.3555 7.35156 64.0273 6.69531 63.3711C6.0625 62.7148 5.74609 61.9062 5.74609 60.9453ZM21.1445 57.5703H88.8203V17.2461C88.8203 15.9336 88.4922 14.9609 87.8359 14.3281C87.1797 13.6719 86.207 13.3438 84.918 13.3438H25.0469C23.7344 13.3438 22.75 13.6719 22.0938 14.3281C21.4609 14.9609 21.1445 15.9336 21.1445 17.2461V57.5703Z" fill="white" style="fill:white;fill-opacity:1;"/>
</svg>
