<svg width="29" height="29" viewBox="0 0 29 29" fill="none" xmlns="http://www.w3.org/2000/svg">
<g clip-path="url(#clip0_802_285)">
<path d="M14.5 20.8086C13.3438 20.8086 12.293 20.5273 11.3477 19.9648C10.4023 19.3945 9.64453 18.6367 9.07422 17.6914C8.51172 16.7461 8.23047 15.6953 8.23047 14.5391C8.23047 13.6719 8.39062 12.8594 8.71094 12.1016C9.03906 11.3438 9.48828 10.6797 10.0586 10.1094C10.6367 9.53125 11.3047 9.08203 12.0625 8.76172C12.8203 8.43359 13.6328 8.26953 14.5 8.26953C15.3672 8.26953 16.1758 8.43359 16.9258 8.76172C17.6836 9.08203 18.3516 9.53125 18.9297 10.1094C19.5078 10.6797 19.957 11.3438 20.2773 12.1016C20.6055 12.8594 20.7695 13.6719 20.7695 14.5391C20.7695 15.4062 20.6055 16.2188 20.2773 16.9766C19.957 17.7266 19.5078 18.3906 18.9297 18.9688C18.3516 19.5391 17.6836 19.9883 16.9258 20.3164C16.1758 20.6445 15.3672 20.8086 14.5 20.8086ZM14.5 18.8281C15.2891 18.8281 16.0078 18.6367 16.6562 18.2539C17.3047 17.8633 17.8203 17.3438 18.2031 16.6953C18.5938 16.0469 18.7891 15.3281 18.7891 14.5391C18.7891 13.75 18.5938 13.0312 18.2031 12.3828C17.8203 11.7344 17.3047 11.2188 16.6562 10.8359C16.0078 10.4453 15.2891 10.25 14.5 10.25C13.7109 10.25 12.9922 10.4453 12.3438 10.8359C11.6953 11.2188 11.1758 11.7344 10.7852 12.3828C10.4023 13.0312 10.2109 13.75 10.2109 14.5391C10.2109 15.3281 10.4023 16.0469 10.7852 16.6953C11.1758 17.3438 11.6953 17.8633 12.3438 18.2539C12.9922 18.6367 13.7109 18.8281 14.5 18.8281ZM5.16016 21.4414L9.8125 16.7891L12.332 19.3086L7.67969 23.9609L5.16016 21.4414ZM5.04297 7.625L7.5625 5.10547L12.332 9.875L9.8125 12.3945L5.04297 7.625ZM23.9805 7.64844L19.2344 12.3945L16.7148 9.875L21.4609 5.12891L23.9805 7.64844ZM23.875 21.418L21.3438 23.9492L16.7148 19.3203L19.2461 16.7891L23.875 21.418ZM14.5 26.4922C12.8516 26.4922 11.3047 26.1797 9.85938 25.5547C8.41406 24.9375 7.14453 24.082 6.05078 22.9883C4.95703 21.8945 4.09766 20.625 3.47266 19.1797C2.85547 17.7344 2.54688 16.1875 2.54688 14.5391C2.54688 12.8906 2.85547 11.3438 3.47266 9.89844C4.09766 8.45312 4.95703 7.18359 6.05078 6.08984C7.14453 4.98828 8.41406 4.12891 9.85938 3.51172C11.3047 2.89453 12.8516 2.58594 14.5 2.58594C16.1484 2.58594 17.6953 2.89453 19.1406 3.51172C20.5859 4.12891 21.8555 4.98828 22.9492 6.08984C24.043 7.18359 24.8984 8.45312 25.5156 9.89844C26.1406 11.3438 26.4531 12.8906 26.4531 14.5391C26.4531 16.1875 26.1406 17.7344 25.5156 19.1797C24.8984 20.625 24.043 21.8945 22.9492 22.9883C21.8555 24.082 20.5859 24.9375 19.1406 25.5547C17.6953 26.1797 16.1484 26.4922 14.5 26.4922ZM14.5 24.5C15.875 24.5 17.1641 24.2422 18.3672 23.7266C19.5703 23.2109 20.6289 22.4961 21.543 21.582C22.457 20.668 23.1719 19.6094 23.6875 18.4062C24.2031 17.2031 24.4609 15.9141 24.4609 14.5391C24.4609 13.1641 24.2031 11.875 23.6875 10.6719C23.1719 9.46094 22.457 8.40234 21.543 7.49609C20.6289 6.58203 19.5703 5.86719 18.3672 5.35156C17.1641 4.83594 15.875 4.57812 14.5 4.57812C13.125 4.57812 11.8359 4.83594 10.6328 5.35156C9.42969 5.86719 8.37109 6.58203 7.45703 7.49609C6.54297 8.40234 5.82812 9.46094 5.3125 10.6719C4.79688 11.875 4.53906 13.1641 4.53906 14.5391C4.53906 15.9141 4.79688 17.2031 5.3125 18.4062C5.82812 19.6094 6.54297 20.668 7.45703 21.582C8.37109 22.4961 9.42969 23.2109 10.6328 23.7266C11.8359 24.2422 13.125 24.5 14.5 24.5Z" fill="white" style="fill:white;fill-opacity:1;"/>
</g>
<defs>
<clipPath id="clip0_802_285">
<rect width="29" height="29" fill="white" style="fill:white;fill-opacity:1;"/>
</clipPath>
</defs>
</svg>
