<svg width="29" height="29" viewBox="0 0 29 29" fill="none" xmlns="http://www.w3.org/2000/svg">
<path d="M21.2305 14.5391C21.2305 14.6875 21.1992 14.8281 21.1367 14.9609C21.082 15.0859 21 15.2031 20.8906 15.3125L11.6094 24.3945C11.3984 24.6055 11.1406 24.7109 10.8359 24.7109C10.6406 24.7109 10.4609 24.6641 10.2969 24.5703C10.1328 24.4766 10.0039 24.3477 9.91016 24.1836C9.81641 24.0273 9.76953 23.8477 9.76953 23.6445C9.76953 23.3555 9.87109 23.1016 10.0742 22.8828L18.6055 14.5391L10.0742 6.19531C9.87109 5.97656 9.76953 5.72266 9.76953 5.43359C9.76953 5.23047 9.81641 5.05078 9.91016 4.89453C10.0039 4.73047 10.1328 4.60156 10.2969 4.50781C10.4609 4.41406 10.6406 4.36719 10.8359 4.36719C11.1406 4.36719 11.3984 4.46875 11.6094 4.67188L20.8906 13.7656C21 13.875 21.082 13.9961 21.1367 14.1289C21.1992 14.2539 21.2305 14.3906 21.2305 14.5391Z" fill="white" style="fill:white;fill-opacity:1;"/>
</svg>
