<svg width="29" height="29" viewBox="0 0 29 29" fill="none" xmlns="http://www.w3.org/2000/svg">
<path d="M22.6484 18.8398C22.6484 19.1602 22.5391 19.4258 22.3203 19.6367C22.1094 19.8477 21.8633 19.9531 21.582 19.9531C21.293 19.9531 21.043 19.8438 20.832 19.625C20.6289 19.4062 20.5273 19.1602 20.5273 18.8867V14.5508L20.7383 9.07812L18.8047 11.2695L7.16797 22.8945C6.95703 23.1055 6.71094 23.2109 6.42969 23.2109C6.23438 23.2109 6.05469 23.1602 5.89062 23.0586C5.72656 22.957 5.59375 22.8242 5.49219 22.6602C5.39062 22.4883 5.33984 22.3086 5.33984 22.1211C5.33984 21.8477 5.44922 21.6016 5.66797 21.3828L17.2812 9.74609L19.4609 7.83594L13.7422 8.02344H9.66406C9.39062 8.02344 9.14453 7.92187 8.92578 7.71875C8.71484 7.50781 8.60938 7.26172 8.60938 6.98047C8.60938 6.69922 8.71094 6.45312 8.91406 6.24219C9.11719 6.02344 9.38281 5.91406 9.71094 5.91406H21.5C21.8516 5.91406 22.1289 6.01953 22.332 6.23047C22.5352 6.44141 22.6367 6.71484 22.6367 7.05078L22.6484 18.8398Z" fill="white" style="fill:white;fill-opacity:1;"/>
</svg>
