<svg fill="none" height="64" viewBox="0 0 102 64" width="102" xmlns="http://www.w3.org/2000/svg"><g fill="#fff"><path d="m5 55v-32.875h6.8125v32.875zm3.40625-37.9375c-1.08333 0-2.01042-.375-2.78125-1.125-.77083-.7708-1.15625-1.6875-1.15625-2.75 0-1.1042.38542-2.0313 1.15625-2.7813.77083-.74995 1.69792-1.12495 2.78125-1.12495 1.10417 0 2.03125.375 2.78125 1.12495.7708.75 1.1563 1.6771 1.1563 2.7813 0 1.0625-.3855 1.9792-1.1563 2.75-.75.75-1.67708 1.125-2.78125 1.125z"/><path d="m39.0938 55.75c-4.3542 0-8.1146-.9375-11.2813-2.8125-3.1667-1.8958-5.6042-4.5833-7.3125-8.0625-1.7083-3.5-2.5625-7.6354-2.5625-12.4062v-.0626c0-4.7708.8542-8.8958 2.5625-12.375 1.7292-3.4791 4.1771-6.1562 7.3438-8.0312 3.1666-1.8958 6.9166-2.84375 11.25-2.84375 4.3124 0 8.052.94795 11.2187 2.84375s5.6042 4.5833 7.3125 8.0625c1.7083 3.4583 2.5625 7.5729 2.5625 12.3437v.0626c0 4.7708-.8542 8.8958-2.5625 12.375-1.7083 3.4791-4.1458 6.1666-7.3125 8.0624-3.1458 1.8959-6.8854 2.8438-11.2187 2.8438zm0-6.2188c2.875 0 5.3541-.6979 7.4374-2.0937 2.0834-1.3958 3.6876-3.375 4.8126-5.9375s1.6874-5.5729 1.6874-9.0312v-.0626c0-3.4791-.5729-6.4895-1.7187-9.0312-1.125-2.5625-2.7396-4.5312-4.8437-5.9062-2.0834-1.3959-4.5417-2.0938-7.375-2.0938-2.8542 0-5.3334.6875-7.4376 2.0625-2.0833 1.375-3.6979 3.3437-4.8437 5.9063-1.1458 2.5416-1.7187 5.5624-1.7187 9.0624v.0626c0 3.4791.5729 6.5 1.7187 9.0624 1.1458 2.5626 2.7604 4.5417 4.8437 5.9376 2.0834 1.375 4.5626 2.0624 7.4376 2.0624z"/><path d="m82.25 55.75c-3.375 0-6.3333-.5104-8.875-1.5312-2.5208-1.0209-4.5208-2.4792-6-4.375-1.4792-1.9167-2.3125-4.198-2.5-6.8438l-.0312-.4688h6.8437l.0625.4063c.2083 1.375.7812 2.5729 1.7188 3.5937.9583 1 2.2083 1.7709 3.75 2.3126 1.5416.5416 3.3124.8124 5.3124.8124 2.0209 0 3.7605-.2812 5.2188-.8437s2.5833-1.3646 3.375-2.4063c.8125-1.0416 1.2188-2.2604 1.2188-3.6562v-.0312c0-1.8126-.6563-3.25-1.9688-4.3126-1.2917-1.0833-3.4375-1.9479-6.4375-2.5937l-4.9063-1.0313c-4.4166-.9374-7.7083-2.4374-9.875-4.5-2.1666-2.0833-3.25-4.7916-3.25-8.125v-.0312c.0209-2.5625.7292-4.8125 2.125-6.75 1.3959-1.9583 3.323-3.4792 5.7813-4.5625 2.4583-1.10417 5.2813-1.65625 8.4687-1.65625 3.125 0 5.8855.53125 8.2813 1.59375s4.2917 2.5521 5.6875 4.4688c1.3958 1.8958 2.1771 4.1145 2.3438 6.6562l.0312.5h-6.8438l-.0624-.4062c-.1876-1.4167-.7084-2.625-1.5626-3.625-.8333-1-1.927-1.7605-3.2812-2.2813-1.3542-.5417-2.9271-.8125-4.7188-.8125-1.8541 0-3.4687.2812-4.8437.8438-1.375.5416-2.4375 1.302-3.1875 2.2812s-1.125 2.1354-1.125 3.4688v.0312c0 1.6875.6667 3.0625 2 4.125s3.4062 1.8958 6.2188 2.5l4.9062 1.0625c3.1042.6458 5.6354 1.5208 7.5938 2.625 1.9583 1.1042 3.4062 2.4792 4.3437 4.125s1.4063 3.6354 1.4063 5.9687v.0313c0 2.75-.698 5.1354-2.0938 7.1563-1.375 2-3.3542 3.552-5.9375 4.6562-2.5625 1.0833-5.625 1.625-9.1875 1.625z"/></g></svg>