<svg width="48" height="48" viewBox="0 0 48 48" fill="none" xmlns="http://www.w3.org/2000/svg">
<path d="M19.2266 39.9219C18.0547 39.9219 17.1123 39.5801 16.3994 38.8965C15.6865 38.2129 15.3301 37.3145 15.3301 36.2012V13.7744C15.3301 12.6611 15.6865 11.7627 16.3994 11.0791C17.1123 10.3955 18.0547 10.0537 19.2266 10.0537H29.8174C30.9697 10.0537 31.8975 10.3955 32.6006 11.0791C33.3135 11.7627 33.6699 12.6611 33.6699 13.7744V36.2012C33.6699 37.3145 33.3135 38.2129 32.6006 38.8965C31.8975 39.5801 30.9697 39.9219 29.8174 39.9219H19.2266ZM19.5928 37.3877H29.4072C29.9736 37.3877 30.4082 37.2363 30.7109 36.9336C31.0234 36.6406 31.1797 36.2256 31.1797 35.6885V14.2871C31.1797 13.7402 31.0234 13.3203 30.7109 13.0273C30.4082 12.7344 29.9736 12.5879 29.4072 12.5879H19.5928C19.0264 12.5879 18.5869 12.7344 18.2744 13.0273C17.9717 13.3203 17.8203 13.7402 17.8203 14.2871V35.6885C17.8203 36.2354 17.9717 36.6553 18.2744 36.9482C18.5869 37.2412 19.0264 37.3877 19.5928 37.3877ZM21.541 36.333C21.3457 36.333 21.1846 36.2695 21.0576 36.1426C20.9307 36.0254 20.8672 35.8643 20.8672 35.6592C20.8672 35.4541 20.9307 35.2881 21.0576 35.1611C21.1846 35.0439 21.3457 34.9854 21.541 34.9854H27.4736C27.6689 34.9854 27.8301 35.0439 27.957 35.1611C28.084 35.2881 28.1475 35.4541 28.1475 35.6592C28.1475 35.8643 28.084 36.0254 27.957 36.1426C27.8301 36.2695 27.6689 36.333 27.4736 36.333H21.541ZM22.7861 15.6494C22.5029 15.6494 22.2588 15.5518 22.0537 15.3564C21.8584 15.1514 21.7607 14.9023 21.7607 14.6094C21.7607 14.3262 21.8584 14.0869 22.0537 13.8916C22.2588 13.6865 22.5029 13.584 22.7861 13.584H26.2139C26.5068 13.584 26.751 13.6865 26.9463 13.8916C27.1416 14.0869 27.2393 14.3262 27.2393 14.6094C27.2393 14.9023 27.1416 15.1514 26.9463 15.3564C26.751 15.5518 26.5068 15.6494 26.2139 15.6494H22.7861Z" fill="#F3F5F7" style="fill:#F3F5F7;fill:color(display-p3 0.9529 0.9608 0.9686);fill-opacity:1;"/>
</svg>
