<svg width="24" height="25" viewBox="0 0 24 25" fill="none" xmlns="http://www.w3.org/2000/svg">
<path fill-rule="evenodd" clip-rule="evenodd" d="M22.4582 8.02368C23.1055 7.63528 23.1055 6.6971 22.4581 6.3087L12.4581 0.308697C12.1415 0.118688 11.7458 0.118689 11.4292 0.308698L1.42915 6.3087C0.781814 6.6971 0.781813 7.63528 1.42915 8.02368L3.15418 9.05871C3.80152 9.44711 3.80152 10.3853 3.15418 10.7737L1.42915 11.8087C0.781815 12.1971 0.781814 13.1353 1.42915 13.5237L2.82085 14.3587C3.46818 14.7471 3.46818 15.6853 2.82085 16.0737L1.42915 16.9087C0.781816 17.2971 0.781817 18.2353 1.42916 18.6237L11.4292 24.6237C11.7458 24.8137 12.1415 24.8137 12.4581 24.6237L22.4581 18.6237C23.1055 18.2353 23.1055 17.2971 22.4581 16.9087L21.0665 16.0737C20.4191 15.6853 20.4191 14.7471 21.0665 14.3587L22.4581 13.5237C23.1055 13.1353 23.1055 12.1971 22.4582 11.8087L20.7331 10.7737C20.0858 10.3853 20.0858 9.44711 20.7331 9.05871L22.4582 8.02368ZM17.8748 11.3911C17.5581 11.2011 17.1625 11.2011 16.8458 11.3911L12.4581 14.0237C12.1415 14.2137 11.7458 14.2137 11.4292 14.0237L7.04148 11.3911C6.7248 11.2011 6.32917 11.2011 6.01249 11.3911L5.31646 11.8087C4.66912 12.1971 4.66912 13.1353 5.31646 13.5237L11.4292 17.1913C11.7458 17.3813 12.1415 17.3813 12.4581 17.1913L18.5708 13.5237C19.2182 13.1353 19.2182 12.1971 18.5708 11.8087L17.8748 11.3911ZM12.4581 11.6913C12.1415 11.8813 11.7458 11.8813 11.4292 11.6913L5.31646 8.02368C4.66912 7.63528 4.66912 6.6971 5.31646 6.3087L11.4292 2.64108C11.7458 2.45107 12.1415 2.45107 12.4581 2.64108L18.5708 6.3087C19.2182 6.6971 19.2182 7.63528 18.5708 8.02368L12.4581 11.6913ZM5.31646 18.6237C4.66912 18.2353 4.66912 17.2971 5.31646 16.9087L5.67915 16.6911C5.99584 16.5011 6.39146 16.5011 6.70814 16.6911L11.4292 19.5237C11.7458 19.7137 12.1415 19.7137 12.4581 19.5237L17.1792 16.6911C17.4958 16.5011 17.8915 16.5011 18.2081 16.6911L18.5708 16.9087C19.2182 17.2971 19.2182 18.2353 18.5708 18.6237L12.4581 22.2913C12.1415 22.4813 11.7458 22.4813 11.4292 22.2913L5.31646 18.6237Z" fill="#F3F5F7" style="fill:#F3F5F7;fill:color(display-p3 0.9529 0.9608 0.9686);fill-opacity:1;"/>
</svg>
