<svg width="24" height="24" viewBox="0 0 24 24" fill="none" xmlns="http://www.w3.org/2000/svg">
<path d="M17.5107 15.1572L19.1865 14.0615L21.7432 15.5547C22.18 15.8125 22.4915 16.0524 22.6777 16.2744C22.8639 16.4893 22.957 16.7435 22.957 17.0371C22.957 17.3379 22.8639 17.5993 22.6777 17.8213C22.4915 18.0361 22.18 18.2725 21.7432 18.5303L13.3428 23.4072C13.085 23.5576 12.8451 23.6686 12.623 23.7402C12.4082 23.8118 12.1934 23.8477 11.9785 23.8477C11.7565 23.8477 11.5381 23.8118 11.3232 23.7402C11.1084 23.6686 10.8721 23.5576 10.6143 23.4072L2.20312 18.5303C1.77344 18.2725 1.46549 18.0361 1.2793 17.8213C1.0931 17.5993 1 17.3379 1 17.0371C1 16.7435 1.0931 16.4893 1.2793 16.2744C1.46549 16.0524 1.77344 15.8125 2.20312 15.5547L4.88867 13.9971L6.69336 15.0176L3.32031 16.9404C3.27018 16.9691 3.24512 17.0013 3.24512 17.0371C3.24512 17.0801 3.27018 17.1159 3.32031 17.1445L11.4951 21.8281C11.6742 21.9284 11.8353 21.9785 11.9785 21.9785C12.1146 21.9785 12.2721 21.9284 12.4512 21.8281L20.626 17.1445C20.6833 17.1159 20.7119 17.0801 20.7119 17.0371C20.7119 17.0013 20.6833 16.9691 20.626 16.9404L17.5107 15.1572ZM17.2744 10.0762L18.9395 8.96973L21.7432 10.6025C22.18 10.8604 22.4915 11.1003 22.6777 11.3223C22.8639 11.5443 22.957 11.8021 22.957 12.0957C22.957 12.3893 22.8639 12.6471 22.6777 12.8691C22.4915 13.0911 22.18 13.3275 21.7432 13.5781L13.3428 18.4658C13.085 18.6162 12.8451 18.7272 12.623 18.7988C12.4082 18.8704 12.1934 18.9062 11.9785 18.9062C11.7565 18.9062 11.5381 18.8704 11.3232 18.7988C11.1084 18.7272 10.8721 18.6162 10.6143 18.4658L2.20312 13.5781C1.77344 13.3275 1.46549 13.0911 1.2793 12.8691C1.0931 12.6471 1 12.3893 1 12.0957C1 11.8021 1.0931 11.5443 1.2793 11.3223C1.46549 11.1003 1.77344 10.8604 2.20312 10.6025L5.22168 8.8623L6.94043 9.91504L3.32031 11.9883C3.27018 12.0169 3.24512 12.0527 3.24512 12.0957C3.24512 12.1387 3.27018 12.1745 3.32031 12.2031L11.4951 16.876C11.6742 16.9762 11.8353 17.0264 11.9785 17.0264C12.1146 17.0264 12.2721 16.9762 12.4512 16.876L20.626 12.2031C20.6833 12.1745 20.7119 12.1387 20.7119 12.0957C20.7119 12.0527 20.6833 12.0169 20.626 11.9883L17.2744 10.0762ZM11.9785 13.6104C11.7565 13.6104 11.5381 13.5745 11.3232 13.5029C11.1084 13.4313 10.8721 13.3203 10.6143 13.1699L2.20312 8.29297C1.77344 8.03516 1.46549 7.79883 1.2793 7.58398C1.0931 7.36198 1 7.10059 1 6.7998C1 6.50618 1.0931 6.25195 1.2793 6.03711C1.46549 5.8151 1.77344 5.5752 2.20312 5.31738L10.6143 0.44043C10.8721 0.290039 11.1084 0.179036 11.3232 0.107422C11.5381 0.0358073 11.7565 0 11.9785 0C12.1934 0 12.4082 0.0358073 12.623 0.107422C12.8451 0.179036 13.085 0.290039 13.3428 0.44043L21.7432 5.31738C22.18 5.5752 22.4915 5.8151 22.6777 6.03711C22.8639 6.25195 22.957 6.50618 22.957 6.7998C22.957 7.10059 22.8639 7.36198 22.6777 7.58398C22.4915 7.79883 22.18 8.03516 21.7432 8.29297L13.3428 13.1699C13.085 13.3203 12.8451 13.4313 12.623 13.5029C12.4082 13.5745 12.1934 13.6104 11.9785 13.6104ZM11.9785 11.7412C12.1146 11.7412 12.2721 11.6911 12.4512 11.5908L20.626 6.90723C20.6833 6.87858 20.7119 6.84277 20.7119 6.7998C20.7119 6.764 20.6833 6.73177 20.626 6.70312L12.4512 2.01953C12.2721 1.91927 12.1146 1.86914 11.9785 1.86914C11.8353 1.86914 11.6742 1.91927 11.4951 2.01953L3.32031 6.70312C3.27018 6.73177 3.24512 6.764 3.24512 6.7998C3.24512 6.84277 3.27018 6.87858 3.32031 6.90723L11.4951 11.5908C11.6742 11.6911 11.8353 11.7412 11.9785 11.7412Z" fill="white" style="fill:white;fill-opacity:1;"/>
</svg>
