<svg width="24" height="24" viewBox="0 0 24 24" fill="none" xmlns="http://www.w3.org/2000/svg">
<path id="logo-path" d="M17.1133 14.9932L18.8428 13.8438L21.249 15.251C21.6715 15.4945 21.9759 15.7308 22.1621 15.96C22.3483 16.182 22.4414 16.4434 22.4414 16.7441C22.4414 17.0378 22.3483 17.2992 22.1621 17.5283C21.9759 17.7503 21.6715 17.9831 21.249 18.2266L13.332 22.8242C13.0742 22.9746 12.8379 23.0856 12.623 23.1572C12.4082 23.236 12.1969 23.2754 11.9893 23.2754C11.7816 23.2754 11.5703 23.236 11.3555 23.1572C11.1478 23.0856 10.9115 22.9746 10.6465 22.8242L2.72949 18.2266C2.30697 17.9831 2.0026 17.7503 1.81641 17.5283C1.63021 17.2992 1.53711 17.0378 1.53711 16.7441C1.53711 16.4434 1.63021 16.182 1.81641 15.96C2.0026 15.7308 2.30697 15.4945 2.72949 15.251L5.28613 13.7686L7.12305 14.8428L3.96484 16.6367C3.91471 16.6654 3.88965 16.7012 3.88965 16.7441C3.88965 16.7799 3.91471 16.8122 3.96484 16.8408L11.5596 21.1807C11.7243 21.2666 11.8675 21.3096 11.9893 21.3096C12.1182 21.3096 12.265 21.2666 12.4297 21.1807L20.0244 16.8408C20.0745 16.8122 20.0996 16.7799 20.0996 16.7441C20.0996 16.7012 20.0745 16.6654 20.0244 16.6367L17.1133 14.9932ZM16.9092 10.1592L18.6602 9.02051L21.249 10.5352C21.6715 10.7786 21.9759 11.015 22.1621 11.2441C22.3483 11.4661 22.4414 11.7275 22.4414 12.0283C22.4414 12.3291 22.3483 12.5905 22.1621 12.8125C21.9759 13.0345 21.6715 13.2708 21.249 13.5215L13.332 18.1191C13.0742 18.2624 12.8379 18.3734 12.623 18.4521C12.4082 18.5238 12.1969 18.5596 11.9893 18.5596C11.7816 18.5596 11.5703 18.5238 11.3555 18.4521C11.1478 18.3734 10.9115 18.2624 10.6465 18.1191L2.72949 13.5215C2.30697 13.2708 2.0026 13.0345 1.81641 12.8125C1.63021 12.5905 1.53711 12.3291 1.53711 12.0283C1.53711 11.7275 1.63021 11.4661 1.81641 11.2441C2.0026 11.015 2.30697 10.7786 2.72949 10.5352L5.5332 8.91309L7.30566 10.0195L3.96484 11.9209C3.91471 11.9495 3.88965 11.9854 3.88965 12.0283C3.88965 12.0641 3.91471 12.0964 3.96484 12.125L11.5596 16.4648C11.7243 16.5508 11.8675 16.5938 11.9893 16.5938C12.1182 16.5938 12.265 16.5508 12.4297 16.4648L20.0244 12.125C20.0745 12.0964 20.0996 12.0641 20.0996 12.0283C20.0996 11.9854 20.0745 11.9495 20.0244 11.9209L16.9092 10.1592ZM11.9893 13.543C11.7816 13.543 11.5703 13.5072 11.3555 13.4355C11.1478 13.3639 10.9115 13.2529 10.6465 13.1025L2.72949 8.50488C2.30697 8.25423 2.0026 8.0179 1.81641 7.7959C1.63021 7.57389 1.53711 7.3125 1.53711 7.01172C1.53711 6.70378 1.63021 6.4388 1.81641 6.2168C2.0026 5.99479 2.30697 5.75846 2.72949 5.50781L10.6465 0.910156C10.9115 0.759766 11.1478 0.652344 11.3555 0.587891C11.5703 0.516276 11.7816 0.480469 11.9893 0.480469C12.1969 0.480469 12.4082 0.516276 12.623 0.587891C12.8379 0.652344 13.0742 0.759766 13.332 0.910156L21.249 5.50781C21.6715 5.75846 21.9759 5.99479 22.1621 6.2168C22.3483 6.4388 22.4414 6.70378 22.4414 7.01172C22.4414 7.3125 22.3483 7.57389 22.1621 7.7959C21.9759 8.0179 21.6715 8.25423 21.249 8.50488L13.332 13.1025C13.0742 13.2529 12.8379 13.3639 12.623 13.4355C12.4082 13.5072 12.1969 13.543 11.9893 13.543ZM11.9893 11.5771C12.1182 11.5771 12.265 11.5306 12.4297 11.4375L20.0244 7.09766C20.0745 7.07617 20.0996 7.04753 20.0996 7.01172C20.0996 6.96875 20.0745 6.93652 20.0244 6.91504L12.4297 2.5752C12.265 2.4821 12.1182 2.43555 11.9893 2.43555C11.8675 2.43555 11.7243 2.4821 11.5596 2.5752L3.96484 6.91504C3.91471 6.93652 3.88965 6.96875 3.88965 7.01172C3.88965 7.04753 3.91471 7.07617 3.96484 7.09766L11.5596 11.4375C11.7243 11.5306 11.8675 11.5771 11.9893 11.5771Z"
        fill="#f3f5f7" style="fill:#f3f5f7;fill-opacity:1;" />
</svg>