<svg width="48" height="48" viewBox="0 0 48 48" fill="none" xmlns="http://www.w3.org/2000/svg">
<path d="M19.7227 16.0596V14.7559H28.2773V16.0596H27.9258C27.6914 16.0596 27.5742 16.1719 27.5742 16.3965V16.6016C27.5742 16.8848 27.4863 17.1191 27.3105 17.3047C27.1445 17.4902 26.915 17.583 26.6221 17.583H21.3779C21.085 17.583 20.8457 17.4902 20.6602 17.3047C20.4844 17.1191 20.3965 16.8848 20.3965 16.6016V16.3965C20.3965 16.1719 20.2939 16.0596 20.0889 16.0596H19.7227ZM3.78516 34.7656C3.78516 34.3066 3.94629 33.916 4.26855 33.5938C4.60059 33.2617 4.99609 33.0957 5.45508 33.0957H8.42871V16.7041C8.42871 15.6787 8.71191 14.9023 9.27832 14.375C9.84473 13.8379 10.6113 13.5693 11.5781 13.5693H36.3926C37.418 13.5693 38.1992 13.8379 38.7363 14.375C39.2734 14.9023 39.542 15.6787 39.542 16.7041V33.0957H42.5303C42.9893 33.0957 43.3799 33.2617 43.7021 33.5938C44.0244 33.916 44.1855 34.3066 44.1855 34.7656C44.1855 35.2344 44.0244 35.6299 43.7021 35.9521C43.3799 36.2842 42.9893 36.4502 42.5303 36.4502H5.45508C4.99609 36.4502 4.60059 36.2842 4.26855 35.9521C3.94629 35.6299 3.78516 35.2344 3.78516 34.7656ZM10.9189 33.0957H37.0518V17.3779C37.0518 16.499 36.6172 16.0596 35.748 16.0596H12.252C11.3633 16.0596 10.9189 16.499 10.9189 17.3779V33.0957Z" fill="#F3F5F7" style="fill:#F3F5F7;fill:color(display-p3 0.9529 0.9608 0.9686);fill-opacity:1;"/>
</svg>
