<svg fill="none" height="64" viewBox="0 0 209 64" width="209" xmlns="http://www.w3.org/2000/svg"><g fill="#fff"><path d="m4.65625 55v-32.875h6.81255v5.0938h.125c.7083-1.7292 1.8645-3.1146 3.4687-4.1563s3.4792-1.5625 5.625-1.5625c1.5 0 2.8542.25 4.0625.75 1.2292.5 2.2812 1.2396 3.1562 2.2188.875.9583 1.5209 2.125 1.9376 3.5h.1562c.5625-1.3334 1.3438-2.4792 2.3438-3.4376 1.0208-.9791 2.1979-1.7291 3.5312-2.25 1.3542-.5208 2.8125-.7812 4.375-.7812 2.1667 0 4.0521.4583 5.6562 1.375 1.6042.8958 2.8542 2.1562 3.75 3.7812.8959 1.625 1.3438 3.5313 1.3438 5.7188v22.625h-6.8125v-20.9688c0-1.4374-.25-2.6562-.75-3.6562-.4792-1-1.1875-1.7604-2.125-2.2812-.9167-.5209-2.0521-.7813-3.4063-.7813-1.3333 0-2.5104.3021-3.5312.9063-1 .6041-1.7917 1.4479-2.375 2.5312-.5625 1.0833-.8438 2.3125-.8438 3.6875v20.5625h-6.6562v-21.4688c0-1.2708-.2604-2.3645-.7812-3.2812-.5-.9375-1.2084-1.6562-2.125-2.1562-.9167-.5209-2.0209-.7813-3.3126-.7813-1.3124 0-2.4895.3229-3.5312.9687-1.0208.625-1.8229 1.4896-2.4062 2.5938-.5834 1.1042-.875 2.375-.875 3.8125v20.3125z"/><path d="m67.1562 55.5938c-2.1874 0-4.1041-.4167-5.75-1.25-1.6458-.8334-2.927-2-3.8437-3.5s-1.375-3.2292-1.375-5.1876v-.0624c0-1.9167.4792-3.5626 1.4375-4.9376.9583-1.3958 2.3438-2.5 4.1562-3.3124 1.8334-.8126 4.0417-1.2917 6.625-1.4376l12.4376-.75v4.75l-11.5313.7188c-2.0208.125-3.5833.6146-4.6875 1.4688-1.0833.8333-1.625 1.9479-1.625 3.3437v.0625c0 1.4375.5417 2.5729 1.625 3.4062 1.1042.8334 2.5625 1.25 4.375 1.25 1.5833 0 3-.3229 4.25-.9687 1.2708-.6458 2.2708-1.5313 3-2.6563.7292-1.1458 1.0938-2.427 1.0938-3.8437v-9.7813c0-1.8124-.5626-3.2291-1.6876-4.25-1.125-1.0416-2.7395-1.5624-4.8437-1.5624-1.9375 0-3.5.4166-4.6875 1.25-1.1667.8333-1.8958 1.9062-2.1875 3.2187l-.0625.2813h-6.375l.0312-.3438c.1667-1.8958.8021-3.5938 1.9063-5.0938 1.1042-1.5208 2.6354-2.7187 4.5937-3.5937 1.9584-.875 4.2813-1.3125 6.9688-1.3125s5.0104.4479 6.9688 1.3438c1.9583.8958 3.4791 2.1562 4.5624 3.7812 1.0834 1.625 1.625 3.5312 1.625 5.7188v22.6562h-6.8124v-5.1875h-.125c-.6459 1.1875-1.4792 2.2187-2.5 3.0937-1.0209.8542-2.1771 1.5209-3.4688 2-1.2708.4584-2.6354.6876-4.0938.6876z"/><path d="m104.812 55.6562c-3.187 0-5.9578-.6979-8.312-2.0937-2.3333-1.3958-4.1354-3.375-5.4062-5.9375-1.25-2.5625-1.875-5.5938-1.875-9.0938v-.0312c0-3.4792.6354-6.4896 1.9062-9.0312 1.2917-2.5417 3.1042-4.5 5.4375-5.875 2.3333-1.3959 5.0625-2.0938 8.1875-2.0938 2.812 0 5.24.5417 7.281 1.625 2.063 1.0625 3.677 2.4792 4.844 4.25s1.844 3.6875 2.031 5.75l.032.25h-6.469l-.063-.2812c-.354-1.6042-1.166-2.9896-2.437-4.1563-1.25-1.1875-2.979-1.7813-5.188-1.7813-1.729 0-3.25.4688-4.562 1.4063-1.2919.9167-2.3023 2.2292-3.0315 3.9375-.7083 1.7083-1.0625 3.7292-1.0625 6.0625v.0313c0 2.3958.3646 4.4479 1.0938 6.1562.7291 1.6875 1.7395 2.9792 3.0312 3.875 1.312.8958 2.844 1.3438 4.594 1.3438 2.083 0 3.76-.5417 5.031-1.625 1.292-1.1042 2.146-2.5417 2.563-4.3126l.031-.25h6.5v.2188c-.25 2.1875-1 4.1667-2.25 5.9375-1.229 1.75-2.865 3.1458-4.907 4.1875-2.02 1.0208-4.354 1.5312-7 1.5312z"/><path d="m144.156 55.75c-4.354 0-8.114-.9375-11.281-2.8125-3.167-1.8958-5.604-4.5833-7.313-8.0625-1.708-3.5-2.562-7.6354-2.562-12.4062v-.0626c0-4.7708.854-8.8958 2.562-12.375 1.73-3.4791 4.178-6.1562 7.344-8.0312 3.167-1.8958 6.917-2.84375 11.25-2.84375 4.313 0 8.052.94795 11.219 2.84375s5.604 4.5833 7.313 8.0625c1.708 3.4583 2.562 7.5729 2.562 12.3437v.0626c0 4.7708-.854 8.8958-2.562 12.375-1.709 3.4791-4.146 6.1666-7.313 8.0624-3.146 1.8959-6.885 2.8438-11.219 2.8438zm0-6.2188c2.875 0 5.354-.6979 7.438-2.0937 2.083-1.3958 3.687-3.375 4.812-5.9375s1.688-5.5729 1.688-9.0312v-.0626c0-3.4791-.573-6.4895-1.719-9.0312-1.125-2.5625-2.74-4.5312-4.844-5.9062-2.083-1.3959-4.541-2.0938-7.375-2.0938-2.854 0-5.333.6875-7.437 2.0625-2.084 1.375-3.698 3.3437-4.844 5.9063-1.146 2.5416-1.719 5.5624-1.719 9.0624v.0626c0 3.4791.573 6.5 1.719 9.0624 1.146 2.5626 2.76 4.5417 4.844 5.9376 2.083 1.375 4.562 2.0624 7.437 2.0624z"/><path d="m187.312 55.75c-3.374 0-6.333-.5104-8.874-1.5312-2.521-1.0209-4.521-2.4792-6-4.375-1.48-1.9167-2.313-4.198-2.5-6.8438l-.032-.4688h6.844l.062.4063c.209 1.375.782 2.5729 1.719 3.5937.959 1 2.209 1.7709 3.75 2.3126 1.542.5416 3.313.8124 5.313.8124 2.021 0 3.76-.2812 5.218-.8437 1.459-.5625 2.584-1.3646 3.376-2.4063.812-1.0416 1.218-2.2604 1.218-3.6562v-.0312c0-1.8126-.656-3.25-1.968-4.3126-1.292-1.0833-3.438-1.9479-6.438-2.5937l-4.906-1.0313c-4.417-.9374-7.709-2.4374-9.875-4.5-2.167-2.0833-3.25-4.7916-3.25-8.125v-.0312c.021-2.5625.729-4.8125 2.125-6.75 1.396-1.9583 3.323-3.4792 5.781-4.5625 2.458-1.10417 5.281-1.65625 8.469-1.65625 3.125 0 5.885.53125 8.281 1.59375s4.292 2.5521 5.687 4.4688c1.396 1.8958 2.178 4.1145 2.344 6.6562l.032.5h-6.844l-.063-.4062c-.187-1.4167-.708-2.625-1.562-3.625-.834-1-1.927-1.7605-3.281-2.2813-1.355-.5417-2.928-.8125-4.719-.8125-1.854 0-3.469.2812-4.844.8438-1.375.5416-2.437 1.302-3.187 2.2812s-1.126 2.1354-1.126 3.4688v.0312c0 1.6875.667 3.0625 2 4.125 1.334 1.0625 3.407 1.8958 6.219 2.5l4.907 1.0625c3.104.6458 5.635 1.5208 7.593 2.625 1.959 1.1042 3.407 2.4792 4.344 4.125s1.406 3.6354 1.406 5.9687v.0313c0 2.75-.698 5.1354-2.093 7.1563-1.376 2-3.355 3.552-5.938 4.6562-2.562 1.0833-5.625 1.625-9.188 1.625z"/></g></svg>