<svg width="20" height="20" viewBox="0 0 20 20" fill="none" xmlns="http://www.w3.org/2000/svg">
<path d="M17.25 8.51H11.5V2.75C11.5 2.35218 11.342 1.97064 11.0607 1.68934C10.7794 1.40804 10.3978 1.25 10 1.25C9.60218 1.25 9.22064 1.40804 8.93934 1.68934C8.65804 1.97064 8.5 2.35218 8.5 2.75V8.5H2.75C2.35218 8.5 1.97064 8.65804 1.68934 8.93934C1.40804 9.22064 1.25 9.60218 1.25 10C1.25 10.3978 1.40804 10.7794 1.68934 11.0607C1.97064 11.342 2.35218 11.5 2.75 11.5H8.5V17.25C8.5 17.6478 8.65804 18.0294 8.93934 18.3107C9.22064 18.592 9.60218 18.75 10 18.75C10.3978 18.75 10.7794 18.592 11.0607 18.3107C11.342 18.0294 11.5 17.6478 11.5 17.25V11.5H17.25C17.6478 11.5 18.0294 11.342 18.3107 11.0607C18.592 10.7794 18.75 10.3978 18.75 10C18.75 9.60218 18.592 9.22064 18.3107 8.93934C18.0294 8.65804 17.6478 8.5 17.25 8.5V8.51Z" fill="#888888" style="fill:#888888;fill:color(display-p3 0.5333 0.5333 0.5333);fill-opacity:1;"/>
</svg>
