<svg width="20" height="20" viewBox="0 0 20 20" fill="none" xmlns="http://www.w3.org/2000/svg">
<path d="M1.73828 9.94922C1.73828 9.60417 1.86198 9.30794 2.10938 9.06055C2.35677 8.81315 2.65299 8.68945 2.99805 8.68945H8.75V2.94727C8.75 2.60221 8.87044 2.30599 9.11133 2.05859C9.35221 1.8112 9.64844 1.6875 10 1.6875C10.3451 1.6875 10.6413 1.8112 10.8887 2.05859C11.1361 2.30599 11.2598 2.60221 11.2598 2.94727V8.68945H17.0117C17.3503 8.68945 17.6432 8.81315 17.8906 9.06055C18.138 9.30794 18.2617 9.60417 18.2617 9.94922C18.2617 10.3008 18.138 10.6003 17.8906 10.8477C17.6432 11.0885 17.3503 11.209 17.0117 11.209H11.2598V16.9609C11.2598 17.2995 11.1361 17.5924 10.8887 17.8398C10.6413 18.0872 10.3451 18.2109 10 18.2109C9.64844 18.2109 9.35221 18.0872 9.11133 17.8398C8.87044 17.5924 8.75 17.2995 8.75 16.9609V11.209H2.99805C2.65299 11.209 2.35677 11.0885 2.10938 10.8477C1.86198 10.6003 1.73828 10.3008 1.73828 9.94922Z" fill="#AAAAAA" style="fill:#AAAAAA;fill:color(display-p3 0.6667 0.6667 0.6667);fill-opacity:1;"/>
</svg>
