<svg width="20" height="20" viewBox="0 0 20 20" fill="none" xmlns="http://www.w3.org/2000/svg">
<path d="M1.94336 9.94922C1.94336 9.70833 2.02799 9.50326 2.19727 9.33398C2.37305 9.1582 2.57812 9.07031 2.8125 9.07031H9.13086V2.76172C9.13086 2.52734 9.21549 2.32552 9.38477 2.15625C9.55404 1.98047 9.75911 1.89258 10 1.89258C10.2409 1.89258 10.446 1.98047 10.6152 2.15625C10.791 2.32552 10.8789 2.52734 10.8789 2.76172V9.07031H17.1875C17.4219 9.07031 17.6237 9.1582 17.793 9.33398C17.9688 9.50326 18.0566 9.70833 18.0566 9.94922C18.0566 10.1901 17.9688 10.3952 17.793 10.5645C17.6237 10.7337 17.4219 10.8184 17.1875 10.8184H10.8789V17.1367C10.8789 17.3711 10.791 17.5729 10.6152 17.7422C10.446 17.918 10.2409 18.0059 10 18.0059C9.75911 18.0059 9.55404 17.918 9.38477 17.7422C9.21549 17.5729 9.13086 17.3711 9.13086 17.1367V10.8184H2.8125C2.57812 10.8184 2.37305 10.7337 2.19727 10.5645C2.02799 10.3952 1.94336 10.1901 1.94336 9.94922Z" fill="#AAAAAA" style="fill:#AAAAAA;fill:color(display-p3 0.6667 0.6667 0.6667);fill-opacity:1;"/>
</svg>
