<?xml version="1.0" encoding="utf-8"?>
<!-- Generator: Adobe Illustrator 25.4.1, SVG Export Plug-In . SVG Version: 6.00 Build 0)  -->
<svg version="1.1" id="Layer_1" xmlns="http://www.w3.org/2000/svg" xmlns:xlink="http://www.w3.org/1999/xlink" x="0px" y="0px"
	 viewBox="0 0 64 64" style="enable-background:new 0 0 64 64;" xml:space="preserve">
<g id="Light-M" transform="matrix(1 0 0 1 1085.58 1126)">
	<path fill="#fff" d="M-1037.3-1064.3c1.5,0,2.8-0.2,4.2-0.7c1.3-0.5,2.5-1.2,3.5-2.1c1-0.9,1.7-2,2.3-3.2h0.1v4.4c0,0.5,0.2,0.9,0.5,1.2
		s0.7,0.5,1.2,0.5c0.5,0,0.9-0.2,1.2-0.5c0.3-0.3,0.5-0.7,0.5-1.3v-17.9c0-1.9-0.4-3.6-1.3-5c-0.9-1.4-2.1-2.5-3.7-3.3
		c-1.6-0.8-3.5-1.2-5.6-1.2c-2.6,0-4.8,0.5-6.6,1.6c-1.9,1.1-3.2,2.5-3.9,4.4c-0.1,0.3-0.2,0.6-0.3,0.9c-0.1,0.3-0.1,0.6-0.1,0.8
		c0,0.4,0.1,0.8,0.4,1.1s0.7,0.4,1.1,0.4c0.3,0,0.6-0.1,0.9-0.2c0.2-0.1,0.4-0.4,0.6-0.7c0.6-1.7,1.6-3.1,2.9-4
		c1.3-0.9,2.9-1.4,4.9-1.4c2.3,0,4.1,0.6,5.3,1.9c1.3,1.2,1.9,2.9,1.9,5v2.4l-9.1,0.6c-3.3,0.2-5.9,1-7.6,2.5s-2.6,3.4-2.6,5.8
		c0,1.6,0.4,3.1,1.2,4.3c0.8,1.2,1.9,2.2,3.3,2.9C-1040.8-1064.7-1039.1-1064.3-1037.3-1064.3z M-1036.6-1067.2
		c-2,0-3.6-0.5-4.8-1.5c-1.2-1-1.9-2.3-1.9-4c0-1.6,0.6-2.8,1.8-3.8s3-1.6,5.4-1.7l8.7-0.6v3.5c0,1.5-0.4,2.9-1.2,4.1
		c-0.8,1.2-1.9,2.2-3.3,2.9C-1033.3-1067.5-1034.9-1067.2-1036.6-1067.2z M-1081.5-1064.3c0.5,0,0.9-0.1,1.2-0.3
		c0.3-0.2,0.5-0.6,0.7-1.2l4-10.5h16.3l4,10.5c0.2,0.6,0.4,1,0.7,1.2c0.3,0.2,0.7,0.3,1.2,0.3c0.5,0,0.9-0.1,1.3-0.4
		c0.3-0.3,0.5-0.7,0.5-1.2c0-0.3-0.1-0.7-0.2-1.1l-13-34.2c-0.2-0.6-0.6-1-1-1.3c-0.4-0.3-0.9-0.5-1.5-0.5c-1.2,0-2,0.6-2.5,1.8
		l-13,34.2c-0.2,0.4-0.2,0.8-0.2,1.1c0,0.5,0.1,0.9,0.4,1.2S-1082-1064.3-1081.5-1064.3z M-1074.6-1079.5l7.1-19h0.1l7.1,19H-1074.6
		z"/>
</g>
</svg>
